<svg xmlns="http://www.w3.org/2000/svg" viewBox="0 0 500 500"><g id="freepik--Floor--inject-2"><ellipse id="freepik--floor--inject-2" cx="250" cy="352.11" rx="246.07" ry="142.07" style="fill:#fafafa"></ellipse></g><g id="freepik--Shadows--inject-2"><path id="freepik--Shadow--inject-2" d="M359.29,332.49l86-49.67a1.12,1.12,0,0,0,0-2.12L331.69,215.09a4.11,4.11,0,0,0-3.68,0l-86,49.67a1.12,1.12,0,0,0,0,2.13l113.63,65.6A4,4,0,0,0,359.29,332.49Z" style="fill:#e0e0e0"></path><path id="freepik--shadow--inject-2" d="M286.64,409.91a134.37,134.37,0,0,1,28.88,14.29c10.12,6.62,19.38,14.63,30.16,20.13,14,7.15,30.07,9.71,45.77,8.94,8.9-.44,18.57-2.37,24.24-9.24a10.14,10.14,0,0,0,2.62-6.17c0-3.35-2.32-6.22-4.75-8.52-13-12.27-31.06-17.29-48.49-21.21s-27.89-8.84-45-17.71c-7.33-3.8-14.55-7.88-21.94-11.46l-.18-.08a114.27,114.27,0,0,0-11.22-5.22,87.28,87.28,0,0,0-19.41-5,39.85,39.85,0,0,0-19.72,2.36,8.9,8.9,0,0,0-4.14,3,7.17,7.17,0,0,0-1,4.19,15,15,0,0,0,3.08,8.22,32.73,32.73,0,0,0,6.34,6.21C262.07,400.64,274.52,405.63,286.64,409.91Z" style="fill:#e0e0e0"></path><path id="freepik--shadow--inject-2" d="M83.59,436.77,28.7,405.09c-1.63-.94-1.63-2.46,0-3.4L191.32,307.8a6.5,6.5,0,0,1,5.89,0l54.9,31.68c1.62.94,1.62,2.46,0,3.4L89.48,436.77A6.5,6.5,0,0,1,83.59,436.77Z" style="fill:#e0e0e0"></path></g><g id="freepik--Gears--inject-2"><g id="freepik--Gear--inject-2"><path d="M232.54,413.24a1.24,1.24,0,0,1-.73,1l-6.43,3.33a1.8,1.8,0,0,0-.77,2.38,13.58,13.58,0,0,1,.64,1.74,2.86,2.86,0,0,0,2.09,2L229,424l2.76-1.43a1.22,1.22,0,0,0,.72-1h0Zm-50.09,3c-7.48,3.11-10.16,8.71-7,13.39a15.28,15.28,0,0,1,6.85-5.07c8.68-3.61,20.52-2.5,26.45,2.48a11.94,11.94,0,0,1,2,2.13c2.33-3.37,1.82-7.29-1.92-10.44C203,413.78,191.12,412.67,182.45,416.27Zm54.81,10.37a2.13,2.13,0,0,1-.09.48l-1.43,4.49a2.53,2.53,0,0,1-2.31,1.67l-9.11-.27a3.46,3.46,0,0,0-1.42.3,4.83,4.83,0,0,0-1.54,1,20.39,20.39,0,0,1-2.2,2,1.58,1.58,0,0,0-.25,2.36L222,442a3.91,3.91,0,0,1,.79-.4h0a3.58,3.58,0,0,1,1.41-.3l9.11.26a2.48,2.48,0,0,0,2.31-1.66l1.43-4.48a1.57,1.57,0,0,0,.07-.51h0Zm-73.87-11.17h0a1.26,1.26,0,0,0,.38.9l.45.5a3.92,3.92,0,0,0,.76-.59,21.29,21.29,0,0,1,2.2-2,1.57,1.57,0,0,0,.25-2.36l-3.57-3.86a1.29,1.29,0,0,1-.37-.71Zm59.48,27.95a1.21,1.21,0,0,1-.84,1.09l-8,3.32A3.56,3.56,0,0,1,212,448a2.55,2.55,0,0,1-1-.41L205.6,444a4.91,4.91,0,0,0-3.21-.62c-1.7.32-3.43.55-5.16.71a3.44,3.44,0,0,0-1.74.75,2.72,2.72,0,0,0-.85,1l-2,3.94a2.79,2.79,0,0,1-1.47,1.27,2.46,2.46,0,0,1-1.12.17l-9.94-.93a1.72,1.72,0,0,1-1.52-2l.51-3.83a2.17,2.17,0,0,0-1.47-2.27,37.3,37.3,0,0,1-4.13-1.49,5.39,5.39,0,0,0-3.3-.18l-.08,0-7.69,2.52a3.43,3.43,0,0,1-1.93,0,3,3,0,0,1-1.12-.56l-5-4.22a1.28,1.28,0,0,1-.49-.87l-.1,8.27a1.3,1.3,0,0,0,.49.9l5,4.24a3.42,3.42,0,0,0,2.11.69,1.7,1.7,0,0,0,.45,0h.07a2.59,2.59,0,0,0,.42-.09l7.69-2.53.09,0a5.29,5.29,0,0,1,3.29.19,41.88,41.88,0,0,0,4.13,1.5,2.13,2.13,0,0,1,1,.71l-.07,5.64a1.69,1.69,0,0,0,1.54,1.69l9.93.94a2.56,2.56,0,0,0,1.12-.18,3,3,0,0,0,.66-.36,1.76,1.76,0,0,0,.3-.24l0,0a1.71,1.71,0,0,0,.22-.25,1.61,1.61,0,0,0,.21-.3l.06-.09,2-3.93a2,2,0,0,1,.22-.34,1.3,1.3,0,0,1,.19-.22,3.13,3.13,0,0,1,.45-.44,3.42,3.42,0,0,1,1.74-.74c1.73-.16,3.46-.39,5.16-.71a4.92,4.92,0,0,1,3.21.61l5.32,3.55a3,3,0,0,0,1,.38h0l.26.05a4.16,4.16,0,0,0,1.22,0,1.22,1.22,0,0,0,.26-.06,1.29,1.29,0,0,0,.35-.1l8-3.34a1.36,1.36,0,0,0,.7-.57,1.14,1.14,0,0,0,.14-.5Zm-72.49-18A1.46,1.46,0,0,1,149.1,424l-.09,8.33h0a1.47,1.47,0,0,0,1.27,1.45l7,1.13L161,433a1.81,1.81,0,0,0,.76-2.39,10.65,10.65,0,0,1-.64-1.73,3,3,0,0,0-2.09-2Z" style="fill:#e6e6e6"></path><path d="M232.54,413.24a1.24,1.24,0,0,1-.73,1l-6.43,3.33a1.8,1.8,0,0,0-.77,2.38,13.58,13.58,0,0,1,.64,1.74,2.86,2.86,0,0,0,2.09,2L229,424l2.76-1.43a1.22,1.22,0,0,0,.72-1h0Zm-50.09,3c-7.48,3.11-10.16,8.71-7,13.39a15.28,15.28,0,0,1,6.85-5.07c8.68-3.61,20.52-2.5,26.45,2.48a11.94,11.94,0,0,1,2,2.13c2.33-3.37,1.82-7.29-1.92-10.44C203,413.78,191.12,412.67,182.45,416.27Zm54.81,10.37a2.13,2.13,0,0,1-.09.48l-1.43,4.49a2.53,2.53,0,0,1-2.31,1.67l-9.11-.27a3.46,3.46,0,0,0-1.42.3,4.83,4.83,0,0,0-1.54,1,20.39,20.39,0,0,1-2.2,2,1.58,1.58,0,0,0-.25,2.36L222,442a3.91,3.91,0,0,1,.79-.4h0a3.58,3.58,0,0,1,1.41-.3l9.11.26a2.48,2.48,0,0,0,2.31-1.66l1.43-4.48a1.57,1.57,0,0,0,.07-.51h0Zm-73.87-11.17h0a1.26,1.26,0,0,0,.38.9l.45.5a3.92,3.92,0,0,0,.76-.59,21.29,21.29,0,0,1,2.2-2,1.57,1.57,0,0,0,.25-2.36l-3.57-3.86a1.29,1.29,0,0,1-.37-.71Zm59.48,27.95a1.21,1.21,0,0,1-.84,1.09l-8,3.32A3.56,3.56,0,0,1,212,448a2.55,2.55,0,0,1-1-.41L205.6,444a4.91,4.91,0,0,0-3.21-.62c-1.7.32-3.43.55-5.16.71a3.44,3.44,0,0,0-1.74.75,2.72,2.72,0,0,0-.85,1l-2,3.94a2.79,2.79,0,0,1-1.47,1.27,2.46,2.46,0,0,1-1.12.17l-9.94-.93a1.72,1.72,0,0,1-1.52-2l.51-3.83a2.17,2.17,0,0,0-1.47-2.27,37.3,37.3,0,0,1-4.13-1.49,5.39,5.39,0,0,0-3.3-.18l-.08,0-7.69,2.52a3.43,3.43,0,0,1-1.93,0,3,3,0,0,1-1.12-.56l-5-4.22a1.28,1.28,0,0,1-.49-.87l-.1,8.27a1.3,1.3,0,0,0,.49.9l5,4.24a3.42,3.42,0,0,0,2.11.69,1.7,1.7,0,0,0,.45,0h.07a2.59,2.59,0,0,0,.42-.09l7.69-2.53.09,0a5.29,5.29,0,0,1,3.29.19,41.88,41.88,0,0,0,4.13,1.5,2.13,2.13,0,0,1,1,.71l-.07,5.64a1.69,1.69,0,0,0,1.54,1.69l9.93.94a2.56,2.56,0,0,0,1.12-.18,3,3,0,0,0,.66-.36,1.76,1.76,0,0,0,.3-.24l0,0a1.71,1.71,0,0,0,.22-.25,1.61,1.61,0,0,0,.21-.3l.06-.09,2-3.93a2,2,0,0,1,.22-.34,1.3,1.3,0,0,1,.19-.22,3.13,3.13,0,0,1,.45-.44,3.42,3.42,0,0,1,1.74-.74c1.73-.16,3.46-.39,5.16-.71a4.92,4.92,0,0,1,3.21.61l5.32,3.55a3,3,0,0,0,1,.38h0l.26.05a4.16,4.16,0,0,0,1.22,0,1.22,1.22,0,0,0,.26-.06,1.29,1.29,0,0,0,.35-.1l8-3.34a1.36,1.36,0,0,0,.7-.57,1.14,1.14,0,0,0,.14-.5Zm-72.49-18A1.46,1.46,0,0,1,149.1,424l-.09,8.33h0a1.47,1.47,0,0,0,1.27,1.45l7,1.13L161,433a1.81,1.81,0,0,0,.76-2.39,10.65,10.65,0,0,1-.64-1.73,3,3,0,0,0-2.09-2Z" style="opacity:0.1"></path><path d="M170.08,440.58l-7.69,2.52a3.43,3.43,0,0,1-1.93,0l-.11,8.29a5,5,0,0,0,1,.16,1.7,1.7,0,0,0,.45,0h.07a2.59,2.59,0,0,0,.42-.09l7.69-2.53Z" style="fill:#e0e0e0"></path><path d="M195.49,444.85a2.72,2.72,0,0,0-.85,1l-2,3.94a2.79,2.79,0,0,1-1.47,1.27l-.1,8.3a3,3,0,0,0,.66-.36,1.76,1.76,0,0,0,.3-.24l0,0a1.71,1.71,0,0,0,.22-.25,1.61,1.61,0,0,0,.21-.3l.06-.09,2-3.93a2.52,2.52,0,0,1,.41-.56,3.54,3.54,0,0,1,.45-.41v0Z" style="fill:#e0e0e0"></path><path d="M232.55,413.24a1.2,1.2,0,0,1-.75,1l-6.42,3.32a1.8,1.8,0,0,0-.76,2.39,11.73,11.73,0,0,1,.63,1.74,2.88,2.88,0,0,0,2.09,2l1.6.26,2.76-1.43a1.18,1.18,0,0,0,.73-1h0Z" style="fill:#e0e0e0"></path><path d="M237.26,426.64a2.13,2.13,0,0,1-.09.48l-1.43,4.49a2.53,2.53,0,0,1-2.31,1.67l-9.11-.27a3.46,3.46,0,0,0-1.42.3l-.09,8.31a3.58,3.58,0,0,1,1.41-.3l9.11.26a2.48,2.48,0,0,0,2.31-1.66l1.43-4.48a1.57,1.57,0,0,0,.07-.51h0Z" style="fill:#e0e0e0"></path><path d="M222.87,443.42a1.21,1.21,0,0,1-.84,1.09l-8,3.32A3.56,3.56,0,0,1,212,448l-.11,8.3.26.05a4.16,4.16,0,0,0,1.22,0,1.22,1.22,0,0,0,.26-.06,1.29,1.29,0,0,0,.35-.1l8-3.34a1.36,1.36,0,0,0,.7-.57,1.14,1.14,0,0,0,.14-.5Z" style="fill:#e0e0e0"></path><path d="M224,407.49,216.2,410a5.32,5.32,0,0,1-3.3-.18,38.66,38.66,0,0,0-4.13-1.5,2.14,2.14,0,0,1-1.46-2.26l.5-3.84a1.71,1.71,0,0,0-1.53-1.95l-9.94-.93a2.81,2.81,0,0,0-2.58,1.44l-2,3.94a3.61,3.61,0,0,1-2.6,1.73c-1.73.15-3.46.39-5.16.71a5,5,0,0,1-3.21-.61L175.45,403a3.74,3.74,0,0,0-3.12-.29l-8,3.33a1.16,1.16,0,0,0-.45,2l3.57,3.86a1.58,1.58,0,0,1-.25,2.36,22.67,22.67,0,0,0-2.21,2,4.5,4.5,0,0,1-3,1.31l-9.09-.26a2.51,2.51,0,0,0-2.32,1.66l-1.43,4.48a1.49,1.49,0,0,0,1.19,2l8.64,1.4a2.88,2.88,0,0,1,2.09,2,12.16,12.16,0,0,0,.63,1.74A1.78,1.78,0,0,1,161,433l-6.42,3.33a1.1,1.1,0,0,0-.25,2l5,4.23a3.53,3.53,0,0,0,3,.57l7.78-2.55a5.29,5.29,0,0,1,3.29.18,41.88,41.88,0,0,0,4.13,1.5,2.13,2.13,0,0,1,1.46,2.26l-.5,3.84a1.71,1.71,0,0,0,1.53,1.95l9.94.93a2.83,2.83,0,0,0,2.58-1.44l2-3.94a3.59,3.59,0,0,1,2.6-1.73c1.74-.16,3.46-.39,5.16-.71a5,5,0,0,1,3.21.61l5.31,3.55a3.75,3.75,0,0,0,3.12.28l8-3.32a1.15,1.15,0,0,0,.45-2l-3.56-3.86a1.57,1.57,0,0,1,.25-2.36,22.48,22.48,0,0,0,2.2-2,4.54,4.54,0,0,1,3-1.3l9.09.26a2.5,2.5,0,0,0,2.32-1.66l1.43-4.48a1.49,1.49,0,0,0-1.19-2l-8.64-1.4a2.9,2.9,0,0,1-2.09-2,11.73,11.73,0,0,0-.63-1.74,1.81,1.81,0,0,1,.76-2.39l6.42-3.32a1.1,1.1,0,0,0,.25-2l-5-4.23A3.56,3.56,0,0,0,224,407.49Zm-15.08,11.27c5.92,5,3.7,11.95-5,15.55s-20.51,2.5-26.44-2.49-3.71-11.94,5-15.55S203,413.78,208.89,418.76Z" style="fill:#f5f5f5"></path><path d="M196.16,400.34h.09l9.94.93a.72.72,0,0,1,.5.26.78.78,0,0,1,.15.59l-.5,3.84a3.13,3.13,0,0,0,2.15,3.32,38.19,38.19,0,0,1,4,1.47,6.22,6.22,0,0,0,2.37.44,5.26,5.26,0,0,0,1.61-.23l7.78-2.56a2,2,0,0,1,.58-.08,2.54,2.54,0,0,1,1.53.48l5,4.23a.48.48,0,0,1,.15.17.5.5,0,0,1-.21.17l-6.43,3.33a2.76,2.76,0,0,0-1.2,3.65,10.58,10.58,0,0,1,.58,1.6,3.87,3.87,0,0,0,2.87,2.73l8.64,1.4a.55.55,0,0,1,.39.23.63.63,0,0,1,0,.51l-1.43,4.48a1.55,1.55,0,0,1-1.36,1h0l-9.09-.26h-.1a5.49,5.49,0,0,0-3.59,1.61,23,23,0,0,1-2.11,1.91,2.62,2.62,0,0,0-1,1.89,2.44,2.44,0,0,0,.67,1.89l3.57,3.86a.38.38,0,0,1,.13.23s-.08.12-.24.19l-8,3.33a2.3,2.3,0,0,1-.84.14,2.63,2.63,0,0,1-1.36-.34l-5.31-3.55a5.87,5.87,0,0,0-3.07-.83,4.68,4.68,0,0,0-.86.07c-1.64.31-3.35.55-5.07.7a4.55,4.55,0,0,0-3.37,2.26l-2,3.94a1.92,1.92,0,0,1-1.54.92h-.09l-9.94-.93a.73.73,0,0,1-.5-.27.76.76,0,0,1-.15-.59l.5-3.83a3.11,3.11,0,0,0-2.15-3.32,38.19,38.19,0,0,1-4-1.47,6.18,6.18,0,0,0-2.37-.44,5.3,5.3,0,0,0-1.61.23l-7.77,2.56a2.1,2.1,0,0,1-.59.08,2.6,2.6,0,0,1-1.53-.48l-5-4.23a.65.65,0,0,1-.15-.17.43.43,0,0,1,.22-.17l6.42-3.33a2.76,2.76,0,0,0,1.2-3.65,11.42,11.42,0,0,1-.58-1.6,3.85,3.85,0,0,0-2.87-2.73l-8.64-1.4a.53.53,0,0,1-.39-.24.61.61,0,0,1,0-.5l1.43-4.48a1.55,1.55,0,0,1,1.36-1h0l9.1.26h.09a5.53,5.53,0,0,0,3.6-1.6,21.6,21.6,0,0,1,2.1-1.91,2.69,2.69,0,0,0,1-1.89,2.52,2.52,0,0,0-.68-1.9l-3.57-3.85a.22.22,0,0,1,.12-.42l8-3.33a2.3,2.3,0,0,1,.84-.14,2.63,2.63,0,0,1,1.36.34l5.31,3.55a5.9,5.9,0,0,0,3.07.83,4.61,4.61,0,0,0,.86-.07c1.65-.31,3.35-.55,5.07-.7a4.59,4.59,0,0,0,3.38-2.26l2-3.94a1.92,1.92,0,0,1,1.54-.92h0m-3.48,37.06a30.39,30.39,0,0,0,11.61-2.19c5-2.09,8.24-5.4,8.8-9.08.45-2.91-.82-5.8-3.58-8.11-3.65-3.07-9.42-4.84-15.83-4.84a30.39,30.39,0,0,0-11.61,2.2c-5,2.09-8.23,5.4-8.8,9.07-.45,2.92.82,5.81,3.58,8.12,3.66,3.07,9.43,4.83,15.83,4.83m3.48-38a2.89,2.89,0,0,0-2.4,1.45l-2,3.94a3.61,3.61,0,0,1-2.6,1.73c-1.73.15-3.46.39-5.16.71a3.66,3.66,0,0,1-.68.06,5,5,0,0,1-2.53-.67L175.45,403a3.57,3.57,0,0,0-1.9-.5,3.4,3.4,0,0,0-1.22.21l-8,3.33a1.16,1.16,0,0,0-.45,2l3.57,3.86a1.58,1.58,0,0,1-.25,2.36,22.67,22.67,0,0,0-2.21,2,4.5,4.5,0,0,1-2.89,1.31H162l-9.1-.26h-.05a2.52,2.52,0,0,0-2.27,1.67l-1.43,4.48a1.49,1.49,0,0,0,1.19,2l8.64,1.4a2.88,2.88,0,0,1,2.09,2,12.16,12.16,0,0,0,.63,1.74A1.78,1.78,0,0,1,161,433l-6.42,3.33a1.1,1.1,0,0,0-.25,2l5,4.23a3.53,3.53,0,0,0,2.15.7,2.82,2.82,0,0,0,.89-.13l7.78-2.55a4,4,0,0,1,1.3-.18,5.35,5.35,0,0,1,2,.36,41.88,41.88,0,0,0,4.13,1.5,2.13,2.13,0,0,1,1.46,2.26l-.5,3.84a1.71,1.71,0,0,0,1.53,1.95l9.94.93h.18a2.87,2.87,0,0,0,2.4-1.45l2-3.94a3.59,3.59,0,0,1,2.6-1.73c1.73-.16,3.46-.39,5.16-.71a3.66,3.66,0,0,1,.68-.06,5,5,0,0,1,2.53.67l5.31,3.55a3.57,3.57,0,0,0,1.9.5,3.19,3.19,0,0,0,1.22-.22l8-3.32a1.15,1.15,0,0,0,.45-2l-3.56-3.86a1.57,1.57,0,0,1,.25-2.36,22.48,22.48,0,0,0,2.2-2,4.54,4.54,0,0,1,2.89-1.3h.07l9.09.26h.06a2.51,2.51,0,0,0,2.26-1.66l1.43-4.48a1.49,1.49,0,0,0-1.19-2l-8.64-1.4a2.9,2.9,0,0,1-2.09-2,11.73,11.73,0,0,0-.63-1.74,1.81,1.81,0,0,1,.76-2.39l6.42-3.32a1.1,1.1,0,0,0,.25-2l-5-4.23a3.58,3.58,0,0,0-2.16-.7,2.82,2.82,0,0,0-.89.13L216.2,410a4.46,4.46,0,0,1-1.31.18,5.35,5.35,0,0,1-2-.36,38.66,38.66,0,0,0-4.13-1.5,2.14,2.14,0,0,1-1.46-2.26l.5-3.84a1.71,1.71,0,0,0-1.53-1.95l-9.94-.93Zm-3.48,37.06c-5.89,0-11.62-1.6-15.2-4.61-5.93-5-3.71-11.94,5-15.55a29.78,29.78,0,0,1,11.23-2.11c5.89,0,11.62,1.6,15.21,4.6,5.92,5,3.7,11.95-5,15.55a29.64,29.64,0,0,1-11.24,2.12Z" style="fill:#ebebeb"></path></g><g id="freepik--gear--inject-2"><path d="M472.56,326.29a1.18,1.18,0,0,1-.71,1l-6.17,3.19a1.74,1.74,0,0,0-.74,2.29,12.48,12.48,0,0,1,.61,1.67,2.76,2.76,0,0,0,2,1.95l1.54.25,2.65-1.37a1.16,1.16,0,0,0,.7-1h0Zm-48.12,2.91c-7.18,3-9.76,8.37-6.68,12.86a14.7,14.7,0,0,1,6.58-4.88c8.33-3.46,19.71-2.39,25.4,2.39a11.71,11.71,0,0,1,1.93,2.05c2.24-3.24,1.75-7-1.84-10C444.14,326.81,432.77,325.74,424.44,329.2Zm52.64,10a1.54,1.54,0,0,1-.08.46l-1.37,4.31a2.44,2.44,0,0,1-2.23,1.61l-8.74-.27a3.49,3.49,0,0,0-1.36.3,4.31,4.31,0,0,0-1.48,1,23.31,23.31,0,0,1-2.11,1.92,1.52,1.52,0,0,0-.24,2.27l3,3.22a3.6,3.6,0,0,1,.76-.38h0a3.29,3.29,0,0,1,1.35-.29l8.75.25a2.43,2.43,0,0,0,2.23-1.6l1.36-4.3a1.44,1.44,0,0,0,.08-.49h0Zm-70.94-10.74h0a1.19,1.19,0,0,0,.36.86l.44.48a3.9,3.9,0,0,0,.73-.56,20.76,20.76,0,0,1,2.11-1.93A1.49,1.49,0,0,0,410,325l-3.43-3.7a1.32,1.32,0,0,1-.36-.69Zm57.13,26.86a1.16,1.16,0,0,1-.81,1l-7.68,3.19a3.4,3.4,0,0,1-2,.11,2.56,2.56,0,0,1-1-.38l-5.1-3.4a4.67,4.67,0,0,0-3.08-.59c-1.63.3-3.3.53-5,.68a3.32,3.32,0,0,0-1.67.71,2.93,2.93,0,0,0-.82.95l-1.95,3.79a2.74,2.74,0,0,1-1.42,1.21,2.38,2.38,0,0,1-1.07.17l-9.55-.9A1.64,1.64,0,0,1,420.7,360l.49-3.68a2.09,2.09,0,0,0-1.41-2.18,34.46,34.46,0,0,1-4-1.43,5.13,5.13,0,0,0-3.17-.17l-.08,0L405.18,355a3.37,3.37,0,0,1-1.86,0,2.84,2.84,0,0,1-1.07-.54l-4.83-4.06a1.16,1.16,0,0,1-.47-.83l-.1,8a1.23,1.23,0,0,0,.48.86l4.82,4.07a3.25,3.25,0,0,0,2,.66,1.25,1.25,0,0,0,.43,0h.07a1.37,1.37,0,0,0,.4-.09l7.39-2.43.08,0a5.17,5.17,0,0,1,3.16.18,39.57,39.57,0,0,0,4,1.44,2,2,0,0,1,1,.69l-.07,5.41a1.64,1.64,0,0,0,1.48,1.63l9.54.9a2.72,2.72,0,0,0,1.08-.17,2.91,2.91,0,0,0,.62-.35,2.37,2.37,0,0,0,.3-.23l0,0a2.4,2.4,0,0,0,.22-.24,3,3,0,0,0,.2-.29l.05-.09,1.95-3.77a1.18,1.18,0,0,1,.21-.32,1.24,1.24,0,0,1,.18-.22,2.85,2.85,0,0,1,.43-.42,3.37,3.37,0,0,1,1.68-.72c1.66-.15,3.32-.36,4.95-.67a4.77,4.77,0,0,1,3.08.58l5.11,3.41a2.84,2.84,0,0,0,1,.37h0l.26,0a4.1,4.1,0,0,0,1.16,0,1.19,1.19,0,0,0,.26,0,2.07,2.07,0,0,0,.33-.1l7.69-3.21a1.22,1.22,0,0,0,.66-.55,1,1,0,0,0,.14-.48ZM393.64,338a1.41,1.41,0,0,1-1.22-1.39l-.1,8h0a1.39,1.39,0,0,0,1.21,1.38l6.76,1.09,3.52-1.82a1.74,1.74,0,0,0,.73-2.3,9.49,9.49,0,0,1-.61-1.66,2.8,2.8,0,0,0-2-2Z" style="fill:#e6e6e6"></path><path d="M472.56,326.29a1.18,1.18,0,0,1-.71,1l-6.17,3.19a1.74,1.74,0,0,0-.74,2.29,12.48,12.48,0,0,1,.61,1.67,2.76,2.76,0,0,0,2,1.95l1.54.25,2.65-1.37a1.16,1.16,0,0,0,.7-1h0Zm-48.12,2.91c-7.18,3-9.76,8.37-6.68,12.86a14.7,14.7,0,0,1,6.58-4.88c8.33-3.46,19.71-2.39,25.4,2.39a11.71,11.71,0,0,1,1.93,2.05c2.24-3.24,1.75-7-1.84-10C444.14,326.81,432.77,325.74,424.44,329.2Zm52.64,10a1.54,1.54,0,0,1-.08.46l-1.37,4.31a2.44,2.44,0,0,1-2.23,1.61l-8.74-.27a3.49,3.49,0,0,0-1.36.3,4.31,4.31,0,0,0-1.48,1,23.31,23.31,0,0,1-2.11,1.92,1.52,1.52,0,0,0-.24,2.27l3,3.22a3.6,3.6,0,0,1,.76-.38h0a3.29,3.29,0,0,1,1.35-.29l8.75.25a2.43,2.43,0,0,0,2.23-1.6l1.36-4.3a1.44,1.44,0,0,0,.08-.49h0Zm-70.94-10.74h0a1.19,1.19,0,0,0,.36.86l.44.48a3.9,3.9,0,0,0,.73-.56,20.76,20.76,0,0,1,2.11-1.93A1.49,1.49,0,0,0,410,325l-3.43-3.7a1.32,1.32,0,0,1-.36-.69Zm57.13,26.86a1.16,1.16,0,0,1-.81,1l-7.68,3.19a3.4,3.4,0,0,1-2,.11,2.56,2.56,0,0,1-1-.38l-5.1-3.4a4.67,4.67,0,0,0-3.08-.59c-1.63.3-3.3.53-5,.68a3.32,3.32,0,0,0-1.67.71,2.93,2.93,0,0,0-.82.95l-1.95,3.79a2.74,2.74,0,0,1-1.42,1.21,2.38,2.38,0,0,1-1.07.17l-9.55-.9A1.64,1.64,0,0,1,420.7,360l.49-3.68a2.09,2.09,0,0,0-1.41-2.18,34.46,34.46,0,0,1-4-1.43,5.13,5.13,0,0,0-3.17-.17l-.08,0L405.18,355a3.37,3.37,0,0,1-1.86,0,2.84,2.84,0,0,1-1.07-.54l-4.83-4.06a1.16,1.16,0,0,1-.47-.83l-.1,8a1.23,1.23,0,0,0,.48.86l4.82,4.07a3.25,3.25,0,0,0,2,.66,1.25,1.25,0,0,0,.43,0h.07a1.37,1.37,0,0,0,.4-.09l7.39-2.43.08,0a5.17,5.17,0,0,1,3.16.18,39.57,39.57,0,0,0,4,1.44,2,2,0,0,1,1,.69l-.07,5.41a1.64,1.64,0,0,0,1.48,1.63l9.54.9a2.72,2.72,0,0,0,1.08-.17,2.91,2.91,0,0,0,.62-.35,2.37,2.37,0,0,0,.3-.23l0,0a2.4,2.4,0,0,0,.22-.24,3,3,0,0,0,.2-.29l.05-.09,1.95-3.77a1.18,1.18,0,0,1,.21-.32,1.24,1.24,0,0,1,.18-.22,2.85,2.85,0,0,1,.43-.42,3.37,3.37,0,0,1,1.68-.72c1.66-.15,3.32-.36,4.95-.67a4.77,4.77,0,0,1,3.08.58l5.11,3.41a2.84,2.84,0,0,0,1,.37h0l.26,0a4.1,4.1,0,0,0,1.16,0,1.19,1.19,0,0,0,.26,0,2.07,2.07,0,0,0,.33-.1l7.69-3.21a1.22,1.22,0,0,0,.66-.55,1,1,0,0,0,.14-.48ZM393.64,338a1.41,1.41,0,0,1-1.22-1.39l-.1,8h0a1.39,1.39,0,0,0,1.21,1.38l6.76,1.09,3.52-1.82a1.74,1.74,0,0,0,.73-2.3,9.49,9.49,0,0,1-.61-1.66,2.8,2.8,0,0,0-2-2Z" style="opacity:0.1"></path><path d="M412.56,352.55,405.18,355a3.37,3.37,0,0,1-1.86,0l-.1,8a4,4,0,0,0,1,.15,1.25,1.25,0,0,0,.43,0h.07a1.37,1.37,0,0,0,.4-.09l7.39-2.43Z" style="fill:#e0e0e0"></path><path d="M437,356.64a2.93,2.93,0,0,0-.82.95l-1.95,3.79a2.74,2.74,0,0,1-1.42,1.21l-.09,8a2.91,2.91,0,0,0,.62-.35,2.37,2.37,0,0,0,.3-.23l0,0a2.4,2.4,0,0,0,.22-.24,3,3,0,0,0,.2-.29l.05-.09,1.95-3.77a1.18,1.18,0,0,1,.21-.32,1.92,1.92,0,0,1,.18-.22,4,4,0,0,1,.43-.39v0Z" style="fill:#e0e0e0"></path><path d="M472.56,326.29a1.15,1.15,0,0,1-.71,1l-6.18,3.2a1.72,1.72,0,0,0-.72,2.29,10.89,10.89,0,0,1,.6,1.68,2.74,2.74,0,0,0,2,1.94l1.54.25,2.65-1.37a1.14,1.14,0,0,0,.7-1h0Z" style="fill:#e0e0e0"></path><path d="M477.08,339.16a1.54,1.54,0,0,1-.08.46l-1.37,4.31a2.44,2.44,0,0,1-2.23,1.61l-8.74-.27a3.49,3.49,0,0,0-1.36.3l-.09,8a3.29,3.29,0,0,1,1.35-.29l8.75.25a2.43,2.43,0,0,0,2.23-1.6l1.36-4.3a1.44,1.44,0,0,0,.08-.49h0Z" style="fill:#e0e0e0"></path><path d="M463.27,355.28a1.16,1.16,0,0,1-.81,1l-7.68,3.19a3.4,3.4,0,0,1-2,.11l-.1,8,.26,0a4.1,4.1,0,0,0,1.16,0,1.19,1.19,0,0,0,.26,0,2.07,2.07,0,0,0,.33-.1l7.69-3.21a1.22,1.22,0,0,0,.66-.55,1,1,0,0,0,.14-.48Z" style="fill:#e0e0e0"></path><path d="M464.32,320.76l-7.46,2.45a5.13,5.13,0,0,1-3.17-.17,38.69,38.69,0,0,0-4-1.44,2.05,2.05,0,0,1-1.4-2.17l.48-3.69a1.64,1.64,0,0,0-1.46-1.87l-9.55-.9a2.72,2.72,0,0,0-2.48,1.38l-1.95,3.79a3.44,3.44,0,0,1-2.5,1.66c-1.66.15-3.32.38-5,.69a4.85,4.85,0,0,1-3.08-.59l-5.1-3.41a3.56,3.56,0,0,0-3-.27L407,319.41a1.11,1.11,0,0,0-.43,1.9L410,325a1.51,1.51,0,0,1-.24,2.27,20.63,20.63,0,0,0-2.11,1.91,4.34,4.34,0,0,1-2.84,1.25l-8.74-.25a2.42,2.42,0,0,0-2.23,1.6l-1.37,4.3a1.44,1.44,0,0,0,1.15,1.93l8.29,1.34a2.77,2.77,0,0,1,2,1.95,12,12,0,0,0,.61,1.67,1.73,1.73,0,0,1-.73,2.29l-6.18,3.19a1.06,1.06,0,0,0-.23,1.88l4.83,4.06a3.4,3.4,0,0,0,2.93.56l7.47-2.45a5.1,5.1,0,0,1,3.16.17,38.69,38.69,0,0,0,4,1.44,2,2,0,0,1,1.4,2.17L420.7,360a1.64,1.64,0,0,0,1.47,1.87l9.54.9a2.73,2.73,0,0,0,2.49-1.39l1.95-3.78a3.41,3.41,0,0,1,2.49-1.66c1.67-.15,3.33-.38,5-.69a4.84,4.84,0,0,1,3.08.59l5.1,3.41a3.56,3.56,0,0,0,3,.27l7.69-3.19a1.11,1.11,0,0,0,.44-1.9l-3.43-3.71a1.51,1.51,0,0,1,.24-2.27,20.63,20.63,0,0,0,2.11-1.91,4.41,4.41,0,0,1,2.85-1.26l8.73.26a2.41,2.41,0,0,0,2.23-1.6l1.37-4.3a1.44,1.44,0,0,0-1.14-1.93l-8.3-1.34a2.79,2.79,0,0,1-2-1.95,11.93,11.93,0,0,0-.6-1.67,1.72,1.72,0,0,1,.72-2.29l6.18-3.19a1.06,1.06,0,0,0,.23-1.88l-4.83-4.06A3.4,3.4,0,0,0,464.32,320.76Zm-14.49,10.83c5.7,4.79,3.56,11.47-4.77,14.94s-19.7,2.39-25.39-2.39-3.56-11.47,4.77-14.94S444.14,326.81,449.83,331.59Z" style="fill:#f5f5f5"></path><path d="M437.61,313.9h.09l9.55.9a.73.73,0,0,1,.48.25.76.76,0,0,1,.14.57l-.48,3.69a3,3,0,0,0,2.06,3.19,36.57,36.57,0,0,1,3.87,1.4,6,6,0,0,0,2.28.42,4.92,4.92,0,0,0,1.55-.22l7.47-2.45a1.77,1.77,0,0,1,.55-.08,2.51,2.51,0,0,1,1.48.46l4.83,4.06a.39.39,0,0,1,.14.17s-.06.09-.2.16l-6.18,3.2a2.66,2.66,0,0,0-1.15,3.51,10.08,10.08,0,0,1,.56,1.53,3.68,3.68,0,0,0,2.76,2.62l8.3,1.35a.5.5,0,0,1,.37.22.59.59,0,0,1,0,.49l-1.37,4.3a1.49,1.49,0,0,1-1.31.95h0l-8.74-.25h-.09a5.31,5.31,0,0,0-3.45,1.54,21.07,21.07,0,0,1-2,1.83,2.59,2.59,0,0,0-1,1.82,2.39,2.39,0,0,0,.65,1.82l3.43,3.7c.1.11.13.2.12.23s-.07.11-.23.17l-7.69,3.2a2.12,2.12,0,0,1-.8.14,2.56,2.56,0,0,1-1.31-.33l-5.1-3.4a5.6,5.6,0,0,0-2.95-.81,4.22,4.22,0,0,0-.82.08c-1.58.29-3.22.52-4.87.66a4.42,4.42,0,0,0-3.25,2.17L433.37,361a1.85,1.85,0,0,1-1.48.88h-.09l-9.55-.9a.66.66,0,0,1-.47-.26.69.69,0,0,1-.15-.56l.48-3.69a3,3,0,0,0-2.06-3.19,37.39,37.39,0,0,1-3.87-1.4,5.94,5.94,0,0,0-2.28-.42,4.92,4.92,0,0,0-1.55.22l-7.46,2.45a1.89,1.89,0,0,1-.56.08,2.45,2.45,0,0,1-1.47-.46L398,349.64a.39.39,0,0,1-.14-.17.45.45,0,0,1,.2-.16l6.18-3.2a2.65,2.65,0,0,0,1.15-3.51,10.08,10.08,0,0,1-.56-1.53,3.68,3.68,0,0,0-2.76-2.62l-8.29-1.35a.54.54,0,0,1-.38-.22.59.59,0,0,1,0-.49l1.38-4.3a1.48,1.48,0,0,1,1.3-.95h0l8.74.25h.09a5.31,5.31,0,0,0,3.45-1.54,20.07,20.07,0,0,1,2-1.83,2.57,2.57,0,0,0,1-1.82,2.41,2.41,0,0,0-.65-1.82l-3.43-3.7c-.1-.11-.13-.2-.12-.23a.42.42,0,0,1,.23-.17l7.69-3.2a2.14,2.14,0,0,1,.81-.14,2.5,2.5,0,0,1,1.3.33l5.11,3.4a5.54,5.54,0,0,0,2.94.81,4.33,4.33,0,0,0,.83-.08c1.58-.29,3.21-.52,4.87-.66a4.4,4.4,0,0,0,3.24-2.17l1.95-3.79a1.82,1.82,0,0,1,1.47-.88h0m-3.34,35.6a29.25,29.25,0,0,0,11.15-2.11c4.83-2,7.91-5.19,8.45-8.72.43-2.8-.79-5.57-3.43-7.79-3.52-2.95-9.06-4.65-15.21-4.65a29.25,29.25,0,0,0-11.15,2.11c-4.83,2-7.91,5.19-8.45,8.72-.43,2.8.79,5.57,3.44,7.79,3.51,2.95,9.05,4.65,15.2,4.65M437.61,313a2.78,2.78,0,0,0-2.3,1.39l-1.95,3.79a3.44,3.44,0,0,1-2.5,1.66c-1.66.15-3.32.38-5,.69a4.4,4.4,0,0,1-.65.05,4.8,4.8,0,0,1-2.43-.64l-5.1-3.41a3.48,3.48,0,0,0-1.82-.48,2.94,2.94,0,0,0-1.17.21L407,319.41a1.11,1.11,0,0,0-.43,1.9L410,325a1.51,1.51,0,0,1-.24,2.27,20.63,20.63,0,0,0-2.11,1.91,4.36,4.36,0,0,1-2.78,1.26h-.06l-8.74-.25h-.05a2.44,2.44,0,0,0-2.18,1.6l-1.37,4.3a1.44,1.44,0,0,0,1.15,1.93l8.29,1.34a2.77,2.77,0,0,1,2,1.95,12,12,0,0,0,.61,1.67,1.73,1.73,0,0,1-.73,2.29l-6.18,3.19a1.06,1.06,0,0,0-.23,1.88l4.83,4.06a3.39,3.39,0,0,0,2.08.68,2.91,2.91,0,0,0,.85-.12l7.47-2.45a4.06,4.06,0,0,1,1.25-.18,5.16,5.16,0,0,1,1.91.35,38.69,38.69,0,0,0,4,1.44,2,2,0,0,1,1.4,2.17L420.7,360a1.64,1.64,0,0,0,1.47,1.87l9.54.9h.18a2.78,2.78,0,0,0,2.31-1.4l1.95-3.78a3.41,3.41,0,0,1,2.49-1.66c1.67-.15,3.33-.38,5-.69a4.4,4.4,0,0,1,.65-.05,4.8,4.8,0,0,1,2.43.64l5.1,3.41a3.49,3.49,0,0,0,1.83.48,2.89,2.89,0,0,0,1.16-.21l7.69-3.19a1.11,1.11,0,0,0,.44-1.9l-3.43-3.71a1.51,1.51,0,0,1,.24-2.27,20.63,20.63,0,0,0,2.11-1.91,4.36,4.36,0,0,1,2.78-1.26h.07l8.73.26h.05a2.43,2.43,0,0,0,2.18-1.6l1.37-4.3a1.44,1.44,0,0,0-1.14-1.93l-8.3-1.34a2.79,2.79,0,0,1-2-1.95,11.93,11.93,0,0,0-.6-1.67,1.72,1.72,0,0,1,.72-2.29l6.18-3.19a1.06,1.06,0,0,0,.23-1.88l-4.83-4.06a3.37,3.37,0,0,0-2.08-.68,2.91,2.91,0,0,0-.85.12l-7.46,2.45a4.08,4.08,0,0,1-1.26.18,5.16,5.16,0,0,1-1.91-.35,38.69,38.69,0,0,0-4-1.44,2.05,2.05,0,0,1-1.4-2.17l.48-3.69a1.64,1.64,0,0,0-1.46-1.87l-9.55-.9Zm-3.34,35.6c-5.66,0-11.16-1.53-14.6-4.42-5.7-4.79-3.56-11.47,4.77-14.94a28.52,28.52,0,0,1,10.79-2c5.66,0,11.17,1.53,14.6,4.42,5.7,4.79,3.56,11.47-4.77,14.94a28.52,28.52,0,0,1-10.79,2Z" style="fill:#ebebeb"></path></g><g id="freepik--gear--inject-2"><path d="M299.32,434a.8.8,0,0,1-.49.68l-4.32,2.23a1.22,1.22,0,0,0-.52,1.61,9.21,9.21,0,0,1,.43,1.17,1.91,1.91,0,0,0,1.4,1.36l1.08.18,1.86-1a.82.82,0,0,0,.49-.7h0Zm-33.69,2c-5,2.09-6.83,5.86-4.67,9a10.2,10.2,0,0,1,4.6-3.41c5.84-2.42,13.8-1.68,17.79,1.67a8.06,8.06,0,0,1,1.35,1.43c1.57-2.26,1.22-4.9-1.29-7C279.43,434.31,271.47,433.56,265.63,436Zm36.86,7a1,1,0,0,1-.06.32l-1,3a1.7,1.7,0,0,1-1.55,1.13l-6.12-.19a2.29,2.29,0,0,0-1,.21,3.16,3.16,0,0,0-1,.67,14.9,14.9,0,0,1-1.47,1.35,1,1,0,0,0-.17,1.58l2.09,2.26a2.4,2.4,0,0,1,.53-.27h0a2.61,2.61,0,0,1,1-.2l6.12.18a1.7,1.7,0,0,0,1.56-1.12l.95-3a1.12,1.12,0,0,0,.06-.35h0Zm-49.67-7.51h0a.82.82,0,0,0,.25.6l.3.34a2.39,2.39,0,0,0,.52-.4,15.94,15.94,0,0,1,1.47-1.34,1.05,1.05,0,0,0,.17-1.59l-2.4-2.59a.9.9,0,0,1-.25-.48Zm40,18.8a.83.83,0,0,1-.57.73l-5.38,2.23a2.35,2.35,0,0,1-1.4.08,1.9,1.9,0,0,1-.7-.27l-3.57-2.38a3.28,3.28,0,0,0-2.15-.41c-1.14.21-2.31.37-3.47.47a2.41,2.41,0,0,0-1.18.5,2.07,2.07,0,0,0-.57.66l-1.37,2.66a2,2,0,0,1-1,.85,1.82,1.82,0,0,1-.75.12l-6.68-.63a1.16,1.16,0,0,1-1-1.32l.34-2.58a1.44,1.44,0,0,0-1-1.52,25.3,25.3,0,0,1-2.78-1,3.74,3.74,0,0,0-2.22-.12l-.06,0L252.15,454a2.3,2.3,0,0,1-1.3,0,1.9,1.9,0,0,1-.75-.38l-3.39-2.84a.86.86,0,0,1-.32-.58l-.08,5.56a.87.87,0,0,0,.34.6l3.38,2.85a2.27,2.27,0,0,0,1.42.47,1.51,1.51,0,0,0,.3,0h.05a1.4,1.4,0,0,0,.28-.06l5.17-1.7.06,0a3.56,3.56,0,0,1,2.21.12,26.08,26.08,0,0,0,2.78,1,1.45,1.45,0,0,1,.69.48l-.05,3.79a1.13,1.13,0,0,0,1,1.14l6.69.63a1.82,1.82,0,0,0,.75-.12,2.11,2.11,0,0,0,.44-.24,1.56,1.56,0,0,0,.2-.16l0,0a.8.8,0,0,0,.15-.17,1.33,1.33,0,0,0,.14-.19l0-.07,1.36-2.64a1.14,1.14,0,0,1,.15-.23,1.58,1.58,0,0,1,.12-.15,1.72,1.72,0,0,1,.31-.29,2.24,2.24,0,0,1,1.17-.5c1.16-.11,2.33-.26,3.47-.48a3.38,3.38,0,0,1,2.16.41l3.57,2.39a2,2,0,0,0,.69.25h0l.18,0a2.75,2.75,0,0,0,.81,0,.53.53,0,0,0,.18,0,.62.62,0,0,0,.23-.07l5.39-2.24a.86.86,0,0,0,.46-.39.64.64,0,0,0,.1-.33Zm-48.75-12.09a1,1,0,0,1-.86-1l-.06,5.6h0a1,1,0,0,0,.85,1l4.73.76,2.46-1.27a1.22,1.22,0,0,0,.51-1.61,7.39,7.39,0,0,1-.43-1.16,2,2,0,0,0-1.4-1.38Z" style="fill:#e6e6e6"></path><path d="M299.32,434a.8.8,0,0,1-.49.68l-4.32,2.23a1.22,1.22,0,0,0-.52,1.61,9.21,9.21,0,0,1,.43,1.17,1.91,1.91,0,0,0,1.4,1.36l1.08.18,1.86-1a.82.82,0,0,0,.49-.7h0Zm-33.69,2c-5,2.09-6.83,5.86-4.67,9a10.2,10.2,0,0,1,4.6-3.41c5.84-2.42,13.8-1.68,17.79,1.67a8.06,8.06,0,0,1,1.35,1.43c1.57-2.26,1.22-4.9-1.29-7C279.43,434.31,271.47,433.56,265.63,436Zm36.86,7a1,1,0,0,1-.06.32l-1,3a1.7,1.7,0,0,1-1.55,1.13l-6.12-.19a2.29,2.29,0,0,0-1,.21,3.16,3.16,0,0,0-1,.67,14.9,14.9,0,0,1-1.47,1.35,1,1,0,0,0-.17,1.58l2.09,2.26a2.4,2.4,0,0,1,.53-.27h0a2.61,2.61,0,0,1,1-.2l6.12.18a1.7,1.7,0,0,0,1.56-1.12l.95-3a1.12,1.12,0,0,0,.06-.35h0Zm-49.67-7.51h0a.82.82,0,0,0,.25.6l.3.34a2.39,2.39,0,0,0,.52-.4,15.94,15.94,0,0,1,1.47-1.34,1.05,1.05,0,0,0,.17-1.59l-2.4-2.59a.9.9,0,0,1-.25-.48Zm40,18.8a.83.83,0,0,1-.57.73l-5.38,2.23a2.35,2.35,0,0,1-1.4.08,1.9,1.9,0,0,1-.7-.27l-3.57-2.38a3.28,3.28,0,0,0-2.15-.41c-1.14.21-2.31.37-3.47.47a2.41,2.41,0,0,0-1.18.5,2.07,2.07,0,0,0-.57.66l-1.37,2.66a2,2,0,0,1-1,.85,1.82,1.82,0,0,1-.75.12l-6.68-.63a1.16,1.16,0,0,1-1-1.32l.34-2.58a1.44,1.44,0,0,0-1-1.52,25.3,25.3,0,0,1-2.78-1,3.74,3.74,0,0,0-2.22-.12l-.06,0L252.15,454a2.3,2.3,0,0,1-1.3,0,1.9,1.9,0,0,1-.75-.38l-3.39-2.84a.86.86,0,0,1-.32-.58l-.08,5.56a.87.87,0,0,0,.34.6l3.38,2.85a2.27,2.27,0,0,0,1.42.47,1.51,1.51,0,0,0,.3,0h.05a1.4,1.4,0,0,0,.28-.06l5.17-1.7.06,0a3.56,3.56,0,0,1,2.21.12,26.08,26.08,0,0,0,2.78,1,1.45,1.45,0,0,1,.69.48l-.05,3.79a1.13,1.13,0,0,0,1,1.14l6.69.63a1.82,1.82,0,0,0,.75-.12,2.11,2.11,0,0,0,.44-.24,1.56,1.56,0,0,0,.2-.16l0,0a.8.8,0,0,0,.15-.17,1.33,1.33,0,0,0,.14-.19l0-.07,1.36-2.64a1.14,1.14,0,0,1,.15-.23,1.58,1.58,0,0,1,.12-.15,1.72,1.72,0,0,1,.31-.29,2.24,2.24,0,0,1,1.17-.5c1.16-.11,2.33-.26,3.47-.48a3.38,3.38,0,0,1,2.16.41l3.57,2.39a2,2,0,0,0,.69.25h0l.18,0a2.75,2.75,0,0,0,.81,0,.53.53,0,0,0,.18,0,.62.62,0,0,0,.23-.07l5.39-2.24a.86.86,0,0,0,.46-.39.64.64,0,0,0,.1-.33Zm-48.75-12.09a1,1,0,0,1-.86-1l-.06,5.6h0a1,1,0,0,0,.85,1l4.73.76,2.46-1.27a1.22,1.22,0,0,0,.51-1.61,7.39,7.39,0,0,1-.43-1.16,2,2,0,0,0-1.4-1.38Z" style="opacity:0.1"></path><path d="M257.31,452.34,252.15,454a2.3,2.3,0,0,1-1.3,0l-.07,5.57a3,3,0,0,0,.67.11,1.51,1.51,0,0,0,.3,0h.05a1.4,1.4,0,0,0,.28-.06l5.17-1.7Z" style="fill:#e0e0e0"></path><path d="M274.4,455.2a2.07,2.07,0,0,0-.57.66l-1.37,2.66a2,2,0,0,1-1,.85l-.06,5.58a2.11,2.11,0,0,0,.44-.24,1.56,1.56,0,0,0,.2-.16l0,0a.8.8,0,0,0,.15-.17,1.33,1.33,0,0,0,.14-.19l0-.07,1.36-2.64a1.14,1.14,0,0,1,.15-.23l.12-.15a4,4,0,0,1,.31-.27v0Z" style="fill:#e0e0e0"></path><path d="M299.32,434a.8.8,0,0,1-.49.68l-4.33,2.23a1.22,1.22,0,0,0-.51,1.61,7.5,7.5,0,0,1,.43,1.17,1.92,1.92,0,0,0,1.41,1.36l1.07.18,1.86-1a.84.84,0,0,0,.49-.7h0Z" style="fill:#e0e0e0"></path><path d="M302.49,443a1,1,0,0,1-.06.32l-1,3a1.7,1.7,0,0,1-1.55,1.13l-6.12-.19a2.29,2.29,0,0,0-1,.21l-.06,5.58a2.61,2.61,0,0,1,1-.2l6.12.18a1.7,1.7,0,0,0,1.56-1.12l.95-3a1.12,1.12,0,0,0,.06-.35h0Z" style="fill:#e0e0e0"></path><path d="M292.82,454.25a.83.83,0,0,1-.57.73l-5.38,2.23a2.35,2.35,0,0,1-1.4.08l-.07,5.58.18,0a2.75,2.75,0,0,0,.81,0,.53.53,0,0,0,.18,0,.62.62,0,0,0,.23-.07l5.39-2.24a.86.86,0,0,0,.46-.39.64.64,0,0,0,.1-.33Z" style="fill:#e0e0e0"></path><path d="M293.56,430.08l-5.23,1.72a3.66,3.66,0,0,1-2.22-.12,25.9,25.9,0,0,0-2.77-1,1.45,1.45,0,0,1-1-1.52l.34-2.58a1.15,1.15,0,0,0-1-1.32l-6.68-.62a1.91,1.91,0,0,0-1.74,1l-1.36,2.65a2.42,2.42,0,0,1-1.75,1.17,33.28,33.28,0,0,0-3.47.48,3.31,3.31,0,0,1-2.16-.42l-3.57-2.38a2.49,2.49,0,0,0-2.1-.19l-5.38,2.24a.77.77,0,0,0-.3,1.33l2.4,2.59a1.07,1.07,0,0,1-.17,1.59A13.84,13.84,0,0,0,253.9,436a3.08,3.08,0,0,1-2,.88l-6.12-.18a1.69,1.69,0,0,0-1.56,1.12l-1,3a1,1,0,0,0,.8,1.35l5.81.94a1.94,1.94,0,0,1,1.41,1.36,8.62,8.62,0,0,0,.42,1.17,1.22,1.22,0,0,1-.51,1.61l-4.32,2.23a.74.74,0,0,0-.17,1.32l3.39,2.84a2.38,2.38,0,0,0,2.05.39l5.22-1.72a3.66,3.66,0,0,1,2.22.12,25.3,25.3,0,0,0,2.78,1,1.44,1.44,0,0,1,1,1.52l-.34,2.58a1.17,1.17,0,0,0,1,1.32l6.69.62a1.89,1.89,0,0,0,1.73-1l1.37-2.65a2.42,2.42,0,0,1,1.74-1.17,33.85,33.85,0,0,0,3.48-.48,3.28,3.28,0,0,1,2.15.42l3.58,2.38a2.47,2.47,0,0,0,2.09.19l5.38-2.24a.78.78,0,0,0,.31-1.33l-2.4-2.59a1.05,1.05,0,0,1,.17-1.59,16.09,16.09,0,0,0,1.48-1.34,3,3,0,0,1,2-.88l6.11.18a1.68,1.68,0,0,0,1.56-1.12l1-3a1,1,0,0,0-.8-1.35l-5.81-.94a1.94,1.94,0,0,1-1.4-1.36,7.15,7.15,0,0,0-.43-1.17,1.22,1.22,0,0,1,.51-1.61l4.33-2.23a.74.74,0,0,0,.16-1.32l-3.39-2.84A2.36,2.36,0,0,0,293.56,430.08Zm-10.15,7.58c4,3.35,2.49,8-3.34,10.46s-13.79,1.68-17.78-1.67-2.49-8,3.34-10.46S279.43,434.31,283.41,437.66Z" style="fill:#f5f5f5"></path><path d="M274.85,425.67h0l6.69.63.06,0a.22.22,0,0,1,0,.1l-.34,2.58a2.48,2.48,0,0,0,1.72,2.66,27.88,27.88,0,0,1,2.67,1,4.55,4.55,0,0,0,1.75.33,4.11,4.11,0,0,0,1.21-.17l5.23-1.72a.85.85,0,0,1,.26,0,1.36,1.36,0,0,1,.78.23l3.08,2.59-4,2.07a2.24,2.24,0,0,0-1,3,7.79,7.79,0,0,1,.37,1,3,3,0,0,0,2.25,2.12l5.77.94-1,3a.66.66,0,0,1-.53.39l-6.11-.18h-.08a4.11,4.11,0,0,0-2.7,1.2,14,14,0,0,1-1.38,1.25,2.2,2.2,0,0,0-.84,1.55,2,2,0,0,0,.56,1.58l2.18,2.35-5.1,2.12a1.12,1.12,0,0,1-.42.07,1.26,1.26,0,0,1-.69-.17l-3.57-2.38a4.35,4.35,0,0,0-2.29-.63,3.34,3.34,0,0,0-.65.06,33,33,0,0,1-3.37.46,3.43,3.43,0,0,0-2.59,1.74L271.53,458a.89.89,0,0,1-.7.41h0l-6.68-.63-.06,0a.1.1,0,0,1,0-.1l.33-2.58a2.48,2.48,0,0,0-1.72-2.66,27.88,27.88,0,0,1-2.67-1,4.55,4.55,0,0,0-1.75-.33,4,4,0,0,0-1.2.17L251.82,453a.94.94,0,0,1-.27,0,1.33,1.33,0,0,1-.77-.23l-3.09-2.59,4-2.07a2.25,2.25,0,0,0,1-3,7,7,0,0,1-.37-1,3,3,0,0,0-2.25-2.12l-5.78-.94,1-3a.66.66,0,0,1,.53-.39l6.12.18H252a4.11,4.11,0,0,0,2.7-1.2,15.23,15.23,0,0,1,1.38-1.25,2.25,2.25,0,0,0,.85-1.55,2.12,2.12,0,0,0-.56-1.58L254.14,430l5.1-2.12a1,1,0,0,1,.41-.07,1.26,1.26,0,0,1,.69.17l3.58,2.38a4.32,4.32,0,0,0,2.28.63,3.34,3.34,0,0,0,.65-.06,33.73,33.73,0,0,1,3.37-.46,3.45,3.45,0,0,0,2.59-1.74l1.36-2.64a.91.91,0,0,1,.68-.41m-2.33,24.92a20.92,20.92,0,0,0,8-1.5c3.52-1.46,5.76-3.8,6.16-6.41a6.31,6.31,0,0,0-2.54-5.82c-2.53-2.13-6.5-3.34-10.9-3.34a21,21,0,0,0-8,1.5c-3.51,1.46-5.76,3.8-6.16,6.41a6.32,6.32,0,0,0,2.55,5.82c2.52,2.13,6.5,3.34,10.9,3.34m2.33-26a2,2,0,0,0-1.61,1l-1.36,2.65a2.42,2.42,0,0,1-1.75,1.17,33.28,33.28,0,0,0-3.47.48,3.2,3.2,0,0,1-2.16-.42l-3.57-2.38a2.44,2.44,0,0,0-1.28-.34,2.18,2.18,0,0,0-.82.15l-5.38,2.24a.77.77,0,0,0-.3,1.33l2.4,2.59a1.07,1.07,0,0,1-.17,1.59A13.84,13.84,0,0,0,253.9,436a3.11,3.11,0,0,1-2,.88h0l-6.12-.18h0a1.69,1.69,0,0,0-1.52,1.12l-1,3a1,1,0,0,0,.8,1.35l5.81.94a1.94,1.94,0,0,1,1.41,1.36,8.62,8.62,0,0,0,.42,1.17,1.22,1.22,0,0,1-.51,1.61l-4.32,2.23a.74.74,0,0,0-.17,1.32l3.39,2.84a2.38,2.38,0,0,0,1.45.48,1.93,1.93,0,0,0,.6-.09l5.22-1.72a3.07,3.07,0,0,1,.88-.12,3.68,3.68,0,0,1,1.34.24,25.3,25.3,0,0,0,2.78,1,1.44,1.44,0,0,1,1,1.52l-.34,2.58a1.17,1.17,0,0,0,1,1.32l6.68.62h.13a1.93,1.93,0,0,0,1.61-1l1.37-2.65a2.42,2.42,0,0,1,1.74-1.17,33.85,33.85,0,0,0,3.48-.48,3.14,3.14,0,0,1,.45,0,3.24,3.24,0,0,1,1.7.46l3.58,2.38a2.38,2.38,0,0,0,1.27.34,2.14,2.14,0,0,0,.82-.15l5.38-2.24a.78.78,0,0,0,.31-1.33l-2.4-2.59a1.05,1.05,0,0,1,.17-1.59,16.09,16.09,0,0,0,1.48-1.34,3.06,3.06,0,0,1,1.94-.88h.05l6.11.18h0a1.68,1.68,0,0,0,1.52-1.12l1-3a1,1,0,0,0-.8-1.35l-5.81-.94a1.94,1.94,0,0,1-1.4-1.36,7.15,7.15,0,0,0-.43-1.17,1.22,1.22,0,0,1,.51-1.61l4.32-2.23a.74.74,0,0,0,.17-1.32l-3.39-2.84a2.34,2.34,0,0,0-1.45-.48,1.87,1.87,0,0,0-.59.09l-5.23,1.72a3,3,0,0,1-.88.12,3.68,3.68,0,0,1-1.34-.24,25.9,25.9,0,0,0-2.77-1,1.45,1.45,0,0,1-1-1.52l.34-2.58a1.15,1.15,0,0,0-1-1.32l-6.68-.62Zm-2.33,24.92c-4,0-7.82-1.07-10.23-3.09-4-3.35-2.49-8,3.34-10.46a20,20,0,0,1,7.56-1.42c4,0,7.82,1.07,10.22,3.09,4,3.35,2.49,8-3.34,10.46a20,20,0,0,1-7.55,1.42Z" style="fill:#ebebeb"></path></g><g id="freepik--gears--inject-2"><path d="M448.49,112.87l-3-6.78a2.88,2.88,0,0,0-1.48-1.25,18.29,18.29,0,0,1-2.31-.93.47.47,0,0,0-.41,0,.42.42,0,0,0-.24.26l-1.5,4a1.74,1.74,0,0,1-2.9.71l-5.19-4.67a3.88,3.88,0,0,1-1.16-3.11l.68-5.19a3.32,3.32,0,0,0-.54-2c-.83-1.14-1.62-2.35-2.36-3.6a2,2,0,0,0-1.46-.88l-3.53-.06a3.06,3.06,0,0,1-2.7-1.91l-2.82-7.64a2.26,2.26,0,0,1,.07-1.73,2.23,2.23,0,0,1,1.29-1.16l2.93-1a1,1,0,0,0,.56-1,31.52,31.52,0,0,1-.38-3.67,3.7,3.7,0,0,0-.8-2l-4.56-4.78a3.75,3.75,0,0,1-.86-3.21l1.26-5.23a1.69,1.69,0,0,1,2.78-1l4.64,3.51a.6.6,0,0,0,.84-.17,10.3,10.3,0,0,1,1.1-1.18,1.6,1.6,0,0,0,.49-1.44l-2-6.85a2.05,2.05,0,0,1,1.68-2.65l3.71-.57a2.83,2.83,0,0,1,2.89,1.57l3,6.78a2.82,2.82,0,0,0,1.47,1.25,19.23,19.23,0,0,1,2.31.93.47.47,0,0,0,.41,0,.42.42,0,0,0,.24-.26l1.51-4a1.82,1.82,0,0,1,1.24-1.18,1.8,1.8,0,0,1,1.65.47L450.2,56a3.88,3.88,0,0,1,1.16,3.11l-.67,5.19a3.22,3.22,0,0,0,.53,2c.83,1.14,1.62,2.35,2.36,3.61a2.07,2.07,0,0,0,1.46.87l3.53.06a3.06,3.06,0,0,1,2.7,1.91l2.82,7.64a2.21,2.21,0,0,1-.07,1.73,2.23,2.23,0,0,1-1.29,1.16l-2.92,1a1,1,0,0,0-.57,1,32.21,32.21,0,0,1,.38,3.67,3.71,3.71,0,0,0,.81,2L465,95.66a3.72,3.72,0,0,1,.86,3.21l-1.26,5.23a1.79,1.79,0,0,1-1.09,1.32,1.81,1.81,0,0,1-1.69-.33l-4.64-3.51a.61.61,0,0,0-.84.17,12.4,12.4,0,0,1-1.1,1.19,1.6,1.6,0,0,0-.49,1.43l2,6.85a2,2,0,0,1-.22,1.71,2.13,2.13,0,0,1-1.46.94l-3.7.57-.37,0A2.83,2.83,0,0,1,448.49,112.87Zm9.67-12.6,4.63,3.51.13.08a.31.31,0,0,0,.06-.15l1.26-5.23a2.08,2.08,0,0,0-.45-1.68L459.23,92A5.26,5.26,0,0,1,458,89a29.19,29.19,0,0,0-.37-3.49,2.61,2.61,0,0,1,1.65-2.8l2.93-1a.65.65,0,0,0,.34-.31.61.61,0,0,0,0-.46l-2.82-7.64a1.45,1.45,0,0,0-1.18-.84L455,72.38a3.62,3.62,0,0,1-2.85-1.68c-.72-1.21-1.48-2.38-2.28-3.47a5,5,0,0,1-.84-3.16l.67-5.19a2.23,2.23,0,0,0-.62-1.68l-5.19-4.67a1,1,0,0,0-.15-.1.34.34,0,0,0-.1.17l-1.51,4A2.1,2.1,0,0,1,441,57.83a2.14,2.14,0,0,1-1.75-.09,17.43,17.43,0,0,0-2.1-.85,4.42,4.42,0,0,1-2.47-2.14l-3-6.78a1.17,1.17,0,0,0-1.13-.62l-3.71.58a.46.46,0,0,0-.32.19.44.44,0,0,0,0,.36l2,6.86a3.24,3.24,0,0,1-.95,3.11,9,9,0,0,0-.94,1,2.21,2.21,0,0,1-3.11.45l-4.64-3.51-.13-.08a.47.47,0,0,0-.06.15l-1.26,5.23h0a2.11,2.11,0,0,0,.45,1.68l4.56,4.79a5.26,5.26,0,0,1,1.25,3,33.13,33.13,0,0,0,.37,3.49,2.61,2.61,0,0,1-1.65,2.8l-2.93,1a.65.65,0,0,0-.34.31.61.61,0,0,0,0,.46l2.81,7.64a1.47,1.47,0,0,0,1.19.84l3.53.06a3.68,3.68,0,0,1,2.85,1.68c.71,1.21,1.47,2.37,2.27,3.47a4.9,4.9,0,0,1,.84,3.17l-.67,5.18a2.26,2.26,0,0,0,.62,1.68l5.19,4.67a1,1,0,0,0,.15.1s.06,0,.11-.17l1.5-4a2.07,2.07,0,0,1,1.17-1.22,2.12,2.12,0,0,1,1.74.09,17.43,17.43,0,0,0,2.1.85,4.4,4.4,0,0,1,2.47,2.15l3,6.77a1.17,1.17,0,0,0,1.13.62l3.71-.58a.41.41,0,0,0,.32-.19.44.44,0,0,0,0-.36l-2-6.86a3.22,3.22,0,0,1,1-3.1,9.06,9.06,0,0,0,.94-1,2.33,2.33,0,0,1,1.8-.9A2.19,2.19,0,0,1,458.16,100.27Zm-20.57-8.41h0c-5.82-5.24-9.29-14.71-7.75-21.13.71-2.91,2.36-4.9,4.66-5.62,2.84-.88,6.33.29,9.57,3.21,5.82,5.23,9.3,14.7,7.75,21.12-.7,2.91-2.36,4.9-4.66,5.62a6.6,6.6,0,0,1-1.94.29C442.81,95.35,440.12,94.14,437.59,91.86ZM435,66.68c-1.75.55-3,2.08-3.55,4.44C430,77,433.27,85.76,438.69,90.63c2.8,2.52,5.71,3.56,8,2.86,1.75-.55,3-2.08,3.55-4.44,1.42-5.89-1.83-14.64-7.25-19.51-2.22-2-4.52-3.07-6.51-3.07A5.12,5.12,0,0,0,435,66.68Z" style="fill:#ebebeb"></path><path d="M398.59,83.17l-2.14-4.82a1.87,1.87,0,0,0-1-.81,12.77,12.77,0,0,1-1.65-.68c-.07,0-.13,0-.28.09l-1.07,2.86a1.43,1.43,0,0,1-1,.92,1.41,1.41,0,0,1-1.3-.37l-3.69-3.31a2.92,2.92,0,0,1-.87-2.34l.48-3.69a2.22,2.22,0,0,0-.35-1.31,30,30,0,0,1-1.69-2.57,1.29,1.29,0,0,0-.92-.55l-2.51,0a2.32,2.32,0,0,1-2-1.45l-2-5.43a1.73,1.73,0,0,1,.06-1.34,1.69,1.69,0,0,1,1-.89l2.08-.73a.55.55,0,0,0,.31-.55,24.78,24.78,0,0,1-.28-2.63,2.44,2.44,0,0,0-.53-1.3L376,48.82a2.78,2.78,0,0,1-.64-2.41l.89-3.72a1.34,1.34,0,0,1,2.2-.78l3.3,2.49a.29.29,0,0,0,.4-.09,7.33,7.33,0,0,1,.8-.86,1,1,0,0,0,.31-.88L381.8,37.7a1.63,1.63,0,0,1,.18-1.33,1.61,1.61,0,0,1,1.13-.73l2.64-.41a2.13,2.13,0,0,1,2.2,1.2l2.13,4.82a1.92,1.92,0,0,0,1,.81,14.07,14.07,0,0,1,1.66.67c.06,0,.13.05.27-.08l1.07-2.86a1.37,1.37,0,0,1,2.28-.56L400,42.55a2.92,2.92,0,0,1,.87,2.34l-.48,3.69a2.17,2.17,0,0,0,.36,1.31c.59.82,1.16,1.68,1.68,2.57a1.3,1.3,0,0,0,.92.55l2.52.05a2.31,2.31,0,0,1,2,1.45l2,5.43a1.73,1.73,0,0,1-.06,1.34,1.69,1.69,0,0,1-1,.89l-2.08.73a.55.55,0,0,0-.31.55,22.19,22.19,0,0,1,.28,2.63,2.44,2.44,0,0,0,.53,1.3l3.24,3.4a2.82,2.82,0,0,1,.65,2.41l-.9,3.72a1.34,1.34,0,0,1-2.2.78L404.8,75.2c-.16-.13-.33,0-.41.09a7.33,7.33,0,0,1-.8.86,1,1,0,0,0-.31.88l1.45,4.87a1.63,1.63,0,0,1-.18,1.33,1.61,1.61,0,0,1-1.13.73l-2.63.41-.28,0A2.14,2.14,0,0,1,398.59,83.17ZM405.67,74l3.21,2.53.9-3.72a1.38,1.38,0,0,0-.29-1.07l-3.24-3.4a3.89,3.89,0,0,1-.93-2.23,19.56,19.56,0,0,0-.26-2.47,2,2,0,0,1,1.27-2.14l2.08-.73a.29.29,0,0,0,.16-.15.31.31,0,0,0,0-.22l-2-5.43a.91.91,0,0,0-.71-.51l-2.51,0a2.74,2.74,0,0,1-2.14-1.26c-.5-.85-1-1.68-1.61-2.46a3.61,3.61,0,0,1-.62-2.35l.47-3.69a1.51,1.51,0,0,0-.39-1.07L395.4,40.3l-1.07,2.86a1.58,1.58,0,0,1-.9.94,1.7,1.7,0,0,1-1.36-.06,12,12,0,0,0-1.47-.6,3.32,3.32,0,0,1-1.84-1.6L386.62,37a.65.65,0,0,0-.65-.36l-2.64.41-.11-.72,0,.94,1.45,4.87a2.44,2.44,0,0,1-.72,2.36,6.09,6.09,0,0,0-.65.69,1.72,1.72,0,0,1-2.41.35L377.65,43l-.9,3.72h0a1.42,1.42,0,0,0,.29,1.07l3.24,3.4a4,4,0,0,1,.93,2.23,21.6,21.6,0,0,0,.26,2.47,2,2,0,0,1-1.26,2.14l-2.08.73a.32.32,0,0,0-.17.15.32.32,0,0,0,0,.22l2,5.43a.91.91,0,0,0,.71.51l2.51,0a2.75,2.75,0,0,1,2.15,1.26c.5.85,1,1.68,1.61,2.46a3.73,3.73,0,0,1,.62,2.35l-.48,3.69a1.48,1.48,0,0,0,.4,1.07l3.65,3.33,1.07-2.86a1.58,1.58,0,0,1,.9-.94,1.66,1.66,0,0,1,1.36.06,12.64,12.64,0,0,0,1.47.6,3.25,3.25,0,0,1,1.84,1.6l2.14,4.82a.68.68,0,0,0,.65.36l2.64-.41.14-.22-1.45-4.87a2.49,2.49,0,0,1,.72-2.36,5.44,5.44,0,0,0,.65-.7,1.8,1.8,0,0,1,1.39-.68A1.69,1.69,0,0,1,405.67,74Zm-14.8-5.77h0c-4.17-3.75-6.66-10.55-5.55-15.15a5.26,5.26,0,0,1,3.4-4.1c2.07-.64,4.6.2,6.94,2.31,4.17,3.75,6.66,10.54,5.55,15.15a5.26,5.26,0,0,1-3.4,4.1,4.85,4.85,0,0,1-1.43.21A8.57,8.57,0,0,1,390.87,68.27ZM389.15,50.4a3.86,3.86,0,0,0-2.43,3.05c-1,4.15,1.3,10.31,5.12,13.75h0c2,1.75,4,2.49,5.54,2a3.86,3.86,0,0,0,2.43-3.06c1-4.14-1.3-10.31-5.12-13.74a7.17,7.17,0,0,0-4.53-2.15A3.38,3.38,0,0,0,389.15,50.4Z" style="fill:#ebebeb"></path></g></g><g id="freepik--Folders--inject-2"><g id="freepik--Files--inject-2"><path d="M437,281.2a1.42,1.42,0,0,0,.85-1.18V278.2L337,221.12a4.49,4.49,0,0,0-4.1,0l-79.28,45.77L357.7,327Z" style="fill:#407BFF"></path><path d="M437,281.2a1.42,1.42,0,0,0,.85-1.18V278.2L337,221.12a4.49,4.49,0,0,0-4.1,0l-79.28,45.77L357.7,327Z" style="fill:#fff;opacity:0.2"></path><path d="M437,279.43a1.25,1.25,0,0,0,0-2.37L337,219.34a4.49,4.49,0,0,0-4.1,0l-79.28,45.77L357.7,325.18Z" style="fill:#407BFF"></path><path d="M437,279.43a1.25,1.25,0,0,0,0-2.37L337,219.34a4.49,4.49,0,0,0-4.1,0l-79.28,45.77L357.7,325.18Z" style="opacity:0.5"></path><path d="M271.84,253.15l58.69-33.87a4.51,4.51,0,0,1,4.11,0l93.19,53.8,7.63-4.45v9l-.14.09c.26.56.05,1.17-.71,1.61l-67.22,38.79L263.28,258.09v-9.88Z" style="fill:#ebebeb"></path><path d="M434.61,269.49a1.25,1.25,0,0,0,0-2.37l-100-57.72a4.58,4.58,0,0,0-4.11,0l-67.25,38.81,104.11,60.07Z" style="fill:#fafafa"></path><polygon points="367.39 308.28 367.39 318.16 263.28 258.09 263.28 248.21 367.39 308.28" style="fill:#e6e6e6"></polygon><path d="M366.31,304.43a2.83,2.83,0,0,0,.76.26,2.31,2.31,0,0,0,1.2,0,.91.91,0,0,0,.38-.14c.62-.33.55-.95-.16-1.35a2.71,2.71,0,0,0-1.07-.31,2.2,2.2,0,0,0-1.28.22.22.22,0,0,0-.12.09C365.55,303.53,365.64,304.05,366.31,304.43Z" style="fill:#263238"></path><path d="M356,312.15a5.34,5.34,0,0,0,1,3.42,3.67,3.67,0,0,0,2.94,1.4h0a5.7,5.7,0,0,0,2.85-.86,4.74,4.74,0,0,0,.52-.31l-1.16-.66c-2.8,1.56-5,.24-5-3a11.24,11.24,0,0,1,5.08-8.79c1.51-.88,2.89-.9,3.81-.19a2.72,2.72,0,0,1,1.05,1.52,2.31,2.31,0,0,0,1.2,0,4.24,4.24,0,0,0-.85-1.8,3.66,3.66,0,0,0-2.94-1.37,5.78,5.78,0,0,0-2.87.85A12.35,12.35,0,0,0,356,312.15Z" style="fill:#263238"></path><path d="M358.89,302.82l78.91-38.56v1.29a2.25,2.25,0,0,1-1,1.77l-77.88,37.29Z" style="fill:#407BFF"></path><path d="M358.89,302.82l78.91-38.56v1.29a2.25,2.25,0,0,1-1,1.77l-77.88,37.29Z" style="fill:#fff;opacity:0.2"></path><path d="M437,265.43a1.25,1.25,0,0,0,0-2.37L337,205.35a4.49,4.49,0,0,0-4.1,0l-79.28,38.06L357.7,303.48Z" style="fill:#407BFF"></path><path d="M437,265.43a1.25,1.25,0,0,0,0-2.37L337,205.35a4.49,4.49,0,0,0-4.1,0l-79.28,38.06L357.7,303.48Z" style="opacity:0.2"></path><polygon points="357.7 326.96 253.59 266.89 253.59 243.38 357.7 303.49 357.7 326.96" style="fill:#407BFF"></polygon><path d="M339.65,311.88a3.71,3.71,0,0,0,3-1.4,5.39,5.39,0,0,0,1-3.41,12.4,12.4,0,0,0-5.68-9.83,5.69,5.69,0,0,0-2.86-.85c-2.39,0-4,1.93-4,4.81a12.38,12.38,0,0,0,5.68,9.83,5.79,5.79,0,0,0,2.86.85Z" style="fill:#455a64"></path><path d="M342.46,307.07c0,3.24-2.27,4.55-5.08,2.93a11.22,11.22,0,0,1-5.08-8.8c0-3.24,2.27-4.55,5.08-2.93A11.25,11.25,0,0,1,342.46,307.07Z" style="fill:#f5f5f5"></path><path d="M324,295.23V297c0,3.56-2.5,5-5.58,3.22l-52.27-30.17a12.35,12.35,0,0,1-5.58-9.67v-1.78c0-3.56,2.5-5,5.58-3.22l52.27,30.18A12.34,12.34,0,0,1,324,295.23Z" style="fill:#f5f5f5"></path><polygon points="358.93 326.25 358.93 302.89 357.7 303.49 357.7 326.96 358.93 326.25" style="fill:#407BFF"></polygon><polygon points="358.93 326.25 358.93 302.89 357.7 303.49 357.7 326.96 358.93 326.25" style="fill:#fff;opacity:0.2"></polygon><path d="M254.44,238.33a1.86,1.86,0,0,0,.89,1.41l102.33,59a2,2,0,0,0,1.79,0l80.4-40.67v-1.79L335.77,196.23l-80.44,40.69A1.84,1.84,0,0,0,254.44,238.33Z" style="fill:#407BFF"></path><path d="M439.85,256.32,359.46,297a1.76,1.76,0,0,1-.9.21,1.8,1.8,0,0,1-.91-.21L255.33,237.94a.54.54,0,0,1,0-1l80.45-40.67Z" style="opacity:0.5"></path><path d="M439.85,256.32v1.79l-80.39,40.67a1.87,1.87,0,0,1-.91.2v-1.77a1.76,1.76,0,0,0,.9-.21Z" style="fill:#fff;opacity:0.2"></path><polygon points="438.63 257.04 334.51 196.97 334.51 173.45 438.63 233.8 438.63 257.04" style="fill:#407BFF"></polygon><polygon points="438.63 257.04 334.51 196.97 334.51 173.45 438.63 233.8 438.63 257.04" style="opacity:0.7000000000000001"></polygon><path d="M255.55,225.68a2.48,2.48,0,0,0-1.12,1.94v4.75a2.47,2.47,0,0,0,1.12,1.94l101.88,58.78a2.44,2.44,0,0,0,2.23,0l68.16-36.86v-7.34L323.74,188.8Z" style="fill:#ebebeb"></path><path d="M323.74,188.8l-68.19,36.88c-.62.36-.62.94,0,1.29l101.88,58.78a2.44,2.44,0,0,0,2.23,0l68.16-36.86Z" style="fill:#fafafa"></path><path d="M419.14,249.48a2.3,2.3,0,0,0,.75.26,2.25,2.25,0,0,0,1.21,0,1,1,0,0,0,.38-.14c.62-.33.55-1-.16-1.35a2.56,2.56,0,0,0-1.07-.31,2.2,2.2,0,0,0-1.28.21c-.05,0-.1.05-.12.1C418.38,248.58,418.47,249.1,419.14,249.48Z" style="fill:#263238"></path><path d="M358.55,286v7.35a2.3,2.3,0,0,1-1.13-.26L255.54,234.32a2.49,2.49,0,0,1-1.11-1.94v-4.77a2.46,2.46,0,0,1,.85-1.72c-.33.33-.26.77.26,1.08l101.88,58.77A2,2,0,0,0,358.55,286Z" style="fill:#e6e6e6"></path><path d="M431.07,239.31a4.46,4.46,0,0,0-4.62.27c-2.79,1.61-5.19,5.32-6.31,9.34l1.52.23c1-3.57,3.16-6.88,5.55-8.26a4.05,4.05,0,0,1,1.92-.59,2.15,2.15,0,0,1,1.16.31c1.22.73,1.91,2.68,1.83,5.21-.14,4.87-2.93,10.38-6.22,12.27a3.65,3.65,0,0,1-2.3.57l-1.66.95.1.06a3.68,3.68,0,0,0,1.94.53,5.32,5.32,0,0,0,2.68-.8c3.75-2.16,6.81-8.11,7-13.53C433.73,242.73,432.79,240.34,431.07,239.31Z" style="fill:#263238"></path><path d="M254.44,223.4a1.84,1.84,0,0,0,.89,1.41l102.33,59a2,2,0,0,0,1.79,0l80.4-49.14v-1.78L335.77,172.84,255.33,222A1.86,1.86,0,0,0,254.44,223.4Z" style="fill:#407BFF"></path><path d="M439.85,232.93l-80.39,49.14a1.76,1.76,0,0,1-.9.21,1.7,1.7,0,0,1-.91-.21L255.33,223c-.49-.28-.49-.74,0-1l80.45-49.14Z" style="fill:#407BFF"></path><path d="M439.85,232.93l-80.39,49.14a1.76,1.76,0,0,1-.9.21,1.7,1.7,0,0,1-.91-.21L255.33,223c-.49-.28-.49-.74,0-1l80.45-49.14Z" style="fill:#fff;opacity:0.35000000000000003"></path><path d="M439.85,232.93v1.78l-80.39,49.14a1.77,1.77,0,0,1-.91.21v-1.78a1.76,1.76,0,0,0,.9-.21Z" style="fill:#fff;opacity:0.2"></path><polygon points="439.85 256.32 439.85 232.97 438.63 233.8 438.63 257.04 439.85 256.32" style="fill:#407BFF"></polygon><polygon points="439.85 256.32 439.85 232.97 438.63 233.8 438.63 257.04 439.85 256.32" style="fill:#fff;opacity:0.2"></polygon></g></g><g id="freepik--Sheets--inject-2"><g id="freepik--sheets--inject-2"><polygon id="freepik--shadow--inject-2" points="268.77 215.41 336.71 176.19 434.7 232.87 366.77 272.1 268.77 215.41" style="fill:#407BFF;opacity:0.4"></polygon><g id="freepik--sheets--inject-2"><g id="freepik--Character--inject-2"><polygon points="277.46 215.33 367.13 267.2 367.13 212.19 277.46 160.33 277.46 215.33" style="fill:#e0e0e0"></polygon><polygon points="429.3 231.31 367.13 267.2 367.13 212.19 429.3 176.31 429.3 231.31" style="fill:#ebebeb"></polygon><polygon points="277.46 160.33 339.63 124.44 429.3 176.31 367.13 212.2 277.46 160.33" style="fill:#fff"></polygon><path d="M339.62,125.57l87.73,50.74-60.22,34.76-87.72-50.74,60.21-34.76m0-1.13-62.16,35.89,89.67,51.87,62.17-35.89-89.68-51.87Z" style="fill:#ebebeb"></path></g><polygon points="324.19 205.8 367.13 230.59 392.9 215.72 367.13 232.13 324.19 205.8" style="opacity:0.1"></polygon><polygon points="298.43 204.78 367.13 244.45 418.66 214.7 367.13 245.95 298.43 204.78" style="opacity:0.1"></polygon><path d="M286.09,180.73s-1.42,8-.71,12.09c0,0,11.25-.28,30.22,5Z" style="opacity:0.1"></path><polygon points="286.09 180.74 315.6 197.78 282.95 188.35 286.09 180.74" style="fill:#fff"></polygon><path d="M324.19,228.28,356.55,258s.9-4.09,7.11-7Z" style="opacity:0.1"></path><polygon points="324.19 228.28 354.58 253.87 363.66 251.06 324.19 228.28" style="fill:#fff"></polygon><path d="M418.94,198.18c-.17-.26-.28-.4-.28-.4l-20.44,11.8,23-1.89C422,203.42,419.75,199.43,418.94,198.18Z" style="opacity:0.1"></path><polygon points="398.21 209.58 418.66 197.78 425.47 201.37 398.21 209.58" style="fill:#fafafa"></polygon><g style="opacity:0.15"><path d="M293.26,164.15a.79.79,0,0,1-.4-1.48l51.53-29.75a.8.8,0,0,1,1.09.29.79.79,0,0,1-.29,1.08L293.66,164A.73.73,0,0,1,293.26,164.15Z"></path><path d="M301.85,169.11a.8.8,0,0,1-.69-.4.79.79,0,0,1,.29-1.08L353,137.88a.79.79,0,1,1,.79,1.37L302.24,169A.7.7,0,0,1,301.85,169.11Z"></path><path d="M310.44,174.07a.79.79,0,0,1-.4-1.48l51.53-29.75a.79.79,0,1,1,.79,1.37L310.83,174A.79.79,0,0,1,310.44,174.07Z"></path><path d="M319,179a.79.79,0,0,1-.4-1.48l51.53-29.75a.79.79,0,1,1,.79,1.37l-51.53,29.75A.79.79,0,0,1,319,179Z"></path><path d="M327.61,184a.79.79,0,0,1-.39-1.48l51.53-29.75a.79.79,0,0,1,.79,1.37L328,183.88A.8.8,0,0,1,327.61,184Z"></path><path d="M336.2,188.94a.79.79,0,0,1-.39-1.47l51.52-29.76a.82.82,0,0,1,1.09.29.8.8,0,0,1-.29,1.09L336.6,188.84A.79.79,0,0,1,336.2,188.94Z"></path><path d="M344.79,193.9a.81.81,0,0,1-.69-.39.8.8,0,0,1,.29-1.09l51.53-29.75A.81.81,0,0,1,397,163a.8.8,0,0,1-.29,1.09L345.19,193.8A.85.85,0,0,1,344.79,193.9Z"></path><path d="M353.38,198.86a.81.81,0,0,1-.69-.39.8.8,0,0,1,.29-1.09l51.53-29.75a.81.81,0,0,1,1.09.29.8.8,0,0,1-.29,1.09l-51.53,29.75A.85.85,0,0,1,353.38,198.86Z"></path><path d="M362,203.82a.79.79,0,0,1-.4-1.48l51.53-29.75a.8.8,0,0,1,1.08.29.79.79,0,0,1-.29,1.08l-51.53,29.75A.7.7,0,0,1,362,203.82Z"></path></g></g><polygon points="419.96 174.79 363.35 210 363.35 219.76 277.46 170.73 277.46 160.33 336.86 126.03 419.96 174.79" style="opacity:0.1"></polygon><g id="freepik--sheets--inject-2"><g id="freepik--character--inject-2"><polygon points="265.54 158.94 355.21 210.81 355.21 155.81 265.54 103.94 265.54 158.94" style="fill:#e0e0e0"></polygon><polygon points="417.37 174.92 355.21 210.81 355.21 155.81 417.37 119.92 417.37 174.92" style="fill:#ebebeb"></polygon><polygon points="265.54 103.94 327.7 68.05 417.37 119.92 355.21 155.81 265.54 103.94" style="fill:#fff"></polygon><path d="M327.7,69.18l87.72,50.74-60.21,34.76-87.72-50.74L327.7,69.18m0-1.13-62.16,35.89,89.67,51.87,62.16-35.89L327.7,68.05Z" style="fill:#ebebeb"></path></g><polygon points="312.27 149.41 355.21 174.21 380.98 159.33 355.21 175.74 312.27 149.41" style="opacity:0.1"></polygon><polygon points="286.5 148.4 355.21 188.06 406.74 158.31 355.21 189.56 286.5 148.4" style="opacity:0.1"></polygon><path d="M274.17,124.35s-1.42,8-.71,12.08c0,0,11.24-.28,30.22,5Z" style="opacity:0.1"></path><polygon points="274.17 124.35 303.68 141.39 271.02 131.96 274.17 124.35" style="fill:#fff"></polygon><path d="M312.27,171.89l32.36,29.75s.9-4.09,7.11-7Z" style="opacity:0.1"></path><polygon points="312.27 171.89 342.66 197.48 351.74 194.68 312.27 171.89" style="fill:#fafafa"></polygon><path d="M407,141.79c-.17-.26-.28-.4-.28-.4l-20.45,11.8,23-1.89C410.1,147,407.83,143,407,141.79Z" style="opacity:0.1"></path><polygon points="386.29 153.19 406.74 141.39 413.55 144.98 386.29 153.19" style="fill:#fafafa"></polygon><g style="opacity:0.15"><path d="M281.34,107.76a.81.81,0,0,1-.69-.39.8.8,0,0,1,.29-1.09l51.53-29.75a.81.81,0,0,1,1.09.29.8.8,0,0,1-.3,1.08l-51.53,29.76A.78.78,0,0,1,281.34,107.76Z"></path><path d="M289.93,112.72a.79.79,0,0,1-.4-1.48l51.53-29.75a.79.79,0,0,1,.79,1.37l-51.53,29.75A.7.7,0,0,1,289.93,112.72Z"></path><path d="M298.51,117.68a.79.79,0,0,1-.39-1.48l51.53-29.75a.79.79,0,1,1,.79,1.37l-51.53,29.75A.71.71,0,0,1,298.51,117.68Z"></path><path d="M307.1,122.64a.79.79,0,0,1-.39-1.48l51.52-29.75a.8.8,0,0,1,1.09.29.79.79,0,0,1-.29,1.08L307.5,122.53A.8.8,0,0,1,307.1,122.64Z"></path><path d="M315.69,127.6a.82.82,0,0,1-.69-.4.8.8,0,0,1,.29-1.08l51.53-29.75a.8.8,0,0,1,1.09.29.79.79,0,0,1-.29,1.08l-51.53,29.75A.83.83,0,0,1,315.69,127.6Z"></path><path d="M324.28,132.56a.82.82,0,0,1-.69-.4.79.79,0,0,1,.29-1.08l51.53-29.75a.79.79,0,1,1,.79,1.37l-51.52,29.75A.86.86,0,0,1,324.28,132.56Z"></path><path d="M332.87,137.52a.82.82,0,0,1-.69-.4.79.79,0,0,1,.29-1.08L384,106.28a.8.8,0,0,1,.79,1.38l-51.53,29.75A.79.79,0,0,1,332.87,137.52Z"></path><path d="M341.46,142.47a.79.79,0,0,1-.4-1.48l51.53-29.75a.8.8,0,0,1,.79,1.38l-51.53,29.75A.78.78,0,0,1,341.46,142.47Z"></path><path d="M350,147.43a.79.79,0,0,1-.39-1.48l51.53-29.75a.8.8,0,0,1,.79,1.38l-51.53,29.75A.79.79,0,0,1,350,147.43Z"></path></g></g></g></g><g id="freepik--Timer--inject-2"><g id="freepik--timer--inject-2"><g id="freepik--Clock--inject-2"><g id="freepik--clock--inject-2"><path d="M211.83,68.58,178.21,49.17l-.13-.07-.24-.14h0c-16.31-9.23-38.72-7.81-63.48,6.48C64.54,84.21,24.15,154.17,24.15,211.7c0,28.58,10,48.71,26.13,58.21h0l.25.14.12.07,33.62,19.41L90,274.45a96,96,0,0,0,25-10.34c49.82-28.76,90.21-98.72,90.21-156.24a96.15,96.15,0,0,0-3.47-26.58Z" style="fill:#407BFF"></path><path d="M211.83,68.58,178.21,49.17l-.13-.07-.24-.14h0c-16.31-9.23-38.72-7.81-63.48,6.48C64.54,84.21,24.15,154.17,24.15,211.7c0,28.58,10,48.71,26.13,58.21h0l.25.14.12.07,33.62,19.41L90,274.45a96,96,0,0,0,25-10.34c49.82-28.76,90.21-98.72,90.21-156.24a96.15,96.15,0,0,0-3.47-26.58Z" style="fill:#fff;opacity:0.4"></path><path d="M24.94,197.63a134.65,134.65,0,0,0-.79,14.07c0,28.58,10,48.71,26.13,58.21h0l.25.14.12.07,33.62,19.41L90,274.45c1.88-.46,3.78-1,5.7-1.64l8.53-29.41Z" style="fill:#407BFF;opacity:0.4"></path><ellipse cx="148.35" cy="179.24" rx="127.57" ry="73.66" transform="translate(-81.05 218.09) rotate(-60)" style="fill:#407BFF"></ellipse><ellipse cx="148.35" cy="179.24" rx="127.57" ry="73.66" transform="translate(-81.05 218.09) rotate(-60)" style="fill:#fff;opacity:0.6000000000000001"></ellipse><path d="M216.79,93.2c-11.18-19.38-34.12-21.56-61.34-5.84-45.06,26-83.12,91.94-83.12,144,0,13.63,2.62,25.37,7.58,33.95,11.18,19.38,34.12,21.56,61.34,5.84,45.06-26,83.12-91.93,83.12-144,0-13.63-2.62-25.37-7.57-33.95Z" style="fill:#407BFF"></path><path d="M218,93.92c-12.67-20.23-37.22-23.34-65.65-8.32-47,24.86-85.12,90.78-83.12,144,.53,13.94,3.77,26,9.39,35,12.67,20.24,37.21,23.35,65.65,8.32,47.05-24.85,85.11-90.77,83.11-144-.52-13.94-3.76-26-9.38-35Z" style="fill:#407BFF"></path><path d="M218,93.92c-12.67-20.23-37.22-23.34-65.65-8.32-47,24.86-85.12,90.78-83.12,144,.53,13.94,3.77,26,9.39,35,12.67,20.24,37.21,23.35,65.65,8.32,47.05-24.85,85.11-90.77,83.11-144-.52-13.94-3.76-26-9.38-35Z" style="fill:#fff;opacity:0.4"></path><path d="M135.14,267.72c-18.1,9.57-34.61,11.75-47.5,6.87a38.31,38.31,0,0,1-9-10c-5.62-9-8.86-21.06-9.39-35-2-53.17,36.07-119.09,83.12-144C170.5,76,187,73.85,199.9,78.73a38.65,38.65,0,0,1,9,10h0c5.61,9,8.85,21.06,9.38,35C220.25,177,182.2,242.87,135.14,267.72Z" style="fill:#fafafa"></path><path d="M148.58,179.24l-49.76-3.35q18.17-35.47,45-53.44Z" style="fill:#407BFF;opacity:0.30000000000000004"></path><path d="M142.82,98.7a4.4,4.4,0,0,0-1.9,3.47v9.77c0,1.31.85,1.87,1.9,1.25a4.38,4.38,0,0,0,1.9-3.47V100C144.72,98.65,143.87,98.09,142.82,98.7Z" style="fill:#407BFF"></path><path d="M207.63,136.12a4.36,4.36,0,0,1-2,3.38l-8.46,4.9c-1.13.65-2,.19-2-1a4.36,4.36,0,0,1,2-3.38l8.46-4.9C206.73,134.45,207.64,134.91,207.63,136.12Z" style="fill:#407BFF"></path><path d="M75.63,215.07a4.45,4.45,0,0,1,2.05-3.38l8.46-4.89c1.13-.65,2-.2,2,1a4.42,4.42,0,0,1-2.06,3.38l-8.46,4.9C76.54,216.75,75.62,216.29,75.63,215.07Z" style="fill:#407BFF"></path><path d="M140.45,252.5a4.41,4.41,0,0,0,1.9-3.47v-9.78c0-1.3-.85-1.86-1.9-1.25a4.41,4.41,0,0,0-1.91,3.47v9.77C138.54,252.55,139.4,253.11,140.45,252.5Z" style="fill:#407BFF"></path></g><polygon points="146.65 182.76 98.82 175.89 150.41 175.89 146.65 182.76" style="fill:#407BFF"></polygon><path d="M148.49,123.37s4.43,41.09,5.81,50.62a6.68,6.68,0,0,1,.21,1.69,13.63,13.63,0,0,1-6.16,10.67c-1.7,1-3.24,1.07-4.35.43-.57-.33-2.74-1.59-3.3-1.9-1.14-.64-1.84-2-1.84-4C138.3,171,142,123.76,142,123.76l3.21-2.31Z" style="fill:#37474f"></path><path d="M154.51,175.68a13.63,13.63,0,0,1-6.16,10.67c-3.4,2-6.16.37-6.16-3.56-.56-9.84,3.09-57.1,3.09-57.1l3.21-2.32S154.49,171.74,154.51,175.68Z" style="fill:#455a64"></path><path d="M151.13,177.63a6.14,6.14,0,0,1-2.78,4.82c-1.54.89-2.78.17-2.78-1.61a6.15,6.15,0,0,1,2.78-4.82C149.89,175.14,151.13,175.85,151.13,177.63Z" style="fill:#263238"></path><rect x="188.22" y="174.47" width="9.98" height="0.83" transform="translate(-19.52 24.35) rotate(-6.86)" style="fill:#37474f"></rect><rect x="166.34" y="215.71" width="0.83" height="9.98" transform="matrix(0.92, -0.39, 0.39, 0.92, -73.3, 83.27)" style="fill:#37474f"></rect><rect x="116.45" y="125.82" width="0.83" height="9.98" transform="matrix(0.92, -0.39, 0.39, 0.92, -42, 56.44)" style="fill:#37474f"></rect><rect x="85.43" y="176.2" width="9.98" height="0.83" transform="translate(-20.48 12.09) rotate(-6.87)" style="fill:#37474f"></rect><rect x="193.95" y="111.24" width="13.36" height="0.83" transform="translate(-16.23 187.08) rotate(-48.27)" style="fill:#37474f"></rect><rect x="160.83" y="92.11" width="13.36" height="0.83" transform="translate(27.04 222.48) rotate(-71.69)" style="fill:#37474f"></rect><rect x="109.02" y="258.35" width="13.36" height="0.83" transform="translate(-166.31 287.3) rotate(-71.69)" style="fill:#37474f"></rect><rect x="75.89" y="239.22" width="13.36" height="0.83" transform="translate(-151.24 141.77) rotate(-48.27)" style="fill:#37474f"></rect></g><path d="M140.81,44a3,3,0,0,0-1.8-2.5,9.57,9.57,0,0,0-8.66,0,3,3,0,0,0-1.8,2.5v23.5a3,3,0,0,0,1.8,2.5A9.57,9.57,0,0,0,139,70a3,3,0,0,0,1.8-2.5Z" style="fill:#455a64"></path><path d="M130.35,46.47a3,3,0,0,1-1.8-2.5,3,3,0,0,1,1.8-2.5,9.57,9.57,0,0,1,8.66,0,3,3,0,0,1,1.8,2.5,3,3,0,0,1-1.8,2.5A9.57,9.57,0,0,1,130.35,46.47Z" style="fill:#37474f"></path><path d="M152.18,29.6c0-2.59-1.7-5.18-5.12-7.15-6.83-3.94-17.91-3.94-24.75,0-3.41,2-5.12,4.56-5.12,7.15V51c0,2.58,1.71,5.17,5.12,7.14,6.84,3.95,17.92,3.95,24.75,0,3.42-2,5.12-4.56,5.12-7.14Z" style="fill:#407BFF"></path><path d="M122.31,36.74c-3.41-2-5.12-4.56-5.12-7.14s1.71-5.18,5.12-7.15c6.84-3.94,17.92-3.94,24.75,0,3.42,2,5.12,4.56,5.12,7.15s-1.7,5.17-5.12,7.14C140.23,40.68,129.15,40.68,122.31,36.74Z" style="fill:#fff;opacity:0.30000000000000004"></path><path d="M123.07,37.12V58.54c.49.24,1,.48,1.53.7V37.82A12.41,12.41,0,0,1,123.07,37.12ZM128.44,39V60.45c.48.1,1,.19,1.52.25V39.28A12,12,0,0,1,128.44,39Zm-9.63-5.21V55.22a11.66,11.66,0,0,0,1.52,1.55V35.36A8.25,8.25,0,0,1,118.81,33.8Zm25.77,4.11V59.33c.55-.22,1-.46,1.52-.7V37.21A11.64,11.64,0,0,1,144.58,37.91Zm4.26-2.4V56.92a12.06,12.06,0,0,0,1.53-1.49V34.08A9.11,9.11,0,0,1,148.84,35.51Zm-9.62,3.81V60.73c.52-.06,1-.15,1.52-.24V39C140.22,39.16,139.74,39.25,139.22,39.32Zm-5.3.33V61.09h1.52V39.65A6.44,6.44,0,0,1,133.92,39.65Z" style="opacity:0.2"></path><path d="M70.91,96a3.07,3.07,0,0,0-3.07-.25,9.6,9.6,0,0,0-5.61,6.61,3,3,0,0,0,.75,3L80.9,120.5a3,3,0,0,0,3.06.25,9.55,9.55,0,0,0,5.61-6.61,3,3,0,0,0-.75-3Z" style="fill:#455a64"></path><path d="M66.05,105.55a2.64,2.64,0,0,1-3.82-3.24,9.6,9.6,0,0,1,5.61-6.61,2.64,2.64,0,0,1,3.81,3.24A9.56,9.56,0,0,1,66.05,105.55Z" style="fill:#37474f"></path><path d="M69.72,87.43c-1.33-1.13-3.41-1.38-5.92-.49-5,1.8-9.88,7.51-10.83,12.76-.48,2.63.1,4.64,1.44,5.77l11,9.38c1.33,1.13,3.41,1.38,5.93.48,5-1.79,9.87-7.51,10.82-12.76.48-2.62-.1-4.63-1.44-5.77Z" style="fill:#407BFF"></path><path d="M60.33,106c-2.51.9-4.59.64-5.92-.49S52.49,102.33,53,99.7c1-5.25,5.8-11,10.83-12.76,2.51-.9,4.59-.64,5.92.49s1.92,3.14,1.44,5.77C70.21,98.45,65.36,104.16,60.33,106Z" style="fill:#fff;opacity:0.30000000000000004"></path><path d="M60.87,105.73l11,9.37c.34-.14.69-.3,1-.48l-11-9.37A7.89,7.89,0,0,1,60.87,105.73Zm3.31-1.94,11.06,9.39c.26-.21.54-.44.8-.68L65,103.13A7.09,7.09,0,0,1,64.18,103.79Zm-6.89,2.69,11,9.37a6.8,6.8,0,0,0,1.47-.11l-11-9.37A5.73,5.73,0,0,1,57.29,106.48ZM70.68,95l11,9.37c.13-.38.21-.74.3-1.09L71,93.9A8.43,8.43,0,0,1,70.68,95Zm.63-3.25,11,9.37a8.14,8.14,0,0,0-.1-1.44l-11-9.35A6,6,0,0,1,71.31,91.74Zm-2.25,6.63,11,9.37q.3-.45.54-.9l-11-9.38A10.28,10.28,0,0,1,69.06,98.37Zm-2.15,2.88L78,110.63l.67-.79-11.06-9.38A4.19,4.19,0,0,1,66.91,101.25Z" style="opacity:0.2"></path><rect x="192.33" y="50.2" width="12.19" height="9.85" transform="translate(342.7 202.08) rotate(-150)" style="fill:#455a64"></rect><rect x="192.61" y="37.36" width="23.91" height="14.5" rx="1.81" transform="matrix(-0.87, -0.5, 0.5, -0.87, 359.41, 185.52)" style="fill:#407BFF"></rect><rect x="200.42" y="45.89" width="14.5" height="1.03" transform="translate(63.65 203.05) rotate(-60)" style="opacity:0.2"></rect><path d="M217.35,43.69l-7.19,12.44a1.82,1.82,0,0,1-.44-.17l-.48-.28,7.25-12.56.48.28A2.12,2.12,0,0,1,217.35,43.69Z" style="opacity:0.2"></path><rect x="203.56" y="47.7" width="14.5" height="1.03" transform="translate(63.66 206.68) rotate(-60)" style="opacity:0.2"></rect><path d="M191.7,45.43l7.14-12.38a1.58,1.58,0,0,1,.56.21l.39.22L192.54,46l-.39-.22A1.89,1.89,0,0,1,191.7,45.43Z" style="opacity:0.2"></path><rect x="197.21" y="44.03" width="14.5" height="1.03" transform="translate(63.64 199.34) rotate(-60)" style="opacity:0.2"></rect><rect x="190.96" y="40.43" width="14.5" height="1.03" transform="translate(63.64 192.13) rotate(-60)" style="opacity:0.2"></rect><rect x="194.1" y="42.24" width="14.5" height="1.03" transform="translate(63.64 195.75) rotate(-60)" style="opacity:0.2"></rect></g></g><g id="freepik--Calendar--inject-2"><g id="freepik--calendar--inject-2"><path d="M34,404a2.56,2.56,0,0,1-1.07-2.63L58.69,287.23a4.72,4.72,0,0,1,2-2.68L214.06,196a3.38,3.38,0,0,1,3.05-.06,2.56,2.56,0,0,1,1.07,2.63L192.4,312.68a4.72,4.72,0,0,1-2,2.68L37,403.92A3.38,3.38,0,0,1,34,404Z" style="fill:#407BFF"></path><path d="M34,404a2.56,2.56,0,0,1-1.07-2.63L58.69,287.23a4.72,4.72,0,0,1,2-2.68L214.06,196a3.38,3.38,0,0,1,3.05-.06,2.56,2.56,0,0,1,1.07,2.63L192.4,312.68a4.72,4.72,0,0,1-2,2.68L37,403.92A3.38,3.38,0,0,1,34,404Z" style="fill:#fff;opacity:0.8"></path><path d="M61.64,288.94,35.86,403.06c-.22,1,.3,1.36,1.17.86l153.4-88.56a4.72,4.72,0,0,0,2-2.68l25.78-114.12c.22-1-.3-1.37-1.17-.87L63.62,286.26A4.73,4.73,0,0,0,61.64,288.94Z" style="fill:#407BFF"></path><path d="M61.64,288.94,35.86,403.06c-.22,1,.3,1.36,1.17.86l153.4-88.56a4.72,4.72,0,0,0,2-2.68l25.78-114.12c.22-1-.3-1.37-1.17-.87L63.62,286.26A4.73,4.73,0,0,0,61.64,288.94Z" style="fill:#fff;opacity:0.6000000000000001"></path><path d="M61.64,288.94,35.86,403.06c-.22,1,.3,1.36,1.17.86l153.4-88.56a4.72,4.72,0,0,0,2-2.68l25.78-114.12c.22-1-.3-1.37-1.17-.87L63.62,286.26A4.73,4.73,0,0,0,61.64,288.94Z" style="opacity:0.05"></path><path d="M220.06,197.64a3.38,3.38,0,0,0-3.05.05L63.62,286.26A2.89,2.89,0,0,0,62.3,289L82.46,430.31A4.1,4.1,0,0,0,84.19,433a3.4,3.4,0,0,0,3.06-.06l153.39-88.56a2.91,2.91,0,0,0,1.32-2.71L221.79,200.29A4.07,4.07,0,0,0,220.06,197.64Z" style="fill:#407BFF"></path><path d="M220.06,197.64a3.38,3.38,0,0,0-3.05.05L63.62,286.26A2.89,2.89,0,0,0,62.3,289L82.46,430.31A4.1,4.1,0,0,0,84.19,433a3.4,3.4,0,0,0,3.06-.06l153.39-88.56a2.91,2.91,0,0,0,1.32-2.71L221.79,200.29A4.07,4.07,0,0,0,220.06,197.64Z" style="fill:#fff;opacity:0.8"></path><path d="M65.25,290.67,85.41,432a1.15,1.15,0,0,0,1.84.89l153.39-88.56a2.91,2.91,0,0,0,1.32-2.71L221.79,200.29a1.14,1.14,0,0,0-1.83-.89L66.57,288A2.91,2.91,0,0,0,65.25,290.67Z" style="fill:#407BFF"></path><path d="M65.25,290.67,85.41,432a1.15,1.15,0,0,0,1.84.89l153.39-88.56a2.91,2.91,0,0,0,1.32-2.71L221.79,200.29a1.14,1.14,0,0,0-1.83-.89L66.57,288A2.91,2.91,0,0,0,65.25,290.67Z" style="fill:#fff;opacity:0.9500000000000001"></path><path d="M76.43,388l-18,10.39h0a3,3,0,0,0-1.11,0l-21.24,4.1H36l39.25-22.68Z" style="fill:#407BFF"></path><path d="M76.43,388l-18,10.39h0a3,3,0,0,0-1.11,0l-21.24,4.1H36l39.25-22.68Z" style="fill:#fff;opacity:0.5"></path><path d="M76.43,388l-18,10.39h0a3,3,0,0,0-1.11,0l-21.24,4.1H36l39.25-22.68Z" style="opacity:0.2"></path><path d="M82.3,429.21,60.17,399.4a3,3,0,0,0-1.67-1L76.43,388Z" style="fill:#407BFF"></path><path d="M82.3,429.21,60.17,399.4a3,3,0,0,0-1.67-1L76.43,388Z" style="fill:#fff;opacity:0.6000000000000001"></path><path d="M82.3,429.21,60.17,399.4a3,3,0,0,0-1.67-1L76.43,388Z" style="opacity:0.1"></path><path d="M81.61,430.6,60.2,402.79a3.4,3.4,0,0,0-2.91-1.18l-20,2.89a6,6,0,0,1-3.28-.59c-.81-.47-.67-1,.31-1.2l23-4.43a3.15,3.15,0,0,1,2.87,1.12l24.42,32.89c.6.8.42,1.08-.4.61A10.77,10.77,0,0,1,81.61,430.6Z" style="fill:#407BFF"></path><path d="M81.61,430.6,60.2,402.79a3.4,3.4,0,0,0-2.91-1.18l-20,2.89a6,6,0,0,1-3.28-.59c-.81-.47-.67-1,.31-1.2l23-4.43a3.15,3.15,0,0,1,2.87,1.12l24.42,32.89c.6.8.42,1.08-.4.61A10.77,10.77,0,0,1,81.61,430.6Z" style="fill:#fff;opacity:0.8"></path><path d="M218.23,198a2.5,2.5,0,0,0-1.12-2.07,3.41,3.41,0,0,0-3.05.06L60.66,284.55a4.48,4.48,0,0,0-1.2,1.12,4.61,4.61,0,0,0-.78,1.57l-3.63,16.12,3,1.69,156.54-90.38,3.64-16.11a2.28,2.28,0,0,0,0-.56Z" style="fill:#407BFF"></path><path d="M218.18,198.56c.22-1-.3-1.37-1.17-.87L63.62,286.26a4.73,4.73,0,0,0-2,2.68L58,305.05l156.54-90.38Z" style="opacity:0.6000000000000001"></path><path d="M62.41,287.38a4.36,4.36,0,0,0-.77,1.56L58,305.05l-3-1.69,3.63-16.12a4.52,4.52,0,0,1,.78-1.57Z" style="opacity:0.5"></path><path d="M218.23,198c-.07-.55-.55-.69-1.22-.3L63.61,286.25a4.23,4.23,0,0,0-1.2,1.13l-2.95-1.71a4.48,4.48,0,0,1,1.2-1.12L214.06,196a3.41,3.41,0,0,1,3.05-.06A2.52,2.52,0,0,1,218.23,198Z" style="opacity:0.2"></path><path d="M222,201.64h0l-.2-1.35a.79.79,0,0,0,0-.2.11.11,0,0,0,0-.05h0a4.08,4.08,0,0,0-1.68-2.39,3.38,3.38,0,0,0-3.05.05L63.62,286.26a2.68,2.68,0,0,0-1.06,1.21h0a2.65,2.65,0,0,0-.26,1.5l2.89,20.25,3,1.71,156.55-90.38Z" style="fill:#407BFF"></path><path d="M224.69,220.55,68.14,310.93l-2.89-20.26a2.68,2.68,0,0,1,.27-1.5,2.71,2.71,0,0,1,1-1.21L220,199.4a1.11,1.11,0,0,1,1.75.58l0,.06a.43.43,0,0,1,0,.05c0,.07,0,.14.05.2l.19,1.35h0Z" style="opacity:0.2"></path><path d="M68.14,310.93l-3-1.71L62.3,289a2.65,2.65,0,0,1,.26-1.5l3,1.7a2.68,2.68,0,0,0-.27,1.5Z" style="opacity:0.5"></path><path d="M221.74,200a1.11,1.11,0,0,0-1.77-.64L66.57,288a2.71,2.71,0,0,0-1,1.21l-3-1.7a2.86,2.86,0,0,1,1-1.22L217,197.7a3.38,3.38,0,0,1,3.05-.06A4.1,4.1,0,0,1,221.74,200Z" style="opacity:0.30000000000000004"></path><g style="opacity:0.2"><path d="M79.32,290.83a5.25,5.25,0,0,1,2.5-4.85c1.63-.94,3.15-.3,3.4,1.44a5.27,5.27,0,0,1-2.5,4.86C81.09,293.22,79.57,292.58,79.32,290.83Z"></path><path d="M100,278.89a5.28,5.28,0,0,1,2.5-4.86c1.63-.94,3.16-.29,3.4,1.45a5.28,5.28,0,0,1-2.5,4.86C101.78,281.28,100.26,280.63,100,278.89Z"></path><path d="M120.67,267a5.27,5.27,0,0,1,2.5-4.86c1.63-.94,3.16-.29,3.4,1.45a5.25,5.25,0,0,1-2.5,4.85C122.44,269.35,120.92,268.7,120.67,267Z"></path><path d="M162,243.09a5.28,5.28,0,0,1,2.5-4.86c1.63-.94,3.16-.29,3.41,1.45a5.29,5.29,0,0,1-2.51,4.86C163.78,245.48,162.26,244.83,162,243.09Z"></path><path d="M182.71,231.15a5.27,5.27,0,0,1,2.5-4.86c1.63-.94,3.15-.29,3.4,1.45a5.25,5.25,0,0,1-2.5,4.85C184.48,233.53,183,232.89,182.71,231.15Z"></path><path d="M203.37,219.21a5.25,5.25,0,0,1,2.5-4.85c1.63-.94,3.15-.3,3.4,1.44a5.27,5.27,0,0,1-2.5,4.86C205.14,221.6,203.61,221,203.37,219.21Z"></path></g><path d="M85.58,284.6a9.46,9.46,0,0,1-.16,1.79,7.89,7.89,0,0,1-.22.9,5.49,5.49,0,0,1-2.47,3.29,5.08,5.08,0,0,1-2.62.69,4.51,4.51,0,0,1-.72,0,3.82,3.82,0,0,1-.08-.39,4.56,4.56,0,0,1,.39-2.37,2.61,2.61,0,0,0,1.64-.28,3.41,3.41,0,0,0,1.4-2.57c0-.05,0-.09,0-.13a7.61,7.61,0,0,0,0-.88,14.32,14.32,0,0,0-2.76-7.83,16.18,16.18,0,0,0-2-2.28,10.73,10.73,0,0,0-2-1.47c-1.51-.86-2.9-1-3.84-.52s-1.47,1.82-1.47,3.58a11.44,11.44,0,0,0,.3,2.44L68.63,280l0-.16a13.62,13.62,0,0,1-.55-3.71c0-2.79,1-4.92,2.86-6s4.18-.88,6.6.52a13.9,13.9,0,0,1,3.06,2.45,17.83,17.83,0,0,1,1.86,2.32A17.16,17.16,0,0,1,85.58,284.6Z" style="fill:#263238"></path><path d="M106.27,272.66a10.55,10.55,0,0,1-.15,1.79,6.51,6.51,0,0,1-.23.92,5.44,5.44,0,0,1-2.47,3.27,5.05,5.05,0,0,1-2.62.69,5.62,5.62,0,0,1-.7-.05,2.23,2.23,0,0,1-.09-.39,4.55,4.55,0,0,1,.38-2.37,2.65,2.65,0,0,0,1.64-.28,3.38,3.38,0,0,0,1.4-2.58s0-.08,0-.12a7.48,7.48,0,0,0,0-.88,15.28,15.28,0,0,0-4.72-10.11,10.92,10.92,0,0,0-2-1.48c-1.51-.86-2.9-1.05-3.84-.51s-1.47,1.81-1.47,3.58a10.86,10.86,0,0,0,.31,2.43L89.32,268l0-.16a13.49,13.49,0,0,1-.55-3.7c0-2.8,1-4.92,2.86-6s4.18-.87,6.61.52a13.91,13.91,0,0,1,3,2.45,18.45,18.45,0,0,1,1.86,2.33A17.05,17.05,0,0,1,106.27,272.66Z" style="fill:#263238"></path><path d="M126.93,260.73a10.55,10.55,0,0,1-.15,1.79,6.73,6.73,0,0,1-.23.91,5.47,5.47,0,0,1-2.47,3.28,5.08,5.08,0,0,1-2.62.69,5.49,5.49,0,0,1-.7,0,2.23,2.23,0,0,1-.09-.39,4.45,4.45,0,0,1,.38-2.37,2.67,2.67,0,0,0,1.64-.28,3.37,3.37,0,0,0,1.4-2.58s0-.08,0-.12a7.61,7.61,0,0,0,0-.88,14.32,14.32,0,0,0-2.76-7.83,15,15,0,0,0-2-2.28,11.28,11.28,0,0,0-2-1.48c-1.51-.86-2.9-1-3.84-.51s-1.47,1.81-1.47,3.58a11.44,11.44,0,0,0,.3,2.44L110,256.08l0-.17a13.86,13.86,0,0,1-.54-3.7c0-2.8,1-4.92,2.86-6s4.18-.87,6.6.53a13.57,13.57,0,0,1,3.05,2.44,17.9,17.9,0,0,1,1.88,2.33A17.2,17.2,0,0,1,126.93,260.73Z" style="fill:#263238"></path><path d="M168.28,236.89a10.46,10.46,0,0,1-.15,1.79,8.43,8.43,0,0,1-.23.93,5.51,5.51,0,0,1-2.47,3.27,5.13,5.13,0,0,1-2.61.68,5.52,5.52,0,0,1-.71-.05,2.58,2.58,0,0,1-.1-.42,4.53,4.53,0,0,1,.37-2.34,2.62,2.62,0,0,0,1.67-.28,3.43,3.43,0,0,0,1.4-2.61.28.28,0,0,1,0-.09,7.35,7.35,0,0,0,0-.88,15.28,15.28,0,0,0-4.75-10.13,11.26,11.26,0,0,0-1.94-1.45c-1.51-.87-2.9-1.05-3.84-.52s-1.46,1.82-1.46,3.58a10.46,10.46,0,0,0,.29,2.4l-2.49,1.44,0-.13a14,14,0,0,1-.54-3.71c0-2.8,1-4.92,2.86-6s4.18-.88,6.6.51a13.71,13.71,0,0,1,3,2.43,17.9,17.9,0,0,1,1.88,2.33A17.16,17.16,0,0,1,168.28,236.89Z" style="fill:#263238"></path><path d="M189,224.94a10.39,10.39,0,0,1-.16,1.8,6.51,6.51,0,0,1-.23.92,5.48,5.48,0,0,1-2.47,3.27,5.11,5.11,0,0,1-2.61.68,5.63,5.63,0,0,1-.71,0,2.71,2.71,0,0,1-.1-.43,4.49,4.49,0,0,1,.37-2.33,2.61,2.61,0,0,0,1.67-.29,3.38,3.38,0,0,0,1.4-2.6s0-.06,0-.1c0-.25,0-.54,0-.88a14.25,14.25,0,0,0-2.78-7.85,15,15,0,0,0-2-2.28,11.26,11.26,0,0,0-1.94-1.45c-1.51-.86-2.9-1.05-3.84-.51s-1.47,1.82-1.47,3.58a11,11,0,0,0,.29,2.39L172,220.26l0-.13a13.94,13.94,0,0,1-.55-3.7c0-2.8,1-4.93,2.86-6s4.19-.89,6.61.51a13.66,13.66,0,0,1,3,2.43h0a17.83,17.83,0,0,1,1.87,2.33A17.11,17.11,0,0,1,189,224.94Z" style="fill:#263238"></path><path d="M209.64,213a10.39,10.39,0,0,1-.16,1.8,8.46,8.46,0,0,1-.23.9,5.46,5.46,0,0,1-2.47,3.29,5.13,5.13,0,0,1-2.61.68,5.74,5.74,0,0,1-.71,0,3,3,0,0,1-.09-.43,4.48,4.48,0,0,1,.36-2.33,2.63,2.63,0,0,0,1.67-.29,3.41,3.41,0,0,0,1.4-2.6.34.34,0,0,1,0-.1,7.35,7.35,0,0,0,.05-.88,14.25,14.25,0,0,0-2.78-7.85,14.47,14.47,0,0,0-2-2.27,10.49,10.49,0,0,0-1.94-1.46c-1.51-.86-2.89-1.05-3.83-.51s-1.47,1.81-1.47,3.58a10.53,10.53,0,0,0,.29,2.4l-2.49,1.43,0-.13a14,14,0,0,1-.55-3.7c0-2.8,1-4.92,2.86-6s4.18-.89,6.61.51a13.9,13.9,0,0,1,3,2.42,18.59,18.59,0,0,1,1.88,2.33A17.17,17.17,0,0,1,209.64,213Z" style="fill:#263238"></path><polygon points="71.56 334.73 228.09 244.43 224.69 220.55 68.14 310.86 71.56 334.73" style="fill:#407BFF"></polygon><g style="opacity:0.65"><polygon points="71.56 334.73 228.09 244.43 224.69 220.55 68.14 310.86 71.56 334.73" style="fill:#fff"></polygon></g><path d="M83.9,340.52c.19,1.32,1.41,1.77,2.73,1l11.74-6.78a4.13,4.13,0,0,0,2-3.76c-.19-1.32-1.41-1.77-2.73-1L86,336.76A4.14,4.14,0,0,0,83.9,340.52Z" style="fill:#407BFF"></path><path d="M103.71,329.08c.19,1.32,1.41,1.77,2.73,1l11.75-6.78a4.12,4.12,0,0,0,2-3.76c-.19-1.32-1.41-1.77-2.73-1l-11.74,6.78A4.16,4.16,0,0,0,103.71,329.08Z" style="fill:#407BFF"></path><path d="M123.53,317.64c.19,1.32,1.41,1.77,2.72,1L138,311.87a4.15,4.15,0,0,0,2.05-3.76c-.19-1.32-1.41-1.77-2.73-1l-11.75,6.78A4.13,4.13,0,0,0,123.53,317.64Z" style="fill:#407BFF"></path><path d="M143.34,306.2c.19,1.32,1.41,1.77,2.73,1l11.74-6.78a4.13,4.13,0,0,0,2.05-3.76c-.19-1.32-1.41-1.77-2.73-1l-11.74,6.78A4.14,4.14,0,0,0,143.34,306.2Z" style="fill:#407BFF"></path><path d="M163.15,294.76c.19,1.32,1.41,1.77,2.73,1L177.63,289a4.14,4.14,0,0,0,2-3.76c-.19-1.32-1.41-1.77-2.73-1L165.2,291A4.16,4.16,0,0,0,163.15,294.76Z" style="fill:#407BFF"></path><path d="M183,283.32c.19,1.32,1.41,1.77,2.72,1l11.75-6.78a4.12,4.12,0,0,0,2-3.76c-.18-1.32-1.4-1.77-2.72-1L185,279.56A4.13,4.13,0,0,0,183,283.32Z" style="fill:#407BFF"></path><path d="M202.78,271.88c.19,1.32,1.41,1.77,2.73,1l11.74-6.78a4.13,4.13,0,0,0,2.05-3.76c-.19-1.32-1.41-1.77-2.73-1l-11.74,6.78A4.14,4.14,0,0,0,202.78,271.88Z" style="fill:#407BFF"></path><g style="opacity:0.17"><path d="M232.33,340.66a.63.63,0,0,1-.67-.48l-9.57-66.84a.49.49,0,0,1,.52-.53.63.63,0,0,1,.67.49l9.57,66.83A.49.49,0,0,1,232.33,340.66Z" style="fill:#407BFF"></path><path d="M212.5,352.1a.62.62,0,0,1-.66-.48l-9.57-66.83a.5.5,0,0,1,.52-.54.63.63,0,0,1,.66.49L213,351.57A.48.48,0,0,1,212.5,352.1Z" style="fill:#407BFF"></path><path d="M192.68,363.55a.62.62,0,0,1-.66-.49l-9.57-66.83a.49.49,0,0,1,.52-.53.63.63,0,0,1,.66.48L193.2,363A.49.49,0,0,1,192.68,363.55Z" style="fill:#407BFF"></path><path d="M172.86,375a.63.63,0,0,1-.67-.48l-9.57-66.83a.5.5,0,0,1,.52-.54.64.64,0,0,1,.67.49l9.57,66.83A.49.49,0,0,1,172.86,375Z" style="fill:#407BFF"></path><path d="M153,386.44a.64.64,0,0,1-.67-.49l-9.57-66.83a.49.49,0,0,1,.52-.53.62.62,0,0,1,.67.48l9.57,66.83A.5.5,0,0,1,153,386.44Z" style="fill:#407BFF"></path><path d="M133.22,397.88a.63.63,0,0,1-.67-.48L123,330.56a.49.49,0,0,1,.52-.53.63.63,0,0,1,.67.49l9.57,66.83A.49.49,0,0,1,133.22,397.88Z" style="fill:#407BFF"></path><path d="M113.4,409.33a.64.64,0,0,1-.67-.49L103.16,342a.49.49,0,0,1,.52-.53.62.62,0,0,1,.67.48l9.57,66.83A.51.51,0,0,1,113.4,409.33Z" style="fill:#407BFF"></path><path d="M93.57,420.77a.63.63,0,0,1-.66-.48l-9.57-66.84a.49.49,0,0,1,.52-.53.62.62,0,0,1,.66.48l9.58,66.84A.5.5,0,0,1,93.57,420.77Z" style="fill:#407BFF"></path><path d="M86.4,370.65a.71.71,0,0,1-.55-.24.45.45,0,0,1,.11-.7L224.72,289.6a.68.68,0,0,1,.83.15.45.45,0,0,1-.12.71L86.68,370.57A.65.65,0,0,1,86.4,370.65Z" style="fill:#407BFF"></path><path d="M88.79,387.35a.67.67,0,0,1-.55-.23.44.44,0,0,1,.12-.7l138.75-80.11a.66.66,0,0,1,.83.15.45.45,0,0,1-.11.7L89.07,387.27A.54.54,0,0,1,88.79,387.35Z" style="fill:#407BFF"></path><path d="M91.18,404.06a.68.68,0,0,1-.55-.23.45.45,0,0,1,.12-.71L229.5,323a.68.68,0,0,1,.84.15.45.45,0,0,1-.12.7L91.47,404A.6.6,0,0,1,91.18,404.06Z" style="fill:#407BFF"></path><path d="M93.57,420.77a.65.65,0,0,1-.3-.06.56.56,0,0,1-.36-.42l-9.57-66.84a.44.44,0,0,1,.23-.45l138.75-80.11a.66.66,0,0,1,.6,0,.58.58,0,0,1,.36.43l9.57,66.83a.46.46,0,0,1-.24.45L93.86,420.69A.55.55,0,0,1,93.57,420.77Zm-9-67.07L94,419.36l137.65-79.48-9.4-65.65Z" style="fill:#407BFF"></path></g><g style="opacity:0.17"><path d="M232.33,340.66a.63.63,0,0,1-.67-.48l-9.57-66.84a.49.49,0,0,1,.52-.53.63.63,0,0,1,.67.49l9.57,66.83A.49.49,0,0,1,232.33,340.66Z"></path><path d="M212.5,352.1a.62.62,0,0,1-.66-.48l-9.57-66.83a.5.5,0,0,1,.52-.54.63.63,0,0,1,.66.49L213,351.57A.48.48,0,0,1,212.5,352.1Z"></path><path d="M192.68,363.55a.62.62,0,0,1-.66-.49l-9.57-66.83a.49.49,0,0,1,.52-.53.63.63,0,0,1,.66.48L193.2,363A.49.49,0,0,1,192.68,363.55Z"></path><path d="M172.86,375a.63.63,0,0,1-.67-.48l-9.57-66.83a.5.5,0,0,1,.52-.54.64.64,0,0,1,.67.49l9.57,66.83A.49.49,0,0,1,172.86,375Z"></path><path d="M153,386.44a.64.64,0,0,1-.67-.49l-9.57-66.83a.49.49,0,0,1,.52-.53.62.62,0,0,1,.67.48l9.57,66.83A.5.5,0,0,1,153,386.44Z"></path><path d="M133.22,397.88a.63.63,0,0,1-.67-.48L123,330.56a.49.49,0,0,1,.52-.53.63.63,0,0,1,.67.49l9.57,66.83A.49.49,0,0,1,133.22,397.88Z"></path><path d="M113.4,409.33a.64.64,0,0,1-.67-.49L103.16,342a.49.49,0,0,1,.52-.53.62.62,0,0,1,.67.48l9.57,66.83A.51.51,0,0,1,113.4,409.33Z"></path><path d="M93.57,420.77a.63.63,0,0,1-.66-.48l-9.57-66.84a.49.49,0,0,1,.52-.53.62.62,0,0,1,.66.48l9.58,66.84A.5.5,0,0,1,93.57,420.77Z"></path><path d="M86.4,370.65a.71.71,0,0,1-.55-.24.45.45,0,0,1,.11-.7L224.72,289.6a.68.68,0,0,1,.83.15.45.45,0,0,1-.12.71L86.68,370.57A.65.65,0,0,1,86.4,370.65Z"></path><path d="M88.79,387.35a.67.67,0,0,1-.55-.23.44.44,0,0,1,.12-.7l138.75-80.11a.66.66,0,0,1,.83.15.45.45,0,0,1-.11.7L89.07,387.27A.54.54,0,0,1,88.79,387.35Z"></path><path d="M91.18,404.06a.68.68,0,0,1-.55-.23.45.45,0,0,1,.12-.71L229.5,323a.68.68,0,0,1,.84.15.45.45,0,0,1-.12.7L91.47,404A.6.6,0,0,1,91.18,404.06Z"></path><path d="M93.57,420.77a.65.65,0,0,1-.3-.06.56.56,0,0,1-.36-.42l-9.57-66.84a.44.44,0,0,1,.23-.45l138.75-80.11a.66.66,0,0,1,.6,0,.58.58,0,0,1,.36.43l9.57,66.83a.46.46,0,0,1-.24.45L93.86,420.69A.55.55,0,0,1,93.57,420.77Zm-9-67.07L94,419.36l137.65-79.48-9.4-65.65Z"></path></g><path d="M109.78,360.9c4.62.93,9.27,1.71,13.91,2.51l1.72.3c.81.14,1.13-1,.27-1.15q-6.59-1.14-13.19-2.2L110,360c-.69-.09-1,.77-.23.92Z" style="fill:#455a64"></path><path d="M123,352.69a12.76,12.76,0,0,0-1.54,2l-2.67,4.06q-3,4.49-5.87,9c-.6.93-1.29,1.84-1.82,2.81a.43.43,0,0,0,.1.57l.14.09-.14-.46v0c-.18.28.34.77.55.45,0,.05.31-.12.37-.2l.12-.18.33-.51,1-1.48,2.81-4.34c2-3.09,4-6.19,6-9.28a10.58,10.58,0,0,0,1.19-2.19c.09-.26-.27-.63-.49-.4Z" style="fill:#455a64"></path><path d="M129.2,349c4.61.93,9.26,1.71,13.9,2.51l1.72.3c.81.14,1.13-1,.27-1.15q-6.59-1.14-13.18-2.2l-2.49-.38c-.69-.09-.94.77-.22.92Z" style="fill:#455a64"></path><path d="M142.41,340.77a12.7,12.7,0,0,0-1.53,2l-2.68,4.05c-2,3-3.91,6-5.86,9-.61.92-1.29,1.84-1.83,2.81a.45.45,0,0,0,.11.57l.13.09-.13-.46v0c-.19.28.34.77.55.45,0,0,.3-.12.36-.2a1.13,1.13,0,0,0,.12-.18l.33-.51,1-1.48,2.81-4.34q3-4.63,6-9.28a11.12,11.12,0,0,0,1.2-2.19c.09-.26-.27-.63-.5-.4Z" style="fill:#455a64"></path><path d="M149.27,337.55c4.62.93,9.26,1.71,13.9,2.51l1.73.3c.8.13,1.13-1,.27-1.15q-6.58-1.14-13.19-2.2c-.83-.14-1.65-.26-2.49-.38-.69-.09-.94.77-.22.92Z" style="fill:#455a64"></path><path d="M162.48,329.34a13.08,13.08,0,0,0-1.53,2l-2.67,4.06q-3,4.5-5.87,9c-.6.93-1.29,1.85-1.83,2.82a.45.45,0,0,0,.11.57l.13.09-.13-.46h0c-.18.29.34.77.55.45,0,.06.3-.12.36-.19a1.88,1.88,0,0,0,.12-.18L152,347l1-1.49,2.81-4.33c2-3.09,4-6.19,6-9.28a10.88,10.88,0,0,0,1.19-2.2c.09-.25-.27-.63-.5-.39Z" style="fill:#455a64"></path><path d="M169.23,326c4.61.93,9.26,1.71,13.9,2.51l1.73.3c.8.13,1.13-1,.27-1.15q-6.6-1.14-13.19-2.2c-.83-.14-1.66-.26-2.49-.38s-.94.77-.22.92Z" style="fill:#455a64"></path><path d="M182.44,317.75a13.08,13.08,0,0,0-1.53,2l-2.67,4.06q-3,4.5-5.87,9c-.61.93-1.29,1.85-1.83,2.82a.45.45,0,0,0,.11.57l.13.09-.13-.46h0c-.19.29.34.77.55.45,0,.06.3-.12.36-.19a1.88,1.88,0,0,0,.12-.18l.33-.52,1-1.48,2.82-4.34c2-3.08,4-6.18,6-9.27a11.4,11.4,0,0,0,1.19-2.2c.09-.25-.27-.63-.5-.39Z" style="fill:#455a64"></path><path d="M189.05,314.52c4.61.93,9.26,1.71,13.9,2.51l1.72.3c.81.14,1.13-1,.27-1.15q-6.58-1.14-13.18-2.2c-.83-.14-1.66-.26-2.49-.38s-.94.77-.22.92Z" style="fill:#455a64"></path><path d="M202.26,306.31a12.48,12.48,0,0,0-1.53,2c-.89,1.36-1.79,2.71-2.68,4.06-2,3-3.91,6-5.86,9-.61.93-1.29,1.85-1.83,2.82a.45.45,0,0,0,.11.57l.13.09c0-.15-.09-.3-.13-.46h0c-.19.29.34.78.54.45,0,.06.31-.11.37-.19a1.13,1.13,0,0,0,.12-.18l.33-.51,1-1.49,2.81-4.33q3-4.64,6-9.28a11.12,11.12,0,0,0,1.2-2.19c.09-.26-.27-.63-.5-.4Z" style="fill:#455a64"></path><path d="M112.4,376.31c4.61.94,9.26,1.72,13.9,2.52l1.72.29c.81.14,1.13-1,.27-1.14q-6.58-1.14-13.18-2.2c-.83-.14-1.66-.26-2.49-.38s-.94.77-.22.91Z" style="fill:#455a64"></path><path d="M125.61,368.1a13.23,13.23,0,0,0-1.54,2c-.88,1.36-1.78,2.71-2.67,4.06-2,3-3.91,6-5.87,9-.6.93-1.28,1.85-1.82,2.82a.44.44,0,0,0,.11.56l.13.1-.14-.46h0c-.19.29.34.77.54.45,0,.06.31-.12.37-.19s.08-.13.12-.18l.33-.52,1-1.48,2.81-4.34q3-4.62,6-9.28a10.1,10.1,0,0,0,1.19-2.19c.09-.26-.26-.63-.49-.4Z" style="fill:#455a64"></path><path d="M172.7,347.84a7.51,7.51,0,0,0-4.13-1.8,9.82,9.82,0,0,0-8.3,2.61c-.28.28.27.81.57.56a9.7,9.7,0,0,1,7.18-2.32,6.62,6.62,0,0,1,3.53,1.3,3.91,3.91,0,0,1,1.32,3.36,14.18,14.18,0,0,1-2.44,6.51,20.68,20.68,0,0,1-4.72,5.15,22.33,22.33,0,0,1-6.1,3.37c-2.25.81-5,1.49-7.29.55a6.14,6.14,0,0,1-3.52-5.6,14.65,14.65,0,0,1,2.36-7.9,22.87,22.87,0,0,1,6.39-6.54,24.12,24.12,0,0,1,4-2.43,25.64,25.64,0,0,1,4.68-1.54c.71-.19-.16-.69-.86-.58a12.53,12.53,0,0,0-3.93,1.13,27.26,27.26,0,0,0-4.73,2.62,23.85,23.85,0,0,0-6.65,6.63,15.68,15.68,0,0,0-2.55,8.47,7.41,7.41,0,0,0,3.41,6.34c2.44,1.44,5.54,1.06,8.12.25a23.89,23.89,0,0,0,7-3.49,21.85,21.85,0,0,0,5.28-5.4,15.43,15.43,0,0,0,2.84-7.21A5,5,0,0,0,172.7,347.84Z" style="fill:#407BFF"></path></g></g><g id="freepik--Lines--inject-2"><g id="freepik--lines--inject-2"><polygon points="310.19 346.86 320.76 352.67 331.29 358.58 352.25 370.54 373.08 382.71 383.46 388.87 393.78 395.12 383.2 389.31 372.68 383.41 351.72 371.44 330.88 359.27 320.51 353.11 310.19 346.86" style="fill:#e0e0e0"></polygon><path d="M327.22,371.46c2.37,1.24,4.71,2.53,7.07,3.79l7,3.88c4.67,2.6,9.3,5.28,13.94,7.91s9.24,5.38,13.82,8.13l6.87,4.13c2.27,1.41,4.56,2.79,6.81,4.23-2.37-1.23-4.71-2.52-7.07-3.78l-7-3.88c-4.67-2.6-9.29-5.28-13.94-7.92s-9.24-5.37-13.82-8.12L334,375.69C331.76,374.28,329.48,372.9,327.22,371.46Z" style="fill:#e0e0e0"></path><path d="M284.11,308.23,275.43,303c-5.79-3.44-11.62-6.82-17.44-10.23s-9-5.19-14.92-8.49l-6.25-3.5v.7l5.85,3.5c5.79,3.45,9,5.29,14.8,8.7s11.68,6.72,17.56,10l8.82,4.94c3,1.61,5.91,3.26,8.88,4.84C289.87,311.73,287,310,284.11,308.23Z" style="fill:#e0e0e0"></path><path d="M239.76,297.61c1.56.77,3.08,1.6,4.63,2.4L249,302.5c3,1.66,6.05,3.39,9.05,5.12s6,3.51,8.92,5.34l4.42,2.74c1.45.95,2.92,1.86,4.36,2.84-1.56-.77-3.08-1.6-4.62-2.4l-4.57-2.49c-3-1.66-6-3.39-9-5.12s-6-3.51-8.92-5.34l-4.42-2.74C242.67,299.5,241.2,298.59,239.76,297.61Z" style="fill:#e0e0e0"></path></g></g><g id="freepik--character--inject-2"><g id="freepik--character--inject-2"><g id="freepik--Bottom--inject-2"><path d="M272,327.84a6.26,6.26,0,0,0-4.86,2.8,28.92,28.92,0,0,0-1.2,8.33A24.79,24.79,0,0,1,262,352.7c-2.76,4.23-5.92,13.54-3.35,19.33s5.85,10.48,11.68,11.35,11.08-5.44,12.64-9.53Z" style="fill:#37474f"></path><path d="M260.67,368.55a10.71,10.71,0,0,1-.43-3.25c.08-2.76.54-6.15,1.9-8.53a55.05,55.05,0,0,0,4.44-8.29,39.29,39.29,0,0,0,2.26-9.59c.27-2.61.14-5.51,1.07-8,2.82-7.55,11.12-6.8,15.83-7.62l16.87-12.21L309,333.71s-9.15,3.36-11.81,4.77c-3.52,1.86-6.79,6.34-8.91,9.54-2.7,4.06-6.05,8.29-6.07,13.36a39.13,39.13,0,0,0,1.2,8.16,7.33,7.33,0,0,1,.23,2.33c-.22,2.15-2.13,3.67-3.88,4.93-2.84,2.05-6.25,4.21-9.6,3.19-1.91-.58-3.36-2.11-4.67-3.62A22.06,22.06,0,0,1,260.67,368.55Z" style="fill:#f28f8f"></path><path d="M283,363.07a19.39,19.39,0,0,1,2.29-9c1.67-2.89,5.35-8.75,7-10.34s3.13-2.07,2.6-2.6-10.07-2.86-13.27-2.91-3.61,1.9-5.31,3.34c0,0,2.64-3.64,2.64-7.14,0-2.59,1.07-9.56,5.44-10.71l1.4-.47s.12-1-1.7-.62-8,1.73-10.19,3-4.74,2.82-5.38,7.51.05,6.18-1.23,10.81a42.12,42.12,0,0,1-5,11.81,19.83,19.83,0,0,0-2.13,13.7Z" style="fill:#455a64"></path><path d="M379.61,237.37c.09,8.3-1.56,31.94-7.19,53.16s-8.43,24.36-12.08,26.11c-16.2,7.76-59.56,20.22-59.56,20.22s-9.27-9.31-7.13-19.74c12.8-9.19,33.71-25,43.77-24.39l-19.1-60.83Z" style="fill:#37474f"></path><path d="M271.33,381.32c3.54,0,8.73-2.59,11.66-7.47,2.39-4,.07-9.17,0-10.78-.32-.62-4.49-2.34-11.76-1.21s-9.68,4.1-11.1,7.63C260.48,373.09,266.15,381.32,271.33,381.32Z" style="fill:#f0f0f0"></path><path d="M391.14,403.48c-1.6.11-1.28-2.05-2.35-6.91s-4.44-25.83-4.44-25.83L359.67,380s6.63,17.45,8.71,22.49c2.31,5.59,5.55,13.26,6.07,17.61s.77,16.5,6.23,18.67,10.53-.31,14.13-2.67,7.78-10.59,11.76-14.76,7.35-6.49,10.43-10.8,2.85-15-1.32-17.19-10.08.31-13.56,2.41S394.1,403.28,391.14,403.48Z" style="fill:#f28f8f"></path><path d="M318.32,231.9c-7.35,17.25-9.74,34.32-2.11,48.59S330,303.26,347,335.63c0,7.26.19,14.5,5.5,28.13,6.61,16.94,13.84,35.15,13.84,35.15S373,388,387.83,389.82c-.79-8.35-5.78-48.1-8.21-59.85-3-14.62-14.81-64.66-14.81-64.66a34.36,34.36,0,0,0,13.81-28.15Z" style="fill:#455a64"></path><path d="M376.51,435.42c-1.16-3.22-1.9-6.7-2.46-13.08s-1.72-8.31-1.72-8.31.66-4.21,7.16-9.37,10.59-2.75,10.59-2.75,1.49,2.57,5.61-2.15l7.63,9.75Z" style="fill:#455a64"></path><path d="M416.27,392.84c-2.43-2.31-6.3-2.27-11.45.29a30.23,30.23,0,0,0-9.13,6.63s-2.71,4.93,1.4,8.28S416.27,392.84,416.27,392.84Z" style="fill:#f0f0f0"></path><path d="M420,397.32a5.29,5.29,0,0,0-2-3.49c-.34-.22-1.52-.84-1.75-1-3-2-8.45,2.26-13,6.41-5.33,4.83-10.25,14.53-14.56,21.09s-9.66,9.09-11.42,12a4.77,4.77,0,0,0,.51,5.88c.27.3,1.28,1.24,1.49,1.43,1.41,1.36,3.91,1.91,6.87,1.34,6-1.15,10.26-3.05,15.2-10.08s7.55-10.67,13.31-15.18S421.22,403,420,397.32Z" style="fill:#37474f"></path><path d="M420,397.32c-1.73-7.94-9.07-2.44-15,2.93-5.33,4.83-10.25,14.52-14.56,21.09s-9.79,9-11.42,12c-3,5.4,1.15,8.8,7.12,7.65s10.26-3.05,15.2-10.08,7.55-10.67,13.31-15.18S421.22,403,420,397.32Z" style="fill:#263238"></path><path d="M392.59,402.34h0c-1.8.8-2.51-.43-2.51-.43-5.67,5.74-6.28,9.42-6.28,9.42S389.33,404.55,392.59,402.34Z" style="fill:#37474f"></path><path d="M358,267.35a232.11,232.11,0,0,1,9.83,27.95,291.55,291.55,0,0,1,7.09,28.8c1.57,9.74,3.11,19.49,4.53,29.26s2.77,19.54,3.95,29.34q-3-14.51-5.56-29.07c-1.75-9.7-3.38-19.42-5-29.15-.79-4.84-1.94-9.62-3.05-14.41s-2.34-9.57-3.55-14.34-2.51-9.52-3.87-14.26S359.6,272,358,267.35Z" style="fill:#37474f"></path></g><g id="freepik--Top--inject-2"><path id="freepik--Arm--inject-2" d="M372.09,176c7.73,2.59,11.5,4.2,15.36,15.2,2.63,7.52,9.08,30.27,9.08,30.27L430.67,240l-12.8,9.14s-22.12-6.92-29.88-9.84c-4.54-1.7-6.37-4.11-9.36-10.92s-6.5-19.4-8.95-26.63Z" style="fill:#ffa8a7"></path><path d="M372.91,175.68c7.62,2.78,10.92,3.87,14.74,14.49S397,221,397,221l27.47,15.1-12.28,12.54s-20.28-7.37-24-8.58-6.09-2.24-8.55-7.69-11.32-29.57-11.32-29.57Z" style="fill:#37474f"></path><g id="freepik--Chest--inject-2"><path d="M323,198.61c1.77-17.25,7.3-18.27,10.39-24.83,3.33-.47,10.47-1.37,10.47-1.37s5.69-.88,19.26,0l9,3.58c3.86,5,15.71,14,18.26,23.33a18.14,18.14,0,0,1-8.27,19.9c-.82,6.25-2.18,14.82-2.18,14.82a150.92,150.92,0,0,1-.57,17.09c.29,5-10.59,10.75-27.23,10.07-24.88-1-39.75-15.08-39.75-15.08l10.07-27C323.43,213.25,322.38,204.53,323,198.61Z" style="fill:#f0f0f0"></path><path d="M364.74,173.77s14.78,9.9,21,17l-12.81-15.08-7.85-3.8Z" style="fill:#455a64"></path><path d="M367.34,219.51s-5.95,6-16.31,3.67c-10.68-2.34-11.84-11.52-11.84-11.52s-1.69,11.69,11.07,14.49A15.66,15.66,0,0,0,367.34,219.51Z" style="fill:#e0e0e0"></path><path d="M346.49,171.32c0,15.26.68,41-14.32,59.8-19.52,24.46-51.14,23-51.14,23a79.89,79.89,0,0,1-10.68-16.83C283.91,252.07,291.9,220,310.83,213c0,0,11.28.52,11.07-10.22-.28-14,4.29-23.88,11.47-29Z" style="fill:#455a64"></path><path d="M328.11,235.67c-8.15,6.05-21.66,11.94-37,9.3s-20.75-7.69-20.75-7.69S274.68,250,281,254.11C281,254.11,306.56,257.23,328.11,235.67Z" style="fill:#37474f"></path></g><g id="freepik--Laptop--inject-2"><path d="M361.4,260.47l0,1.17a3.33,3.33,0,0,0,1.75,2.81l32.18,17.05a3.35,3.35,0,0,0,3.3-.11L455.38,246a3.31,3.31,0,0,0,1.55-2.92l0-.81L397,279.68Z" style="fill:#ebebeb"></path><path d="M456.9,242.23l-35-18.61a2,2,0,0,0-2,.07l-58.32,36.45a.44.44,0,0,0,0,.76L397,279.69Z" style="fill:#fafafa"></path><polygon points="396.55 276.78 377.67 266.75 430.69 233.63 449.66 243.6 396.55 276.78" style="fill:#e0e0e0"></polygon><polygon points="386.42 247.41 386.76 247.59 396.02 252.51 411.82 242.64 412.15 242.44 402.55 237.33 386.42 247.41" style="fill:#e0e0e0"></polygon><polygon points="386.76 247.59 396.02 252.51 411.82 242.64 402.56 237.72 386.76 247.59" style="fill:#e6e6e6"></polygon><path d="M397,279.68l.08,2.2a3.27,3.27,0,0,0,1.63-.49L455.38,246a3.31,3.31,0,0,0,1.55-2.92l0-.81Z" style="fill:#ebebeb"></path><g style="opacity:0.5;mix-blend-mode:multiply"><path d="M397,279.68l.08,2.2a3.27,3.27,0,0,0,1.63-.49L455.38,246a3.31,3.31,0,0,0,1.55-2.92l0-.81Z" style="fill:#e0e0e0"></path></g><path d="M397.91,280.14a3.94,3.94,0,0,0,3.37-.38l56.45-35.27a4,4,0,0,0,1.81-2.8l5-37.84c0-.21,0-.43,0-.64a3.94,3.94,0,0,0-1.26-2.75l-58.66,36.66a2.93,2.93,0,0,0-1.34,2.08Z" style="fill:#407BFF"></path><g style="opacity:0.7000000000000001"><path d="M397.91,280.14a3.94,3.94,0,0,0,3.37-.38l56.45-35.27a4,4,0,0,0,1.81-2.8l5-37.84c0-.21,0-.43,0-.64a3.94,3.94,0,0,0-1.26-2.75l-58.66,36.66a2.93,2.93,0,0,0-1.34,2.08Z" style="fill:#fff"></path></g><path d="M397,279.69l.4.21a5.38,5.38,0,0,0,.55.24l5.4-40.94a2.93,2.93,0,0,1,1.34-2.08l58.66-36.66a4.47,4.47,0,0,0-.82-.58l-58.78,36.73a2.93,2.93,0,0,0-1.34,2.08Z" style="fill:#fafafa"></path><path d="M429.15,244.29c.33-2.54,2.82-6,5.54-7.68s4.67-1,4.34,1.5-2.82,6-5.55,7.68S428.81,246.82,429.15,244.29Z" style="fill:#407BFF"></path></g><g id="freepik--arm--inject-2"><path d="M307.7,227.67a195,195,0,0,1,8.14-38.53c3-10,6.06-12.94,17.21-14.82,3.4,5.42,2.73,27.43.61,34.53l-3.88,18.64a167.24,167.24,0,0,0,16.85,8.81c7.2,3.17,11.7,4.65,19.21,3.89s10.42-1.65,14.6-.84c2.23.43,7.31,1.45,9.07,1.9s5.22,2.68,8.27,4,.06,3.19-2,3.06a25,25,0,0,1-6.37-1.52,33.86,33.86,0,0,0-5.35-.79,30.1,30.1,0,0,1,2.32,5.53c.24,1,.76,2.27,0,3.25a8.23,8.23,0,0,1-2,1.39,1.59,1.59,0,0,1-.21,1.11,2.63,2.63,0,0,1-1.76.9,8,8,0,0,1-1.11.08,2,2,0,0,1-.84,1.78,8.66,8.66,0,0,1-4.46,1.15c-.24,0-2.1-.57-2.65-.72a4.47,4.47,0,0,1-1.88-.67c-.49-.46.26-1.95,1.09-2.28a8.84,8.84,0,0,1,2.89-.45,10.41,10.41,0,0,1-1.38-2.28c-1.05-1.07-6.39,1.45-11.57,1.69-3.91.18-7.42-2.79-9.29-3.18-11.92-2.47-21-4-33.37-8.22C308.54,241.29,306.44,238.54,307.7,227.67Z" style="fill:#ffa8a7"></path><path d="M339.5,251.32l5,1.38a14.46,14.46,0,0,1,1.56-8.59,13.58,13.58,0,0,1,5.34-5.85L348,236.89s-4.08-.44-6.75,5S339.5,251.32,339.5,251.32Z" style="fill:#e0e0e0"></path><path d="M348,236.89c-4.75.51-7.06,7.83-7.28,11-.29,4.34,1.3,5.77,1.3,5.77s-25-7-29.65-10.44-6.18-6-5.79-11.3,4-27.49,6.69-37.91,4.65-13.13,7.6-15.85,7.69-3.46,12.52-4.36c0,0,2.71,5.52,2.55,17-.16,10.89-.81,14.2-1.79,19.42s-3.69,17.25-3.69,17.25Z" style="fill:#37474f"></path><path d="M385.13,246.14c-.89-1.29-2.16-2.79-3.33-2.94a13,13,0,0,1,2.29,2.82Z" style="fill:#f28f8f"></path><path d="M384.42,256.19a12.29,12.29,0,0,0-.59-3.12,31.32,31.32,0,0,0-1.08-3,14,14,0,0,0-1.51-2.82,5.87,5.87,0,0,0-2.41-2.07,4.39,4.39,0,0,1,1.12,1.07,8.51,8.51,0,0,1,.9,1.26,24,24,0,0,1,1.34,2.8c.41,1,.8,1.93,1.2,2.9A26.07,26.07,0,0,1,384.42,256.19Z" style="fill:#f28f8f"></path><path d="M381.34,258.28a14.45,14.45,0,0,0-.67-3,25.73,25.73,0,0,0-1.13-2.91,20.81,20.81,0,0,0-1.48-2.75,6,6,0,0,0-2.14-2.27,4.08,4.08,0,0,1,1,1.17c.27.43.52.88.75,1.33.47.91.92,1.84,1.34,2.77C379.84,254.44,380.66,256.32,381.34,258.28Z" style="fill:#f28f8f"></path><path d="M372.6,257.54a5.37,5.37,0,0,1,1.3-.1c.42,0,.76.14,1.3.19l-.28-.28a1.26,1.26,0,0,0,.22.58,1.53,1.53,0,0,0,.39.41,1.91,1.91,0,0,0,1,.37,4.91,4.91,0,0,1-.69-.67,2.32,2.32,0,0,1-.21-.37,1.13,1.13,0,0,1-.1-.34l0-.24-.26,0a3.72,3.72,0,0,0-1.24,0A2.55,2.55,0,0,0,372.6,257.54Z" style="fill:#f28f8f"></path></g><path d="M355,131.32c3.59,0,6.66-5,4-9s-10.31-5.84-14.72-6a23.69,23.69,0,0,0-16.13,5.56c-2.12,1.8-3.9,4-6.05,5.73-5.13,4.23-12.19,4-17.61.34-2.38-1.63-4.35-3.86-6.88-5.24s-6-1.69-8.05.39a7,7,0,0,0-1.56,3.14c-1.36,5.34,0,11.85,6.61,16.27-1.68.57-5.08-1.7-6.24-3.65.58,3.65,1.93,8.61,9.15,13.81,9.72,7,19.56,6.32,27.22,3.66,13.39-4.64,14.22-16.41,19.4-20.58A18.7,18.7,0,0,1,355,131.32Z" style="fill:#263238"></path><path d="M341.83,119.42c-10.13-1-12.59,11.58-8.29,21.24,7.63,17.13,30,13.71,30,13.71l2.31,12.71s3.46-2.87,9.09-7.08c9.76-7.29,9.38-21.79,4.24-25.37C381.74,122.28,357.32,108.24,341.83,119.42Z" style="fill:#37474f"></path><path d="M341,126.77c-3.37,1.35-6.88,8.45-8,23.1-.82,10.49,2.48,15.14,5.52,16.83a20,20,0,0,0,8.3,2.07l-.33,2.55v2.1s8.69,16.08,23.19,21.23c3.15-10.41-4.94-20.88-4.94-20.88l2.62-15.83c.55,1.33,4.45,3.73,7.9.55,4-3.75,4.12-9,1.44-11.35s-6.62-1.17-8.54,2.11c-3.44.82-7.16-3.21-5-15.61-3.59-2.69-6.12.69-14.11-1.69C345.51,130.88,345.15,125.35,341,126.77Z" style="fill:#ffa8a7"></path><path d="M373.73,156.57a1.72,1.72,0,1,1-1.69-1.74A1.71,1.71,0,0,1,373.73,156.57Z" style="fill:#407BFF"></path><path d="M346.82,168.77c11.68.38,15.39-4.12,17.06-8a10,10,0,0,1-3.92,7.43c-6,4.18-13.47,3.1-13.47,3.1Z" style="fill:#f28f8f"></path><path d="M355,146.82a1.93,1.93,0,1,1-1.61-2.2A1.93,1.93,0,0,1,355,146.82Z" style="fill:#263238"></path><path d="M350.6,158.55c0,1.2-1.08.68-2.49.66s-2.62.45-2.59-.75a2.39,2.39,0,0,1,2.59-2.12A2.35,2.35,0,0,1,350.6,158.55Z" style="fill:#b16668"></path><path d="M346.51,159.27c.45,0,1-.07,1.6-.06,1.41,0,2.46.54,2.49-.66a1.86,1.86,0,0,0-.35-1.12,3.48,3.48,0,0,0-1.44,0A3,3,0,0,0,346.51,159.27Z" style="fill:#f28f8f"></path><path d="M341,144.32a1.93,1.93,0,1,1-1.6-2.2A1.93,1.93,0,0,1,341,144.32Z" style="fill:#263238"></path><path d="M340.6,134.65l-3.72,2.85a2.25,2.25,0,0,0,3.23.49A2.44,2.44,0,0,0,340.6,134.65Z" style="fill:#263238"></path><path d="M355.56,137.5l3.23,3.49a2.29,2.29,0,0,1-3.31-.08A2.47,2.47,0,0,1,355.56,137.5Z" style="fill:#263238"></path><polygon points="347.1 142.51 344.27 154.16 338.87 151 347.1 142.51" style="fill:#f28f8f"></polygon></g></g></g><g id="freepik--Lightnings--inject-2"><g id="freepik--Bolts--inject-2"><polygon points="425.41 128.32 404.32 132.12 407.22 138.95 390.39 141.69 414.97 143.7 411.02 135.41 425.41 128.32" style="fill:#407BFF"></polygon><polygon points="410.08 91.9 389.45 115.8 396.58 119.23 388.07 133.68 405.17 116.94 397.99 112.47 410.08 91.9" style="fill:#407BFF"></polygon><polygon points="410.08 91.9 389.45 115.8 396.58 119.23 388.07 133.68 405.17 116.94 397.99 112.47 410.08 91.9" style="fill:#fff;opacity:0.65"></polygon></g></g><g id="freepik--Alert--inject-2"><g id="freepik--alert--inject-2"><g id="freepik--Bubble--inject-2"><path d="M472.16,142.32c-3.08-1.75-7.32-1.49-12,1.22-9.42,5.44-17.06,18.67-17.06,29.55,0,5.44,1.91,9.25,5,11l5.83,3.35c3.09,1.78,7.35,1.52,12-1.2,9.43-5.44,17.06-18.67,17.06-29.55,0-5.42-1.9-9.24-5-11C476.76,145,473.47,143.06,472.16,142.32Z" style="fill:#407BFF"></path><path d="M472.16,142.32c-3.08-1.75-7.32-1.49-12,1.22-9.42,5.44-17.06,18.67-17.06,29.55,0,5.44,1.91,9.25,5,11l5.83,3.35c3.09,1.78,7.35,1.52,12-1.2,9.43-5.44,17.06-18.67,17.06-29.55,0-5.42-1.9-9.24-5-11C476.76,145,473.47,143.06,472.16,142.32Z" style="fill:#fff;opacity:0.35000000000000003"></path><path d="M456.48,187.72a12.78,12.78,0,0,1-4.26,4.22,11.82,11.82,0,0,1-6.41,1.62.61.61,0,0,1-.3-.08l-5.8-3.34a.57.57,0,0,1,0-1,10.38,10.38,0,0,0,5.33-8Z" style="fill:#407BFF"></path><path d="M456.48,187.72a12.78,12.78,0,0,1-4.26,4.22,11.82,11.82,0,0,1-6.41,1.62.61.61,0,0,1-.3-.08l-5.8-3.34a.57.57,0,0,1,0-1,10.38,10.38,0,0,0,5.33-8Z" style="opacity:0.25"></path><ellipse cx="465.96" cy="166.58" rx="24.13" ry="13.93" transform="translate(88.72 486.83) rotate(-60)" style="fill:#407BFF"></ellipse><path d="M450.8,181.9a10.34,10.34,0,0,1-5.27,10.58.58.58,0,0,0,.28,1.08,12,12,0,0,0,6.41-1.61c4.53-2.88,5.1-6.28,5.1-6.28Z" style="fill:#407BFF"></path></g><g id="freepik--alert--inject-2"><path d="M464.42,155.53l-8.06,23.28c-.84,2.42.29,3.36,2.51,2.07L473,172.71a4.66,4.66,0,0,0,1.7-6.37l-6.45-11.18C467,152.94,465.26,153.1,464.42,155.53Z" style="fill:#fafafa"></path><path d="M466.82,169.44l-1.23.71a.26.26,0,0,1-.43-.23l-.49-9.21a.82.82,0,0,1,.37-.7l2.33-1.35c.23-.12.4,0,.38.24l-.5,9.84A.93.93,0,0,1,466.82,169.44Z" style="fill:#455a64"></path><path d="M466.21,174.4c-.79.45-1.26-.14-1.26-1a3,3,0,0,1,1.26-2.4c.78-.45,1.25.13,1.25.95A3,3,0,0,1,466.21,174.4Z" style="fill:#455a64"></path></g></g></g></svg>