<?xml version="1.0" encoding="utf-8"?>
<!-- Generator: Adobe Illustrator 26.0.1, SVG Export Plug-In . SVG Version: 6.00 Build 0)  -->
<svg version="1.1" xmlns="http://www.w3.org/2000/svg" xmlns:xlink="http://www.w3.org/1999/xlink" x="0px" y="0px"
	 viewBox="0 0 3710 3710" style="enable-background:new 0 0 3710 3710;" xml:space="preserve">
<style type="text/css">
	.st0{clip-path:url(#SVGID_00000113347174096456910490000010528441804707050373_);}
	.st1{fill:#FFFFFF;}
	.st2{clip-path:url(#SVGID_00000081621611818867427050000016524584938607649163_);}
	.st3{clip-path:url(#SVGID_00000164505025901743871820000004831249849281342358_);}
	.st4{clip-path:url(#SVGID_00000182526122626236978850000003463998140083556021_);}
	.st5{clip-path:url(#SVGID_00000165209172533080876150000003307233778128491940_);}
	.st6{fill:#97A6B7;}
	.st7{fill:#D8DEE8;}
	.st8{fill:url(#SVGID_00000005224818288151784490000013229082001116595640_);}
	.st9{opacity:0.3;fill:#97A6B7;}
	.st10{fill:url(#SVGID_00000150795064756221634600000007003533154102476939_);}
	.st11{fill:url(#SVGID_00000089554532108338409710000006021697386833483169_);}
	.st12{fill:url(#SVGID_00000131332353889035971930000000883331080901303735_);}
	.st13{fill:url(#SVGID_00000144340229672036268080000018082364196469052589_);}
	.st14{fill:url(#SVGID_00000100371554787841777680000016693660432418529171_);}
	.st15{opacity:0.3;fill:url(#SVGID_00000123426196390016305580000015352832948739238273_);}
	.st16{fill:url(#SVGID_00000152965275925027594590000001415180910786614684_);}
	.st17{opacity:0.4;fill:url(#SVGID_00000029754642174831323850000012109224709986155166_);}
	.st18{fill:url(#SVGID_00000034084540582285336050000003006920979932726960_);}
	.st19{fill:url(#SVGID_00000016765698428638185290000012447224544484815779_);}
	.st20{fill:url(#SVGID_00000181775199482067362090000010918904479680783767_);}
	.st21{fill:url(#SVGID_00000109737580013818946100000012512112446525398191_);}
	.st22{fill:url(#SVGID_00000072958779461996134230000013747109631817290413_);}
	.st23{fill:url(#SVGID_00000167386878505011932750000008460535530903422143_);}
	.st24{fill:url(#SVGID_00000155105880816071244840000003595929360699380121_);}
	.st25{opacity:0.3;fill:url(#SVGID_00000102544332047439900750000008032120130621273507_);}
	.st26{fill:url(#SVGID_00000132769350773998772600000001185618304018525363_);}
	.st27{fill:url(#SVGID_00000034770046815052323840000007788834292632323487_);}
	.st28{fill:url(#SVGID_00000072256199058081647630000000858215208258851476_);}
	.st29{fill:url(#SVGID_00000044138422525289933170000001513445280404616589_);}
	.st30{opacity:0.3;}
	.st31{fill:url(#SVGID_00000113315695265711020490000009663922906197584557_);}
	.st32{fill:url(#SVGID_00000113334806836405855120000012407244130971259799_);}
	.st33{fill:url(#SVGID_00000151533265190776737490000002437843489827301762_);}
	.st34{fill:url(#SVGID_00000018199040897700798380000001711504436955495315_);}
	.st35{fill:url(#SVGID_00000090286870553657111010000011653080480331252611_);}
	.st36{fill:url(#SVGID_00000078730799692731085680000010506081837795349651_);}
	.st37{fill:url(#SVGID_00000060017258108610348520000001433176051280082613_);}
	.st38{fill:url(#SVGID_00000072247704543360095650000010293979286485526913_);}
	.st39{fill:url(#SVGID_00000008840941351048534620000008381545356222168720_);}
	.st40{fill:url(#SVGID_00000064329955962346543490000006714116138921599656_);}
	.st41{fill:url(#SVGID_00000034072831286047320610000003328819089068181385_);}
	.st42{fill:#26264F;}
	.st43{fill:url(#SVGID_00000180356472074499368280000007695050079925877397_);}
	.st44{fill:url(#SVGID_00000054959073395882756650000015645361626098712997_);}
	.st45{fill:url(#SVGID_00000033357414086591006990000012652530700943031730_);}
	.st46{opacity:0.3;fill:url(#SVGID_00000093879075434374044600000004571700728837120157_);}
</style>
<g id="Background">
</g>
<g id="Illustration">
	<g>
		<g>
			<g>
				<defs>
					<path id="SVGID_1_" d="M1453.5,3130.8c40.8-159.2,77-400.4-1.5-660.3c-90.1-298.5-249-348.8-409.7-663.6
						c-229.3-449.3-26.9-799.3-241.8-927c-104.8-62.3-262.4-51.9-355,23.8c-264.1,215.9-130.9,1071,331.3,1377.4
						c209,138.6,381.4,109,543.8,295.5C1464.1,2741.4,1468.9,2971.1,1453.5,3130.8z"/>
				</defs>
				
					<linearGradient id="SVGID_00000051379742577791023210000003765563490017031808_" gradientUnits="userSpaceOnUse" x1="1337.3722" y1="1379.4635" x2="851.8351" y2="2161.3201">
					<stop  offset="3.597120e-03" style="stop-color:#E38DDD"/>
					<stop  offset="1" style="stop-color:#9571F6"/>
				</linearGradient>
				
					<use xlink:href="#SVGID_1_"  style="overflow:visible;fill:url(#SVGID_00000051379742577791023210000003765563490017031808_);"/>
				<clipPath id="SVGID_00000025404597010179983130000005846709433229323451_">
					<use xlink:href="#SVGID_1_"  style="overflow:visible;"/>
				</clipPath>
				<g style="clip-path:url(#SVGID_00000025404597010179983130000005846709433229323451_);">
					<g>
						<path class="st1" d="M1458.6,2736.9l5-1.6c-21.1-64.7-47.9-127.8-79.7-187.7c-73-137.7-148.3-211-243.5-303.8
							c-61.9-60.3-132-128.6-214.3-227.6c-154-185.3-202.3-250.7-248.7-358.1c-91.9-212.5-93-408.4-85.5-506.3
							C602.6,1013,640,879,703.2,753.7l-4.7-2.4c-63.5,125.9-101.1,260.5-111.8,400c-7.6,98.4-6.5,295.2,85.9,508.8
							c46.7,107.9,95.1,173.6,249.5,359.3c82.5,99.3,152.7,167.7,214.7,228c94.9,92.5,169.9,165.5,242.6,302.5
							C1410.9,2609.6,1437.6,2672.5,1458.6,2736.9z"/>
					</g>
					<g>
						<path class="st1" d="M624.5,1508.4l-0.2-4.3c-7.8-160.4,87.7-270.9,169.2-335.4c88.5-70,180-102.3,180.9-102.6l-1.7-4.9
							c-0.9,0.3-93.2,33-182.4,103.5c-81.7,64.6-177.4,175.1-171.4,335.3c-17.5-8.8-90.8-48.4-159.6-124.1
							c-72.2-79.5-154.1-216.4-133.7-417l-5.2-0.5c-20.5,202.5,62.2,340.8,135.2,421.2c79.1,87,164.2,126.7,165.1,127.1
							L624.5,1508.4z"/>
					</g>
					<g>
						<path class="st1" d="M698.4,2019.9c106.2-10.5,182.6-50.9,184-51.7l1.9-1l-0.7-2.1c-99-295.9,91.3-463.6,93.2-465.3l-3.4-4
							c-0.5,0.4-49.5,43.1-85.4,122.1c-33,72.5-61.3,191.5-10,346.7c-23.7,12-257.4,123.5-469.8-20.3l-2.9,4.3
							C506.3,2017.1,612.1,2028.4,698.4,2019.9z"/>
					</g>
					<g>
						<path class="st1" d="M903.4,2308.9c143.6-14.2,212.7-83.9,213.6-84.9l1.3-1.4l-0.9-1.7c-80.4-155.1-0.4-423.1,0.4-425.8
							l-5-1.5c-0.8,2.7-80.8,270.8-0.9,428c-15.1,14.3-159.3,140.1-449.7,55.4l-1.5,5C757.5,2310.3,838.1,2315.3,903.4,2308.9z"/>
					</g>
				</g>
			</g>
		</g>
		<g>
			<g>
				<defs>
					<path id="SVGID_00000038395367608302458940000000450867047655424647_" d="M2398.1,2607.8c-88.5-94.5-209.3-253.8-221.9-459.9
						c-21.9-359.6,310.5-457.3,388.6-910.4c63-365.5-119.9-494.7,16.1-800.4c22.8-51.2,139.5-327,349.3-347.8
						c118.2-11.7,213.5,62.6,231.4,76.6c270.3,210.9,277.5,818.9,47.4,1252.7c-132.2,249.2-223.1,257.3-499.9,629.8
						C2546.5,2267.2,2451.8,2472.6,2398.1,2607.8z"/>
				</defs>
				
					<linearGradient id="SVGID_00000070816730447947127120000016158334087172874925_" gradientUnits="userSpaceOnUse" x1="3058.7822" y1="461.9897" x2="2392.1812" y2="2450.8694">
					<stop  offset="0" style="stop-color:#FF9085"/>
					<stop  offset="1" style="stop-color:#FB6FBB"/>
				</linearGradient>
				
					<use xlink:href="#SVGID_00000038395367608302458940000000450867047655424647_"  style="overflow:visible;fill:url(#SVGID_00000070816730447947127120000016158334087172874925_);"/>
				<clipPath id="SVGID_00000053528841260325675800000002728352735315130505_">
					<use xlink:href="#SVGID_00000038395367608302458940000000450867047655424647_"  style="overflow:visible;"/>
				</clipPath>
				<g style="clip-path:url(#SVGID_00000053528841260325675800000002728352735315130505_);">
					<g>
						<path class="st1" d="M2452.3,2756.4l-4.3,1.7c-116.6-289.3-130.2-526.9-40.4-706.1c44-87.8,96.2-131.8,151.5-178.5
							c59.5-50.2,120.9-102.1,173.3-213.8c50.9-108.5,48.3-178.6,45.1-267.4c-2.9-79.8-6.6-179.2,28.2-337.9
							c30.4-139.1,66.9-219,99-289.5c34.8-76.4,62.3-136.7,69.1-244.1c11.1-175.4-42-355.3-157.8-534.7l3.9-2.5
							c116.4,180.3,169.7,361.1,158.5,537.5c-6.9,108.2-34.5,168.9-69.5,245.7c-32,70.3-68.4,150-98.7,288.6
							c-34.6,158.1-31,257.1-28.1,336.7c3.3,89.4,5.9,160-45.5,269.5c-52.8,112.6-114.7,164.8-174.5,215.4
							c-54.9,46.4-106.8,90.2-150.3,177.1C2322.5,2232.1,2336.2,2468.4,2452.3,2756.4z"/>
					</g>
					<g>
						<path class="st1" d="M2891.4,800.2l-0.8-3c-1.2-4.3-122.5-433-349.6-492.1l1.2-4.5c120.2,31.3,209.8,164.4,263.8,270.6
							c53,104.2,83,203.5,88.3,221.8c196.7-123.7,291.6-292.7,336.6-412.9c49-130.9,51-233.8,51-234.9l4.6,0.1
							c0,1-2.1,104.6-51.3,236.2c-45.4,121.5-141.5,292.4-341.1,417L2891.4,800.2z"/>
					</g>
					<g>
						<path class="st1" d="M3103.3,1093c-19.9,12.4-39.1,23.4-57.4,33.2c-143.8,77.2-262.4,97.9-263.5,98.1l-2,0.3l-0.6-1.9
							c-71.9-217.7-291.3-449.4-293.5-451.7l3.3-3.2c2.2,2.3,221,233.4,293.9,451.5c15.9-3,127.2-25.9,260.3-97.4
							c132-70.9,313.1-205.4,426-443.8l4.2,2C3376.2,886.8,3227.5,1015.7,3103.3,1093z"/>
					</g>
					<g>
						<path class="st1" d="M3217,1636.7c-328.7,204.5-600.9,194.8-603.8,194.6l-2.4-0.1l0.2-2.4c25.9-263.6-216.4-508.8-218.8-511.2
							l3.3-3.3c2.5,2.5,244.7,247.7,220.4,512.5c29.7,0.5,326-0.7,665.8-238.2l2.6,3.8C3261.6,1608.1,3239.2,1622.9,3217,1636.7z"/>
					</g>
				</g>
			</g>
		</g>
		<g>
			<g>
				<defs>
					<path id="SVGID_00000010304193415059557500000014104396797945459105_" d="M1974.7,2553.6c47.9-73.2,129.8-184.1,255.7-292.1
						c224-192.2,363.9-183.9,431.4-336c69.9-157.5-47-240.9,40.2-420.3c7.3-15.1,102.3-204.2,253.7-205.9
						c105.9-1.2,182.5,90,218.4,132.8c139.5,166.1,214,472.5,65.3,695.2c-140.9,211.1-411.2,240.8-497.2,249.7
						c-150.9,15.5-203.8-25.2-355.6-5.2C2202.1,2395.9,2062.1,2484.8,1974.7,2553.6z"/>
				</defs>
				
					<linearGradient id="SVGID_00000163036245070495708150000004805183998013286789_" gradientUnits="userSpaceOnUse" x1="3279.6108" y1="1548.1227" x2="1414.4382" y2="3080.231">
					<stop  offset="3.597120e-03" style="stop-color:#E38DDD"/>
					<stop  offset="1" style="stop-color:#9571F6"/>
				</linearGradient>
				
					<use xlink:href="#SVGID_00000010304193415059557500000014104396797945459105_"  style="overflow:visible;fill:url(#SVGID_00000163036245070495708150000004805183998013286789_);"/>
				<clipPath id="SVGID_00000136397368644762542860000005478433805082395032_">
					<use xlink:href="#SVGID_00000010304193415059557500000014104396797945459105_"  style="overflow:visible;"/>
				</clipPath>
				<g style="clip-path:url(#SVGID_00000136397368644762542860000005478433805082395032_);">
					<defs>
						<path id="SVGID_00000042716725651168720970000009086454901473122958_" d="M1936.8,2617.7l-3.9-2.5
							c115.8-180.5,252.1-297.1,404.7-346.4c66.8-21.6,118.2-24.7,168-27.8c62.2-3.8,121-7.4,206.5-44.6
							c153.8-66.9,266.8-171.5,318-294.4c79.3-190.5,18.7-435.2-154.5-623.4l3.4-3.1c174.4,189.6,235.4,436.2,155.4,628.3
							c-51.7,124.1-165.5,229.5-320.4,296.9c-86.2,37.5-145.4,41.1-208.1,45c-49.5,3-100.7,6.2-166.9,27.6
							C2187.4,2322.2,2052.1,2438.2,1936.8,2617.7z"/>
					</defs>
					<defs>
						<path id="SVGID_00000102514872011494351190000007657906950572305821_" d="M3060.6,1790l-1-3.4
							c-41.4-137-160.6-207.1-253.2-241.8c-100.7-37.6-192.8-42.8-193.7-42.9l0.2-4.6c0.9,0,93.6,5.2,194.9,43.1
							c92.9,34.7,212.2,104.7,255.1,241.3c24.8-22.5,212.9-201.6,156.9-390.5l4.4-1.3c60.5,203.9-158.7,395.8-160.9,397.7
							L3060.6,1790z"/>
					</defs>
					<defs>
						<path id="SVGID_00000088840729146205624900000015753127292314703776_" d="M3110.2,2118.7c-31.5,11-60.7,18.3-86.8,23
							c-115,20.8-195.8-2-196.6-2.3l-2.2-0.6l0.6-2.2c36.5-137.6-22-250.4-77.4-320.8c-60.2-76.5-130-120.9-130.7-121.3l2.5-3.9
							c0.7,0.4,71.1,45.2,131.8,122.3c55.8,70.9,114.6,184.2,78.9,322.7c13.5,3.4,89,20.3,192.5,1.5
							c105.2-19.1,261.7-80,410.2-261.7l3.6,2.9C3324,2016.2,3206.6,2085,3110.2,2118.7z"/>
					</defs>
					<use xlink:href="#SVGID_00000042716725651168720970000009086454901473122958_"  style="overflow:visible;fill:#FFFFFF;"/>
					<use xlink:href="#SVGID_00000102514872011494351190000007657906950572305821_"  style="overflow:visible;fill:#FFFFFF;"/>
					<use xlink:href="#SVGID_00000088840729146205624900000015753127292314703776_"  style="overflow:visible;fill:#FFFFFF;"/>
					<clipPath id="SVGID_00000093175262349757224440000007140745333964997051_">
						<use xlink:href="#SVGID_00000042716725651168720970000009086454901473122958_"  style="overflow:visible;"/>
					</clipPath>
					
						<clipPath id="SVGID_00000047761436170279769840000010543396157890404009_" style="clip-path:url(#SVGID_00000093175262349757224440000007140745333964997051_);">
						<use xlink:href="#SVGID_00000102514872011494351190000007657906950572305821_"  style="overflow:visible;"/>
					</clipPath>
					
						<clipPath id="SVGID_00000125600627514437787010000015645292746639234950_" style="clip-path:url(#SVGID_00000047761436170279769840000010543396157890404009_);">
						<use xlink:href="#SVGID_00000088840729146205624900000015753127292314703776_"  style="overflow:visible;"/>
					</clipPath>
				</g>
			</g>
		</g>
	</g>
	<g>
		<path class="st6" d="M2992.3,3316.2c0,35.4-26.9,65.6-60.2,67.3L817.6,3493.4c-38.8,2-70.4-27.5-70.4-65.9V290.3
			c0-38.4,31.5-67.6,70.4-65.2l28.3-1.5L2932.1,354c33.3,2,60.2,32.4,60.2,67.8V3316.2z"/>
		<path class="st7" d="M3034,3314.8c0,35.4-26.9,65.6-60.2,67.3L859.2,3491.9c-38.8,2-70.4-27.5-70.4-65.9V288.8
			c0-38.4,31.5-67.6,70.4-65.2l2114.6,129c33.3,2,60.2,32.4,60.2,67.8V3314.8z"/>
		<path class="st7" d="M1407.8,518.5c-52.6,67.6-60.1,195.2,30,247.8c195.2,120.1,450.5,82.6,638.2-45c138.2-96.7,79.3-276,39.8-421
			L1700,274.8C1664.2,374.9,1473.7,430.6,1407.8,518.5z"/>
		<path class="st1" d="M2934.5,3189.2c0,31.4-23.9,57.9-53.5,59.3l-1914.6,89.6c-34,1.6-61.6-24.5-61.6-58.2V594.5
			c0-33.7,27.6-59.7,61.6-58L2881.1,633c29.6,1.5,53.5,28.1,53.5,59.5V3189.2z"/>
		
			<linearGradient id="SVGID_00000030484141953784817860000002960557259956560043_" gradientUnits="userSpaceOnUse" x1="1453.5387" y1="418.4913" x2="2436.0371" y2="418.4913">
			<stop  offset="0" style="stop-color:#444B8C"/>
			<stop  offset="0.9964" style="stop-color:#26264F"/>
		</linearGradient>
		<path style="fill:url(#SVGID_00000030484141953784817860000002960557259956560043_);" d="M2409.6,547.6c-2.9-16.5-15.7-28.1-32-29
			l-100.8-5.4c-45.5-2.4-78.5-40.4-76.3-88.1l5-110.6c0.9-20.4-13.2-36.8-32.8-38l-32.5-2c-24.7-1.5-41.7-23.7-37.8-49.5
			c6.9-45.6-23.1-85-67.1-88c-44.2-3-85.7,31.9-92.7,77.8c-1.9,12.5-8.5,24.1-18.3,32.4c-9.9,8.3-22.2,12.5-34.3,11.8l-33.2-2.1
			c-20.1-1.2-39.3,13.3-44.7,33.7l-28.8,110.8c-12.5,47.9-57.7,82.2-105.1,79.7l-106-5.7c-17.3-0.9-34.4,9.4-42.6,25.9l-76.1,152.7
			l6.5,8.4l976,38L2409.6,547.6z M2020.9,232.1c-12.9-0.8-21.8-12.4-19.8-25.8c2-13.4,14.2-23.6,27.1-22.8
			c12.9,0.8,21.8,12.4,19.7,25.8C2046,222.7,2033.8,232.9,2020.9,232.1z"/>
		<path class="st6" d="M2416.1,555.9c-2.9-16.5-15.7-28.1-32-29l-100.8-5.4c-45.5-2.4-78.5-40.4-76.3-88.1l5-110.5
			c0.9-20.4-13.2-36.8-32.8-38l-32.5-2c-24.7-1.5-41.7-23.7-37.8-49.5c6.9-45.6-23.1-85-67.1-88c-44.2-3-85.7,31.9-92.7,77.8
			c-1.9,12.5-8.5,24.1-18.3,32.4c-9.9,8.3-22.2,12.5-34.3,11.8l-33.2-2.1c-20.1-1.2-39.3,13.3-44.7,33.7l-28.8,110.8
			c-12.5,47.9-57.7,82.2-105.1,79.7l-106-5.7c-17.3-0.9-34.4,9.5-42.6,25.9l-76.1,152.7l982.5,46.3L2416.1,555.9z M2027.5,240.4
			c-12.9-0.8-21.8-12.4-19.8-25.8c2-13.4,14.2-23.6,27.1-22.8c12.9,0.8,21.8,12.4,19.7,25.8C2052.5,231,2040.4,241.2,2027.5,240.4z"
			/>
		<path class="st9" d="M2384.1,527l-100.8-5.4c-30.2-1.6-54.8-19-67.4-44.4c-93.4,19.5-191.7-0.9-290.1,18.8
			c-67.6,15-60.1,120.1-135.1,127.6c-107.7,14.6-214.3,15.6-319.7,16.6l-11,22l982.5,46.3l-26.4-152.6
			C2413.3,539.5,2400.4,527.8,2384.1,527z"/>
		<g>
			<polygon class="st7" points="2794,1065.5 1081.1,1024 1081.1,799.5 2794,852.9 			"/>
			<g>
				<g>
					<g>
						<path class="st7" d="M2794,1768.5l-1712.9-2.6v-572.5l1712.9,32.7V1768.5z M1113.1,1734l1648.8,4.1v-482.1l-1648.8-29.8V1734z
							"/>
					</g>
					<g>
						<polygon class="st7" points="1479.5,1747.6 1442.9,1747.6 1442.9,1214 1479.5,1214.6 						"/>
					</g>
					<g>
						<g>
							<polygon class="st7" points="2775.7,1429.8 1461.2,1413.4 1461.2,1381.7 2775.7,1399.4 							"/>
						</g>
						<g>
							<polygon class="st7" points="2775.7,1594.8 1461.2,1585.4 1461.2,1553.7 2775.7,1564.4 							"/>
						</g>
					</g>
				</g>
				<g>
					<polygon class="st7" points="2441.4,1763.5 2404.7,1763.5 2404.7,1231.9 2441.4,1232.4 					"/>
				</g>
			</g>
			<g>
				<g>
					<g>
						<path class="st7" d="M2794,2788.2l-1712.9,54v-572.5l1712.9-23.9V2788.2z M1113.1,2809.2l1648.8-50.3v-482.1l-1648.8,24.6
							V2809.2z"/>
					</g>
					<g>
						<polygon class="st7" points="1479.5,2811.5 1442.9,2812.7 1442.9,2278.3 1479.5,2277.7 						"/>
					</g>
					<g>
						<g>
							<polygon class="st7" points="2775.7,2450.2 1461.2,2477.2 1461.2,2445.5 2775.7,2419.8 							"/>
						</g>
						<g>
							<polygon class="st7" points="2775.7,2615.1 1461.2,2649.2 1461.2,2617.5 2775.7,2584.7 							"/>
						</g>
					</g>
				</g>
				<g>
					<polygon class="st7" points="2441.4,2795 2404.7,2796 2404.7,2264.4 2441.4,2263.9 					"/>
				</g>
			</g>
			<polygon class="st7" points="2794,1950.8 1081.1,1958.3 1081.1,1885 2794,1881.3 			"/>
			<polygon class="st7" points="2794,2115.7 1081.1,2132.3 1081.1,2059.1 2794,2046.2 			"/>
			<polygon class="st7" points="2794,2970.5 1081.1,3034.6 1081.1,2961.3 2794,2901.1 			"/>
		</g>
	</g>
	<g>
		
			<linearGradient id="SVGID_00000023256487461854232050000012618287185196979586_" gradientUnits="userSpaceOnUse" x1="1691.4839" y1="1717.162" x2="776.8781" y2="2010.6865">
			<stop  offset="0" style="stop-color:#FCB148"/>
			<stop  offset="5.207239e-02" style="stop-color:#FDBA46"/>
			<stop  offset="0.1424" style="stop-color:#FFC244"/>
			<stop  offset="0.3183" style="stop-color:#FFC444"/>
			<stop  offset="0.4849" style="stop-color:#FDB946"/>
			<stop  offset="0.7754" style="stop-color:#F99C4D"/>
			<stop  offset="0.8658" style="stop-color:#F8924F"/>
			<stop  offset="1" style="stop-color:#F8924F"/>
		</linearGradient>
		<path style="fill:url(#SVGID_00000023256487461854232050000012618287185196979586_);" d="M2744.4,1684
			c0,424.3-331.8,758.1-755.8,745c-441.3-13.6-812.5-394.7-812.5-850.8c0-456.1,371.2-787.2,812.5-741.2
			C2412.6,881.2,2744.4,1259.7,2744.4,1684z"/>
		
			<linearGradient id="SVGID_00000129928593360548082820000013051560096962873264_" gradientUnits="userSpaceOnUse" x1="2431.3469" y1="806.7639" x2="1614.8433" y2="2608.1233">
			<stop  offset="0" style="stop-color:#FFDB44"/>
			<stop  offset="1" style="stop-color:#FEEF06"/>
		</linearGradient>
		<path style="fill:url(#SVGID_00000129928593360548082820000013051560096962873264_);" d="M2859,1647.4
			c0,424.3-331.8,758.1-755.8,745c-441.3-13.6-812.5-394.7-812.5-850.8c0-456.1,371.2-787.2,812.5-741.2
			C2527.2,844.6,2859,1223.1,2859,1647.4z"/>
		
			<linearGradient id="SVGID_00000066478984534413389800000007212070630285604004_" gradientUnits="userSpaceOnUse" x1="2281.1506" y1="2708.8013" x2="2123.6045" y2="1848.1327">
			<stop  offset="0" style="stop-color:#FCB148"/>
			<stop  offset="5.207239e-02" style="stop-color:#FDBA46"/>
			<stop  offset="0.1424" style="stop-color:#FFC244"/>
			<stop  offset="0.3183" style="stop-color:#FFC444"/>
			<stop  offset="0.4849" style="stop-color:#FDB946"/>
			<stop  offset="0.7754" style="stop-color:#F99C4D"/>
			<stop  offset="0.8658" style="stop-color:#F8924F"/>
			<stop  offset="1" style="stop-color:#F8924F"/>
		</linearGradient>
		<path style="fill:url(#SVGID_00000066478984534413389800000007212070630285604004_);" d="M2825.7,1645.1
			c0,405.6-317.4,724.1-722.5,711c-420.8-13.6-774.1-377.4-774.1-811.9c0-434.6,353.3-750.7,774.1-707.6
			C2508.2,878.2,2825.7,1239.5,2825.7,1645.1z"/>
		
			<linearGradient id="SVGID_00000055685392979352793700000008673966203092192147_" gradientUnits="userSpaceOnUse" x1="1947.1226" y1="1315.7146" x2="2596.3906" y2="2693.9868">
			<stop  offset="0" style="stop-color:#FCB148"/>
			<stop  offset="5.207239e-02" style="stop-color:#FDBA46"/>
			<stop  offset="0.1424" style="stop-color:#FFC244"/>
			<stop  offset="0.3183" style="stop-color:#FFC444"/>
			<stop  offset="0.4849" style="stop-color:#FDB946"/>
			<stop  offset="0.7754" style="stop-color:#F99C4D"/>
			<stop  offset="0.8658" style="stop-color:#F8924F"/>
			<stop  offset="1" style="stop-color:#F8924F"/>
		</linearGradient>
		<path style="fill:url(#SVGID_00000055685392979352793700000008673966203092192147_);" d="M2801.9,1643.5
			c0,392.2-307.2,699.9-698.7,686.7c-406.2-13.6-746.8-364.9-746.8-784.2s340.6-724.6,746.8-683.5
			C2494.7,902.2,2801.9,1251.3,2801.9,1643.5z"/>
		<g>
			
				<linearGradient id="SVGID_00000130647680588974661110000018161298607985326764_" gradientUnits="userSpaceOnUse" x1="1921.2555" y1="1019.1281" x2="2247.73" y2="2242.697">
				<stop  offset="0" style="stop-color:#FFDB44"/>
				<stop  offset="1" style="stop-color:#FEEF06"/>
			</linearGradient>
			<path style="fill:url(#SVGID_00000130647680588974661110000018161298607985326764_);" d="M2099.1,996L2099.1,996
				c20.8,2,37.7,20.7,37.7,41.9v72.2c41.7,4.7,83.4,11.9,125.2,21.7c30.8,7.2,61.4,15.9,91.8,25.8c18.2,6,30.6,24.4,28.8,43.3
				l-8.9,90.6c-2.4,24-26.1,38.1-48.5,28.2c-20-8.9-40.5-16.6-61.6-22.9c-36.7-11.1-75.4-18.3-116.2-21.7l-10.7-0.9v206.8
				c108.7,30.4,188.5,71.3,240.1,122.8c51.3,51.2,76.9,115,76.9,191.6c0,82.9-28.3,149.2-85.1,199.2
				c-57.1,50.3-137.1,78.6-240.6,84.7v79.7c0,21.2-16.9,37.7-37.7,36.8l-0.7,0c-20.9-0.8-37.9-18.7-37.9-40v-78.6l-16.8-0.8
				c-48.5-2.2-95-7.1-139.4-14.9c-32.9-5.7-65-13.1-96.3-22.2c-18.9-5.5-32-23.5-30.2-42.9l10.4-116.4c2.3-25.2,27.5-39.8,51.5-30.4
				c27.9,11,56.1,20.3,84.7,27.8c44.5,11.7,89.7,19.3,135.4,22.6l0.7-230.1c-104.3-25.8-182.4-64.1-233.8-114.7
				c-51.6-50.9-77.4-116-77.4-195.2c0-81.9,28.1-145.2,83.9-189.6c55.6-44.2,134.7-66.1,236.6-66.1v-73.8
				C2061.3,1009.6,2078.3,994,2099.1,996z M2061.3,1272.1c-32.2,2.3-57.4,11.2-75.4,26.6c-18,15.4-27,36.1-27,62.1
				c0,24.6,8.3,45.2,25,61.7c16.7,16.5,42.5,29.7,77.4,39.5V1272.1z M2128.2,1688.7v211c35.1,0.1,61.9-8.3,80.7-25.1
				c18.7-16.8,28.1-40.4,28.1-71c0-27.9-8.7-51-26.1-69.4C2193.4,1715.7,2165.9,1700.5,2128.2,1688.7z"/>
		</g>
		
			<linearGradient id="SVGID_00000009555192616813472380000008014366863238691257_" gradientUnits="userSpaceOnUse" x1="1756.11" y1="1404.9098" x2="2404.0686" y2="2780.4023">
			<stop  offset="0" style="stop-color:#FCB148"/>
			<stop  offset="5.207239e-02" style="stop-color:#FDBA46"/>
			<stop  offset="0.1424" style="stop-color:#FFC244"/>
			<stop  offset="0.3183" style="stop-color:#FFC444"/>
			<stop  offset="0.4849" style="stop-color:#FDB946"/>
			<stop  offset="0.7754" style="stop-color:#F99C4D"/>
			<stop  offset="0.8658" style="stop-color:#F8924F"/>
			<stop  offset="1" style="stop-color:#F8924F"/>
		</linearGradient>
		<path style="opacity:0.3;fill:url(#SVGID_00000009555192616813472380000008014366863238691257_);" d="M1976.7,1739.6
			c23.6-233.2,237.9-331.9,209.9-546.3c-17.2-132.2-117.4-243.6-229.2-330.6c-339,35.5-601.1,316.2-601.1,683.4
			c0,419.2,340.6,770.6,746.8,784.2c39.4,1.3,78-0.7,115.4-5.6C2057.2,2164.1,1956.4,1939.9,1976.7,1739.6z"/>
	</g>
	<g>
		
			<linearGradient id="SVGID_00000163785169737023686130000018437475934513596060_" gradientUnits="userSpaceOnUse" x1="1125.2747" y1="1849.0997" x2="2205.9543" y2="368.0249">
			<stop  offset="3.597120e-03" style="stop-color:#6165D7"/>
			<stop  offset="1" style="stop-color:#AA80F9"/>
		</linearGradient>
		<path style="fill:url(#SVGID_00000163785169737023686130000018437475934513596060_);" d="M2708,1159.3v3.3
			c-29-39.6-80.9-94.6-112-126.4c-0.6-1.4-1.6-2.8-2.1-4.2c-17.3-41.6-40.7-86.7-71.3-131.6c-30.3-45.1-68.9-89.5-113.9-130.3
			c-5.4-5.3-11.6-10-17.4-15c-2.9-2.4-5.9-5-8.9-7.4l-4.4-3.7c-1.5-1.2-3.1-2.4-4.6-3.6c-6.2-4.7-12.3-9.4-18.6-14.2l-4.6-3.6
			l-4.9-3.3c-3.2-2.2-6.5-4.5-9.7-6.7c-12.7-9.2-26.5-17.2-39.9-25.7c-6.8-4.1-14-7.9-20.9-11.8c-3.4-1.9-7-3.9-10.5-5.8
			c-3.6-1.8-7.2-3.6-10.8-5.4c-57.5-29-120.1-50-184.4-61.6c-8-1.3-16.1-2.7-24.2-4c-8.1-1.1-16.3-1.8-24.3-2.8l-12.2-1.4l-12.2-0.7
			l-12.2-0.7c-4.1-0.2-8.1-0.6-12.2-0.5c-8.1,0-16.2-0.1-24.4-0.2c-2,0-4.1-0.1-6,0l-5.4,0.3l-10.8,0.6l-10.8,0.5
			c-1,0-1.6,0-2.9,0.1l-11.1,0.8l-14.8,1l-11.1,0.8l-1.9,0.1l-0.7,0c0,0-3.8,0,2.6,0.1l-23.9,3.5c-3.9,0.6-7.9,1-11.8,1.9l-11.7,2.4
			l-11.7,2.3l-5.8,1.2c-1.9,0.4-3.9,1-5.8,1.4c-7.7,1.9-15.3,3.9-22.9,5.8c-3.8,0.8-7.6,2.2-11.3,3.3l-11.2,3.5l-11.2,3.4l-10.9,4
			c-7.3,2.7-14.6,5.1-21.7,8c-7,3-14.1,6-21.1,9c-55.7,24.8-105.7,56.8-148.3,93.3l-8,6.7l-7.6,7.2c-5,4.7-10.3,9.2-15.1,14.1
			c-0.2,0.2-0.4,0.4-0.6,0.6c-9.4,9.7-18.8,18.8-27.2,28.8c-2.2,2.4-4.4,4.9-6.6,7.4l-3.3,3.6l-3.1,3.9c-4.1,5.1-8.2,10.1-12.2,15.2
			c-1,1.2-2.1,2.4-3.1,3.7l-2.8,3.9c-1.9,2.6-3.8,5.2-5.6,7.7c-3.6,5.2-7.6,10-10.9,15.4c-27.7,41.4-48.7,82.8-63.1,122.3
			c-14.4,39.4-23,76.4-27.9,109c-0.5,4.1-1.1,8.1-1.6,12.1c-0.5,3.9-1.2,7.8-1.4,11.6c-0.6,7.7-1.2,15-1.9,22
			c-0.4,7.1-0.4,14-0.7,20.4c-0.1,3.2-0.3,6.4-0.4,9.4c0.1,3.1,0.2,6.1,0.2,9c0.1,5.8,0.2,11.3,0.2,16.5c0,1.4,0.2,2.2,0.3,3.2
			c0.1,1,0.2,1.9,0.4,2.8c0.2,1.8,0.4,1.6,0.6,3.2c0.1,1.4,0.3,2.1,0.4,2.1h272.5l-165.6,183.6l-385,421l-550.6-604.7h289.5
			c0.4,0,0.9-5,1.3-8.9c1.1-8.4,2.3-16.6,3.6-26.6c0.7-5,1.4-9.6,2.2-14.9c0.4-2.6,0.8-5.1,1.2-7.8c0.4-2.7,0.7-5.6,1.3-7.9
			c2-10,4.1-20.6,6.4-31.8c1.2-5.6,2.4-11.3,3.6-17.2c1.3-5.9,2.9-11.8,4.5-18c3.1-12.2,6.2-25,10-38.3c4.1-13.1,8.3-26.7,12.6-40.9
			c2.1-7.1,4.9-14.1,7.5-21.4c2.6-7.1,5.3-14.4,8-21.9c22.5-59,53.2-123.2,94.2-187.8c40.9-64.6,92.9-129,154.7-188.7
			c7.5-7.7,15.8-14.7,23.8-22c4.1-3.6,8.1-7.2,12.1-10.9l6.2-5.5l6.3-5.2c8.5-6.9,17.1-13.9,25.6-20.9l6.5-5.2l6.7-5
			c4.5-3.4,9-6.7,13.5-10c17.7-13.5,36.7-25.8,55.6-38.3c9.5-6.1,19.4-11.8,29.2-17.8c4.8-2.9,9.8-5.8,14.7-8.8
			c5-2.7,10.1-5.5,15.2-8.2c80.6-44.1,169.6-77.6,262-97.7c11.6-2.3,23.2-4.6,34.8-6.9c11.6-2.2,23.4-3.6,35.1-5.4l17.6-2.5
			l17.7-1.7l17.6-1.7c5.9-0.5,11.7-1.2,17.6-1.4c11.8-0.5,23.6-1.9,35.4-2.5c2.9-0.1,5.9-1.2,8.8-1.2h8.9l17.6,1l17.6,0.6
			c5.9,0,11.8,0.8,17.6,1.1l35,2.1c7.9,0.1,2.7,0.2,4.8,0.2l0.9,0.1l1.9,0.2l3.6,0.5l7.4,0.9l14.7,1.8l7.4,0.9l3.6,0.5l4.5,0.6
			l18.5,2.7l18.5,2.8l9.2,1.4c3,0.5,5.7,1.2,8.6,1.7c11.3,2.4,22.6,4.8,33.9,7.2c5.6,1.1,11.2,2.7,16.7,4.2l16.7,4.4l16.6,4.4
			l16.4,5.2c10.8,3.5,21.7,6.8,32.4,10.6c10.6,4,21.2,7.9,31.8,11.9c83.8,33.3,160.2,77.7,225.9,129.4c4.1,3.2,8.2,6.4,12.3,9.6
			c4,3.3,8,6.7,11.9,10.1c7.9,6.7,15.8,13.2,23.4,20c14.9,14,29.8,27.5,43.5,42.1c3.5,3.6,6.9,7.2,10.4,10.7l5.1,5.3l4.9,5.5
			c6.5,7.4,12.9,14.7,19.3,21.9l4.8,5.5l4.6,5.6c2.9,3.8,6,7.5,8.9,11.2c5.9,7.5,12,14.6,17.3,22.4c30,40.5,55.4,81.6,76.5,122.1
			c10.3,19.7,19.4,39.2,27.5,58.6c25,59,41,115.2,51.1,165.3c1.1,6.3,2.3,12.5,3.4,18.5c1.1,6,2.4,12,3.1,17.9
			c1.6,11.8,3.1,23.1,4.6,34c1.2,10.9,1.9,21.4,2.8,31.4c0.4,5,0.9,9.8,1.2,14.6c0.2,4.7,1.2,9.4,1.4,13.9
			C2706.6,1142.7,2708,1151.3,2708,1159.3z"/>
		
			<linearGradient id="SVGID_00000015314337399688685410000003886630798544854162_" gradientUnits="userSpaceOnUse" x1="1997.5778" y1="1120.9854" x2="2388.3677" y2="585.4067">
			<stop  offset="3.597120e-03" style="stop-color:#6165D7"/>
			<stop  offset="1" style="stop-color:#AA80F9"/>
		</linearGradient>
		<path style="opacity:0.4;fill:url(#SVGID_00000015314337399688685410000003886630798544854162_);" d="M2708,1159.3v3.3
			c-29-39.6-80.9-94.6-112-126.4c-0.6-1.4-1.6-2.8-2.1-4.2c-17.3-41.6-40.7-86.7-71.3-131.6c-30.3-45.1-68.9-89.5-113.9-130.3
			c-5.4-5.3-11.6-10-17.4-15c-2.9-2.4-5.9-5-8.9-7.4l-4.4-3.7c-1.5-1.2-3.1-2.4-4.6-3.6c-6.2-4.7-12.3-9.4-18.6-14.2l-4.6-3.6
			l-4.9-3.3c-3.2-2.2-6.5-4.5-9.7-6.7c-12.7-9.2-26.5-17.2-39.9-25.7c-6.8-4.1-14-7.9-20.9-11.8c-3.4-1.9-7-3.9-10.5-5.8
			c-3.6-1.8-7.2-3.6-10.8-5.4c-57.5-29-120.1-50-184.4-61.6c-8-1.3-16.1-2.7-24.2-4c-8.1-1.1-16.3-1.8-24.3-2.8l-12.2-1.4l-12.2-0.7
			l-12.2-0.7c-4.1-0.2-8.1-0.6-12.2-0.5c-8.1,0-16.2-0.1-24.4-0.2c-2,0-4.1-0.1-6,0l-5.4,0.3l-10.8,0.6l-10.8,0.5
			c-1,0-1.6,0-2.9,0.1l-11.1,0.8l-14.8,1l-11.1,0.8l-1.9,0.1l-0.7,0c0,0-3.8,0,2.6,0.1l-23.9,3.5c-3.9,0.6-7.9,1-11.8,1.9l-11.7,2.4
			l-11.7,2.3l-5.8,1.2c-1.9,0.4-3.9,1-5.8,1.4c-7.7,1.9-15.3,3.9-22.9,5.8c-3.8,0.8-7.6,2.2-11.3,3.3l-11.2,3.5l-11.2,3.4l-10.9,4
			c-7.3,2.7-14.6,5.1-21.7,8c-7,3-14.1,6-21.1,9c-55.7,24.8-105.7,56.8-148.3,93.3l-8,6.7l-7.6,7.2c-5,4.7-10.3,9.2-15.1,14.1
			c-0.2,0.2-0.4,0.4-0.6,0.6c122.3-151.5,320.5-249.9,544.2-249.9c229.2,0,431.6,103.3,553,261.1c10.3,19.7,19.4,39.2,27.5,58.6
			c25,59,41,115.2,51.1,165.3c1.1,6.3,2.3,12.5,3.4,18.5c1.1,6,2.4,12,3.1,17.9c1.6,11.8,3.1,23.1,4.6,34
			c1.2,10.9,1.9,21.4,2.8,31.4c0.4,5,0.9,9.8,1.2,14.6c0.2,4.7,1.2,9.4,1.4,13.9C2706.6,1142.7,2708,1151.3,2708,1159.3z"/>
	</g>
	<g>
		
			<linearGradient id="SVGID_00000005986536383682340380000016688743706221258940_" gradientUnits="userSpaceOnUse" x1="1001.3381" y1="2090.2932" x2="-494.9368" y2="3972.272">
			<stop  offset="0" style="stop-color:#FFC444"/>
			<stop  offset="0.9964" style="stop-color:#F36F56"/>
		</linearGradient>
		<path style="fill:url(#SVGID_00000005986536383682340380000016688743706221258940_);" d="M982.3,1854.7
			c56.4,93.3,56.7,201.6,3.7,265.5c-25.6,30.9-82.6,74.4-149.3,75.5c-31.8,0.5-47.5-8.9-58.7,1.5c-28.5,26.6,6.7,149.1,73.6,174.5
			c87,33.1,253.8-88.3,279.7-243.5c24.7-147.5-88.7-261.9-103-275.9C1013,1853.2,997.6,1854,982.3,1854.7z"/>
		
			<linearGradient id="SVGID_00000050659529149530111310000009316014758098089120_" gradientUnits="userSpaceOnUse" x1="375.7346" y1="2824.877" x2="54.1823" y2="2008.1926" gradientTransform="matrix(-1 8.500000e-03 8.500000e-03 1 589.211 10.923)">
			<stop  offset="0" style="stop-color:#444B8C"/>
			<stop  offset="0.9964" style="stop-color:#26264F"/>
		</linearGradient>
		<path style="fill:url(#SVGID_00000050659529149530111310000009316014758098089120_);" d="M114.1,2235.6
			c3.2-69.7,47.5-114.3,58.5-125.1c66-64.5,159.2-62,189-61.2c105.8,2.8,129.7,55.4,203.6,35.8c62.5-16.6,67.3-60,121.2-63
			c56.3-3.1,115.3,40.9,138.9,90.9c45.5,96.4-25.5,246.5-126.9,291.8C593,2452,536,2349.6,342.8,2379.9
			c-70.5,11-111.7,32.3-157.4,6.5C135.4,2358.1,111.6,2291.1,114.1,2235.6z"/>
		
			<linearGradient id="SVGID_00000008140572806328763930000011992648715419949467_" gradientUnits="userSpaceOnUse" x1="756.8053" y1="3597.4688" x2="826.4011" y2="3597.4688" gradientTransform="matrix(1 -8.500000e-03 8.500000e-03 1 52.0186 15.6603)">
			<stop  offset="0" style="stop-color:#444B8C"/>
			<stop  offset="0.9964" style="stop-color:#26264F"/>
		</linearGradient>
		<path style="fill:url(#SVGID_00000008140572806328763930000011992648715419949467_);" d="M844.8,3582.5c0,0-5.6,5.3-5.5,14.6
			c0,2.8,1.3,5.4,3.6,7.2c5,3.8,15.9,11.4,33,18.4c24.1,9.8,32.3,8.9,33.2,4.8c1-4-11.5-14.9-22.2-24.3
			C876.3,3593.7,844.8,3582.5,844.8,3582.5z"/>
		
			<linearGradient id="SVGID_00000083069189034777500060000006269090183168956090_" gradientUnits="userSpaceOnUse" x1="782.1498" y1="3629.3171" x2="764.2744" y2="3515.0415" gradientTransform="matrix(1 -8.500000e-03 8.500000e-03 1 52.0186 15.6603)">
			<stop  offset="0" style="stop-color:#311944"/>
			<stop  offset="1" style="stop-color:#893976"/>
		</linearGradient>
		<path style="fill:url(#SVGID_00000083069189034777500060000006269090183168956090_);" d="M836.9,3545.1c0,0,7.9,36.4,7.4,49.7
			c0,0,9.7,8.4,23.3-0.2c0,0-7.3-33.2-4-47L836.9,3545.1z"/>
		
			<linearGradient id="SVGID_00000033347577172013515170000009016688205450037689_" gradientUnits="userSpaceOnUse" x1="485.4571" y1="3613.8408" x2="550.2805" y2="3613.8408" gradientTransform="matrix(1 -8.500000e-03 8.500000e-03 1 52.0186 15.6603)">
			<stop  offset="0" style="stop-color:#444B8C"/>
			<stop  offset="0.9964" style="stop-color:#26264F"/>
		</linearGradient>
		<path style="fill:url(#SVGID_00000033347577172013515170000009016688205450037689_);" d="M575.7,3597.3c0,0-6.3,4.5-7.5,13.7
			c-0.4,2.8,0.5,5.5,2.5,7.6c4.4,4.5,14.2,13.5,30.1,22.7c22.5,13.1,30.7,13.2,32.2,9.4c1.5-3.8-9.3-16.3-18.6-27.2
			C605.2,3612.7,575.7,3597.3,575.7,3597.3z"/>
		
			<linearGradient id="SVGID_00000084490698084866584390000013983322979936130751_" gradientUnits="userSpaceOnUse" x1="497.9923" y1="3631.5901" x2="496.0772" y2="3526.2522" gradientTransform="matrix(1 -8.500000e-03 8.500000e-03 1 52.0186 15.6603)">
			<stop  offset="0" style="stop-color:#311944"/>
			<stop  offset="1" style="stop-color:#893976"/>
		</linearGradient>
		<path style="fill:url(#SVGID_00000084490698084866584390000013983322979936130751_);" d="M564.1,3563.7c0,0,7.9,36.4,7.4,49.7
			c0,0,9.7,8.4,23.3-0.2c0,0-7.3-33.2-4-47L564.1,3563.7z"/>
		
			<linearGradient id="SVGID_00000033359219709702336130000015332024990146913431_" gradientUnits="userSpaceOnUse" x1="646.4325" y1="3682.9126" x2="730.7032" y2="3004.9194" gradientTransform="matrix(1 -8.500000e-03 8.500000e-03 1 52.0186 15.6603)">
			<stop  offset="0" style="stop-color:#40447E"/>
			<stop  offset="0.9964" style="stop-color:#3C3B6B"/>
		</linearGradient>
		<path style="fill:url(#SVGID_00000033359219709702336130000015332024990146913431_);" d="M925.2,2782.9
			c3.3,109.4,2.7,226.8-3.4,351.2c-7.7,155.4-22.9,299.4-42.3,430.7c-7.3,2.1-17.3,4.1-29.3,4.1c-8.5,0-15.8-1.1-21.7-2.4
			c-3.5-15.4-8.9-39-15.9-67.5c-12.8-51.8-15.8-58.7-19.8-76.4c-16.6-73.8,4.2-94.9-6.6-171.1c-2.4-16.7-3.3-15.2-26.4-95.5
			c-28.7-100.1-43.3-150.2-50.1-188.6c-18.4-103-27.6-154.4,1-186.4C748,2739.1,835.7,2744.8,925.2,2782.9z"/>
		
			<linearGradient id="SVGID_00000124853113987416808400000013026309285990079131_" gradientUnits="userSpaceOnUse" x1="645.6893" y1="3682.8201" x2="729.9599" y2="3004.8271" gradientTransform="matrix(1 -8.500000e-03 8.500000e-03 1 52.0186 15.6603)">
			<stop  offset="0" style="stop-color:#40447E"/>
			<stop  offset="0.9964" style="stop-color:#3C3B6B"/>
		</linearGradient>
		<path style="opacity:0.3;fill:url(#SVGID_00000124853113987416808400000013026309285990079131_);" d="M854.7,3502.4
			c-12.3-33.9,8.6-51.3,8-109.9c-0.5-50.5-16.2-56.7-21.4-113.5c-4.7-52,6.7-67,9.2-115c4.9-90.6-31.2-120.6-38.6-189.9
			c-5.2-47.7,2.9-117.3,65.8-208.4c-71.7-21.4-136.4-19.1-167,15.2c-28.6,32-19.4,83.5-1,186.4c6.9,38.4,21.4,88.4,50.1,188.6
			c23.1,80.3,24,78.8,26.4,95.5c10.8,76.2-10,97.3,6.6,171.1c4,17.8,7,24.7,19.8,76.4c7,28.6,12.4,52.1,15.9,67.5
			c5.9,1.3,13.3,2.3,21.7,2.4c12,0,22-2,29.3-4.1c1.2-8,2.4-16.1,3.5-24.2C870.8,3530.7,860.4,3518.2,854.7,3502.4z"/>
		
			<linearGradient id="SVGID_00000127752103335506982650000015941368190977926565_" gradientUnits="userSpaceOnUse" x1="362.4646" y1="3013.1492" x2="678.4691" y2="3214.2429" gradientTransform="matrix(1 -8.500000e-03 8.500000e-03 1 52.0186 15.6603)">
			<stop  offset="0" style="stop-color:#40447E"/>
			<stop  offset="0.9964" style="stop-color:#3C3B6B"/>
		</linearGradient>
		<path style="fill:url(#SVGID_00000127752103335506982650000015941368190977926565_);" d="M807.6,2776.3
			c-42.9,119.6-84.6,252.4-121.5,397.7c-35.8,141.3-62,274.4-81.2,396.9c-5.7,2.7-16.5,6.8-30.6,6.6c-12-0.2-21.4-3.4-26.9-5.8
			c-14.5-35.8-29.6-82.3-38.9-138.1c-5.9-35.8-12.4-74.8-8-124.9c5.8-66.7,24-77.4,32-143.3c6-49.3-2.4-58.9-4.9-130.2
			c-4-110.5-6.1-167.5,21.2-207C607.5,2743.3,779.2,2771.3,807.6,2776.3z"/>
		
			<linearGradient id="SVGID_00000009580145183405413700000005109795315431255479_" gradientUnits="userSpaceOnUse" x1="968.0087" y1="2063.7952" x2="-528.268" y2="3945.7761">
			<stop  offset="0" style="stop-color:#FFC444"/>
			<stop  offset="0.9964" style="stop-color:#F36F56"/>
		</linearGradient>
		<path style="fill:url(#SVGID_00000009580145183405413700000005109795315431255479_);" d="M954.4,2793.4
			c-12.9-72.8-2.4-69.2-14.5-153.3c-15.8-110.1-35.6-128.3-45-205.7c-5.6-45.7-7.8-114.4,13.1-202.1c-23.7-13.4-105.8-56-214.2-39
			c-13.7,2.1-26.7,5.1-39,8.6c-11.2-6.8-26.7,1.4-56,1.5c-66.6,0.1-124.4-42.5-150.5-72.9c-54.1-63-55.6-171.3-0.8-265.5
			c-15.4-0.5-30.7-1-46.1-1.6c-10,10.2-140.7,147.5-98.3,277.6c24.1,73.8,99,130.5,104.2,134.3c48,35.6,76.8,33.5,125.1,82.4
			c13.6,13.8,32.3,35.1,44,39.3c44.5,77.8,43.9,125.1,29.4,155.5c-14.6,30.6-42,40.9-71,101.1c-28.8,59.7-16.6,79.9-42.6,106.2
			c-46.7,47.1-118,14.2-133.3,46.5c-15.1,31.7,38.6,95,93.1,126.7c43.1,25,84.7,29,114,31.5c53.2,4.5,61.8-6.9,151-14.4
			c66.8-5.7,104.5-8.9,154.9-1.7c69.7,9.8,91.8,29.3,108.5,15.3C1002.2,2945.1,973,2898.2,954.4,2793.4z"/>
		<g>
			
				<linearGradient id="SVGID_00000081645642123098041950000011973397711137251488_" gradientUnits="userSpaceOnUse" x1="719.2788" y1="2040.4067" x2="613.9404" y2="2240.8691" gradientTransform="matrix(1 -8.500000e-03 8.500000e-03 1 52.0186 15.6603)">
				<stop  offset="0" style="stop-color:#311944"/>
				<stop  offset="1" style="stop-color:#893976"/>
			</linearGradient>
			<path style="fill:url(#SVGID_00000081645642123098041950000011973397711137251488_);" d="M702.3,2116c3.4,9.3,8.1,29.8-1.8,48.4
				c-8.6,16.3-24.9,23.6-31.4,26.5c-15.7,7.2-25.2,5.2-25.6,8.1c-0.9,6.6,44.2,27.5,90.6,17.7c27.3-5.7,53-21.6,51.2-30.4
				c-2-9.8-37-2.7-49.3-21.7c-7.8-12.1-2.9-29.6,3.3-43.6C730.4,2113.7,711.4,2123.5,702.3,2116z"/>
			<g>
				
					<linearGradient id="SVGID_00000014609982645732719300000007880083392545954486_" gradientUnits="userSpaceOnUse" x1="523.9808" y1="1619.2975" x2="403.1457" y2="1569.865" gradientTransform="matrix(0.9641 -0.2657 0.2657 0.9641 -15.4736 718.8479)">
					<stop  offset="0" style="stop-color:#311944"/>
					<stop  offset="1" style="stop-color:#893976"/>
				</linearGradient>
				<path style="fill:url(#SVGID_00000014609982645732719300000007880083392545954486_);" d="M707.8,2146.9c0,0,20.6,14.8,42.1,2
					c19.2-11.5-0.8-62.7-18.3-66.9c-5.9-1.4-15,1.4-21,7c-3.5,3.3-4,5.9-9.8,11.2c-5.4,4.9-7.5,5-8.5,7.7c-1.3,3.4-0.6,9.6,10,22.2
					c-5.8-2.4-11.1-1.7-13.6,1.6c-0.4,0.5-1.3,2.3-1.3,4.2C687.2,2143.1,695.2,2148.1,707.8,2146.9z"/>
			</g>
		</g>
		<g class="st30">
			
				<linearGradient id="SVGID_00000139294677678985647320000009951977243959622335_" gradientUnits="userSpaceOnUse" x1="591.3854" y1="2024.1578" x2="-534.7397" y2="5804.73" gradientTransform="matrix(1 -8.500000e-03 8.500000e-03 1 15.0795 15.9748)">
				<stop  offset="0" style="stop-color:#FF9085"/>
				<stop  offset="1" style="stop-color:#FB6FBB"/>
			</linearGradient>
			<path style="fill:url(#SVGID_00000139294677678985647320000009951977243959622335_);" d="M610,2855.1
				c38.6-77.9,136.5-85.5,140.9-147.5c3.2-45.4-48.5-51.5-69-116.9c-30.9-98.3,61.8-161.5,29-229c-22.4-46.1-71.1-27.9-184.1-87
				c-52.8-27.6-136.6-71.5-184.8-159.2c-19.6-35.7-29.4-71.6-34-103.7c-13.9,40.4-19.3,85.2-5,129.1c24.1,73.8,99,130.5,104.2,134.3
				c48,35.6,76.8,33.5,125.1,82.4c13.6,13.8,32.3,35.1,44,39.3c44.5,77.8,43.9,125.1,29.4,155.5c-14.6,30.6-42,40.9-71,101.1
				c-28.8,59.7-16.6,79.9-42.6,106.2c-46.7,47.1-118,14.2-133.3,46.5c-15.1,31.7,38.6,95,93.1,126.7c43.1,25,84.7,29,114,31.5
				c13.4,1.1,24,1.3,33.7,0.7C590.1,2915.7,597.4,2880.6,610,2855.1z"/>
		</g>
		
			<linearGradient id="SVGID_00000168815695091599887370000012246795843238961070_" gradientUnits="userSpaceOnUse" x1="402.0533" y1="1957.2335" x2="378.0999" y2="1847.5116" gradientTransform="matrix(1 -8.500000e-03 8.500000e-03 1 15.0795 15.9748)">
			<stop  offset="0" style="stop-color:#311944"/>
			<stop  offset="1" style="stop-color:#893976"/>
		</linearGradient>
		<path style="fill:url(#SVGID_00000168815695091599887370000012246795843238961070_);" d="M424.8,1864.2c1.3,0,12-24.1-0.3-35.4
			c-12.3-11.3-51.2-30.8-55.8-36.5c-4.5-5.7,7.8,35.5,25.8,46c18,10.5,18.1,25.4,18.1,25.4L424.8,1864.2z"/>
		
			<linearGradient id="SVGID_00000078025608794167138200000002850949417067345828_" gradientUnits="userSpaceOnUse" x1="1011.2177" y1="1911.7821" x2="995.107" y2="1837.9847" gradientTransform="matrix(1 -8.500000e-03 8.500000e-03 1 15.0795 15.9748)">
			<stop  offset="0" style="stop-color:#311944"/>
			<stop  offset="1" style="stop-color:#893976"/>
		</linearGradient>
		<path style="fill:url(#SVGID_00000078025608794167138200000002850949417067345828_);" d="M995.8,1854.3c0,0-5.8-14.8,4.8-25.8
			c10.7-10.9,36-13.4,39.6-33.5c3.6-20.1,14.1,18.7,2.2,29.4c-11.9,10.7-28.9,28.9-28.9,28.9L995.8,1854.3z"/>
	</g>
	<g>
		<g>
			
				<linearGradient id="SVGID_00000155148811913642379640000012037655777451351706_" gradientUnits="userSpaceOnUse" x1="2960.7732" y1="1920.2894" x2="4853.374" y2="1988.8619">
				<stop  offset="0" style="stop-color:#FFC444"/>
				<stop  offset="0.9964" style="stop-color:#F36F56"/>
			</linearGradient>
			<path style="fill:url(#SVGID_00000155148811913642379640000012037655777451351706_);" d="M2795.2,1919.8
				c1.1-1.2,29.4-8.1,29.4-8.1s8.4-31.3,24.8-15.3c16.4,16,16.8,37.4,3.8,38.2c-13,0.8-38.9-3.8-51.5,2.7
				C2789.1,1943.8,2795.2,1919.8,2795.2,1919.8z"/>
			
				<linearGradient id="SVGID_00000021107009919209850750000009054846847379330467_" gradientUnits="userSpaceOnUse" x1="2943.5168" y1="1518.7693" x2="4493.7588" y2="1574.9376">
				<stop  offset="0" style="stop-color:#FFC444"/>
				<stop  offset="0.9964" style="stop-color:#F36F56"/>
			</linearGradient>
			<path style="fill:url(#SVGID_00000021107009919209850750000009054846847379330467_);" d="M3175.2,1554.5l-26.4-23.3
				c-5.1-4.5-7.9-11.1-7.7-17.9c0.4-9.9-0.2-24.5-5.8-32.1c-9-12.3-42.8-2.3-44.3,0c-6.7,10-9,27.2,11,33.6
				c20,6.4,25.2,16.9,25.2,16.9l31.7,44.8L3175.2,1554.5z"/>
			
				<linearGradient id="SVGID_00000134945195862071031320000004637647795226994602_" gradientUnits="userSpaceOnUse" x1="2971.4602" y1="3599.2253" x2="3022.5422" y2="3644.6633" gradientTransform="matrix(1 0 0 1 64.2785 0)">
				<stop  offset="0" style="stop-color:#444B8C"/>
				<stop  offset="0.9964" style="stop-color:#26264F"/>
			</linearGradient>
			<path style="fill:url(#SVGID_00000134945195862071031320000004637647795226994602_);" d="M3046.7,3624.1
				c2.6-7.7,29.2-11.3,40.4,1.1c5.5,6.2,8.4,17.5,4,21.8c-1.6,1.6,3.4,5.4-1.8,4.8C3072.1,3649.5,3044.2,3631.8,3046.7,3624.1z"/>
			
				<linearGradient id="SVGID_00000007414576336771266550000002186029295444899234_" gradientUnits="userSpaceOnUse" x1="2095.3555" y1="3644.7537" x2="2095.3555" y2="3555.7644" gradientTransform="matrix(1 0 0 1 989.5887 0)">
				<stop  offset="0" style="stop-color:#FFC444"/>
				<stop  offset="0.9964" style="stop-color:#F36F56"/>
			</linearGradient>
			<path style="fill:url(#SVGID_00000007414576336771266550000002186029295444899234_);" d="M3073.2,3630.8h26.9
				c-10.1-16.4-1.3-62.9-1.3-62.9l-28.9,2.3c0,0,1.4,13.3,4.1,33C3074.9,3610,3074.3,3620.2,3073.2,3630.8z"/>
			
				<linearGradient id="SVGID_00000135653500972512946850000003591498001429532803_" gradientUnits="userSpaceOnUse" x1="-765.515" y1="3691.7019" x2="-1098.6086" y2="2346.8403" gradientTransform="matrix(-1 0 0 1 2340.0256 0)">
				<stop  offset="0" style="stop-color:#444B8C"/>
				<stop  offset="0.9964" style="stop-color:#26264F"/>
			</linearGradient>
			<path style="fill:url(#SVGID_00000135653500972512946850000003591498001429532803_);" d="M3003.5,2615.1
				c-12.4,41.1-30.2,107.4-41.6,190.6c-32.6,237.3,36.7,244.9,23.8,507.9c-4.1,83.9,72.7,277.5,79.5,281.8c3.3,0.3,6.8,0.5,10.6,0.4
				c6.7-0.2,16.1-1.2,27.1-4.5c12.2-2.1,56.1-121,45.9-191.7c-12.3-85.2,2.8-144.3-0.9-211.1c-8.9-159.9-0.6-328.8,10.6-329.5
				c7.1-0.4,18.7,66.4,31,136.6c14.1,80.6,16.4,117.4,46.2,152.5c20.2,23.7,44.3,36.5,61,43.5c203.5,85.1,175.1,85.7,219.5,122.3
				c7.3,6.1,27.3,23.2,41.3,17c9.4-4.2,12.1-17,13.3-22.8c9.3-46.2-19.3-142.4-94.8-178.5c-27-12.9-34.6-6.1-60.7-22.2
				c-32.4-20-55.6-52.7-65.6-83c-17.5-53.3,10-86.6,25.1-157.5c2.9-13.6-1.5-135-14.6-215.2
				C3343.1,2546.9,3003.5,2615.1,3003.5,2615.1z"/>
			
				<linearGradient id="SVGID_00000149382248479854820350000014380204552032877467_" gradientUnits="userSpaceOnUse" x1="2976.5962" y1="3593.4539" x2="3027.6772" y2="3638.8906" gradientTransform="matrix(1 0 0 1 64.2785 0)">
				<stop  offset="0" style="stop-color:#444B8C"/>
				<stop  offset="0.9964" style="stop-color:#26264F"/>
			</linearGradient>
			<path style="fill:url(#SVGID_00000149382248479854820350000014380204552032877467_);" d="M3071.3,3627.2c0,0,32.7-2.8,35.3,4
				c2.5,6.8,2.8,24-17.2,20.6C3069.3,3648.4,3068.7,3632.3,3071.3,3627.2z"/>
			
				<linearGradient id="SVGID_00000054947684894953065180000010750464477160389020_" gradientUnits="userSpaceOnUse" x1="2590.5125" y1="2188.0769" x2="3465.2466" y2="2188.0769">
				<stop  offset="0" style="stop-color:#AA80F9"/>
				<stop  offset="0.9964" style="stop-color:#6165D7"/>
			</linearGradient>
			<path style="fill:url(#SVGID_00000054947684894953065180000010750464477160389020_);" d="M2803.4,1911.2c2.8,9,5.7,17.9,8.5,26.9
				c-20.5,15.7-77.1,62.7-70.3,113.1c9.8,72.8,145.5,105.8,231.4,105.6c23.6,0,176.6-0.4,248.4-110.1c63.1-96.4,24-216.8-8.2-316.1
				c-24.9-76.8-59.4-134.5-84.2-170.8c14.2-12.1,28.5-24.2,42.7-36.3c51.6,31.3,148,100.2,210.2,223.9
				c57.4,114.1,60.7,224.9,60.1,267.1c-0.8,52.2-8.5,66.5-9.8,142c-1.2,69.7,4.4,113,13,194c30.2,284.7,22.8,335.7,0.7,386.4
				c-18.6,42.7-34.7,79.5-73.7,101.6c-78,44.2-143.3-29.6-313.3-16c-59.1,4.7-80.1,15.9-104.4-1.1c-14.3-10-40.5-37.4-32-214.8
				c7.3-151.6,29.3-191.8-2.3-235.4c-27.7-38.2-56.2-23.1-141.7-66.3c-55.9-28.2-176.7-89.2-187.4-189.7
				c-7.8-72.7,46-130,54.8-139.4C2707.8,1910.2,2790.1,1910.9,2803.4,1911.2z"/>
			<g>
				
					<linearGradient id="SVGID_00000083061548281393186790000006886611069050245523_" gradientUnits="userSpaceOnUse" x1="2923.301" y1="2076.7131" x2="4473.54" y2="2132.8813">
					<stop  offset="0" style="stop-color:#FFC444"/>
					<stop  offset="0.9964" style="stop-color:#F36F56"/>
				</linearGradient>
				<path style="fill:url(#SVGID_00000083061548281393186790000006886611069050245523_);" d="M3108.9,2059.1
					c-1-18.9,11.4-33.5,14.2-36.6c11.4-13.1,13.9-14.6,18.3-16.3l6.1-2.1c0,0,0.3-0.1,0.7-0.1c3.7-0.5,15.5,1.8,17.7,2.9
					c7.2,3.3,8.4,36-3.7,79c-0.1,1.7-0.1,3.5-0.2,5.2c-0.1,2.6-0.2,4.6-0.3,6.3c-0.3,7.6,6.5,13.6,14,12.4c38.6-5.9,33.3,3.4,32,6.4
					c-3.1,7-38.9,26.7-81.9,37.3c-53.4,12.5-87.1,11-82.5,2.8c1.7-3.1,28.2-16.9,59.6-27.3c7-2.3,12.7-7.8,15-14.9
					c3.1-9.6,9.1-22.8,10.5-26.8C3125.6,2085.1,3109.6,2073,3108.9,2059.1z"/>
				<path class="st42" d="M3134.6,1988.2c-3,13.5,0.1,29.4,2.9,32.4c0.4,0.4,2.3,2.8,3.7,6.4c0.2,0.5,0.3,1.1,0.4,1.8
					c1,9.2-14.7,16.2-13,20.6c1.3,3.2,11.3,1.6,11.9,4.2c0.5,2.5-8.2,5.4-7.6,8.4c0.4,2.2,5.5,1.4,7.8,5.2c1.1,1.9,0.4,3,0.9,8.1
					c0.3,2.9,0.9,6.1,1.5,7.9c2.9,9,15.5,14.8,18.7,12.2c0.9-0.7,0.5-1.6,1.9-4.4c0,0,1.3-2.6,3.9-5.4c3.8-3.9,11.1-5.7,18.8-9
					c14.3-6.1,19.4-12.9,21-15.3c0.6-0.8,0.9-1.5,1.2-1.9c5.4-9.2,8.7-23.9,6.3-33.8c-4.1-16.7-22.6-13.4-33.1-31.4
					c-12.1-20.8,2.7-42.2-5.4-46.7C3167.3,1942.4,3140.1,1963.2,3134.6,1988.2z"/>
				
					<linearGradient id="SVGID_00000077282897924363322320000000910872416186190503_" gradientUnits="userSpaceOnUse" x1="2924.365" y1="2047.3292" x2="4474.604" y2="2103.4973">
					<stop  offset="0" style="stop-color:#FFC444"/>
					<stop  offset="0.9964" style="stop-color:#F36F56"/>
				</linearGradient>
				<path style="fill:url(#SVGID_00000077282897924363322320000000910872416186190503_);" d="M3134.1,2047.2
					c4.3-3.8,9.2,1.8,7.9,7.7c-1.3,5.9-8.4,10.7-13.6,8.3C3123.1,2060.8,3128.3,2052.4,3134.1,2047.2z"/>
			</g>
			
				<linearGradient id="SVGID_00000021084350849434342720000005403144471572920961_" gradientUnits="userSpaceOnUse" x1="-860.6017" y1="5142.0327" x2="-860.6017" y2="4831.8652" gradientTransform="matrix(-0.7767 0.6299 0.6299 0.7767 -310.6688 -87.2572)">
				<stop  offset="0" style="stop-color:#FFC444"/>
				<stop  offset="0.9964" style="stop-color:#F36F56"/>
			</linearGradient>
			<path style="fill:url(#SVGID_00000021084350849434342720000005403144471572920961_);" d="M3550.1,3323.9l17,13.6l11.5-12.5
				l-15.7-15.2c-3.1-3-7.9-3.2-11.3-0.5l-1.6,1.3C3545.9,3314.1,3545.9,3320.5,3550.1,3323.9z"/>
			
				<linearGradient id="SVGID_00000107551149831951753410000006216403863903012760_" gradientUnits="userSpaceOnUse" x1="-835.9324" y1="5153.7598" x2="-894.4856" y2="4960.6924" gradientTransform="matrix(-0.7767 0.6299 0.6299 0.7767 -310.6688 -87.2572)">
				<stop  offset="0" style="stop-color:#444B8C"/>
				<stop  offset="0.9964" style="stop-color:#26264F"/>
			</linearGradient>
			<path style="fill:url(#SVGID_00000107551149831951753410000006216403863903012760_);" d="M3582,3347.9
				c0.4-12.6,6.6-16.4,3.7-22.5c-2.3-4.8-8.8-7.8-14-6.8c-7.4,1.5-10.5,10.7-11.2,12.8c-4.8,14.2,5.8,22.1-0.1,33.7
				c-1.2,2.3-3.4,5.6-4.2,11c-0.3,2.3-1.2,7.9,1.2,9.5c2.8,1.7,8.6-2.9,14.1-7.4c6.6-5.4,9.9-8,11.5-12.6
				C3585.3,3359.4,3581.7,3357.6,3582,3347.9z"/>
			
				<linearGradient id="SVGID_00000149346582461075557830000014573667580255318714_" gradientUnits="userSpaceOnUse" x1="2590.5132" y1="2445.0759" x2="3405.7617" y2="2445.0759">
				<stop  offset="0" style="stop-color:#AA80F9"/>
				<stop  offset="0.9964" style="stop-color:#6165D7"/>
			</linearGradient>
			<path style="opacity:0.3;fill:url(#SVGID_00000149346582461075557830000014573667580255318714_);" d="M3229.8,2664.4
				c-67.5-30.3-141.8,40.6-164.2,16.8c-25.5-27.1,77.1-111.7,67-227.9c-5.9-67.8-50.4-149.9-117.3-174.3
				c-69.7-25.5-124.4,26.1-181-13.4c-30.3-21.2-19-39.1-53.6-73.7c-59.2-59.3-122.8-37.4-157.5-77.1c-12.5-14.3-22-37.4-18.5-77.3
				c-9.8,22.1-16.6,48.7-13.5,77.8c10.7,100.4,131.5,161.4,187.4,189.7c85.4,43.2,113.9,28.1,141.7,66.3
				c31.6,43.5,9.6,83.8,2.3,235.4c-8.5,177.4,17.7,204.8,32,214.8c24.3,17,45.2,5.8,104.4,1.1c170-13.6,235.3,60.2,313.3,16
				c13.6-7.7,24.4-17.3,33.5-28.2c-43.5-0.3-70.8-12.7-88.8-28.6C3275.5,2745,3281.2,2687.4,3229.8,2664.4z"/>
		</g>
	</g>
</g>
</svg>
