<?xml version="1.0" encoding="utf-8"?>
<!-- Generator: Adobe Illustrator 26.0.1, SVG Export Plug-In . SVG Version: 6.00 Build 0)  -->
<svg version="1.1" xmlns="http://www.w3.org/2000/svg" xmlns:xlink="http://www.w3.org/1999/xlink" x="0px" y="0px"
	 viewBox="0 0 3710 3710" style="enable-background:new 0 0 3710 3710;" xml:space="preserve">
<style type="text/css">
	.st0{fill:#BFC6D1;}
	.st1{fill:#D8DEE8;}
	.st2{opacity:0.5;clip-path:url(#SVGID_00000024714129710681069980000002445201932883221169_);}
	.st3{fill:#FFFFFF;}
	.st4{opacity:0.5;clip-path:url(#SVGID_00000074442345364588635630000000751723796882971837_);}
	.st5{fill:#BFC8D6;}
	.st6{opacity:0.48;fill:#FFFFFF;}
	.st7{fill:url(#SVGID_00000163787939305137841360000002997585942963915183_);}
	.st8{fill:url(#SVGID_00000160907377001930989570000000325461951846380470_);}
	.st9{fill:url(#SVGID_00000044158376677137572660000005480087643451239055_);}
	.st10{fill:url(#SVGID_00000139975509496864239650000009095552344577165730_);}
	.st11{fill:#F4F7FA;}
	.st12{fill:url(#SVGID_00000093136702505874449340000012147130847914300588_);}
	.st13{fill:url(#SVGID_00000032620468196004961340000008965940584456212622_);}
	.st14{fill:url(#SVGID_00000084526656964127903300000015740118217953892747_);}
	.st15{fill:url(#SVGID_00000121964607163968000690000013107866991355068817_);}
	.st16{fill:url(#SVGID_00000004527855540121221280000016515220580178653883_);}
	.st17{fill:url(#SVGID_00000164473635880579270380000001169456262625404593_);}
	.st18{opacity:0.3;fill:url(#SVGID_00000034081103241672983170000001314194968477706644_);}
	.st19{fill:url(#SVGID_00000138542734421552456500000011827984947659681954_);}
	.st20{fill:url(#SVGID_00000116234669694674025410000012445760539742738872_);}
	.st21{fill:url(#SVGID_00000098207273972643398060000001724433432180349109_);}
	.st22{fill:url(#SVGID_00000121279284223557360960000007370743925693280934_);}
	.st23{fill:url(#SVGID_00000162316135101009398770000013751748039403679927_);}
	.st24{opacity:0.3;fill:url(#SVGID_00000057107728263439765280000001341587994459874200_);}
	.st25{fill:url(#SVGID_00000062871731296979294840000013539843076159072928_);}
	.st26{opacity:0.3;fill:url(#SVGID_00000144312356245959977330000003324384069813316534_);}
	.st27{fill:url(#SVGID_00000060741979548024171970000018118176300061984931_);}
	.st28{fill:url(#SVGID_00000015352405378702575440000009631244701313962883_);}
	.st29{fill:url(#SVGID_00000175306485662189546670000002308903429128787389_);}
	.st30{fill:url(#SVGID_00000178910072997351505730000003784111483690650009_);}
	.st31{fill:url(#SVGID_00000061459802555163207850000017765270337038766506_);}
	.st32{fill:url(#SVGID_00000174581776326146563980000012865177223431857557_);}
	.st33{fill:url(#SVGID_00000124879133373377037460000016323393411952956580_);}
	.st34{fill:url(#SVGID_00000068663913630816194020000013600532991331504557_);}
	.st35{fill:#FCB048;}
	.st36{fill:url(#SVGID_00000078765625152188299410000014542711329039614854_);}
	.st37{fill:url(#SVGID_00000018935831534705055320000002966012456564569773_);}
	.st38{fill:url(#SVGID_00000145035322581332705020000008292607169515535233_);}
	.st39{fill:url(#SVGID_00000049943641242395238140000017411891034606971810_);}
	.st40{fill:url(#SVGID_00000134952618869467127120000010379479093628561839_);}
	.st41{fill:url(#SVGID_00000083073884510596074910000006320940611526015883_);}
	.st42{fill:url(#SVGID_00000145747475843214027100000012442072497739235976_);}
	.st43{fill:url(#SVGID_00000162348986492250570650000003111871603443589307_);}
	.st44{fill:url(#SVGID_00000129907885012311815190000006298152605730180018_);}
	.st45{fill:url(#SVGID_00000061434021410068053270000003645427276051092366_);}
	.st46{fill:url(#SVGID_00000154394954061655568970000018250667513626768566_);}
	.st47{fill:url(#SVGID_00000107563382564042567390000012684799175018613384_);}
	.st48{fill:url(#SVGID_00000011716512171156275150000011806055577609777053_);}
	.st49{fill:url(#SVGID_00000152973716656258417110000009270875928986803634_);}
	.st50{fill:url(#SVGID_00000010289899076650447460000011856449596737426349_);}
	.st51{fill:url(#SVGID_00000011742857709094426600000002367794707198376856_);}
	.st52{fill:url(#SVGID_00000004541260712447688090000016443094177733571502_);}
	.st53{fill:url(#SVGID_00000050627562278654607050000001583465007355393947_);}
	.st54{fill:url(#SVGID_00000160903936430981434750000007940778210819921081_);}
	.st55{fill:url(#SVGID_00000053523633916171393360000007177859930482484920_);}
	.st56{fill:url(#SVGID_00000088837398248501494500000004393605297150687105_);}
	.st57{fill:url(#SVGID_00000025404783371714265960000007948738252410056867_);}
	.st58{fill:url(#SVGID_00000132788561293961561650000000874656378601238668_);}
	.st59{fill:url(#SVGID_00000094596623230363169960000012134950287324644010_);}
	.st60{fill:url(#SVGID_00000143600438767514073660000009531616409352820871_);}
	.st61{fill:url(#SVGID_00000008830209468235353810000006654926192091914674_);}
	.st62{fill:url(#SVGID_00000173128339636022239290000007820288529835592832_);}
	.st63{fill:url(#SVGID_00000142159548535615521010000018185182033846684591_);}
	.st64{fill:url(#SVGID_00000113331173326837532560000017968856904919764889_);}
	.st65{fill:url(#SVGID_00000101084330621506046970000017893431174461267901_);}
	.st66{fill:url(#SVGID_00000021820427246040608560000014040662081498308781_);}
	.st67{fill:url(#SVGID_00000098941582155975157530000004895450374082827923_);}
	.st68{fill:url(#SVGID_00000147212806628673918540000000694921812135019906_);}
	.st69{fill:url(#SVGID_00000106829785483702844740000016031008035671314587_);}
	.st70{opacity:0.3;fill:url(#SVGID_00000070833663775123870280000007549652747057424768_);}
	.st71{fill:url(#SVGID_00000147931389137426886730000003216413434102377916_);}
	.st72{fill:url(#SVGID_00000047043843545995668200000002012778290288159113_);}
	.st73{fill:url(#SVGID_00000148645028863326157190000014551421520922698170_);}
	.st74{fill:url(#SVGID_00000047055557652687695070000007182499036144488114_);}
	.st75{fill:url(#SVGID_00000114043845169069578740000018073295727029648059_);}
	.st76{fill:url(#SVGID_00000161614689496946181840000004679091971992728981_);}
	.st77{fill:url(#SVGID_00000098194099219992613890000011410474079004618410_);}
	.st78{fill:url(#SVGID_00000174565242578722354520000002355777112510638985_);}
	.st79{opacity:0.3;fill:url(#SVGID_00000083769867287689528950000017727072850614740123_);}
	.st80{fill:url(#SVGID_00000011719421830396027730000014606098494389481858_);}
	.st81{fill:url(#SVGID_00000018950885264745293160000012570184817657331105_);}
	.st82{fill:url(#SVGID_00000016077481834535718460000017727213891673604743_);}
	.st83{fill:url(#SVGID_00000030463192819048638580000002905708950756169606_);}
	.st84{fill:url(#SVGID_00000100348495186895803840000005194556572644333989_);}
	.st85{fill:url(#SVGID_00000183223179037662049080000008035043141096269496_);}
	.st86{fill:url(#SVGID_00000109022318203543145390000003319558370324729525_);}
	.st87{opacity:0.3;fill:url(#SVGID_00000044857182541256156410000000068372156518946694_);}
	.st88{opacity:0.3;fill:url(#SVGID_00000114068854421433811460000014282546669174986897_);}
	.st89{fill:url(#SVGID_00000039831074662528452080000017728977114795459495_);}
	.st90{fill:url(#SVGID_00000005264834155898790470000003740687343388579243_);}
</style>
<g id="Background">
</g>
<g id="Illustration">
	<g>
		<path class="st0" d="M3201.3,1194.8c56.7,4.8,106.9-41.2,112.1-102.6c5.2-61.4-36.6-115.1-93.4-119.9c-2.9-0.2-5.9-0.3-8.7-0.3
			c-2.7-31.7-7.7-62.8-14.8-93c2.7-1.1,5.4-2.2,8-3.6c51.7-26.6,74.3-93.2,50.4-148.8c-23.9-55.6-85.2-79.1-136.9-52.5
			c-2.7,1.4-5.3,3-7.8,4.6c-16.9-25.5-35.6-49.5-55.9-71.8c1.9-2.4,3.7-4.9,5.4-7.6c32.9-50.8,21.7-120.3-24.8-155.1
			c-46.6-34.9-110.9-21.9-143.8,28.9c-1.7,2.6-3.2,5.3-4.6,8c-26.3-12.7-53.7-23.2-82.1-31.4c0.5-3.1,1-6.2,1.2-9.4
			c5.2-61.4,16.4-130.8-40.4-134.7c-131.4-9-159.9,55.9-165,117.4c-0.3,3.2-0.3,6.3-0.4,9.5c-29.4,3.4-58.2,9.1-86.2,17.2
			c-1-2.9-2-5.8-3.2-8.6c-23.9-55.6-19.6-92.7-73.9-71.9c-118.4,45.4-137.3,112.5-113.4,168.1c1.2,2.9,2.7,5.7,4.1,8.4
			c-23.8,18.6-46.3,39.2-67.2,61.5c-2.2-2-4.5-4-6.9-5.8c-46.5-34.9-110.9-21.9-143.8,28.9c-32.9,50.8-21.7,120.3,24.8,155.1
			c2.4,1.8,4.8,3.4,7.3,4.9c-12.1,28.6-22.1,58.4-30.1,89.2c-2.9-0.5-5.7-1-8.7-1.2c-56.7-4.8-106.9,41.2-112.1,102.6
			c-5.2,61.4,36.6,115.1,93.4,119.9c2.9,0.2,5.8,0.3,8.7,0.3c2.7,31.7,7.7,62.8,14.8,93c-2.7,1.1-5.4,2.2-8,3.6
			c-51.7,26.6-74.3,93.2-50.4,148.8c23.9,55.6,85.2,79.1,136.9,52.5c2.7-1.4,5.3-2.9,7.8-4.5c16.9,25.5,35.6,49.5,55.9,71.8
			c-1.9,2.4-3.7,4.9-5.4,7.6c-32.9,50.8-21.7,120.3,24.8,155.1c46.6,34.9,147.3,18.9,180.2-31.9c1.7-2.6-33.2-2.3-31.8-5
			c26.3,12.7,53.7,23.2,82.1,31.4c-0.5,3.1-1,6.2-1.2,9.4c-5.2,61.4,36.6,115.1,93.4,119.9c56.7,4.8,106.9-41.2,112.1-102.6
			c0.3-3.2,0.3-6.3,0.4-9.5c29.4-3.3,58.2-9.1,86.2-17.2c1,2.9,2,5.8,3.2,8.6c23.9,55.6,85.2,79.1,136.9,52.5
			c51.7-26.6,74.3-93.2,50.4-148.8c-1.2-2.9-2.7-5.7-4.1-8.4c23.8-18.6,46.3-39.2,67.2-61.5c2.2,2,4.5,4,6.9,5.8
			c46.6,34.9,110.9,21.9,143.8-28.9c32.9-50.8,21.7-120.3-24.8-155.1c-2.4-1.8-4.8-3.4-7.3-4.9c12.1-28.6,22.2-58.4,30.1-89.2
			C3195.5,1194.1,3198.3,1194.5,3201.3,1194.8z M2617.9,1440.4c-206-17.4-357.8-212.2-339-435.3c18.8-223.1,201-389.8,407-372.5
			c206,17.4,357.8,212.2,339,435.3C3006.1,1290.9,2823.9,1457.7,2617.9,1440.4z"/>
		<path class="st0" d="M3204.5,875.4c51.7-26.6,74.3-93.2,50.4-148.8c-23.9-55.6-85.2-79.1-136.9-52.5c-2.7,1.4-5.3,3-7.8,4.6
			c-16.9-25.5-35.6-49.5-55.9-71.8c1.9-2.4,3.7-4.9,5.4-7.6c32.9-50.8,58.1-151.6,8.2-181.5c-94.7-56.7-143.9,4.5-176.8,55.3
			c-1.7,2.6-3.2,5.3-4.6,8c-26.3-12.7-53.7-23.2-82.1-31.4c0.5-3.1,1-6.2,1.2-9.4c2.8-33.4-8.4-64.5-28.2-86.7
			c-12.6,96.1-24.6,192.2-35.5,288.5c176.8,44.5,300.1,223.6,283,426c-14.4,171.5-125.5,309.5-269.6,356.4
			c0.3,18.7,0.8,37.5,0.6,56.3c-0.5,50.9-3.8,102-7.1,152.9c14-2.8,27.8-6.2,41.5-10.1c1,2.9,2,5.8,3.2,8.6
			c23.9,55.6,77.3,89.4,172.4,44.7c52.6-24.7,38.8-85.4,14.9-141c-1.2-2.9-2.7-5.7-4.1-8.4c23.8-18.6,46.3-39.2,67.2-61.5
			c2.2,2,4.5,4,7,5.8c46.6,34.9,151,15.3,183.8-35.5c32.9-50.8-18.3-113.6-64.9-148.5c-2.4-1.8-4.8-3.4-7.3-4.9
			c12.1-28.6,22.1-58.4,30.1-89.2c2.9,0.5,5.7,1,8.7,1.2c56.7,4.8,106.9-41.2,112.1-102.6c5.2-61.4-36.6-115.1-93.4-119.9
			c-2.9-0.2-5.8-0.3-8.7-0.3c-2.7-31.7-7.7-62.8-14.8-93C3199.2,877.9,3201.9,876.7,3204.5,875.4z"/>
		<path class="st1" d="M3254.2,1180c56.7,4.8,106.9-41.2,112.1-102.6c5.2-61.4-36.6-115.1-93.4-119.9c-2.9-0.2-5.8-0.3-8.7-0.3
			c-2.7-31.7-7.7-62.8-14.8-93c2.7-1.1,5.4-2.2,8-3.6c51.7-26.6,74.3-93.2,50.4-148.8c-23.9-55.6-85.2-79.1-136.9-52.5
			c-2.7,1.4-5.3,3-7.8,4.6c-16.9-25.5-35.6-49.5-55.9-71.8c1.9-2.4,3.7-4.9,5.4-7.6c32.9-50.8,21.7-120.3-24.8-155.1
			c-46.5-34.9-110.9-21.9-143.8,28.9c-1.7,2.6-3.2,5.3-4.6,8c-26.3-12.7-53.7-23.2-82.1-31.4c0.5-3.1,1-6.2,1.2-9.4
			c5.2-61.4-36.6-115.1-93.4-119.9c-56.7-4.8-106.9,41.2-112.1,102.6c-0.3,3.2-0.3,6.3-0.4,9.5c-29.4,3.3-58.2,9.1-86.2,17.2
			c-1-2.9-2-5.8-3.2-8.6c-23.9-55.6-85.2-79.1-136.9-52.5c-51.7,26.6-74.3,93.2-50.4,148.8c1.2,2.9,2.7,5.7,4.1,8.4
			c-23.8,18.6-46.3,39.2-67.2,61.5c-2.2-2-4.5-4-7-5.8c-46.6-34.9-110.9-21.9-143.8,28.9c-32.9,50.8-21.7,120.3,24.8,155.1
			c2.4,1.8,4.8,3.4,7.3,4.9c-12.1,28.6-22.1,58.4-30.1,89.2c-2.9-0.5-5.7-1-8.7-1.2c-56.7-4.8-106.9,41.2-112.1,102.6
			c-5.2,61.4,36.6,115.1,93.4,119.9c2.9,0.2,5.8,0.3,8.7,0.3c2.7,31.7,7.7,62.8,14.8,93c-2.7,1.1-5.4,2.2-8,3.6
			c-51.7,26.6-74.3,93.2-50.4,148.8c23.9,55.6,85.2,79.1,136.9,52.5c2.7-1.4,5.3-2.9,7.8-4.5c16.9,25.5,35.6,49.5,55.9,71.8
			c-1.9,2.4-3.7,4.9-5.4,7.6c-32.9,50.8-21.7,120.3,24.8,155.1c46.6,34.9,110.9,21.9,143.8-28.9c1.7-2.6,3.2-5.3,4.6-8
			c26.3,12.7,53.7,23.2,82.1,31.4c-0.5,3.1-1,6.2-1.2,9.4c-5.2,61.4,36.6,115.1,93.4,119.9c56.7,4.8,106.9-41.2,112.1-102.6
			c0.3-3.2,0.3-6.3,0.4-9.5c29.4-3.3,58.2-9.1,86.2-17.2c1,2.9,2,5.8,3.2,8.6c23.9,55.6,85.2,79.1,136.9,52.5
			c51.7-26.6,74.3-93.2,50.4-148.8c-1.2-2.9-2.7-5.7-4.1-8.4c23.8-18.6,46.3-39.2,67.2-61.5c2.2,2,4.5,4,6.9,5.8
			c46.6,34.9,110.9,21.9,143.8-28.9c32.9-50.8,21.7-120.3-24.8-155.1c-2.4-1.8-4.8-3.4-7.3-4.9c12.1-28.6,22.1-58.4,30.1-89.2
			C3248.4,1179.3,3251.3,1179.7,3254.2,1180z M2670.8,1425.6c-206-17.4-357.8-212.2-339-435.3c18.8-223.1,201-389.8,407-372.5
			c206,17.4,357.8,212.2,339,435.3C3059.1,1276.1,2876.8,1442.9,2670.8,1425.6z"/>
	</g>
	<g>
		<g>
			<g>
				<defs>
					<path id="SVGID_1_" d="M1418.9,2614c-53.3-142.2-109.6-358.2-63.2-601.5c60.8-319,244.8-404.6,466.5-886
						c140.2-304.4,235-518.3,138.9-705.1c-75.3-146.4-258.8-258.8-415.6-234.9C1415,206.3,1287.8,322.6,1220,416.9
						c-55.3,76.9-74.1,143.2-144.2,163.5c-71.6,20.7-112.3-31.1-174.9-20.5c-127,21.5-183.6,272.6-192.8,313.2
						c-101.7,451.5,135.6,907,241.5,1104.5C1037.2,2140.9,1182.9,2372.8,1418.9,2614z"/>
				</defs>
				
					<linearGradient id="SVGID_00000136403796883224113670000006305042449689352619_" gradientUnits="userSpaceOnUse" x1="683.2894" y1="1398.6007" x2="2000.0386" y2="1398.6007">
					<stop  offset="0" style="stop-color:#FF9085"/>
					<stop  offset="1" style="stop-color:#FB6FBB"/>
				</linearGradient>
				
					<use xlink:href="#SVGID_1_"  style="overflow:visible;fill:url(#SVGID_00000136403796883224113670000006305042449689352619_);"/>
				<clipPath id="SVGID_00000120523908485945332700000007043860614907816599_">
					<use xlink:href="#SVGID_1_"  style="overflow:visible;"/>
				</clipPath>
				<g style="opacity:0.5;clip-path:url(#SVGID_00000120523908485945332700000007043860614907816599_);">
					<path class="st3" d="M1495.6,2744.5c-140.6-151.3-250.9-303.3-327.7-451.9c-113.7-220-150.3-426.3-108.8-613.2
						c32.5-146.2,114.1-281.6,217.4-453.1c85.6-142.2,159.1-235.1,223.9-317.1c84-106.3,150.3-190.2,203.4-332.7
						c53.9-144.8,76.1-304.3,66-474l9-0.5c10.2,171-12.2,331.8-66.5,477.7c-53.6,143.8-120.3,228.2-204.8,335.1
						c-64.6,81.8-137.9,174.5-223.3,316.2c-106.9,177.5-184.2,305.7-216.3,450.4c-87.4,393.6,188,792,434.3,1057L1495.6,2744.5z"/>
					<path class="st3" d="M1355.7,1129.4c-6.1,0-9.5-0.1-9.7-0.2l-5.1-0.2l0.9-5c52.5-307.5-8-546.1-68.1-692
						c-65.1-158.2-143.6-244.8-144.3-245.7l6.7-6.1c0.8,0.9,80.2,88.4,145.9,248c60.2,146.3,121,384.9,69.6,692.2
						c24.2,0.3,131.7-1.3,261.1-47.3c135.2-48,322.7-155.8,448.6-396.3l8,4.2c-127.3,243.2-317.1,352.2-453.9,400.7
						C1491.3,1125.7,1387.1,1129.4,1355.7,1129.4z"/>
					<path class="st3" d="M1121,1518.2l-2.4-2.2C1007,1413.3,933,1189.9,898.8,852.2c-25.5-251.1-18.2-474.9-18.1-477.2l9,0.3
						c-0.1,2.2-7.3,225.6,18.1,476.1c33.3,328.3,107.5,554.9,214.6,655.8c23.1-12.7,180.1-97.8,353.5-154.7
						c187.8-61.7,503.4,40.9,506.6,41.9l-2.8,8.6c-3.1-1-316-102.6-501-41.9c-186,61.1-353.1,154.7-354.8,155.6L1121,1518.2z"/>
					<path class="st3" d="M1137.8,2232.5l-7.5-4.9c-1.4-0.9-139.2-91.3-297.9-252.8c-146.5-149-341.2-390.9-437.2-696.7L209.8,687.8
						l8.6-2.7l185.3,590.3c95.5,304.1,289.3,544.7,435,693.1c137,139.4,258.2,225.5,288.9,246.5c-9.8-216.7,129.3-340.9,248.7-407.2
						c130.6-72.5,266.4-93,267.8-93.2l1.3,8.9c-1.3,0.2-135.7,20.5-264.9,92.3c-172.6,95.9-254.5,233.1-243.4,407.7L1137.8,2232.5z"
						/>
				</g>
			</g>
		</g>
		<g>
			<g>
				<defs>
					<path id="SVGID_00000015354452066708989050000011139155138979304840_" d="M1388.2,2457.7c-239.8-0.8-545.1-35.9-836.5-171.2
						c-74.4-34.5-533.8-247.9-477.2-457.5c19.9-73.9,87.1-84.9,115.4-183.2c33.6-116.4-39.1-175.5-88.5-321.5
						c-29.5-87.1-115.7-342.1,38-481.3c91.8-83.2,265.1-121.2,396.4-89.2c192.6,47,257.1,235.6,360.7,556.5
						c91.9,284.5,66.8,353.9,136.6,557.6C1084.9,2019,1183.1,2227.4,1388.2,2457.7z"/>
				</defs>
				
					<linearGradient id="SVGID_00000147936407916228925890000014985831757375006396_" gradientUnits="userSpaceOnUse" x1="1024.5519" y1="909.5994" x2="605.0433" y2="2035.6504">
					<stop  offset="3.597120e-03" style="stop-color:#E38DDD"/>
					<stop  offset="1" style="stop-color:#9571F6"/>
				</linearGradient>
				
					<use xlink:href="#SVGID_00000015354452066708989050000011139155138979304840_"  style="overflow:visible;fill:url(#SVGID_00000147936407916228925890000014985831757375006396_);"/>
				<clipPath id="SVGID_00000044159327015142409950000003804645572293512623_">
					<use xlink:href="#SVGID_00000015354452066708989050000011139155138979304840_"  style="overflow:visible;"/>
				</clipPath>
				<g style="opacity:0.5;clip-path:url(#SVGID_00000044159327015142409950000003804645572293512623_);">
					<path class="st3" d="M2004.1,2593.4c-120.7,0-238.7-14.4-353.5-43.3c-322.8-81.3-601.4-277.7-828.2-584
						c-235.7-318.3-356.3-675.6-416-919.2c-41.6-169.8-31.4-357,30.2-556.6l8.6,2.7c-61.1,198-71.2,383.6-30,551.8
						c72.6,296.3,376.2,1279.7,1237.6,1496.6c240.7,60.6,496.3,57.2,759.5-10.1l2.2,8.7C2275.3,2575.6,2138.1,2593.4,2004.1,2593.4z
						"/>
					<path class="st3" d="M573.4,1528.4l-3.4-2.2C56.4,1186.7,65.5,802.3,80.5,692.5c0.3-2.2,0.5-3.6,0.5-4.2l9,0
						c0,0.8-0.2,2-0.6,5.3c-14.8,108.2-23.6,486.6,482.1,822.6c12.8-16.3,71.6-93.9,120.6-206.3c50.7-116.4,101.1-294.9,53-485
						l8.8-2.2c48.8,192.6-2.2,373.3-53.6,491c-55.6,127.4-123.7,210.5-124.4,211.4L573.4,1528.4z"/>
					<path class="st3" d="M639.8,1975.6c-213.6,0-361.4-56.7-453.8-110.9C59,1790.3,5.9,1704.3,5.4,1703.4l7.7-4.7
						c0.5,0.8,52.7,85.2,177.9,158.4c115.3,67.4,317.7,138.8,628.1,96.8c12.7-27.4,138-309.5,113.3-689l-26.3-403.6l9-0.6
						l26.3,403.6c26.1,400.1-113.8,692.8-115.2,695.7l-1.1,2.2l-2.4,0.3C757.1,1971.6,696.1,1975.6,639.8,1975.6z"/>
				</g>
			</g>
		</g>
	</g>
	<g>
		<g>
			<g>
				<path class="st5" d="M3686.7,3156.3L293.4,3127v86.8c0,23.6,14.8,43.6,34.8,47.2l959.5,170.9c11.4,2,22.9,2.6,34.4,1.6
					l2327.7-194.9c20.8-1.7,36.9-21.8,36.9-46V3156.3z"/>
				<g>
					<path class="st5" d="M2437.9,3017.2L281.2,3176c-38.6,2.8-70-27.3-70-67.4V1502.5c0-40.1,31.4-72.6,70-72.6h2156.7
						c31.8,0,57.5,29.4,57.5,65.6v1451.8C2495.4,2983.6,2469.7,3014.9,2437.9,3017.2z"/>
					<path class="st3" d="M2472.3,3017.2L315.6,3176c-38.6,2.8-70-27.3-70-67.4V1502.5c0-40.1,31.4-72.6,70-72.6h2156.7
						c31.8,0,57.5,29.4,57.5,65.6v1451.8C2529.8,2983.6,2504.1,3014.9,2472.3,3017.2z"/>
					<path class="st1" d="M2405.1,2914.9L396.4,3052.8c-31.4,2.2-56.9-22.6-56.9-55.3V1591.3c0-32.7,25.5-59.4,56.9-59.5l2008.8-8.7
						c26.2-0.1,47.4,24,47.4,53.8v1280.7C2452.6,2887.4,2431.4,2913.1,2405.1,2914.9z"/>
					<path class="st3" d="M1470.1,1473.8c0,14.9-11.1,27.1-24.8,27.1c-13.7,0-24.9-12-24.9-27c0-15,11.1-27.1,24.9-27.1
						C1459,1446.8,1470.1,1458.9,1470.1,1473.8z"/>
					<path class="st6" d="M315.6,3176l2145.8-158l10.9-0.8c14.6-1.1,27.9-8.3,38-19.2c-154.4-8.5-250.3-63.2-312.2-119.9
						c-124.2-113.7-102.7-225.8-236.7-300.6c-167.1-93.3-298.5,24.9-425.3-91.7c-76.9-70.7-39.1-123.4-133.7-229
						c-104.8-117-173-77.7-278.3-182.9c-133.1-133.1-66.6-236.7-181.2-332.3c-139.1-116-289.2-8.6-421.6-119.8
						c-57.1-48-88.5-117.7-104.8-191.9H315.6c-38.6,0-70,32.5-70,72.6v1606.1C245.6,3148.6,277,3178.8,315.6,3176z"/>
				</g>
				
					<linearGradient id="SVGID_00000002364373438223253520000009837531389549892528_" gradientUnits="userSpaceOnUse" x1="293.357" y1="3181.3174" x2="3686.6912" y2="3181.3174">
					<stop  offset="0.494" style="stop-color:#EBEFF2"/>
					<stop  offset="1" style="stop-color:#FFFFFF"/>
				</linearGradient>
				<path style="fill:url(#SVGID_00000002364373438223253520000009837531389549892528_);" d="M2573.9,3008.4L293.4,3175.5
					l994.4,177.1c11.4,2,22.9,2.6,34.4,1.6l2364.5-197.9l-1076.5-146.8C2598.2,3007.9,2586,3007.5,2573.9,3008.4z"/>
				<polygon class="st1" points="626.1,3177 2524.8,3035.8 3112.4,3115.2 1230.1,3266.2 				"/>
			</g>
		</g>
		<g>
			<path class="st3" d="M1770.7,1965.8c-65.1-208.9-274.3-329.6-467.4-269.4c-193.1,60.1-296.8,278.2-231.7,487.2
				c65.1,208.9,274.3,329.6,467.4,269.4C1732,2392.8,1835.8,2174.7,1770.7,1965.8z M1468.1,2220.9l1.3,57l-54.8,1.3l-1.2-53.1
				c-37.5-0.8-74.1-10-95.6-21.8l15.3-65.8c23.8,12.3,57,23.3,93.4,22.4c31.9-0.7,53.4-13.5,52.9-35.9
				c-0.5-21.2-18.7-34.2-60.4-47.3c-60.3-18.7-101.7-45.7-103-100c-1.1-49.2,32.6-88.6,92.2-101.7l-1.2-53.1l54.8-1.3l1.1,49.2
				c37.5,0.8,62.8,8,81.5,16.6l-14.7,63.5c-14.7-5.8-40.7-18.1-80.9-17.1c-36.3,0.8-47.7,16.8-47.3,32.4
				c0.4,18.4,20.3,29.7,68.2,46.5c67.1,21.9,94.6,52.1,95.8,102.4C1566.3,2164.9,1532.1,2208.2,1468.1,2220.9z"/>
			<path class="st3" d="M1802.5,2732.6c0,26.4-20.9,49-47.6,50.5l-660.2,36.3c-31.5,1.7-57.7-20.3-57.7-49.3v-109.3
				c0-29,26.5-53.2,57.9-54.2l659.5-20.1c26.7-0.8,48,20,48,46.4V2732.6z"/>
		</g>
	</g>
	<g>
		
			<linearGradient id="SVGID_00000117676712195469911330000001904094032909649566_" gradientUnits="userSpaceOnUse" x1="682.9885" y1="1770.7999" x2="418.8268" y2="1778.3474">
			<stop  offset="3.597120e-03" style="stop-color:#E38DDD"/>
			<stop  offset="1" style="stop-color:#9571F6"/>
		</linearGradient>
		<path style="fill:url(#SVGID_00000117676712195469911330000001904094032909649566_);" d="M2970.6,1148.2l-9,1264.1
			c-0.4,56.6-40.9,104-92.4,105.9l-2278.1,69.2l-28.6,14.7l-14.3,0.8c-65.1,2.4-117.9-47.6-117.9-111.7V1058.9
			c0-61.1,47.5-109.3,108.1-112.2c3.5-0.2,7-0.2,10.5-0.1l2330.1,94.5C2930.7,1043.3,2971,1091.2,2970.6,1148.2z"/>
		<g>
			
				<linearGradient id="SVGID_00000006702741939925172940000014482281627858442659_" gradientUnits="userSpaceOnUse" x1="2824.3018" y1="417.9947" x2="646.6246" y2="3009.8298">
				<stop  offset="3.597120e-03" style="stop-color:#E38DDD"/>
				<stop  offset="1" style="stop-color:#9571F6"/>
			</linearGradient>
			<path style="fill:url(#SVGID_00000006702741939925172940000014482281627858442659_);" d="M2990.7,1148.9l-9.1,1263
				c-0.4,56.5-42.3,103.9-93.7,105.8L571.3,2602c-65,2.4-118.6-47.6-118.6-111.6l0.1-1430.6c0-61,47.7-109.3,108.1-112.1
				c3.5-0.2,7.1-0.2,10.7-0.1L2898,1042C2949.7,1044.1,2991.1,1091.9,2990.7,1148.9z"/>
			<g>
				
					<linearGradient id="SVGID_00000104671925221895176560000004219278102081527969_" gradientUnits="userSpaceOnUse" x1="2189.595" y1="578.1933" x2="842.7714" y2="2181.1604">
					<stop  offset="0" style="stop-color:#444B8C"/>
					<stop  offset="0.9964" style="stop-color:#26264F"/>
				</linearGradient>
				<path style="fill:url(#SVGID_00000104671925221895176560000004219278102081527969_);" d="M2990.7,1148.9L2990,1252l-2537.2-75.3
					l0-116.8c0-61,47.7-109.3,108.1-112.1c3.5-0.2,7.1-0.2,10.7-0.1L2898,1042C2949.7,1044.1,2991.1,1091.9,2990.7,1148.9z"/>
				<g>
					<path class="st3" d="M643.9,1066.4c0,20-16.4,35.7-36.7,35c-20.3-0.7-36.8-17.5-36.8-37.6c0-20.1,16.5-35.8,36.8-35
						C627.5,1029.6,643.9,1046.4,643.9,1066.4z"/>
					<path class="st3" d="M777.5,1071.1c0,19.9-16.2,35.5-36.3,34.8c-20.1-0.7-36.3-17.4-36.3-37.4c0-20,16.3-35.5,36.4-34.8
						C761.4,1034.5,777.6,1051.2,777.5,1071.1z"/>
					<path class="st3" d="M909.6,1075.8c0,19.8-16.1,35.3-35.8,34.6c-19.8-0.7-35.9-17.3-35.9-37.1c0-19.8,16.1-35.3,35.9-34.6
						C893.6,1039.4,909.6,1056,909.6,1075.8z"/>
				</g>
			</g>
			<g>
				<g>
					<polygon class="st11" points="623.6,1707.9 1194.3,1398.6 1734.1,1713.7 					"/>
					<g>
						<g>
							<g>
								<path class="st11" d="M796.6,1749.5c0,8.2-6.7,14.8-14.9,14.7l-97.2-0.2c-8.3,0-15-6.7-15-14.9l0,0c0-8.2,6.7-14.8,15-14.8
									l97.2,0.4C790,1734.7,796.6,1741.3,796.6,1749.5L796.6,1749.5z"/>
								<path class="st11" d="M796.1,2277.3c0,8.1-6.7,14.9-14.9,15.1l-97,2.2c-8.3,0.2-15-6.3-15-14.5l0,0c0-8.2,6.7-15,15-15.1
									l97-2C789.4,2262.6,796.1,2269.1,796.1,2277.3L796.1,2277.3z"/>
							</g>
							<g>
								<polygon class="st11" points="707.5,2249.6 677,2249.9 677.4,1778.7 707.9,1778.9 								"/>
								<polygon class="st11" points="749.5,2248.9 726.6,2249.2 727,1778.9 749.9,1779.1 								"/>
								<polygon class="st11" points="783.9,2248.1 761,2248.5 761.4,1779 784.4,1779.1 								"/>
							</g>
						</g>
						<g>
							<g>
								<path class="st11" d="M1100.6,1750.5c0,8-6.5,14.6-14.5,14.5l-94.4-0.2c-8.1,0-14.6-6.6-14.6-14.7l0,0
									c0-8.1,6.6-14.6,14.6-14.6l94.4,0.4C1094.1,1735.9,1100.6,1742.4,1100.6,1750.5L1100.6,1750.5z"/>
								<path class="st11" d="M1099.6,2270.7c0,8-6.5,14.7-14.5,14.9l-94.3,2.1c-8,0.2-14.6-6.2-14.6-14.3l0,0
									c0-8.1,6.6-14.8,14.6-14.9l94.3-2C1093.2,2256.3,1099.6,2262.7,1099.6,2270.7L1099.6,2270.7z"/>
							</g>
							<g>
								<polygon class="st11" points="1052.3,2242.6 1025.3,2243.2 1026.1,1779.6 1053.1,1779.6 								"/>
								<polygon class="st11" points="1090.7,2241.8 1067.6,2242.2 1068.5,1779.5 1091.6,1779.6 								"/>
								<polygon class="st11" points="1009.4,2241.8 986.4,2242.2 987.2,1779.5 1010.3,1779.6 								"/>
							</g>
						</g>
						<g>
							<g>
								<path class="st11" d="M1399.5,1751.5c0,7.9-6.3,14.3-14.1,14.3l-91.7-0.2c-7.8,0-14.2-6.5-14.2-14.5l0,0
									c0-8,6.4-14.4,14.2-14.4l91.7,0.4C1393.3,1737.1,1399.5,1743.5,1399.5,1751.5L1399.5,1751.5z"/>
								<path class="st11" d="M1398.1,2264.3c0,7.9-6.3,14.5-14.1,14.6l-91.6,2c-7.8,0.2-14.1-6.1-14.1-14.1l0,0
									c0-8,6.4-14.5,14.2-14.7l91.6-1.9C1391.9,2250.1,1398.1,2256.4,1398.1,2264.3L1398.1,2264.3z"/>
							</g>
							<g>
								<polygon class="st11" points="1352.6,2236.6 1329.4,2237.1 1330.6,1780.2 1353.8,1780.2 								"/>
								<polygon class="st11" points="1317.8,2236.6 1294.6,2237.1 1295.7,1780.2 1319,1780.2 								"/>
								<polygon class="st11" points="1387.5,2235.9 1368.1,2236.2 1369.3,1780.2 1388.7,1780.3 								"/>
							</g>
						</g>
						<g>
							<g>
								<path class="st11" d="M1686.6,1752.4c0,7.8-6.2,14.1-13.7,14.1l-89.2-0.2c-7.6,0-13.8-6.4-13.7-14.3l0,0
									c0-7.9,6.2-14.2,13.8-14.2l89.2,0.4C1680.5,1738.2,1686.6,1744.6,1686.6,1752.4L1686.6,1752.4z"/>
								<path class="st11" d="M1684.8,2258.1c0,7.8-6.2,14.3-13.7,14.4l-89.1,2c-7.6,0.2-13.8-6.1-13.7-13.9l0,0
									c0-7.8,6.2-14.3,13.8-14.5l89.1-1.9C1678.8,2244.1,1684.8,2250.3,1684.8,2258.1L1684.8,2258.1z"/>
							</g>
							<g>
								<polygon class="st11" points="1605.1,2231.5 1585.7,2231.9 1587.1,1780.6 1606.6,1780.6 								"/>
								<polygon class="st11" points="1637.3,2230.7 1617.8,2231.2 1619.3,1780.6 1638.8,1780.7 								"/>
								<polygon class="st11" points="1671.4,2230 1648,2230.5 1649.5,1780.6 1673,1780.6 								"/>
							</g>
						</g>
					</g>
					<polygon class="st11" points="1702.7,2377.6 650.3,2406.6 650.3,2317.6 1703,2292.9 					"/>
					<polygon class="st11" points="1745.7,2376.4 600.8,2407.8 600.8,2359.5 1745.8,2330.6 					"/>
				</g>
				<g>
					<polygon class="st11" points="2874.6,1629.4 1940.7,1620.3 1941.1,1525.8 2875.3,1539.3 					"/>
					<polygon class="st11" points="2468.9,1952.6 1939.3,1956 1939.6,1879.1 2469.4,1877.7 					"/>
					<polygon class="st11" points="2863.4,2096.3 1938.6,2109.6 1939,2036.3 2863.9,2026.4 					"/>
					<polygon class="st11" points="2862.3,2259.5 1937.9,2280.6 1938.2,2203.8 2862.8,2186.2 					"/>
				</g>
			</g>
			<path class="st6" d="M2601.1,2528.1L571.3,2602c-65,2.4-118.6-47.6-118.6-111.6l0.1-1430.6c0-61,47.7-109.3,108.1-112.1
				c7.2,13,15.1,25.6,23.7,37.5c12.9,17.9,27.5,35,43.9,50.4c4.2,3.9,8.4,7.9,12.9,11.6c23.8,20,48,34.7,72.5,45.4
				c8.5,3.7,17.1,7,25.7,9.8c3.1,1,6.1,2,9.2,2.9c114.6,34.3,234.3,1.9,348.4,61.9c15.4,8.1,30.7,17.9,45.8,29.7
				c3.5,2.7,7,5.6,10.4,8.5c87.4,74.2,85.3,149.7,115.1,236.3c16.3,47.3,42,97.8,96.6,152.7c76.3,76.6,135.4,87.4,198.2,118.1
				c14.3,7,28.8,15,43.7,25.1c11.9,8,24.1,17.4,36.7,28.5c5,4.4,10.1,9.1,15.2,14.2c5.6,5.5,11.3,11.4,17.2,17.7
				c2,2.2,4.1,4.5,6.2,6.8c105.3,119,63,178.6,148.2,257.3c138.9,128.2,281.9-5.2,459.7,94.9c21.2,12,38.7,24.9,53.5,38.6
				c24.4,22.6,41.6,47.5,56.5,73.9c35.9,63.7,58.3,136.6,135.2,208.2C2554.1,2495.5,2575.8,2512.6,2601.1,2528.1z"/>
		</g>
	</g>
	<g>
		
			<linearGradient id="SVGID_00000073695066320641320210000003606455744279716519_" gradientUnits="userSpaceOnUse" x1="-1625.151" y1="2135.4229" x2="-1539.2347" y2="2042.7238" gradientTransform="matrix(-1 0 0 1 1514.9646 0)">
			<stop  offset="0" style="stop-color:#AA80F9"/>
			<stop  offset="0.9964" style="stop-color:#6165D7"/>
		</linearGradient>
		<path style="fill:url(#SVGID_00000073695066320641320210000003606455744279716519_);" d="M3148.9,1893.2l-32.1,6.4
			c0,0-168.3,214.8-144.3,296.6c24,81.8,144.3,19.2,144.3,19.2L3148.9,1893.2z"/>
		
			<linearGradient id="SVGID_00000022549163603861556430000001447422631163526821_" gradientUnits="userSpaceOnUse" x1="4058.1309" y1="3358.302" x2="4157.061" y2="3358.302" gradientTransform="matrix(0.9996 2.890000e-02 -2.890000e-02 0.9996 -690.7108 -31.2392)">
			<stop  offset="0" style="stop-color:#444B8C"/>
			<stop  offset="0.9964" style="stop-color:#26264F"/>
		</linearGradient>
		<path style="fill:url(#SVGID_00000022549163603861556430000001447422631163526821_);" d="M3360.2,3422.8
			c5.4,4.4,6.4,15.4,7.1,22.6c0.3,3.2,0.4,4.8,0.1,5.9c-2.6,8.3-18.6,9.1-43.8,11.7c-39.7,4.1-51.5,7.2-54.6,1.3
			c-2.9-5.5,4.1-14.6,4.9-15.6c4.3-5.4,9.5-7.3,19.6-10.7c18.7-6.2,31.4-9.5,35.2-10.6C3352.6,3421,3356.6,3419.9,3360.2,3422.8z"/>
		
			<linearGradient id="SVGID_00000147201955092103637130000017981667780142152849_" gradientUnits="userSpaceOnUse" x1="4494.3862" y1="3079.6165" x2="4537.7886" y2="2989.7837" gradientTransform="matrix(0.9925 0.1225 -0.1225 0.9925 -757.9742 -162.6817)">
			<stop  offset="0" style="stop-color:#FFC444"/>
			<stop  offset="0.9964" style="stop-color:#F36F56"/>
		</linearGradient>
		<path style="fill:url(#SVGID_00000147201955092103637130000017981667780142152849_);" d="M3336.6,3386.5l-4,45.2
			c1.1,2.2,14.6,8.7,25.3,3.1l10.2-44.5L3336.6,3386.5z"/>
		
			<linearGradient id="SVGID_00000111156598700837353280000014669027118869598633_" gradientUnits="userSpaceOnUse" x1="4465.875" y1="2603.771" x2="4570.9819" y2="2603.771" gradientTransform="matrix(0.9642 0.2651 -0.2651 0.9642 -677.8856 -308.9189)">
			<stop  offset="0" style="stop-color:#444B8C"/>
			<stop  offset="0.9964" style="stop-color:#26264F"/>
		</linearGradient>
		<path style="fill:url(#SVGID_00000111156598700837353280000014669027118869598633_);" d="M3035.5,3386.7c6.5,7.2,8,20.3,2.3,26.8
			c-5.5,6.4-13.9,1.6-37.5,2.3c-25.3,0.8-31.9,6.7-49.1,2c-6.9-1.9-19.2-6.6-19-11.5c0.2-3.5,6.4-5.3,27.3-12.3
			c29.6-9.9,29.5-10.5,35.8-11.5C3011.1,3379.9,3027,3377.3,3035.5,3386.7z"/>
		
			<linearGradient id="SVGID_00000133490139925332888910000012418576317739511698_" gradientUnits="userSpaceOnUse" x1="4335.0215" y1="2826.9895" x2="4379.3452" y2="2735.2493" gradientTransform="matrix(0.9802 0.1979 -0.1979 0.9802 -689.0958 -227.1835)">
			<stop  offset="0" style="stop-color:#FFC444"/>
			<stop  offset="0.9964" style="stop-color:#F36F56"/>
		</linearGradient>
		<path style="fill:url(#SVGID_00000133490139925332888910000012418576317739511698_);" d="M3019.3,3345.4l-12.7,42.2
			c1,2.3,13.9,9.8,24.9,5l18.9-41L3019.3,3345.4z"/>
		
			<linearGradient id="SVGID_00000074408886090723556940000004697724426245631131_" gradientUnits="userSpaceOnUse" x1="-1457.4105" y1="3214.4609" x2="-1737.7505" y2="2582.5081" gradientTransform="matrix(-1 0 0 1 1514.9646 0)">
			<stop  offset="0" style="stop-color:#AB316D"/>
			<stop  offset="1" style="stop-color:#792D3D"/>
		</linearGradient>
		<path style="fill:url(#SVGID_00000074408886090723556940000004697724426245631131_);" d="M3132.1,2420.3
			c-1.8,142-11.5,301.6-34.7,475c-23,171.4-55.2,326.2-90.3,462.4c16.2,4.4,32.4,8.7,48.6,13.1c41.1-38.3,93-98.7,118-183.9
			c15.5-52.9,10.4-80.1,20.2-145.2c15.7-103.6,47.4-157.9,80.3-241.5c29.5-75.1,64.4-185.3,83.1-332.6
			C3282.2,2451.8,3207.2,2436.1,3132.1,2420.3z"/>
		
			<linearGradient id="SVGID_00000070822056997445925250000014145608952720598666_" gradientUnits="userSpaceOnUse" x1="-1457.4105" y1="3214.4612" x2="-1737.7504" y2="2582.5085" gradientTransform="matrix(-1 0 0 1 1514.9646 0)">
			<stop  offset="0" style="stop-color:#AB316D"/>
			<stop  offset="1" style="stop-color:#792D3D"/>
		</linearGradient>
		<path style="opacity:0.3;fill:url(#SVGID_00000070822056997445925250000014145608952720598666_);" d="M3120.1,3102
			c16.3-44.9,36.1-58.7,44.9-105.8c7.7-41-2.9-54.4-3.2-96.2c-0.7-83.3,40.7-110.9,54.5-179.6c7.5-37.2-41.4-131.2-86.2-212.3
			c1-29.9,1.7-59.2,2.1-87.7c75,15.7,150.1,31.5,225.1,47.2c-18.7,147.3-53.6,257.5-83.1,332.6c-32.8,83.6-64.6,137.9-80.3,241.5
			c-9.8,65.1-4.7,92.3-20.2,145.2c-25,85.3-76.9,145.6-118,183.9c-1.5-0.4-3.1-0.8-4.6-1.2c41.4-54,54.3-99.9,56.1-136.1
			C3109.1,3196,3099.7,3158.1,3120.1,3102z"/>
		
			<linearGradient id="SVGID_00000099626059828455519200000003013867273215997348_" gradientUnits="userSpaceOnUse" x1="-2062.9717" y1="2935.8066" x2="-2343.3066" y2="2303.865" gradientTransform="matrix(-0.9925 -0.1225 -0.1225 0.9925 1431.9595 108.1241)">
			<stop  offset="0" style="stop-color:#AB316D"/>
			<stop  offset="1" style="stop-color:#792D3D"/>
		</linearGradient>
		<path style="fill:url(#SVGID_00000099626059828455519200000003013867273215997348_);" d="M3288.1,2437
			c9.9,180.5,18.1,364.4,24.3,551.6c4.6,140.4,8,279.1,10.3,415.9c16.5,2,33.1,4.1,49.6,6.1c16-29.8,37.2-75.3,51.8-133.6
			c17.7-70.9,13.6-112.9,21.3-186.4c8.7-82.4,21.3-100.3,43.7-204.2c45.4-210.9,68.1-316.3,17.5-381.9
			C3490.2,2483.3,3438.6,2429.9,3288.1,2437z"/>
		
			<linearGradient id="SVGID_00000165196537358513228410000011225145522901740179_" gradientUnits="userSpaceOnUse" x1="-1997.9696" y1="2504.6523" x2="-1673.0621" y2="2154.095" gradientTransform="matrix(-1 0 0 1 1514.9646 0)">
			<stop  offset="0" style="stop-color:#AA80F9"/>
			<stop  offset="0.9964" style="stop-color:#6165D7"/>
		</linearGradient>
		<path style="fill:url(#SVGID_00000165196537358513228410000011225145522901740179_);" d="M3517.3,1898.7
			c-42.8-12-105.5-26.1-182.4-30.5c-113.3-6.4-169.9-9.2-203.2,16.8c-103.1,80.8-5.4,369.5-42.1,521.1
			c-30.9,127.6-32.1,129.9-32.1,129.9c-7.3,14.3-19.2,34.1-14.4,57.7c3.7,18.6,17.8,39.9,36.9,46.5c39.7,13.7,62.4-49.8,128.3-68.9
			c68.8-20,145.8,19.7,243.1,70c61.9,32,83.1,52.4,104.8,42.2c41.8-19.5,30.3-126.3,25.7-169.9
			C3563.2,2340.3,3542.4,2137.4,3517.3,1898.7z"/>
		
			<linearGradient id="SVGID_00000016040767794595149640000017025920159730431925_" gradientUnits="userSpaceOnUse" x1="-1721.7632" y1="2192.1577" x2="-1595.808" y2="2192.1577" gradientTransform="matrix(-1 0 0 1 1514.9646 0)">
			<stop  offset="0" style="stop-color:#FFC444"/>
			<stop  offset="0.9964" style="stop-color:#F36F56"/>
		</linearGradient>
		<path style="fill:url(#SVGID_00000016040767794595149640000017025920159730431925_);" d="M3233.1,2193c3-0.7,8.3-20.6-4.8-26.5
			c-59.3-26.5-105.2,25.9-111.4,42c-6.1,16.1-6.1,16.1-6.1,16.1s29.5,2.3,47.7-3.8C3176.8,2214.7,3208.7,2198.4,3233.1,2193z"/>
		<g>
			<g>
				
					<linearGradient id="SVGID_00000156580775372844464480000015807449970149860013_" gradientUnits="userSpaceOnUse" x1="-452.6048" y1="3621.3711" x2="-487.2574" y2="3572.1646" gradientTransform="matrix(-0.2291 -0.9734 0.9734 -0.2291 -505.0452 2554.8499)">
					<stop  offset="0" style="stop-color:#444B8C"/>
					<stop  offset="0.9964" style="stop-color:#26264F"/>
				</linearGradient>
				<path style="fill:url(#SVGID_00000156580775372844464480000015807449970149860013_);" d="M3071,2268l104.4,5.3
					c4,0.2,8.8-4.7,7.8-8.1l-48.7-157.8c-0.8-2.6-3.4-4.4-6.4-4.2l-100.1,2.2c-3.3,0.2-5,6.6-4.2,9.8l41.5,148.3
					C3065.9,2265.9,3068.4,2267.9,3071,2268z"/>
				
					<linearGradient id="SVGID_00000003807602540620748370000002887673058192470184_" gradientUnits="userSpaceOnUse" x1="-519.6262" y1="3711.2712" x2="-437.1114" y2="3543.6631" gradientTransform="matrix(-0.2291 -0.9734 0.9734 -0.2291 -505.0452 2554.8499)">
					<stop  offset="0" style="stop-color:#311944"/>
					<stop  offset="1" style="stop-color:#893976"/>
				</linearGradient>
				<path style="fill:url(#SVGID_00000003807602540620748370000002887673058192470184_);" d="M3072.9,2264.6l104.9,4.9
					c4,0.2,6.8-2.7,5.8-6.1l-46.9-160.5c-0.8-2.6-3.5-4.4-6.4-4.2l-100.2,5.9c-3.3,0.2-5.5,3.3-4.6,6.5l41.6,148.9
					C3067.8,2262.6,3070.3,2264.5,3072.9,2264.6z"/>
			</g>
			
				<linearGradient id="SVGID_00000153676211889412227280000017682417767695600565_" gradientUnits="userSpaceOnUse" x1="-566.3417" y1="3600.7722" x2="-386.381" y2="3600.7722" gradientTransform="matrix(-0.2291 -0.9734 0.9734 -0.2291 -505.0452 2554.8499)">
				<stop  offset="0" style="stop-color:#311944"/>
				<stop  offset="1" style="stop-color:#893976"/>
			</linearGradient>
			<path style="opacity:0.3;fill:url(#SVGID_00000153676211889412227280000017682417767695600565_);" d="M3125.9,2169
				c-3.1,14.6-16.2,11.5-26.9,29.1c-13.6,22.4-0.6,42.2-13,50.4c-3.8,2.5-10.2,4-21.8,1l3,10.6c0.7,2.5,3.2,4.4,5.8,4.5l104.9,4.9
				c4,0.2,6.8-2.7,5.8-6.1l-46.9-160.5c-0.8-2.6-3.5-4.4-6.4-4.2l-15.1,0.9c-1.8,5.5-3,11.9-2.9,18.9
				C3112.9,2142.8,3129.5,2151.9,3125.9,2169z"/>
		</g>
		
			<linearGradient id="SVGID_00000149349016510829416630000008153682187106471094_" gradientUnits="userSpaceOnUse" x1="-1577.8879" y1="2125.4714" x2="-1483.3674" y2="2245.2864" gradientTransform="matrix(-1 0 0 1 1514.9646 0)">
			<stop  offset="0" style="stop-color:#FFC444"/>
			<stop  offset="0.9964" style="stop-color:#F36F56"/>
		</linearGradient>
		<path style="fill:url(#SVGID_00000149349016510829416630000008153682187106471094_);" d="M3025.1,2157.2c-0.6-2.5,0.7-5.1,2.5-5.3
			c7.6-0.6,25.3-0.8,35.1,7.7c12.7,11,29.1,31.1,15.3,41.2l-12.9,9.5c-0.6,0.4-1.2,0.6-1.9,0.4c-4.6-1.4-23.9-7.5-26-9
			C3035.3,2200.3,3027.9,2169.4,3025.1,2157.2z"/>
		
			<linearGradient id="SVGID_00000005230139910314861650000008648599169294736315_" gradientUnits="userSpaceOnUse" x1="-1976.431" y1="2524.615" x2="-1651.5232" y2="2174.0569" gradientTransform="matrix(-1 0 0 1 1514.9646 0)">
			<stop  offset="0" style="stop-color:#AA80F9"/>
			<stop  offset="0.9964" style="stop-color:#6165D7"/>
		</linearGradient>
		<path style="opacity:0.3;fill:url(#SVGID_00000005230139910314861650000008648599169294736315_);" d="M3112,2579.4
			c11.2-19.4,10.7-48.7,35.3-62.5c14.3-8.1,25.5-4.3,44.9-4.8c57.9-1.5,69-38,109-40.1c62-3.3,91.8,81.1,126.6,68.9
			c22.7-7.9,37.4-53.4,25.7-88.2c-16.4-48.4-72.4-41.8-145.9-107.4c-31.4-28.1-76.5-78.7-64.1-101c13-23.4,74.7,10.9,120.2-24
			c26.6-20.4,23.2-45.6,44.9-91.4c11.8-24.8,54.8-89.2,118.9-132.7c20.6,197,38.3,368.2,54.2,517.4c4.7,43.6,16.1,150.4-25.7,169.9
			c-21.7,10.1-42.9-10.3-104.8-42.2c-97.3-50.2-174.3-90-243.1-70c-65.8,19.1-88.6,82.6-128.3,68.9c-12.4-4.3-22.6-14.8-29.3-26.7
			C3086.1,2607.2,3103.6,2594,3112,2579.4z"/>
		<g>
			
				<linearGradient id="SVGID_00000039856467363044422700000006770502800924404904_" gradientUnits="userSpaceOnUse" x1="-1203.5031" y1="2904.5852" x2="-1191.9072" y2="2595.7117" gradientTransform="matrix(-0.917 0.3988 0.3988 0.917 1115.3599 -184.8945)">
				<stop  offset="0" style="stop-color:#FFC444"/>
				<stop  offset="0.9964" style="stop-color:#F36F56"/>
			</linearGradient>
			<path style="fill:url(#SVGID_00000039856467363044422700000006770502800924404904_);" d="M3277.2,1782
				c-0.1,8.6,21.3,51.8,50.2,72.7c29.1,21.1,65.8,20,76.7,22.7c25.3,6.3,28.6,6.1,29.2,8.6c2.7,12.3-66.3,54.1-137.7,44
				c-43.7-6.2-83.4-31.1-81-44.2c2.5-13.2,46.1-6.1,59.1-29.9c9-16.6-1.1-40.1-13.1-59.6C3272.2,1774.6,3265.6,1803.8,3277.2,1782z"
				/>
			<g>
				
					<linearGradient id="SVGID_00000181781509788436052930000003951432714347323811_" gradientUnits="userSpaceOnUse" x1="3789.1301" y1="2491.7537" x2="3706.4941" y2="2281.8735" gradientTransform="matrix(0.9052 -0.4249 0.4249 0.9052 -1113.1516 1242.0535)">
					<stop  offset="0" style="stop-color:#311944"/>
					<stop  offset="1" style="stop-color:#6B3976"/>
				</linearGradient>
				<path style="fill:url(#SVGID_00000181781509788436052930000003951432714347323811_);" d="M3200.5,1802c-15.2-8-26-29.3-21.7-48
					c3.7-16.1,17.4-24.7,25.6-29.8c23.8-14.9,60.6-19.4,82.7-1.4c13.1,10.6,12.4,45.9,12.6,52.1c0.2,7-3.4,11.2-5.5,17.5
					c-3,8.9-7.5,22.9-14.8,46.2c-3.4-4.2-8-9.3-13.8-14.4c-2.2-2-11.2-9.5-21.5-14.4C3223.4,1799.9,3214.9,1809.5,3200.5,1802z"/>
				
					<linearGradient id="SVGID_00000062877605228475364370000008883920503094948511_" gradientUnits="userSpaceOnUse" x1="-2345.3135" y1="2148.8076" x2="-2349.1133" y2="2454.9541" gradientTransform="matrix(-0.9296 0.3687 0.3687 0.9296 273.1125 648.5008)">
					<stop  offset="0" style="stop-color:#FFC444"/>
					<stop  offset="0.9964" style="stop-color:#F36F56"/>
				</linearGradient>
				<path style="fill:url(#SVGID_00000062877605228475364370000008883920503094948511_);" d="M3294.3,1814.8c0,0-3.7,35.1-37.7,48.5
					c-30.5,12.1-66.2-52.1-54-75.1c4.1-7.7,15.8-15.6,27.4-17.6c6.9-1.2,10.1,0.4,21.3-1.8c10.3-2,12.4-4.2,16.3-3.2
					c4.8,1.3,10.8,7.2,14.2,29.3c2.9-8.4,8.7-13.8,14.5-13.8c0.9,0,3.6,0.4,5.8,2C3309.7,1788.8,3307.4,1801.7,3294.3,1814.8z"/>
				
					<linearGradient id="SVGID_00000172415250328537407880000018197843756594650774_" gradientUnits="userSpaceOnUse" x1="3763.8835" y1="2501.8022" x2="3681.1653" y2="2291.7126" gradientTransform="matrix(0.9052 -0.4249 0.4249 0.9052 -1113.1516 1242.0535)">
					<stop  offset="0" style="stop-color:#311944"/>
					<stop  offset="1" style="stop-color:#6B3976"/>
				</linearGradient>
				<path style="fill:url(#SVGID_00000172415250328537407880000018197843756594650774_);" d="M3267,1761.1c-0.9,1.7,6,5,9.8,12.4
					c7.6,14.3,1.1,38.8-13.3,47.5c-8.5,5.1-13.5,0.9-29,6.3c-9.6,3.4-16.6,8.1-20.9,11.4c3,18.2,14.9,32.1,29.1,34.5
					c15.3,2.5,27.7-9.3,32.9-14.2c3.5-3.3,14.6-13.9,15.8-29.2c1.2-16-9.4-20.3-5.2-32.7c2.1-6.3,6.7-10.7,8.1-21.6
					c0.4-2.9,0.4-5.4,0.3-7C3283.2,1763.8,3268.4,1758.6,3267,1761.1z"/>
			</g>
		</g>
		
			<linearGradient id="SVGID_00000115490915172057202100000009601395372626510488_" gradientUnits="userSpaceOnUse" x1="-1948.0873" y1="2302.835" x2="-1901.0609" y2="1900.9756" gradientTransform="matrix(-1 0 0 1 1514.9646 0)">
			<stop  offset="0" style="stop-color:#AA80F9"/>
			<stop  offset="0.9964" style="stop-color:#6165D7"/>
		</linearGradient>
		<path style="fill:url(#SVGID_00000115490915172057202100000009601395372626510488_);" d="M3429.5,1947.7
			c17.3-26.2,51.7-52,83.4-49.7c92.4,6.7,206.4,255.7,128.3,354.3c-59.6,75.3-243.9,78.9-412-51.3c0-14.4,0-28.9,0-43.3
			c82.7,14.5,151.3,24.1,202,30.5c31.6,4,63.1,7.6,68.9-4.8c8.9-18.7-54.4-45.5-78.6-115.4C3418.1,2058.3,3397,1997,3429.5,1947.7z"
			/>
	</g>
	<g>
		<g>
			<g>
				
					<linearGradient id="SVGID_00000099626259124856469140000003991804783629889939_" gradientUnits="userSpaceOnUse" x1="164.1546" y1="3416.0259" x2="1171.0341" y2="3416.0259">
					<stop  offset="0" style="stop-color:#FCB148"/>
					<stop  offset="5.207239e-02" style="stop-color:#FDBA46"/>
					<stop  offset="0.1424" style="stop-color:#FFC244"/>
					<stop  offset="0.3183" style="stop-color:#FFC444"/>
					<stop  offset="0.4849" style="stop-color:#FDB946"/>
					<stop  offset="0.7754" style="stop-color:#F99C4D"/>
					<stop  offset="0.8658" style="stop-color:#F8924F"/>
					<stop  offset="1" style="stop-color:#F8924F"/>
				</linearGradient>
				<path style="fill:url(#SVGID_00000099626259124856469140000003991804783629889939_);" d="M239,3339.1v97.1
					c0,31.4,195.9,56.8,437.6,56.8s437.6-25.4,437.6-56.8v-97.1H239z"/>
				
					<linearGradient id="SVGID_00000106107472914841148080000000247668049671430063_" gradientUnits="userSpaceOnUse" x1="672.2217" y1="3302.6047" x2="725.3032" y2="3746.9749">
					<stop  offset="0" style="stop-color:#FFDB44"/>
					<stop  offset="1" style="stop-color:#FEEF06"/>
				</linearGradient>
				<path style="fill:url(#SVGID_00000106107472914841148080000000247668049671430063_);" d="M1114.2,3339.1
					c0,31.4-195.9,56.8-437.6,56.8S239,3370.5,239,3339.1c0-31.4,195.9-56.8,437.6-56.8S1114.2,3307.7,1114.2,3339.1z"/>
				
					<linearGradient id="SVGID_00000156553921679857287220000000935893060620962460_" gradientUnits="userSpaceOnUse" x1="669.9135" y1="3282.7878" x2="686.2157" y2="3419.2612">
					<stop  offset="0" style="stop-color:#FFDB44"/>
					<stop  offset="1" style="stop-color:#FEEF06"/>
				</linearGradient>
				<path style="fill:url(#SVGID_00000156553921679857287220000000935893060620962460_);" d="M676.6,3399.8
					c-214,0-437.9-20.4-437.9-59.9c0-2.2,0.8-6,2.9-6c2.2,0,1.2,3,1.2,5.1c0,25,178.1,52.9,433.7,52.9
					c255.6,0,433.7-27.9,433.7-52.9c0-2.2,0.4-4.2,2.5-4.2c2.2,0,1.6,2.9,1.6,5.1C1114.4,3379.4,890.6,3399.8,676.6,3399.8z"/>
				<g>
					<path class="st35" d="M635.2,3342.3c4.3-3,8.9-5.9,13.8-8.8c4.8-2.9,11.2-5.5,18.8-7.8c7.7-2.3,17.3-4.2,28.8-5.7
						c11.5-1.5,26-2.2,43.2-2.3c16.9-0.1,32.8,0.5,47.6,1.6c14.8,1.2,27.9,2.9,39.2,5.2c11.2,2.3,20.4,5.1,27.5,8.5
						c7,3.4,11.2,7.3,12.6,11.6l49.3,0.5c3.6,0,6.7,0.3,9.4,0.9c2.8,0.6,4.1,1.3,4.1,2.1l0,4.1l-63.3-0.6c-2.2,5-7.9,9.5-17,13.6
						c-9.1,4.1-20.6,7.7-34.7,10.7l-23.1-3.2c-2.1-0.3-3.8-0.7-5.1-1.2c-1.3-0.5-2-1-2-1.6c0-0.8,1.8-1.7,5.3-2.7
						c3.6-1,7.6-2.2,12.1-3.7c4.5-1.5,8.9-3.2,13.2-5.2c4.3-2,7.2-4.4,8.7-7.2l-149.5-1.5c-3.9,2.9-8.4,5.7-13.2,8.5
						c-4.9,2.8-11.3,5.3-19.4,7.5c-8.1,2.2-18.1,4-30.1,5.4c-12,1.4-27.1,2.1-45.4,2.2c-13.7,0.1-27-0.5-40.1-1.6
						c-13.1-1.1-24.7-2.8-34.8-5c-10.1-2.2-18.4-4.9-25-8.2c-6.5-3.3-10.1-7-10.9-11.2l-40.6-0.4c-3.6,0-6.7-0.3-9.6-0.8
						c-2.8-0.5-4.2-1.3-4.2-2.2l0-4.1l55.5,0.5c2.5-4.3,7.5-8,15.2-11.2c7.7-3.2,17.1-6,28.1-8.5l18.6,2.6c5.6,0.8,8.4,1.7,8.4,2.8
						c0,0.6-1.1,1.3-3.5,2.1c-2.4,0.9-5.1,1.9-8.3,3.1c-3.2,1.2-6.3,2.6-9.2,4.2c-3,1.6-5.3,3.4-6.8,5.4L635.2,3342.3z
						 M498.4,3347.8c1.1,2.7,3.6,5,7.4,6.9c3.8,1.9,8.5,3.5,14.1,4.8c5.6,1.2,12,2.2,19,2.7c7.1,0.6,14.4,0.9,22.1,0.8
						c9,0,16.8-0.4,23.5-1.2c6.6-0.7,12.5-1.7,17.6-3c5-1.3,9.5-2.7,13.2-4.4c3.8-1.7,7.1-3.5,10.1-5.4L498.4,3347.8z M823.9,3344.2
						c-1.1-2.7-3.8-5.1-8.1-7.1c-4.2-2-9.6-3.7-16.2-5.1c-6.6-1.4-14.2-2.4-23-3.1c-8.7-0.7-18.3-1-28.9-0.9
						c-9.3,0-17.5,0.5-24.2,1.3c-6.7,0.8-12.6,1.9-17.6,3.2c-4.9,1.3-9.2,2.9-12.6,4.7c-3.5,1.8-6.7,3.7-9.7,5.7L823.9,3344.2z"/>
				</g>
				
					<linearGradient id="SVGID_00000011748293507112161710000010855954722782779274_" gradientUnits="userSpaceOnUse" x1="984.0104" y1="722.885" x2="1000.2549" y2="858.8749" gradientTransform="matrix(-1 0 0 -1 1669.249 4127.8389)">
					<stop  offset="3.597120e-03" style="stop-color:#F36F56"/>
					<stop  offset="0.3059" style="stop-color:#F99C4C"/>
					<stop  offset="0.545" style="stop-color:#FDB946"/>
					<stop  offset="0.6817" style="stop-color:#FFC444"/>
					<stop  offset="0.8038" style="stop-color:#FFC244"/>
					<stop  offset="0.8667" style="stop-color:#FEBA46"/>
					<stop  offset="0.916" style="stop-color:#FCAD49"/>
					<stop  offset="0.958" style="stop-color:#F99A4D"/>
					<stop  offset="0.9955" style="stop-color:#F58152"/>
					<stop  offset="1" style="stop-color:#F57E53"/>
				</linearGradient>
				<path style="fill:url(#SVGID_00000011748293507112161710000010855954722782779274_);" d="M676.6,3288.5
					c-195.1,0-398.3,17.2-430.8,50.4c1.3,1.2,2.5,2.4,3.6,3.7c27.4-23.1,195.1-46.3,427.2-46.3c238,0,408.5,24.4,429.1,48.1
					c1-1.3,2.1-2.5,3.3-3.7C1082.2,3306.3,875.2,3288.5,676.6,3288.5z"/>
			</g>
			<g>
				
					<linearGradient id="SVGID_00000073704532213958928760000016442178087481395375_" gradientUnits="userSpaceOnUse" x1="42.5031" y1="3314.0725" x2="1049.3815" y2="3314.0725">
					<stop  offset="0" style="stop-color:#FCB148"/>
					<stop  offset="5.207239e-02" style="stop-color:#FDBA46"/>
					<stop  offset="0.1424" style="stop-color:#FFC244"/>
					<stop  offset="0.3183" style="stop-color:#FFC444"/>
					<stop  offset="0.4849" style="stop-color:#FDB946"/>
					<stop  offset="0.7754" style="stop-color:#F99C4D"/>
					<stop  offset="0.8658" style="stop-color:#F8924F"/>
					<stop  offset="1" style="stop-color:#F8924F"/>
				</linearGradient>
				<path style="fill:url(#SVGID_00000073704532213958928760000016442178087481395375_);" d="M117.3,3237.1v97.1
					c0,31.4,195.9,56.8,437.6,56.8c241.7,0,437.6-25.4,437.6-56.8v-97.1H117.3z"/>
				
					<linearGradient id="SVGID_00000163041154234694424830000014330934496322224307_" gradientUnits="userSpaceOnUse" x1="550.5696" y1="3200.6523" x2="603.6511" y2="3645.022">
					<stop  offset="0" style="stop-color:#FFDB44"/>
					<stop  offset="1" style="stop-color:#FEEF06"/>
				</linearGradient>
				<path style="fill:url(#SVGID_00000163041154234694424830000014330934496322224307_);" d="M992.5,3237.1
					c0,31.4-195.9,56.8-437.6,56.8c-241.7,0-437.6-25.4-437.6-56.8c0-31.4,195.9-56.8,437.6-56.8
					C796.6,3180.4,992.5,3205.8,992.5,3237.1z"/>
				
					<linearGradient id="SVGID_00000044896314208232416980000016742421117239315339_" gradientUnits="userSpaceOnUse" x1="548.2616" y1="3180.8352" x2="564.5637" y2="3317.3081">
					<stop  offset="0" style="stop-color:#FFDB44"/>
					<stop  offset="1" style="stop-color:#FEEF06"/>
				</linearGradient>
				<path style="fill:url(#SVGID_00000044896314208232416980000016742421117239315339_);" d="M554.9,3297.9
					c-214,0-437.9-20.4-437.9-59.9c0-2.2,0.8-6,2.9-6c2.2,0,1.2,3,1.2,5.1c0,25,178.1,52.9,433.7,52.9s433.7-27.9,433.7-52.9
					c0-2.2,0.4-4.2,2.5-4.2c2.2,0,1.6,2.9,1.6,5.1C992.8,3277.4,769,3297.9,554.9,3297.9z"/>
				<g>
					<path class="st35" d="M513.6,3240.3c4.3-3,8.9-5.9,13.8-8.8c4.8-2.9,11.2-5.5,18.8-7.8c7.7-2.3,17.3-4.2,28.8-5.7
						c11.5-1.5,26-2.2,43.2-2.3c16.9-0.1,32.8,0.5,47.6,1.6c14.8,1.2,27.9,2.9,39.2,5.2c11.2,2.3,20.4,5.1,27.5,8.5
						c7,3.4,11.2,7.3,12.6,11.7l49.3,0.5c3.6,0,6.7,0.3,9.4,0.9c2.8,0.6,4.1,1.3,4.1,2.1l0,4.1l-63.3-0.6c-2.2,5-7.9,9.5-17,13.6
						c-9.1,4.1-20.6,7.7-34.7,10.7l-23.1-3.2c-2.1-0.3-3.8-0.7-5.1-1.2c-1.3-0.5-2-1-2-1.6c0-0.8,1.8-1.7,5.3-2.7
						c3.6-1,7.6-2.2,12.1-3.7c4.5-1.5,8.9-3.2,13.2-5.2c4.3-2,7.2-4.4,8.7-7.2l-149.5-1.5c-3.9,2.9-8.4,5.7-13.2,8.5
						c-4.9,2.8-11.3,5.3-19.4,7.5c-8.1,2.2-18.1,4-30.1,5.4c-12,1.4-27.1,2.1-45.4,2.2c-13.7,0.1-27-0.5-40.1-1.6
						c-13.1-1.1-24.7-2.8-34.8-5c-10.1-2.2-18.4-4.9-25-8.2c-6.5-3.2-10.1-7-10.9-11.2l-40.6-0.4c-3.6,0-6.7-0.3-9.6-0.8
						c-2.8-0.5-4.2-1.3-4.2-2.2l0-4.1l55.5,0.5c2.5-4.3,7.5-8,15.2-11.2c7.7-3.2,17.1-6,28.1-8.5l18.6,2.6c5.6,0.8,8.4,1.7,8.4,2.8
						c0,0.6-1.1,1.3-3.5,2.1c-2.4,0.9-5.1,1.9-8.3,3.1c-3.2,1.2-6.3,2.6-9.2,4.2c-3,1.6-5.3,3.4-6.8,5.4L513.6,3240.3z
						 M376.7,3245.8c1.1,2.7,3.6,4.9,7.4,6.9c3.8,1.9,8.5,3.5,14.1,4.8c5.6,1.2,12,2.2,19,2.7c7.1,0.6,14.4,0.9,22.1,0.8
						c9,0,16.8-0.4,23.5-1.2c6.6-0.7,12.5-1.7,17.6-3c5-1.3,9.5-2.7,13.2-4.4c3.8-1.7,7.1-3.5,10.1-5.4L376.7,3245.8z M702.2,3242.2
						c-1.1-2.7-3.8-5.1-8.1-7.1c-4.2-2-9.6-3.7-16.2-5.1c-6.6-1.4-14.2-2.4-23-3.1c-8.7-0.7-18.3-1-28.9-0.9
						c-9.4,0-17.5,0.5-24.2,1.3c-6.7,0.8-12.6,1.9-17.6,3.2c-4.9,1.3-9.2,2.9-12.6,4.7c-3.5,1.8-6.7,3.7-9.7,5.7L702.2,3242.2z"/>
				</g>
				
					<linearGradient id="SVGID_00000114076150115894807400000017474496850218791304_" gradientUnits="userSpaceOnUse" x1="1105.663" y1="824.8383" x2="1121.9073" y2="960.8279" gradientTransform="matrix(-1 0 0 -1 1669.249 4127.8389)">
					<stop  offset="3.597120e-03" style="stop-color:#F36F56"/>
					<stop  offset="0.3059" style="stop-color:#F99C4C"/>
					<stop  offset="0.545" style="stop-color:#FDB946"/>
					<stop  offset="0.6817" style="stop-color:#FFC444"/>
					<stop  offset="0.8038" style="stop-color:#FFC244"/>
					<stop  offset="0.8667" style="stop-color:#FEBA46"/>
					<stop  offset="0.916" style="stop-color:#FCAD49"/>
					<stop  offset="0.958" style="stop-color:#F99A4D"/>
					<stop  offset="0.9955" style="stop-color:#F58152"/>
					<stop  offset="1" style="stop-color:#F57E53"/>
				</linearGradient>
				<path style="fill:url(#SVGID_00000114076150115894807400000017474496850218791304_);" d="M555,3186.5
					c-195.1,0-398.3,17.2-430.8,50.4c1.3,1.2,2.5,2.4,3.6,3.7c27.4-23.1,195.1-46.3,427.2-46.3c238,0,408.5,24.4,429.1,48.1
					c1-1.3,2.1-2.5,3.3-3.7C960.6,3204.3,753.6,3186.5,555,3186.5z"/>
			</g>
			<g>
				
					<linearGradient id="SVGID_00000052070556903746598690000008674511354106757273_" gradientUnits="userSpaceOnUse" x1="147.4714" y1="3212.4182" x2="1154.351" y2="3212.4182">
					<stop  offset="0" style="stop-color:#FCB148"/>
					<stop  offset="5.207239e-02" style="stop-color:#FDBA46"/>
					<stop  offset="0.1424" style="stop-color:#FFC244"/>
					<stop  offset="0.3183" style="stop-color:#FFC444"/>
					<stop  offset="0.4849" style="stop-color:#FDB946"/>
					<stop  offset="0.7754" style="stop-color:#F99C4D"/>
					<stop  offset="0.8658" style="stop-color:#F8924F"/>
					<stop  offset="1" style="stop-color:#F8924F"/>
				</linearGradient>
				<path style="fill:url(#SVGID_00000052070556903746598690000008674511354106757273_);" d="M222.3,3135.5v97.1
					c0,31.4,195.9,56.8,437.6,56.8c241.7,0,437.6-25.4,437.6-56.8v-97.1H222.3z"/>
				
					<linearGradient id="SVGID_00000132803612271252220930000010977981187227402368_" gradientUnits="userSpaceOnUse" x1="655.5385" y1="3098.9978" x2="708.6201" y2="3543.3679">
					<stop  offset="0" style="stop-color:#FFDB44"/>
					<stop  offset="1" style="stop-color:#FEEF06"/>
				</linearGradient>
				<path style="fill:url(#SVGID_00000132803612271252220930000010977981187227402368_);" d="M1097.5,3135.5
					c0,31.4-195.9,56.8-437.6,56.8c-241.7,0-437.6-25.4-437.6-56.8c0-31.4,195.9-56.8,437.6-56.8
					C901.6,3078.7,1097.5,3104.1,1097.5,3135.5z"/>
				
					<linearGradient id="SVGID_00000077307515111696592830000010214910127080166072_" gradientUnits="userSpaceOnUse" x1="653.231" y1="3079.1807" x2="669.5332" y2="3215.6538">
					<stop  offset="0" style="stop-color:#FFDB44"/>
					<stop  offset="1" style="stop-color:#FEEF06"/>
				</linearGradient>
				<path style="fill:url(#SVGID_00000077307515111696592830000010214910127080166072_);" d="M659.9,3196.2
					c-214,0-437.9-20.4-437.9-59.9c0-2.2,0.8-6,2.9-6c2.2,0,1.2,3,1.2,5.1c0,25,178.1,52.9,433.7,52.9s433.7-27.9,433.7-52.9
					c0-2.2,0.4-4.2,2.5-4.2c2.2,0,1.6,2.9,1.6,5.1C1097.8,3175.8,873.9,3196.2,659.9,3196.2z"/>
				<g>
					<path class="st35" d="M618.5,3138.7c4.3-3,8.9-5.9,13.8-8.8c4.8-2.9,11.2-5.5,18.8-7.8c7.7-2.3,17.3-4.2,28.8-5.7
						c11.5-1.5,26-2.2,43.2-2.3c16.9-0.1,32.8,0.5,47.6,1.6c14.8,1.2,27.9,2.9,39.2,5.2c11.2,2.3,20.4,5.1,27.5,8.5
						c7,3.4,11.2,7.3,12.6,11.7l49.3,0.5c3.6,0,6.7,0.3,9.4,0.9c2.8,0.6,4.1,1.3,4.1,2.1l0,4.1l-63.3-0.6c-2.2,5-7.9,9.5-17,13.6
						c-9.1,4.1-20.6,7.7-34.7,10.7l-23.1-3.2c-2.1-0.3-3.8-0.7-5.1-1.2c-1.3-0.5-2-1-2-1.6c0-0.8,1.8-1.7,5.3-2.7
						c3.6-1,7.6-2.2,12.1-3.7c4.5-1.5,8.9-3.2,13.2-5.2c4.3-2,7.2-4.4,8.7-7.2l-149.5-1.5c-3.9,2.9-8.4,5.7-13.2,8.5
						c-4.9,2.8-11.3,5.3-19.4,7.5c-8.1,2.2-18.1,4-30.1,5.4c-12,1.4-27.1,2.1-45.4,2.2c-13.7,0.1-27-0.5-40.1-1.6
						c-13.1-1.1-24.7-2.8-34.8-5c-10.1-2.2-18.4-4.9-25-8.2c-6.5-3.2-10.1-7-10.9-11.2l-40.6-0.4c-3.6,0-6.7-0.3-9.6-0.8
						c-2.8-0.5-4.2-1.3-4.2-2.2l0-4.1l55.5,0.5c2.5-4.3,7.5-8,15.2-11.2c7.7-3.2,17.1-6,28.1-8.5l18.6,2.6c5.6,0.8,8.4,1.7,8.4,2.8
						c0,0.6-1.1,1.3-3.5,2.1c-2.4,0.9-5.1,1.9-8.3,3.1c-3.2,1.2-6.3,2.6-9.2,4.2c-3,1.6-5.3,3.4-6.8,5.4L618.5,3138.7z
						 M481.7,3144.2c1.1,2.7,3.6,4.9,7.4,6.9c3.8,1.9,8.4,3.5,14.1,4.8s12,2.2,19,2.7c7.1,0.6,14.4,0.9,22.1,0.8
						c9,0,16.8-0.4,23.5-1.2c6.6-0.7,12.5-1.7,17.6-3c5-1.3,9.5-2.7,13.2-4.4c3.8-1.7,7.1-3.5,10.1-5.4L481.7,3144.2z M807.2,3140.6
						c-1.1-2.7-3.8-5.1-8.1-7.1c-4.2-2-9.6-3.7-16.2-5.1c-6.6-1.4-14.2-2.4-23-3.1c-8.7-0.7-18.3-1-28.9-0.9
						c-9.4,0-17.5,0.5-24.2,1.3c-6.7,0.8-12.6,1.9-17.6,3.2c-4.9,1.3-9.2,2.9-12.6,4.7c-3.5,1.8-6.7,3.7-9.7,5.7L807.2,3140.6z"/>
				</g>
				
					<linearGradient id="SVGID_00000001636403197362421100000002371055276561470637_" gradientUnits="userSpaceOnUse" x1="1000.6937" y1="926.4927" x2="1016.9381" y2="1062.4822" gradientTransform="matrix(-1 0 0 -1 1669.249 4127.8389)">
					<stop  offset="3.597120e-03" style="stop-color:#F36F56"/>
					<stop  offset="0.3059" style="stop-color:#F99C4C"/>
					<stop  offset="0.545" style="stop-color:#FDB946"/>
					<stop  offset="0.6817" style="stop-color:#FFC444"/>
					<stop  offset="0.8038" style="stop-color:#FFC244"/>
					<stop  offset="0.8667" style="stop-color:#FEBA46"/>
					<stop  offset="0.916" style="stop-color:#FCAD49"/>
					<stop  offset="0.958" style="stop-color:#F99A4D"/>
					<stop  offset="0.9955" style="stop-color:#F58152"/>
					<stop  offset="1" style="stop-color:#F57E53"/>
				</linearGradient>
				<path style="fill:url(#SVGID_00000001636403197362421100000002371055276561470637_);" d="M660,3084.9
					c-195.1,0-398.3,17.2-430.8,50.4c1.3,1.2,2.5,2.4,3.6,3.7c27.4-23.1,195.1-46.3,427.2-46.3c238,0,408.5,24.4,429.1,48.1
					c1-1.3,2.1-2.5,3.3-3.7C1065.5,3102.7,858.5,3084.9,660,3084.9z"/>
			</g>
			<g>
				
					<linearGradient id="SVGID_00000129888131894108444510000014965942869899267482_" gradientUnits="userSpaceOnUse" x1="211.171" y1="3110.4663" x2="1218.0493" y2="3110.4663">
					<stop  offset="0" style="stop-color:#FCB148"/>
					<stop  offset="5.207239e-02" style="stop-color:#FDBA46"/>
					<stop  offset="0.1424" style="stop-color:#FFC244"/>
					<stop  offset="0.3183" style="stop-color:#FFC444"/>
					<stop  offset="0.4849" style="stop-color:#FDB946"/>
					<stop  offset="0.7754" style="stop-color:#F99C4D"/>
					<stop  offset="0.8658" style="stop-color:#F8924F"/>
					<stop  offset="1" style="stop-color:#F8924F"/>
				</linearGradient>
				<path style="fill:url(#SVGID_00000129888131894108444510000014965942869899267482_);" d="M286,3033.5v97.1
					c0,31.4,195.9,56.8,437.6,56.8c241.7,0,437.6-25.4,437.6-56.8v-97.1H286z"/>
				
					<linearGradient id="SVGID_00000146462001079836759910000010156680155071899577_" gradientUnits="userSpaceOnUse" x1="719.2374" y1="2997.0449" x2="772.319" y2="3441.4153">
					<stop  offset="0" style="stop-color:#FFDB44"/>
					<stop  offset="1" style="stop-color:#FEEF06"/>
				</linearGradient>
				
					<ellipse style="fill:url(#SVGID_00000146462001079836759910000010156680155071899577_);" cx="723.6" cy="3033.5" rx="437.6" ry="56.8"/>
				
					<linearGradient id="SVGID_00000159468451603010986980000014137453652094759317_" gradientUnits="userSpaceOnUse" x1="716.9287" y1="2977.2273" x2="733.231" y2="3113.7009">
					<stop  offset="0" style="stop-color:#FFDB44"/>
					<stop  offset="1" style="stop-color:#FEEF06"/>
				</linearGradient>
				<path style="fill:url(#SVGID_00000159468451603010986980000014137453652094759317_);" d="M723.6,3094.2
					c-214,0-437.9-20.4-437.9-59.9c0-2.2,0.8-6,2.9-6c2.2,0,1.2,3,1.2,5.1c0,25,178.1,52.9,433.7,52.9
					c255.6,0,433.7-27.9,433.7-52.9c0-2.2,0.4-4.2,2.5-4.2s1.6,2.9,1.6,5.1C1161.5,3073.8,937.6,3094.2,723.6,3094.2z"/>
				<g>
					<path class="st35" d="M682.2,3036.7c4.3-3,8.9-5.9,13.8-8.8c4.8-2.9,11.2-5.5,18.8-7.8c7.7-2.3,17.3-4.2,28.8-5.7
						c11.5-1.5,26-2.2,43.2-2.3c16.9-0.1,32.8,0.5,47.6,1.6c14.8,1.2,27.9,2.9,39.2,5.2c11.2,2.3,20.4,5.1,27.5,8.5
						c7,3.4,11.2,7.3,12.6,11.6l49.3,0.5c3.6,0,6.7,0.3,9.4,0.9c2.8,0.6,4.1,1.3,4.1,2.1l0,4.1l-63.3-0.6c-2.2,5-7.9,9.5-17,13.6
						c-9.1,4.1-20.6,7.7-34.7,10.7l-23.1-3.2c-2.1-0.3-3.8-0.7-5.1-1.2c-1.3-0.5-2-1-2-1.6c0-0.8,1.8-1.7,5.3-2.7
						c3.6-1,7.6-2.2,12.1-3.7c4.5-1.5,8.9-3.2,13.2-5.2c4.3-2,7.2-4.4,8.7-7.2l-149.5-1.5c-3.9,2.9-8.4,5.7-13.2,8.5
						c-4.9,2.8-11.3,5.3-19.4,7.5c-8.1,2.2-18.1,4-30.1,5.4c-12,1.4-27.1,2.1-45.4,2.2c-13.7,0.1-27-0.5-40.1-1.6
						c-13.1-1.1-24.7-2.8-34.8-5c-10.1-2.2-18.4-4.9-25-8.2c-6.5-3.3-10.1-7-10.9-11.2l-40.6-0.4c-3.6,0-6.7-0.3-9.6-0.8
						c-2.8-0.5-4.2-1.3-4.2-2.2l0-4.1l55.5,0.5c2.5-4.3,7.5-8,15.2-11.2c7.7-3.2,17.1-6,28.1-8.5l18.6,2.6c5.6,0.8,8.4,1.7,8.4,2.8
						c0,0.6-1.1,1.3-3.5,2.1c-2.4,0.9-5.1,1.9-8.3,3.1c-3.2,1.2-6.3,2.6-9.2,4.2c-3,1.6-5.3,3.4-6.8,5.4L682.2,3036.7z
						 M545.4,3042.2c1.1,2.7,3.6,4.9,7.4,6.9c3.8,1.9,8.5,3.5,14.1,4.8c5.6,1.2,12,2.2,19,2.7c7.1,0.6,14.4,0.9,22.1,0.8
						c9,0,16.8-0.4,23.5-1.2c6.6-0.7,12.5-1.7,17.6-3c5-1.3,9.5-2.7,13.2-4.4c3.8-1.7,7.1-3.5,10.1-5.4L545.4,3042.2z M870.9,3038.6
						c-1.1-2.7-3.8-5.1-8.1-7.1c-4.2-2-9.6-3.7-16.2-5.1c-6.6-1.4-14.2-2.4-23-3.1c-8.7-0.7-18.3-1-28.9-0.9
						c-9.3,0-17.5,0.5-24.2,1.3c-6.7,0.8-12.6,1.9-17.6,3.2c-4.9,1.3-9.2,2.9-12.6,4.7c-3.5,1.8-6.7,3.7-9.7,5.7L870.9,3038.6z"/>
				</g>
				
					<linearGradient id="SVGID_00000163792526465808444480000014652306342521325243_" gradientUnits="userSpaceOnUse" x1="936.9957" y1="1028.4453" x2="953.2401" y2="1164.4348" gradientTransform="matrix(-1 0 0 -1 1669.249 4127.8389)">
					<stop  offset="3.597120e-03" style="stop-color:#F36F56"/>
					<stop  offset="0.3059" style="stop-color:#F99C4C"/>
					<stop  offset="0.545" style="stop-color:#FDB946"/>
					<stop  offset="0.6817" style="stop-color:#FFC444"/>
					<stop  offset="0.8038" style="stop-color:#FFC244"/>
					<stop  offset="0.8667" style="stop-color:#FEBA46"/>
					<stop  offset="0.916" style="stop-color:#FCAD49"/>
					<stop  offset="0.958" style="stop-color:#F99A4D"/>
					<stop  offset="0.9955" style="stop-color:#F58152"/>
					<stop  offset="1" style="stop-color:#F57E53"/>
				</linearGradient>
				<path style="fill:url(#SVGID_00000163792526465808444480000014652306342521325243_);" d="M723.7,2982.9
					c-195.1,0-398.3,17.2-430.8,50.4c1.3,1.2,2.5,2.4,3.6,3.7c27.4-23.1,195.1-46.3,427.2-46.3c238,0,408.5,24.4,429.1,48.1
					c1-1.3,2.1-2.5,3.3-3.7C1129.2,3000.7,922.2,2982.9,723.7,2982.9z"/>
			</g>
			<g>
				
					<linearGradient id="SVGID_00000111869594446304236860000001541022295177444536_" gradientUnits="userSpaceOnUse" x1="164.1546" y1="3000.4702" x2="1171.0341" y2="3000.4702">
					<stop  offset="0" style="stop-color:#FCB148"/>
					<stop  offset="5.207239e-02" style="stop-color:#FDBA46"/>
					<stop  offset="0.1424" style="stop-color:#FFC244"/>
					<stop  offset="0.3183" style="stop-color:#FFC444"/>
					<stop  offset="0.4849" style="stop-color:#FDB946"/>
					<stop  offset="0.7754" style="stop-color:#F99C4D"/>
					<stop  offset="0.8658" style="stop-color:#F8924F"/>
					<stop  offset="1" style="stop-color:#F8924F"/>
				</linearGradient>
				<path style="fill:url(#SVGID_00000111869594446304236860000001541022295177444536_);" d="M239,2923.5v97.1
					c0,31.4,195.9,56.8,437.6,56.8s437.6-25.4,437.6-56.8v-97.1H239z"/>
				
					<linearGradient id="SVGID_00000047740853265395357050000000888028711469023165_" gradientUnits="userSpaceOnUse" x1="672.2216" y1="2887.0493" x2="725.3031" y2="3331.4194">
					<stop  offset="0" style="stop-color:#FFDB44"/>
					<stop  offset="1" style="stop-color:#FEEF06"/>
				</linearGradient>
				<path style="fill:url(#SVGID_00000047740853265395357050000000888028711469023165_);" d="M1114.2,2923.5
					c0,31.4-195.9,56.8-437.6,56.8S239,2954.9,239,2923.5c0-31.4,195.9-56.8,437.6-56.8S1114.2,2892.2,1114.2,2923.5z"/>
				
					<linearGradient id="SVGID_00000003102398707913485100000011455403536877340320_" gradientUnits="userSpaceOnUse" x1="669.9133" y1="2867.2314" x2="686.2156" y2="3003.7053">
					<stop  offset="0" style="stop-color:#FFDB44"/>
					<stop  offset="1" style="stop-color:#FEEF06"/>
				</linearGradient>
				<path style="fill:url(#SVGID_00000003102398707913485100000011455403536877340320_);" d="M676.6,2984.2
					c-214,0-437.9-20.4-437.9-59.9c0-2.2,0.8-6,2.9-6c2.2,0,1.2,3,1.2,5.1c0,25,178.1,52.9,433.7,52.9
					c255.6,0,433.7-27.9,433.7-52.9c0-2.2,0.4-4.2,2.5-4.2c2.2,0,1.6,2.9,1.6,5.1C1114.4,2963.8,890.6,2984.2,676.6,2984.2z"/>
				<g>
					<path class="st35" d="M635.2,2926.7c4.3-3,8.9-5.9,13.8-8.8c4.8-2.9,11.2-5.5,18.8-7.8c7.7-2.3,17.3-4.2,28.8-5.7
						c11.5-1.5,26-2.2,43.2-2.3c16.9-0.1,32.8,0.5,47.6,1.6c14.8,1.2,27.9,2.9,39.2,5.2c11.2,2.3,20.4,5.1,27.5,8.5
						c7,3.4,11.2,7.3,12.6,11.6l49.3,0.5c3.6,0,6.7,0.3,9.4,0.9c2.8,0.6,4.1,1.3,4.1,2.1l0,4.1l-63.3-0.6c-2.2,5-7.9,9.5-17,13.6
						c-9.1,4.1-20.6,7.7-34.7,10.7l-23.1-3.2c-2.1-0.3-3.8-0.7-5.1-1.2c-1.3-0.5-2-1-2-1.6c0-0.8,1.8-1.7,5.3-2.7
						c3.6-1,7.6-2.2,12.1-3.7c4.5-1.5,8.9-3.2,13.2-5.2c4.3-2,7.2-4.4,8.7-7.2l-149.5-1.5c-3.9,2.9-8.4,5.7-13.2,8.5
						c-4.9,2.8-11.3,5.3-19.4,7.5c-8.1,2.2-18.1,4-30.1,5.4c-12,1.4-27.1,2.1-45.4,2.2c-13.7,0.1-27-0.5-40.1-1.6
						c-13.1-1.1-24.7-2.8-34.8-5c-10.1-2.2-18.4-4.9-25-8.2c-6.5-3.2-10.1-7-10.9-11.2l-40.6-0.4c-3.6,0-6.7-0.3-9.6-0.8
						c-2.8-0.5-4.2-1.3-4.2-2.2l0-4.1l55.5,0.5c2.5-4.3,7.5-8,15.2-11.2c7.7-3.2,17.1-6,28.1-8.5l18.6,2.6c5.6,0.8,8.4,1.7,8.4,2.8
						c0,0.6-1.1,1.3-3.5,2.1c-2.4,0.9-5.1,1.9-8.3,3.1c-3.2,1.2-6.3,2.6-9.2,4.2c-3,1.6-5.3,3.4-6.8,5.4L635.2,2926.7z
						 M498.4,2932.2c1.1,2.7,3.6,4.9,7.4,6.9c3.8,1.9,8.5,3.5,14.1,4.8c5.6,1.2,12,2.2,19,2.7c7.1,0.6,14.4,0.9,22.1,0.8
						c9,0,16.8-0.4,23.5-1.2c6.6-0.7,12.5-1.7,17.6-3c5-1.3,9.5-2.7,13.2-4.4c3.8-1.7,7.1-3.5,10.1-5.4L498.4,2932.2z M823.9,2928.6
						c-1.1-2.7-3.8-5.1-8.1-7.1c-4.2-2-9.6-3.7-16.2-5.1c-6.6-1.4-14.2-2.4-23-3.1c-8.7-0.7-18.3-1-28.9-0.9
						c-9.3,0-17.5,0.5-24.2,1.3c-6.7,0.8-12.6,1.9-17.6,3.2c-4.9,1.3-9.2,2.9-12.6,4.7c-3.5,1.8-6.7,3.7-9.7,5.7L823.9,2928.6z"/>
				</g>
				
					<linearGradient id="SVGID_00000121249288623569767560000000674590426056111251_" gradientUnits="userSpaceOnUse" x1="984.0106" y1="1138.4414" x2="1000.2549" y2="1274.4304" gradientTransform="matrix(-1 0 0 -1 1669.249 4127.8389)">
					<stop  offset="3.597120e-03" style="stop-color:#F36F56"/>
					<stop  offset="0.3059" style="stop-color:#F99C4C"/>
					<stop  offset="0.545" style="stop-color:#FDB946"/>
					<stop  offset="0.6817" style="stop-color:#FFC444"/>
					<stop  offset="0.8038" style="stop-color:#FFC244"/>
					<stop  offset="0.8667" style="stop-color:#FEBA46"/>
					<stop  offset="0.916" style="stop-color:#FCAD49"/>
					<stop  offset="0.958" style="stop-color:#F99A4D"/>
					<stop  offset="0.9955" style="stop-color:#F58152"/>
					<stop  offset="1" style="stop-color:#F57E53"/>
				</linearGradient>
				<path style="fill:url(#SVGID_00000121249288623569767560000000674590426056111251_);" d="M676.6,2872.9
					c-195.1,0-398.3,17.2-430.8,50.4c1.3,1.2,2.5,2.4,3.6,3.7c27.4-23.1,195.1-46.3,427.2-46.3c238,0,408.5,24.4,429.1,48.1
					c1-1.3,2.1-2.5,3.3-3.7C1082.2,2890.7,875.2,2872.9,676.6,2872.9z"/>
			</g>
			<g>
				
					<linearGradient id="SVGID_00000100375787999984010290000003821291762424890047_" gradientUnits="userSpaceOnUse" x1="42.5031" y1="2898.5168" x2="1049.3815" y2="2898.5168">
					<stop  offset="0" style="stop-color:#FCB148"/>
					<stop  offset="5.207239e-02" style="stop-color:#FDBA46"/>
					<stop  offset="0.1424" style="stop-color:#FFC244"/>
					<stop  offset="0.3183" style="stop-color:#FFC444"/>
					<stop  offset="0.4849" style="stop-color:#FDB946"/>
					<stop  offset="0.7754" style="stop-color:#F99C4D"/>
					<stop  offset="0.8658" style="stop-color:#F8924F"/>
					<stop  offset="1" style="stop-color:#F8924F"/>
				</linearGradient>
				<path style="fill:url(#SVGID_00000100375787999984010290000003821291762424890047_);" d="M117.3,2821.6v97.1
					c0,31.4,195.9,56.8,437.6,56.8c241.7,0,437.6-25.4,437.6-56.8v-97.1H117.3z"/>
				
					<linearGradient id="SVGID_00000174571628099975126280000004287984074344451712_" gradientUnits="userSpaceOnUse" x1="550.5695" y1="2785.0962" x2="603.6512" y2="3229.4675">
					<stop  offset="0" style="stop-color:#FFDB44"/>
					<stop  offset="1" style="stop-color:#FEEF06"/>
				</linearGradient>
				
					<ellipse style="fill:url(#SVGID_00000174571628099975126280000004287984074344451712_);" cx="554.9" cy="2821.6" rx="437.6" ry="56.8"/>
				
					<linearGradient id="SVGID_00000015315846837993382470000003279705515000205961_" gradientUnits="userSpaceOnUse" x1="548.2616" y1="2765.2791" x2="564.5638" y2="2901.7527">
					<stop  offset="0" style="stop-color:#FFDB44"/>
					<stop  offset="1" style="stop-color:#FEEF06"/>
				</linearGradient>
				<path style="fill:url(#SVGID_00000015315846837993382470000003279705515000205961_);" d="M554.9,2882.3
					c-214,0-437.9-20.4-437.9-59.9c0-2.2,0.8-6,2.9-6c2.2,0,1.2,3,1.2,5.1c0,25,178.1,52.9,433.7,52.9s433.7-27.9,433.7-52.9
					c0-2.2,0.4-4.2,2.5-4.2c2.2,0,1.6,2.9,1.6,5.1C992.8,2861.9,769,2882.3,554.9,2882.3z"/>
				<g>
					<path class="st35" d="M513.6,2824.8c4.3-3,8.9-5.9,13.8-8.8c4.8-2.9,11.2-5.5,18.8-7.8c7.7-2.3,17.3-4.2,28.8-5.7
						c11.5-1.5,26-2.2,43.2-2.3c16.9-0.1,32.8,0.5,47.6,1.6c14.8,1.2,27.9,2.9,39.2,5.2c11.2,2.3,20.4,5.1,27.5,8.5
						c7,3.4,11.2,7.3,12.6,11.6l49.3,0.5c3.6,0,6.7,0.3,9.4,0.9c2.8,0.6,4.1,1.3,4.1,2.1l0,4.1l-63.3-0.6c-2.2,5-7.9,9.5-17,13.6
						c-9.1,4.1-20.6,7.7-34.7,10.7l-23.1-3.2c-2.1-0.3-3.8-0.7-5.1-1.2c-1.3-0.5-2-1-2-1.6c0-0.8,1.8-1.7,5.3-2.7
						c3.6-1,7.6-2.2,12.1-3.7c4.5-1.5,8.9-3.2,13.2-5.2c4.3-2,7.2-4.4,8.7-7.2l-149.5-1.5c-3.9,2.9-8.4,5.7-13.2,8.5
						c-4.9,2.8-11.3,5.3-19.4,7.5c-8.1,2.2-18.1,4-30.1,5.4c-12,1.4-27.1,2.1-45.4,2.2c-13.7,0.1-27-0.5-40.1-1.6
						c-13.1-1.1-24.7-2.8-34.8-5c-10.1-2.2-18.4-4.9-25-8.2c-6.5-3.2-10.1-7-10.9-11.2l-40.6-0.4c-3.6,0-6.7-0.3-9.6-0.8
						c-2.8-0.5-4.2-1.3-4.2-2.2l0-4.1l55.5,0.5c2.5-4.3,7.5-8,15.2-11.2c7.7-3.2,17.1-6,28.1-8.5l18.6,2.6c5.6,0.8,8.4,1.7,8.4,2.8
						c0,0.6-1.1,1.3-3.5,2.1c-2.4,0.9-5.1,1.9-8.3,3.1c-3.2,1.2-6.3,2.6-9.2,4.2c-3,1.6-5.3,3.4-6.8,5.4L513.6,2824.8z
						 M376.7,2830.3c1.1,2.7,3.6,4.9,7.4,6.9c3.8,1.9,8.5,3.5,14.1,4.8c5.6,1.2,12,2.2,19,2.7c7.1,0.6,14.4,0.9,22.1,0.8
						c9,0,16.8-0.4,23.5-1.2c6.6-0.7,12.5-1.7,17.6-3c5-1.3,9.5-2.7,13.2-4.4c3.8-1.7,7.1-3.5,10.1-5.4L376.7,2830.3z M702.2,2826.7
						c-1.1-2.7-3.8-5.1-8.1-7.1c-4.2-2-9.6-3.7-16.2-5.1c-6.6-1.4-14.2-2.4-23-3.1c-8.7-0.7-18.3-1-28.9-0.9
						c-9.4,0-17.5,0.5-24.2,1.3c-6.7,0.8-12.6,1.9-17.6,3.2c-4.9,1.3-9.2,2.9-12.6,4.7c-3.5,1.8-6.7,3.7-9.7,5.7L702.2,2826.7z"/>
				</g>
				
					<linearGradient id="SVGID_00000134949270336900462620000009268196588424214440_" gradientUnits="userSpaceOnUse" x1="1105.6631" y1="1240.3947" x2="1121.9073" y2="1376.3838" gradientTransform="matrix(-1 0 0 -1 1669.249 4127.8389)">
					<stop  offset="3.597120e-03" style="stop-color:#F36F56"/>
					<stop  offset="0.3059" style="stop-color:#F99C4C"/>
					<stop  offset="0.545" style="stop-color:#FDB946"/>
					<stop  offset="0.6817" style="stop-color:#FFC444"/>
					<stop  offset="0.8038" style="stop-color:#FFC244"/>
					<stop  offset="0.8667" style="stop-color:#FEBA46"/>
					<stop  offset="0.916" style="stop-color:#FCAD49"/>
					<stop  offset="0.958" style="stop-color:#F99A4D"/>
					<stop  offset="0.9955" style="stop-color:#F58152"/>
					<stop  offset="1" style="stop-color:#F57E53"/>
				</linearGradient>
				<path style="fill:url(#SVGID_00000134949270336900462620000009268196588424214440_);" d="M555,2770.9
					c-195.1,0-398.3,17.2-430.8,50.4c1.3,1.2,2.5,2.4,3.6,3.7c27.4-23.1,195.1-46.3,427.2-46.3c238,0,408.5,24.4,429.1,48.1
					c1-1.3,2.1-2.5,3.3-3.7C960.6,2788.8,753.6,2770.9,555,2770.9z"/>
			</g>
			<g>
				
					<linearGradient id="SVGID_00000165952621225946068170000006390096554380168619_" gradientUnits="userSpaceOnUse" x1="147.4714" y1="2796.8633" x2="1154.351" y2="2796.8633">
					<stop  offset="0" style="stop-color:#FCB148"/>
					<stop  offset="5.207239e-02" style="stop-color:#FDBA46"/>
					<stop  offset="0.1424" style="stop-color:#FFC244"/>
					<stop  offset="0.3183" style="stop-color:#FFC444"/>
					<stop  offset="0.4849" style="stop-color:#FDB946"/>
					<stop  offset="0.7754" style="stop-color:#F99C4D"/>
					<stop  offset="0.8658" style="stop-color:#F8924F"/>
					<stop  offset="1" style="stop-color:#F8924F"/>
				</linearGradient>
				<path style="fill:url(#SVGID_00000165952621225946068170000006390096554380168619_);" d="M222.3,2719.9v97.1
					c0,31.4,195.9,56.8,437.6,56.8c241.7,0,437.6-25.4,437.6-56.8v-97.1H222.3z"/>
				
					<linearGradient id="SVGID_00000048467484861718642320000016450271313659976874_" gradientUnits="userSpaceOnUse" x1="655.5385" y1="2683.4419" x2="708.6202" y2="3127.8132">
					<stop  offset="0" style="stop-color:#FFDB44"/>
					<stop  offset="1" style="stop-color:#FEEF06"/>
				</linearGradient>
				
					<ellipse style="fill:url(#SVGID_00000048467484861718642320000016450271313659976874_);" cx="659.9" cy="2719.9" rx="437.6" ry="56.8"/>
				
					<linearGradient id="SVGID_00000169557976319892159430000010508678036985628092_" gradientUnits="userSpaceOnUse" x1="653.231" y1="2663.6245" x2="669.5333" y2="2800.0984">
					<stop  offset="0" style="stop-color:#FFDB44"/>
					<stop  offset="1" style="stop-color:#FEEF06"/>
				</linearGradient>
				<path style="fill:url(#SVGID_00000169557976319892159430000010508678036985628092_);" d="M659.9,2780.6
					c-214,0-437.9-20.4-437.9-59.9c0-2.2,0.8-6,2.9-6c2.2,0,1.2,3,1.2,5.1c0,25,178.1,52.9,433.7,52.9s433.7-27.9,433.7-52.9
					c0-2.2,0.4-4.2,2.5-4.2c2.2,0,1.6,2.9,1.6,5.1C1097.8,2760.2,873.9,2780.6,659.9,2780.6z"/>
				<g>
					<path class="st35" d="M618.5,2723.1c4.3-3,8.9-5.9,13.8-8.8c4.8-2.9,11.2-5.5,18.8-7.8c7.7-2.3,17.3-4.2,28.8-5.7
						c11.5-1.5,26-2.2,43.2-2.3c16.9-0.1,32.8,0.5,47.6,1.6c14.8,1.2,27.9,2.9,39.2,5.2c11.2,2.3,20.4,5.1,27.5,8.5
						c7,3.4,11.2,7.3,12.6,11.6l49.3,0.5c3.6,0,6.7,0.3,9.4,0.9c2.8,0.6,4.1,1.3,4.1,2.1l0,4.1l-63.3-0.6c-2.2,5-7.9,9.5-17,13.6
						c-9.1,4.1-20.6,7.7-34.7,10.7l-23.1-3.2c-2.1-0.3-3.8-0.7-5.1-1.2c-1.3-0.5-2-1-2-1.6c0-0.8,1.8-1.7,5.3-2.7
						c3.6-1,7.6-2.2,12.1-3.7c4.5-1.5,8.9-3.2,13.2-5.2c4.3-2,7.2-4.4,8.7-7.2l-149.5-1.5c-3.9,2.9-8.4,5.7-13.2,8.5
						c-4.9,2.8-11.3,5.3-19.4,7.5c-8.1,2.2-18.1,4-30.1,5.4c-12,1.4-27.1,2.1-45.4,2.2c-13.7,0.1-27-0.5-40.1-1.6
						c-13.1-1.1-24.7-2.8-34.8-5c-10.1-2.2-18.4-4.9-25-8.2c-6.5-3.2-10.1-7-10.9-11.2l-40.6-0.4c-3.6,0-6.7-0.3-9.6-0.8
						c-2.8-0.5-4.2-1.3-4.2-2.2l0-4.1l55.5,0.5c2.5-4.3,7.5-8,15.2-11.2c7.7-3.2,17.1-6,28.1-8.5l18.6,2.6c5.6,0.8,8.4,1.7,8.4,2.8
						c0,0.6-1.1,1.3-3.5,2.1c-2.4,0.9-5.1,1.9-8.3,3.1c-3.2,1.2-6.3,2.6-9.2,4.2c-3,1.6-5.3,3.4-6.8,5.4L618.5,2723.1z
						 M481.7,2728.6c1.1,2.7,3.6,4.9,7.4,6.9c3.8,1.9,8.4,3.5,14.1,4.8c5.6,1.2,12,2.2,19,2.7c7.1,0.6,14.4,0.9,22.1,0.8
						c9,0,16.8-0.4,23.5-1.2c6.6-0.7,12.5-1.7,17.6-3c5-1.3,9.5-2.7,13.2-4.4c3.8-1.7,7.1-3.5,10.1-5.4L481.7,2728.6z M807.2,2725
						c-1.1-2.7-3.8-5.1-8.1-7.1c-4.2-2-9.6-3.7-16.2-5.1c-6.6-1.4-14.2-2.4-23-3.1c-8.7-0.7-18.3-1-28.9-0.9
						c-9.4,0-17.5,0.5-24.2,1.3c-6.7,0.8-12.6,1.9-17.6,3.2c-4.9,1.3-9.2,2.9-12.6,4.7c-3.5,1.8-6.7,3.7-9.7,5.7L807.2,2725z"/>
				</g>
				
					<linearGradient id="SVGID_00000122678244511837824540000004347430964872589958_" gradientUnits="userSpaceOnUse" x1="1000.6937" y1="1342.0491" x2="1016.9381" y2="1478.0382" gradientTransform="matrix(-1 0 0 -1 1669.249 4127.8389)">
					<stop  offset="3.597120e-03" style="stop-color:#F36F56"/>
					<stop  offset="0.3059" style="stop-color:#F99C4C"/>
					<stop  offset="0.545" style="stop-color:#FDB946"/>
					<stop  offset="0.6817" style="stop-color:#FFC444"/>
					<stop  offset="0.8038" style="stop-color:#FFC244"/>
					<stop  offset="0.8667" style="stop-color:#FEBA46"/>
					<stop  offset="0.916" style="stop-color:#FCAD49"/>
					<stop  offset="0.958" style="stop-color:#F99A4D"/>
					<stop  offset="0.9955" style="stop-color:#F58152"/>
					<stop  offset="1" style="stop-color:#F57E53"/>
				</linearGradient>
				<path style="fill:url(#SVGID_00000122678244511837824540000004347430964872589958_);" d="M660,2669.3
					c-195.1,0-398.3,17.2-430.8,50.4c1.3,1.2,2.5,2.4,3.6,3.7c27.4-23.1,195.1-46.3,427.2-46.3c238,0,408.5,24.4,429.1,48.1
					c1-1.3,2.1-2.5,3.3-3.7C1065.5,2687.1,858.5,2669.3,660,2669.3z"/>
			</g>
			<g>
				
					<linearGradient id="SVGID_00000029745031960950998800000017789367690234887856_" gradientUnits="userSpaceOnUse" x1="92.8736" y1="2694.9104" x2="1099.7521" y2="2694.9104">
					<stop  offset="0" style="stop-color:#FCB148"/>
					<stop  offset="5.207239e-02" style="stop-color:#FDBA46"/>
					<stop  offset="0.1424" style="stop-color:#FFC244"/>
					<stop  offset="0.3183" style="stop-color:#FFC444"/>
					<stop  offset="0.4849" style="stop-color:#FDB946"/>
					<stop  offset="0.7754" style="stop-color:#F99C4D"/>
					<stop  offset="0.8658" style="stop-color:#F8924F"/>
					<stop  offset="1" style="stop-color:#F8924F"/>
				</linearGradient>
				<path style="fill:url(#SVGID_00000029745031960950998800000017789367690234887856_);" d="M167.7,2618v97.1
					c0,31.4,195.9,56.8,437.6,56.8c241.7,0,437.6-25.4,437.6-56.8V2618H167.7z"/>
				
					<linearGradient id="SVGID_00000008107779091029663590000009724912600307241404_" gradientUnits="userSpaceOnUse" x1="600.9401" y1="2581.4895" x2="654.0219" y2="3025.8618">
					<stop  offset="0" style="stop-color:#FFDB44"/>
					<stop  offset="1" style="stop-color:#FEEF06"/>
				</linearGradient>
				
					<ellipse style="fill:url(#SVGID_00000008107779091029663590000009724912600307241404_);" cx="605.3" cy="2618" rx="437.6" ry="56.8"/>
				
					<linearGradient id="SVGID_00000177466856011814734260000016008933377307058078_" gradientUnits="userSpaceOnUse" x1="598.6322" y1="2561.6721" x2="614.9343" y2="2698.145">
					<stop  offset="0" style="stop-color:#FFDB44"/>
					<stop  offset="1" style="stop-color:#FEEF06"/>
				</linearGradient>
				<path style="fill:url(#SVGID_00000177466856011814734260000016008933377307058078_);" d="M605.3,2678.7
					c-214,0-437.9-20.4-437.9-59.9c0-2.2,0.8-6,2.9-6c2.2,0,1.2,3,1.2,5.1c0,25,178.1,52.9,433.7,52.9
					c255.6,0,433.7-27.9,433.7-52.9c0-2.2,0.4-4.2,2.5-4.2c2.2,0,1.6,2.9,1.6,5.1C1043.2,2658.3,819.3,2678.7,605.3,2678.7z"/>
				<g>
					<path class="st35" d="M563.9,2621.1c4.3-3,8.9-5.9,13.8-8.8c4.8-2.9,11.2-5.5,18.8-7.8c7.7-2.3,17.3-4.2,28.8-5.7
						c11.5-1.5,26-2.2,43.2-2.3c16.9-0.1,32.8,0.5,47.6,1.6c14.8,1.2,27.9,2.9,39.2,5.2c11.2,2.3,20.4,5.1,27.5,8.5
						c7,3.4,11.2,7.3,12.6,11.6l49.3,0.5c3.6,0,6.7,0.3,9.4,0.9c2.8,0.6,4.1,1.3,4.1,2.1l0,4.1l-63.3-0.6c-2.2,5-7.9,9.5-17,13.6
						c-9.1,4.1-20.6,7.7-34.7,10.7l-23.1-3.2c-2.1-0.3-3.8-0.7-5.1-1.2c-1.3-0.5-2-1-2-1.6c0-0.8,1.8-1.7,5.3-2.7
						c3.6-1,7.6-2.2,12.1-3.7c4.5-1.5,8.9-3.2,13.2-5.2c4.3-2,7.2-4.4,8.7-7.2l-149.5-1.5c-3.9,2.9-8.4,5.7-13.2,8.5
						c-4.9,2.8-11.3,5.3-19.4,7.5c-8.1,2.2-18.1,4-30.1,5.4c-12,1.4-27.1,2.1-45.4,2.2c-13.7,0.1-27-0.5-40.1-1.6
						c-13.1-1.1-24.7-2.8-34.8-5c-10.1-2.2-18.4-4.9-25-8.2c-6.5-3.2-10.1-7-10.9-11.2l-40.6-0.4c-3.6,0-6.7-0.3-9.6-0.8
						c-2.8-0.5-4.2-1.3-4.2-2.2l0-4.1l55.5,0.5c2.5-4.3,7.5-8,15.2-11.2c7.7-3.2,17.1-6,28.1-8.5l18.6,2.6c5.6,0.8,8.4,1.7,8.4,2.8
						c0,0.6-1.1,1.3-3.5,2.1c-2.4,0.9-5.1,1.9-8.3,3.1c-3.2,1.2-6.3,2.6-9.2,4.2c-3,1.6-5.3,3.4-6.8,5.4L563.9,2621.1z
						 M427.1,2626.7c1.1,2.7,3.6,4.9,7.4,6.9c3.8,1.9,8.5,3.5,14.1,4.8c5.6,1.2,12,2.2,19,2.7c7.1,0.6,14.4,0.9,22.1,0.8
						c9,0,16.8-0.4,23.5-1.2c6.6-0.7,12.5-1.7,17.6-3c5-1.3,9.5-2.7,13.2-4.4c3.7-1.7,7.1-3.5,10.1-5.4L427.1,2626.7z M752.6,2623.1
						c-1.1-2.7-3.8-5.1-8.1-7.1c-4.2-2-9.6-3.7-16.2-5.1c-6.6-1.4-14.2-2.4-23-3.1c-8.7-0.7-18.3-1-28.9-0.9
						c-9.3,0-17.5,0.5-24.2,1.3c-6.7,0.8-12.6,1.9-17.6,3.2c-4.9,1.3-9.2,2.9-12.6,4.7c-3.5,1.8-6.7,3.7-9.7,5.7L752.6,2623.1z"/>
				</g>
				
					<linearGradient id="SVGID_00000137090300943512946370000012069102500843656335_" gradientUnits="userSpaceOnUse" x1="1055.292" y1="1444.0016" x2="1071.5364" y2="1579.9906" gradientTransform="matrix(-1 0 0 -1 1669.249 4127.8389)">
					<stop  offset="3.597120e-03" style="stop-color:#F36F56"/>
					<stop  offset="0.3059" style="stop-color:#F99C4C"/>
					<stop  offset="0.545" style="stop-color:#FDB946"/>
					<stop  offset="0.6817" style="stop-color:#FFC444"/>
					<stop  offset="0.8038" style="stop-color:#FFC244"/>
					<stop  offset="0.8667" style="stop-color:#FEBA46"/>
					<stop  offset="0.916" style="stop-color:#FCAD49"/>
					<stop  offset="0.958" style="stop-color:#F99A4D"/>
					<stop  offset="0.9955" style="stop-color:#F58152"/>
					<stop  offset="1" style="stop-color:#F57E53"/>
				</linearGradient>
				<path style="fill:url(#SVGID_00000137090300943512946370000012069102500843656335_);" d="M605.4,2567.3
					c-195.1,0-398.3,17.2-430.8,50.4c1.3,1.2,2.5,2.4,3.6,3.7c27.4-23.1,195.1-46.3,427.2-46.3c238,0,408.5,24.4,429.1,48.1
					c1-1.3,2.1-2.5,3.3-3.7C1010.9,2585.1,803.9,2567.3,605.4,2567.3z"/>
			</g>
		</g>
		<g>
			
				<linearGradient id="SVGID_00000119809694163739141040000004567525619539274147_" gradientUnits="userSpaceOnUse" x1="734.1972" y1="3226.3435" x2="287.9789" y2="3369.5486">
				<stop  offset="0" style="stop-color:#FCB148"/>
				<stop  offset="5.207239e-02" style="stop-color:#FDBA46"/>
				<stop  offset="0.1424" style="stop-color:#FFC244"/>
				<stop  offset="0.3183" style="stop-color:#FFC444"/>
				<stop  offset="0.4849" style="stop-color:#FDB946"/>
				<stop  offset="0.7754" style="stop-color:#F99C4D"/>
				<stop  offset="0.8658" style="stop-color:#F8924F"/>
				<stop  offset="1" style="stop-color:#F8924F"/>
			</linearGradient>
			<path style="fill:url(#SVGID_00000119809694163739141040000004567525619539274147_);" d="M1247.9,3210.2
				c0,207-161.9,369.8-368.7,363.5c-215.3-6.6-396.4-192.6-396.4-415.1c0-222.5,181.1-384,396.4-361.6
				C1086,2818.5,1247.9,3003.1,1247.9,3210.2z"/>
			
				<linearGradient id="SVGID_00000103241301500945612510000014942203832570602885_" gradientUnits="userSpaceOnUse" x1="1095.1614" y1="2782.1777" x2="696.8055" y2="3661.0249">
				<stop  offset="0" style="stop-color:#FFDB44"/>
				<stop  offset="1" style="stop-color:#FEEF06"/>
			</linearGradient>
			<path style="fill:url(#SVGID_00000103241301500945612510000014942203832570602885_);" d="M1303.8,3192.3
				c0,207-161.9,369.8-368.7,363.5c-215.3-6.6-396.4-192.6-396.4-415.1s181.1-384,396.4-361.6
				C1141.9,2800.6,1303.8,2985.3,1303.8,3192.3z"/>
			
				<linearGradient id="SVGID_00000066507297799711092300000004809854496152675715_" gradientUnits="userSpaceOnUse" x1="1021.8838" y1="3710.144" x2="945.0202" y2="3290.2412">
				<stop  offset="0" style="stop-color:#FCB148"/>
				<stop  offset="5.207239e-02" style="stop-color:#FDBA46"/>
				<stop  offset="0.1424" style="stop-color:#FFC244"/>
				<stop  offset="0.3183" style="stop-color:#FFC444"/>
				<stop  offset="0.4849" style="stop-color:#FDB946"/>
				<stop  offset="0.7754" style="stop-color:#F99C4D"/>
				<stop  offset="0.8658" style="stop-color:#F8924F"/>
				<stop  offset="1" style="stop-color:#F8924F"/>
			</linearGradient>
			<path style="fill:url(#SVGID_00000066507297799711092300000004809854496152675715_);" d="M1287.6,3191.2
				c0,197.9-154.9,353.3-352.5,346.9c-205.3-6.6-377.7-184.1-377.7-396.1c0-212,172.4-366.2,377.7-345.2
				C1132.7,2817,1287.6,2993.3,1287.6,3191.2z"/>
			
				<linearGradient id="SVGID_00000165952973930512424780000001279753134077406137_" gradientUnits="userSpaceOnUse" x1="858.9189" y1="3030.4851" x2="1175.684" y2="3702.9167">
				<stop  offset="0" style="stop-color:#FCB148"/>
				<stop  offset="5.207239e-02" style="stop-color:#FDBA46"/>
				<stop  offset="0.1424" style="stop-color:#FFC244"/>
				<stop  offset="0.3183" style="stop-color:#FFC444"/>
				<stop  offset="0.4849" style="stop-color:#FDB946"/>
				<stop  offset="0.7754" style="stop-color:#F99C4D"/>
				<stop  offset="0.8658" style="stop-color:#F8924F"/>
				<stop  offset="1" style="stop-color:#F8924F"/>
			</linearGradient>
			<path style="fill:url(#SVGID_00000165952973930512424780000001279753134077406137_);" d="M1275.9,3190.4
				c0,191.4-149.9,341.5-340.9,335c-198.2-6.7-364.4-178-364.4-382.6c0-204.5,166.2-353.5,364.4-333.5
				C1126.1,2828.8,1275.9,2999.1,1275.9,3190.4z"/>
			<g>
				
					<linearGradient id="SVGID_00000086664620999167149620000008775281691296409487_" gradientUnits="userSpaceOnUse" x1="846.2986" y1="2885.7871" x2="1005.5789" y2="3482.7417">
					<stop  offset="0" style="stop-color:#FFDB44"/>
					<stop  offset="1" style="stop-color:#FEEF06"/>
				</linearGradient>
				<path style="fill:url(#SVGID_00000086664620999167149620000008775281691296409487_);" d="M933.1,2874.5L933.1,2874.5
					c10.2,1,18.4,10.1,18.4,20.4v35.2c20.3,2.3,40.7,5.8,61.1,10.6c15,3.5,30,7.7,44.8,12.6c8.9,2.9,14.9,11.9,14,21.1l-4.3,44.2
					c-1.1,11.7-12.7,18.6-23.6,13.7c-9.8-4.4-19.8-8.1-30-11.2c-17.9-5.4-36.8-9-56.7-10.6l-5.2-0.4v100.9
					c53,14.8,92,34.8,117.1,59.9c25,25,37.5,56.1,37.5,93.5c0,40.4-13.8,72.8-41.5,97.2c-27.8,24.5-66.9,38.3-117.4,41.3v38.9
					c0,10.3-8.2,18.4-18.4,18l-0.3,0c-10.2-0.4-18.5-9.1-18.5-19.5v-38.4l-8.2-0.4c-23.7-1.1-46.3-3.5-68-7.2
					c-16-2.8-31.7-6.4-47-10.8c-9.2-2.7-15.6-11.5-14.7-20.9l5.1-56.8c1.1-12.3,13.4-19.4,25.1-14.8c13.6,5.4,27.4,9.9,41.3,13.6
					c21.7,5.7,43.8,9.4,66.1,11l0.3-112.2c-50.9-12.6-89-31.2-114-56c-25.2-24.8-37.8-56.6-37.8-95.2c0-40,13.7-70.8,41-92.5
					c27.1-21.5,65.7-32.3,115.4-32.2v-36C914.6,2881.2,922.9,2873.5,933.1,2874.5z M914.6,3009.2c-15.7,1.1-28,5.5-36.8,13
					c-8.8,7.5-13.2,17.6-13.2,30.3c0,12,4.1,22,12.2,30.1c8.1,8,20.7,14.5,37.8,19.3V3009.2z M947.3,3212.4v102.9
					c17.1,0,30.2-4.1,39.4-12.2c9.1-8.2,13.7-19.7,13.7-34.6c0-13.6-4.2-24.9-12.7-33.9C979.1,3225.6,965.6,3218.2,947.3,3212.4z"/>
			</g>
			
				<linearGradient id="SVGID_00000029006742400492416350000017506389961822442393_" gradientUnits="userSpaceOnUse" x1="765.7279" y1="3074.0015" x2="1081.8536" y2="3745.0762">
				<stop  offset="0" style="stop-color:#FCB148"/>
				<stop  offset="5.207239e-02" style="stop-color:#FDBA46"/>
				<stop  offset="0.1424" style="stop-color:#FFC244"/>
				<stop  offset="0.3183" style="stop-color:#FFC444"/>
				<stop  offset="0.4849" style="stop-color:#FDB946"/>
				<stop  offset="0.7754" style="stop-color:#F99C4D"/>
				<stop  offset="0.8658" style="stop-color:#F8924F"/>
				<stop  offset="1" style="stop-color:#F8924F"/>
			</linearGradient>
			<path style="opacity:0.3;fill:url(#SVGID_00000029006742400492416350000017506389961822442393_);" d="M873.4,3237.3
				c11.5-113.8,116.1-161.9,102.4-266.5c-8.4-64.5-57.3-118.8-111.8-161.3c-165.4,17.3-293.3,154.3-293.3,333.4
				c0,204.5,166.2,375.9,364.4,382.6c19.2,0.6,38-0.4,56.3-2.7C912.6,3444.4,863.5,3335,873.4,3237.3z"/>
		</g>
	</g>
	<g>
		
			<linearGradient id="SVGID_00000004513981600948360540000015493896009497175466_" gradientUnits="userSpaceOnUse" x1="-621.1733" y1="1670.5693" x2="295.7716" y2="2293.3992" gradientTransform="matrix(-1 0 0 1 230.2854 0)">
			<stop  offset="0" style="stop-color:#311944"/>
			<stop  offset="1" style="stop-color:#6B3976"/>
		</linearGradient>
		<path style="fill:url(#SVGID_00000004513981600948360540000015493896009497175466_);" d="M801.1,2001.9
			c17.2-11.2,1.5-43.7,0.6-113.6c-1.1-85.6,21.6-101.6,3.3-135.2c-22.3-41.1-78.6-58.1-115.8-58.9c-8.2-0.2-10.1-4.7-79,13.2
			c-124,32.1-155.1-2.3-210.6,32.1c-53.7,33.2-30.2,69.6-82.3,108.6c-84.5,63.2-173.3-5.1-233.6,47.7c-57.1,50-58.4,177.3,1.6,246.8
			c68.1,78.8,190.8,55.1,273.1,39.5c17.3-3.3,104.8-21.6,195.8-88.8c50.4-37.2,84.9-76.9,106.9-106.1c5.2-5.8,13.2-12.9,23.9-14
			c12.8-1.4,23,6.4,28,9.9C739,2000.9,784.1,2012.8,801.1,2001.9z"/>
		
			<linearGradient id="SVGID_00000034074105652625929070000014055662957342904246_" gradientUnits="userSpaceOnUse" x1="1187.0397" y1="3849.6643" x2="861.9254" y2="1648.3666">
			<stop  offset="0" style="stop-color:#FF9085"/>
			<stop  offset="1" style="stop-color:#FB6FBB"/>
		</linearGradient>
		<path style="fill:url(#SVGID_00000034074105652625929070000014055662957342904246_);" d="M731.8,1954.9
			c22.2-20.2,101.3,18.7,153.8,70.4c61.6,60.7,56.9,110,110.7,185.4c26.7,37.5,72.6,88,153.8,132.2c-5.7,14.4-11.5,28.7-17.2,43.1
			c-39.3,2.4-116.4,1-188.3-46c-50-32.6-75.7-75.9-125-161C769.9,2093.7,704,1980.2,731.8,1954.9z"/>
		
			<linearGradient id="SVGID_00000118357907908732608600000001719833989058539196_" gradientUnits="userSpaceOnUse" x1="-1026.6954" y1="3109.9661" x2="-903.2048" y2="3109.9661" gradientTransform="matrix(-1 0 0 1 230.2854 0)">
			<stop  offset="0" style="stop-color:#311944"/>
			<stop  offset="1" style="stop-color:#6B3976"/>
		</linearGradient>
		<path style="fill:url(#SVGID_00000118357907908732608600000001719833989058539196_);" d="M1231.7,3109.9l-61.8-37.1H1142
			c0,0-9.5,35.4-8.4,37.1c12.4,20.4,70.3,35.8,106.4,37.1c6,0.2,14.4,0.2,16.5-4.1C1260.1,3135.6,1243.8,3120.2,1231.7,3109.9z"/>
		
			<linearGradient id="SVGID_00000154384759201037496960000007622462565549664188_" gradientUnits="userSpaceOnUse" x1="-968.4565" y1="3158.6331" x2="-784.2193" y2="2605.9197" gradientTransform="matrix(-1 0 0 1 230.2854 0)">
			<stop  offset="0" style="stop-color:#FFC444"/>
			<stop  offset="0.9964" style="stop-color:#F36F56"/>
		</linearGradient>
		<path style="fill:url(#SVGID_00000154384759201037496960000007622462565549664188_);" d="M1168.8,3032.3c-4,23,1.1,35,6.5,41.7
			c3.8,4.7,7.2,6.1,29.8,25.6c7.5,6.5,11.3,9.9,10.4,11.7c-1,2.1-7.6,0.9-21.8-2.5c-31.1-7.5-46.7-11.4-50.5-18.8
			c-3.5-6.8-0.4-9.8-0.6-28.3c-0.1-12.1-2.6-21.9-4.5-28C1148.3,3033.2,1158.5,3032.8,1168.8,3032.3z"/>
		
			<linearGradient id="SVGID_00000000198414960439139630000007044213193146613124_" gradientUnits="userSpaceOnUse" x1="-1007.0391" y1="2883.2202" x2="-931.516" y2="2883.2202" gradientTransform="matrix(-1 0 0 1 230.2854 0)">
			<stop  offset="0" style="stop-color:#311944"/>
			<stop  offset="1" style="stop-color:#6B3976"/>
		</linearGradient>
		<path style="fill:url(#SVGID_00000000198414960439139630000007044213193146613124_);" d="M1213.5,2850.1c0,0,27.9,33.3,23.4,69.8
			c-4.5,36.5-53.4-16.9-60.2-34.9c-6.8-18-14.8-43.7-14.8-43.7S1196.1,2820,1213.5,2850.1z"/>
		
			<linearGradient id="SVGID_00000067937903324010561760000015948190169903539628_" gradientUnits="userSpaceOnUse" x1="-1050.8099" y1="3090.5928" x2="-927.4888" y2="2720.6282" gradientTransform="matrix(-1 0 0 1 230.2854 0)">
			<stop  offset="0" style="stop-color:#FFC444"/>
			<stop  offset="0.9964" style="stop-color:#F36F56"/>
		</linearGradient>
		<path style="fill:url(#SVGID_00000067937903324010561760000015948190169903539628_);" d="M1202.8,2798c0,0-7.6,38.8,6.9,59.3
			c7.2,10.2,16.9,18.9,14,27.2c-1.9,5.6-9.2,9.6-15.3,8.9c-11.8-1.2-18.3-19.3-22.9-32c-6.8-18.8-10.6-59.1-10.6-59.1L1202.8,2798z"
			/>
		
			<linearGradient id="SVGID_00000168837188577907572860000001849750538058836659_" gradientUnits="userSpaceOnUse" x1="-898.8553" y1="2467.2915" x2="-806.8737" y2="2999.0615" gradientTransform="matrix(-1 0 0 1 230.2854 0)">
			<stop  offset="0" style="stop-color:#AB316D"/>
			<stop  offset="1" style="stop-color:#792D3D"/>
		</linearGradient>
		<path style="fill:url(#SVGID_00000168837188577907572860000001849750538058836659_);" d="M1180.6,2830.7
			c8.6-3.1,17.2-6.3,25.8-9.4c13.4-30.6,29.7-80.8,24.3-141.9c-14-157.1-159.3-240.3-175.4-249.2c-39.6,19.9-79.7,47.9-81.1,83.2
			c-1.8,44.3,58.6,67.8,115.3,132.6C1123.5,2684.9,1159.9,2742.9,1180.6,2830.7z"/>
		
			<linearGradient id="SVGID_00000031916327805689802060000015652184915655748235_" gradientUnits="userSpaceOnUse" x1="-768.9554" y1="3097.5166" x2="-638.1682" y2="2683.5967" gradientTransform="matrix(-1 0 0 1 230.2854 0)">
			<stop  offset="0" style="stop-color:#AB316D"/>
			<stop  offset="1" style="stop-color:#792D3D"/>
		</linearGradient>
		<path style="fill:url(#SVGID_00000031916327805689802060000015652184915655748235_);" d="M1171.3,3050.3
			c28.4-110.8,21.1-201.2,12.9-253.3c-12.4-78.7-37.5-238.9-144.4-298.6c-23.3-13-56.7-24.7-97.4-61c-34-30.3-55.6-62.1-68.6-84.5
			c-143-41.9-274.9-24.9-333.1,51.7c-6.7,8.9-23.6,28.1-26.8,56.4c-7.3,63.9,55.5,140.9,126,157c89.6,20.4,141.6-71.6,221-41
			c22.2,8.6,41,29.8,78.7,72.2c47.9,54,74.8,103.8,85,123.7c30.3,59.4,53.3,103.2,56.7,160c0.8,13.2,1.2,40,16.7,68.8
			c11.9,22.1,28,36.9,40,46C1149.1,3048.6,1160.2,3049.4,1171.3,3050.3z"/>
		
			<linearGradient id="SVGID_00000169538340804009769020000010147225484852871075_" gradientUnits="userSpaceOnUse" x1="-768.9439" y1="3097.5212" x2="-638.1566" y2="2683.6011" gradientTransform="matrix(-1 0 0 1 230.2854 0)">
			<stop  offset="0" style="stop-color:#AB316D"/>
			<stop  offset="1" style="stop-color:#792D3D"/>
		</linearGradient>
		<path style="opacity:0.3;fill:url(#SVGID_00000169538340804009769020000010147225484852871075_);" d="M513.9,2461
			c3.3-28.3,20.1-47.6,26.8-56.4c58.2-76.7,190.1-93.7,333.1-51.7c13,22.4,34.6,54.3,68.6,84.5c40.7,36.3,74.1,47.9,97.4,61
			c65.3,36.5,100.1,110.4,120.1,180.3c-29.7-46.1-55.1-58.3-74.8-58.5c-28.2-0.3-40.7,23.8-74.4,20.5c-35.9-3.5-44.2-33.2-73.3-36.6
			c-8.7-1-19.5,0.3-32.3,7.2c-17.2-18-30-28.7-44.2-34.1c-79.4-30.6-131.4,61.4-221,41C569.4,2601.9,506.6,2525,513.9,2461z"/>
		
			<linearGradient id="SVGID_00000170244617762578833460000004934024935306206625_" gradientUnits="userSpaceOnUse" x1="-584.9081" y1="2413.6206" x2="-493.1383" y2="2944.1653" gradientTransform="matrix(-1 0 0 1 230.2854 0)">
			<stop  offset="0" style="stop-color:#AB316D"/>
			<stop  offset="1" style="stop-color:#792D3D"/>
		</linearGradient>
		<path style="fill:url(#SVGID_00000170244617762578833460000004934024935306206625_);" d="M1097.2,2547.9
			c-16.2-0.9-41.1-1.4-71.2,1.6c-142.7,14.1-182,84.7-299.9,101.9c-27.9,4.1-152.1,22.2-205.9-49.6c-38.6-51.5-32.8-140.4,9.5-175.3
			c17.9-14.8,35.6-14.4,150.1-13.3c43.1,0.4,86.2,0.5,129.4,1.1c182.5,2.3,217.4-10.3,250.6,19.9
			C1075.2,2448.2,1097.9,2478.5,1097.2,2547.9z"/>
		<g>
			<g>
				
					<linearGradient id="SVGID_00000083775378168978661970000002294824905504848545_" gradientUnits="userSpaceOnUse" x1="937.8497" y1="3886.4702" x2="612.7352" y2="1685.1711">
					<stop  offset="0" style="stop-color:#FF9085"/>
					<stop  offset="1" style="stop-color:#FB6FBB"/>
				</linearGradient>
				<path style="fill:url(#SVGID_00000083775378168978661970000002294824905504848545_);" d="M920.2,2362.7c0,0-90.5,17.7-186,34.7
					c-108,19.2-222.4,37.5-219.4,28.2c30.9-94.9-0.1-157.2-22.4-227.4c-13.3-41.7-23.5-86.2-15.6-142
					c22.1-155.9,235.1-93.8,235.1-93.8c69,2.8,76.6,10.1,82.9,17.1c44.2,48.8,56.4,105.6,56.4,105.6c11,50.9-1.4,70.4,0,113.5
					C852.6,2237.7,865.3,2294.2,920.2,2362.7z"/>
			</g>
			
				<linearGradient id="SVGID_00000014613459036302939290000016193123289600535983_" gradientUnits="userSpaceOnUse" x1="959.3776" y1="3883.2903" x2="634.2633" y2="1681.9926">
				<stop  offset="0" style="stop-color:#FF9085"/>
				<stop  offset="1" style="stop-color:#FB6FBB"/>
			</linearGradient>
			<path style="fill:url(#SVGID_00000014613459036302939290000016193123289600535983_);" d="M575.1,2391.1
				c0,0,199.8-53.5,318.9-60.1L575.1,2391.1z"/>
		</g>
		<g>
			
				<linearGradient id="SVGID_00000131354523103337496440000002581515417888785588_" gradientUnits="userSpaceOnUse" x1="2564.4314" y1="1884.0394" x2="2573.8032" y2="1634.4081" gradientTransform="matrix(0.984 0.1784 -0.1784 0.984 -1518.1509 -244.2395)">
				<stop  offset="0" style="stop-color:#FFC444"/>
				<stop  offset="0.9964" style="stop-color:#F36F56"/>
			</linearGradient>
			<path style="fill:url(#SVGID_00000131354523103337496440000002581515417888785588_);" d="M665.7,1868.9c2,9.1,11.9,58-8.1,70.6
				c-4.3,2.7-12.7,4.3-29.3,7.4c-10.9,2-20.1,3.3-26.5,4.1c0.9,8.2,3.7,21.6,13.2,33.7c26.5,34,79.7,25.2,87.3,23.8
				c26.8-4.9,53.1-13.1,59.5-18.2c9.7-7.7,17.3-13.5,21.8-19.3c-10.4-5-31.3-18.2-45.3-22.5c-10.5-3.2-20.3-5.5-29.3-7.2
				c-1.5-9.4-2.9-18.9-4.4-28.3C691.5,1898.3,678.6,1883.6,665.7,1868.9z"/>
			
				<linearGradient id="SVGID_00000108997519089589134830000009811378642381455781_" gradientUnits="userSpaceOnUse" x1="2561.5068" y1="1663.6642" x2="2557.4954" y2="1986.8711" gradientTransform="matrix(0.984 0.1784 -0.1784 0.984 -1518.1509 -244.2395)">
				<stop  offset="0" style="stop-color:#FFC444"/>
				<stop  offset="0.9964" style="stop-color:#F36F56"/>
			</linearGradient>
			<path style="fill:url(#SVGID_00000108997519089589134830000009811378642381455781_);" d="M664.7,1893.3c0,0,3.6,35.8,38.5,42.2
				c31.2,5.7,54.7-69.7,38.7-89.2c-5.3-6.5-18.5-12.7-29.9-12.4c-8,0.2-35.1,10.5-38.9,37.6c-5.4-5.7-12.1-7.3-15.4-4.9
				c-4.2,3-2,11.8-1.4,13.8C658.1,1887.2,662.6,1891.5,664.7,1893.3z"/>
		</g>
		<g>
			
				<linearGradient id="SVGID_00000181054383255927298540000012093842972223370649_" gradientUnits="userSpaceOnUse" x1="767.9338" y1="2406.6902" x2="1124.2157" y2="2406.6902" gradientTransform="matrix(-1 0 0 1 1740.2787 0)">
				<stop  offset="0" style="stop-color:#40447E"/>
				<stop  offset="0.9964" style="stop-color:#3C3B6B"/>
			</linearGradient>
			<path style="fill:url(#SVGID_00000181054383255927298540000012093842972223370649_);" d="M963.6,2380.2l-326,15.9
				c-4.5,0.2-8.6,2.6-11,6.4l-9,14.5c-4.5,7.2,0.9,16.5,9.4,16.2l345.3-13.2L963.6,2380.2z"/>
			
				<linearGradient id="SVGID_00000013909096150245736190000014044139042576329613_" gradientUnits="userSpaceOnUse" x1="540.0915" y1="2181.946" x2="773.6797" y2="2413.6655" gradientTransform="matrix(-1 0 0 1 1740.2787 0)">
				<stop  offset="0" style="stop-color:#40447E"/>
				<stop  offset="0.9964" style="stop-color:#3C3B6B"/>
			</linearGradient>
			<path style="fill:url(#SVGID_00000013909096150245736190000014044139042576329613_);" d="M1302.6,2198.7l-336.8,6.5
				c-10,0.2-19.1,5.6-24,14.3l-116.6,205.2l355.7-14.2c9.8-0.4,18.7-5.7,23.7-14.1l108-180.5
				C1317.3,2208.3,1311.6,2198.5,1302.6,2198.7z"/>
			
				<linearGradient id="SVGID_00000098936202180332237910000013199786636340811159_" gradientUnits="userSpaceOnUse" x1="540.0921" y1="2181.946" x2="773.6804" y2="2413.6658" gradientTransform="matrix(-1 0 0 1 1740.2787 0)">
				<stop  offset="0" style="stop-color:#40447E"/>
				<stop  offset="0.9964" style="stop-color:#3C3B6B"/>
			</linearGradient>
			<path style="opacity:0.3;fill:url(#SVGID_00000098936202180332237910000013199786636340811159_);" d="M941.9,2219.5
				c4.9-8.7,14-14.1,24-14.3l7.4-0.1c1.1,10.9,4.4,20.8,11.1,28.8c20.8,25.1,55.3,9.6,81,36.1c28.2,29.1,2.2,63.8,27.4,90.9
				c26.6,28.5,69.6,5.3,119,23.6l-7.1,11.9c-5,8.4-13.9,13.7-23.7,14.1l-355.7,14.2L941.9,2219.5z"/>
		</g>
		
			<linearGradient id="SVGID_00000065052737691268970120000013030501615496246913_" gradientUnits="userSpaceOnUse" x1="634.0211" y1="2084.3486" x2="579.5874" y2="2645.0176">
			<stop  offset="3.597120e-03" style="stop-color:#E38DDD"/>
			<stop  offset="1" style="stop-color:#9571F6"/>
		</linearGradient>
		<path style="opacity:0.3;fill:url(#SVGID_00000065052737691268970120000013030501615496246913_);" d="M734.2,2397.4
			c-108,19.2-222.4,37.5-219.4,28.2c30.9-94.9-0.1-157.2-22.4-227.4l5.8-36.1c0,0,40.2,17.3,50,58.7c9.8,41.4-0.8,72.3,39.2,78.3
			c25.4,3.8,79.3,29.9,115.9,61.7c1.9,1.7,3.9,3.4,5.7,5.2C719.8,2376.1,728.7,2386.8,734.2,2397.4z"/>
		<g>
			
				<linearGradient id="SVGID_00000043442289557350752140000009835552886389009570_" gradientUnits="userSpaceOnUse" x1="734.7487" y1="3916.4688" x2="409.6339" y2="1715.1685">
				<stop  offset="0" style="stop-color:#FF9085"/>
				<stop  offset="1" style="stop-color:#FB6FBB"/>
			</linearGradient>
			<path style="fill:url(#SVGID_00000043442289557350752140000009835552886389009570_);" d="M664.2,2369.3
				c4.2-11.2,8.5-22.4,12.7-33.6c-46.9-12.9-111.7-31.9-178.3-55.6c-10.4-3.7-22.8-8.3-26.8-19.3c-11.4-30.8,60.9-62.6,89-129.8
				c26-62.1,11.7-148.3-18.5-158.5c-62.8-21.2-285.4,255.9-205.9,372.8C381.4,2411.4,520,2421.9,664.2,2369.3z"/>
		</g>
		
			<linearGradient id="SVGID_00000036251026805219955570000001478215882026879402_" gradientUnits="userSpaceOnUse" x1="749.2245" y1="2336.4351" x2="630.7891" y2="2448.0454">
			<stop  offset="0" style="stop-color:#FFC444"/>
			<stop  offset="0.9964" style="stop-color:#F36F56"/>
		</linearGradient>
		<path style="fill:url(#SVGID_00000036251026805219955570000001478215882026879402_);" d="M676.9,2335.7
			c29.4-15.6,64.7,0.4,66.9,1.5c6.5,3.1,15.9,8.5,25.4,18.2c1.1,1.5,13.8,19.2,9.2,24.8c-3.7,4.5-18.2,0.8-35.5-10
			c-7.3-1-18.1-2-31.1-0.8c-23.8,2.2-34.7,9.7-43.4,3.2c-6.3-4.8-8.5-14.8-6.2-22.3C664.7,2342.3,672,2338.4,676.9,2335.7z"/>
	</g>
</g>
</svg>
