<?xml version="1.0" encoding="utf-8"?>
<!-- Generator: Adobe Illustrator 26.0.1, SVG Export Plug-In . SVG Version: 6.00 Build 0)  -->
<svg version="1.1" xmlns="http://www.w3.org/2000/svg" xmlns:xlink="http://www.w3.org/1999/xlink" x="0px" y="0px"
	 viewBox="0 0 3710 3710" style="enable-background:new 0 0 3710 3710;" xml:space="preserve">
<style type="text/css">
	.st0{opacity:0.3;}
	.st1{fill:url(#SVGID_1_);}
	.st2{fill:url(#SVGID_00000084504984321369365240000003760923965235956152_);}
	.st3{fill:url(#SVGID_00000183240751764513667990000004927376930438209215_);}
	.st4{fill:#D8DEE8;}
	.st5{fill:url(#SVGID_00000138531150246648599860000013005900604892538772_);}
	.st6{opacity:0.5;fill:#FFFFFF;}
	.st7{fill:url(#SVGID_00000114773160165978598260000001572280088611782335_);}
	.st8{fill:url(#SVGID_00000049938657821860186870000013562250395575898815_);}
	.st9{fill:url(#SVGID_00000091004534736038686860000017059451131607764144_);}
	.st10{clip-path:url(#SVGID_00000011032936207804502230000006065336112648570022_);}
	.st11{fill:url(#SVGID_00000160869258633904535050000018100573026796441253_);}
	.st12{fill:url(#SVGID_00000025415913959972608370000004297225001994024875_);}
	.st13{fill:url(#SVGID_00000032606682543827050940000001621759223548600461_);}
	.st14{fill:url(#SVGID_00000060737833305952151920000010668213240415698601_);}
	.st15{fill:url(#SVGID_00000034797252257088401610000008633998948232331434_);}
	.st16{opacity:0.3;fill:url(#SVGID_00000151544034940359487680000003201698190888970901_);}
	.st17{fill:url(#SVGID_00000109028520642065780090000006928883938522226849_);}
	.st18{fill:url(#SVGID_00000062877245683663869860000005772562136135256250_);}
	.st19{fill:url(#SVGID_00000015330018467356114410000015076880386316562567_);}
	.st20{fill:url(#SVGID_00000019661247791100120250000008683409345257106359_);}
	.st21{fill:url(#SVGID_00000019675090250081660080000002432171010689205681_);}
	.st22{opacity:0.5;fill:url(#SVGID_00000126295786452382774170000011913724190744053146_);}
	.st23{fill:url(#SVGID_00000145747885289696816000000006531661900844736157_);}
	.st24{fill:url(#SVGID_00000134943979504149770810000013683564200400399295_);}
	.st25{fill:url(#SVGID_00000105389638696825284660000001147314191224231340_);}
	.st26{fill:url(#SVGID_00000036248188557303260950000001649839496960774531_);}
	.st27{fill:url(#SVGID_00000093870789930086596880000002336741112800050083_);}
	.st28{fill:url(#SVGID_00000054975925792431961150000016720047736569794440_);}
	.st29{fill:url(#SVGID_00000116921689224384060490000014667924760900764302_);}
	.st30{fill:url(#SVGID_00000057853266099614378210000013671196881530243741_);}
	.st31{clip-path:url(#SVGID_00000060718659698822748520000017127441516288499899_);}
	.st32{fill:url(#SVGID_00000079455262251651024240000016738513572793212591_);}
	.st33{fill:url(#SVGID_00000053527639725365735500000012939445260723532182_);}
	.st34{fill:url(#SVGID_00000135671104203107795740000010730729955274632110_);}
	.st35{fill:url(#SVGID_00000004520454498833342800000013386151670935695009_);}
	.st36{fill:url(#SVGID_00000173871502075002839850000005876595740531063462_);}
	.st37{opacity:0.3;fill:url(#SVGID_00000059306188360931113660000012837357957436324272_);}
	.st38{fill:url(#SVGID_00000031911238627290782950000014312796650124190850_);}
	.st39{fill:url(#SVGID_00000075873617520067988800000014079537871273107074_);}
	.st40{fill:url(#SVGID_00000099620442271814449540000002044332572394043536_);}
	.st41{fill:url(#SVGID_00000179630630439088697900000009062362151160110522_);}
	.st42{fill:url(#SVGID_00000047056155673529596630000016789317907122821524_);}
	.st43{fill:url(#SVGID_00000144305331847336605650000017000789719279424397_);}
	.st44{fill:url(#SVGID_00000005229207911543504960000005950650241259933621_);}
	.st45{fill:url(#SVGID_00000046304001615576987860000014263673917139322296_);}
	.st46{opacity:0.4;fill:url(#SVGID_00000101805066741881390570000013795508739411924630_);}
	.st47{fill:url(#SVGID_00000079456253420762205250000000589802668445839755_);}
	.st48{fill:url(#SVGID_00000183945823676027430150000011522663860644301974_);}
	.st49{fill:url(#SVGID_00000068636611425320331030000013313535383917503414_);}
	.st50{fill:url(#SVGID_00000162317994868387744220000011755106792046862515_);}
	.st51{fill:url(#SVGID_00000071550363300547205450000010538901150049241507_);}
	.st52{fill:url(#SVGID_00000006708125442487276280000015577999064817230510_);}
	.st53{fill:url(#SVGID_00000153680482340682209660000010630897966163463087_);}
	.st54{opacity:0.3;fill:url(#SVGID_00000116932817837589347650000012654742414716338065_);}
	.st55{fill:url(#SVGID_00000140733121855192849510000011082843939105260214_);}
	.st56{fill:url(#SVGID_00000157269897921497030860000001567276131101228991_);}
	.st57{fill:url(#SVGID_00000160890964767745244030000004383160343112427420_);}
	.st58{fill:url(#SVGID_00000047769949418834105740000009994971800635819922_);}
	.st59{fill:url(#SVGID_00000098178610064582335730000002412715685900155826_);}
	.st60{fill:#FCB048;}
	.st61{fill:url(#SVGID_00000014633107107085721490000002506592421040817850_);}
	.st62{fill:url(#SVGID_00000058566183215328953770000008504394773006574261_);}
	.st63{fill:url(#SVGID_00000079462380327076145020000003767340748737834391_);}
	.st64{fill:url(#SVGID_00000092439378058018335180000016873986911917936054_);}
	.st65{fill:url(#SVGID_00000156579453315463608830000015907389152738930321_);}
	.st66{fill:url(#SVGID_00000093860150767134658750000008459374098838302630_);}
	.st67{fill:url(#SVGID_00000170997669969351307840000015443117040835268268_);}
	.st68{fill:url(#SVGID_00000088813007268264724830000014055717001455057043_);}
	.st69{fill:url(#SVGID_00000176011598209705217120000005121453896675260320_);}
	.st70{fill:url(#SVGID_00000109747744416766140310000013739113039873850556_);}
	.st71{fill:url(#SVGID_00000003073865991551242510000009301461865470147994_);}
	.st72{fill:url(#SVGID_00000170258096106871088270000014820551225159798166_);}
	.st73{fill:url(#SVGID_00000097465626583506025420000000613520982077651843_);}
	.st74{fill:url(#SVGID_00000016763868221140428670000009199306944087150236_);}
	.st75{fill:url(#SVGID_00000014617871712704812090000016558264692693430413_);}
	.st76{fill:url(#SVGID_00000006707069405745614220000013472026323737798838_);}
	.st77{fill:url(#SVGID_00000062892327673006269370000013543976102304996260_);}
	.st78{fill:url(#SVGID_00000093178337863808189790000014339170224161866411_);}
	.st79{fill:url(#SVGID_00000136389928198573525450000017890070878499078827_);}
	.st80{fill:url(#SVGID_00000012461714514399558680000008694247826020341182_);}
	.st81{fill:url(#SVGID_00000112596313384414777420000009213063257602133919_);}
	.st82{fill:url(#SVGID_00000143585967830891237430000000604743864109084804_);}
	.st83{fill:url(#SVGID_00000097480634268103206510000012942232403367856048_);}
	.st84{fill:url(#SVGID_00000137103634807956973440000016802183330359277188_);}
	.st85{fill:url(#SVGID_00000004515146039489100540000013905696248327669165_);}
	.st86{fill:url(#SVGID_00000087371642636938090990000009653042678383534522_);}
	.st87{fill:url(#SVGID_00000150084788920827064020000015081380956365873327_);}
	.st88{fill:url(#SVGID_00000044169690409819079050000000329253591077194113_);}
	.st89{fill:url(#SVGID_00000041271551511713781380000009089590303281860526_);}
	.st90{fill:url(#SVGID_00000158005246946096391820000001291297250982324631_);}
	.st91{fill:url(#SVGID_00000150060971615290943050000004372248359903185847_);}
	.st92{fill:url(#SVGID_00000030455375462285170150000011635497768269677971_);}
	.st93{fill:url(#SVGID_00000000212438588900873000000017927212626799299496_);}
	.st94{fill:url(#SVGID_00000105386307026921331620000013248390011763223201_);}
	.st95{fill:url(#SVGID_00000052795680713701862960000016199116969817691285_);}
	.st96{fill:url(#SVGID_00000045607526173746800770000002095390294737110459_);}
	.st97{opacity:0.8;}
	.st98{fill:#FFFFFF;}
	.st99{fill:url(#SVGID_00000076606118049910128340000009273934901736329389_);}
</style>
<g id="Background">
</g>
<g id="Illustration">
	<g class="st0">
		<linearGradient id="SVGID_1_" gradientUnits="userSpaceOnUse" x1="175.9741" y1="1086.2209" x2="1890.3339" y2="1086.2209">
			<stop  offset="3.597120e-03" style="stop-color:#E38DDD"/>
			<stop  offset="1" style="stop-color:#9571F6"/>
		</linearGradient>
		<path class="st1" d="M746.9,307.3l18.5,91.2c-39.6,16-77.4,35.2-112.9,57.5l-61.4-69.5c-16.8-19-45.7-20.5-64.8-3.5L407.2,489.4
			c-19.1,17.1-21,46.3-4.2,65.3l61.9,70.4c-26.2,33.4-49.5,69-69.7,106.4L306.1,702c-24-8-50.2,5.3-58.4,29.7l-51.4,152.7
			c-8.2,24.5,4.6,50.8,28.7,58.9l89.5,29.8c-6.3,41.7-9,84.4-8,127.5l-93.3,19.7c-25,5.3-41.3,30.1-36.4,55.5l30.8,158.9
			c4.9,25.5,29.3,41.8,54.4,36.5l93.5-19.8c15.4,40.4,34,78.9,55.7,115.2l-71.6,64.5c-19.3,17.4-21.2,47.3-4.3,66.9l105.9,122.3
			c17,19.6,46.4,21.3,65.7,3.8l71.5-64.7c33.2,26.9,68.7,50.8,106,71.5l-30.3,92.3c-8.2,25,4.9,52,29.4,60.3l153.1,51.8
			c24.5,8.3,51-5.3,59.1-30.4l29.8-91.6c41.9,6.4,84.8,8.8,128.1,7.6l19.2,94.5c5.2,25.9,30,42.5,55.4,37.1l158.4-33.5
			c25.3-5.4,41.5-30.7,36.2-56.5l-19.3-93.7c40.5-16.3,79.1-35.8,115.3-58.6l62.3,70.9c17.3,19.7,46.9,21.4,66.1,3.9l120.1-109.6
			c19.2-17.5,20.7-47.6,3.4-67.2l-62.1-70.3c26.6-34.4,50.2-71.1,70.4-109.6l87.9,29.3c24.6,8.2,50.9-5.3,58.8-30.2l49.3-155.1
			c7.9-24.8-5.6-51.4-30.2-59.6l-87.1-28.9c5.9-42.7,7.9-86.3,6.2-130.4l89.4-18.9c25.1-5.3,41-30.2,35.6-55.6l-34-158.3
			c-5.4-25.3-30.1-41.4-55.1-36.1l-89.2,18.9c-16.3-40.6-35.8-79.3-58.4-115.6l67.4-61c19-17.1,20.4-46.5,3.3-65.6l-107-119.2
			c-17.1-19-46.2-20.6-65.2-3.5l-67.8,61.2c-33.6-26.4-69.5-49.8-107.1-69.8l28.4-87.1c7.9-24.2-5.3-50.3-29.5-58.2l-150.9-49.4
			c-24.1-7.9-50.1,5.3-58,29.5l-28.7,87.3c-41.5-5.8-83.8-7.9-126.7-6.3l-18.6-90.4c-5.1-24.9-29.4-40.8-54.2-35.5l-155.2,32.8
			C757.9,258,741.9,282.4,746.9,307.3z M482.6,1193.3c-61.1-307.6,135.2-607.5,438.2-671.6c303-64.1,600.6,131.3,665,438.2
			c64.8,308.7-130.6,612.9-437,677.7C842.5,1702.4,544.1,1502.7,482.6,1193.3z"/>
	</g>
	<g>
		<g>
			<g>
				<g>
					
						<linearGradient id="SVGID_00000039122795344490542510000010236630731123608229_" gradientUnits="userSpaceOnUse" x1="380.4985" y1="1818.3124" x2="-514.2626" y2="2254.0227" gradientTransform="matrix(-1 0 0 1 2683.7964 0)">
						<stop  offset="0" style="stop-color:#444B8C"/>
						<stop  offset="0.9964" style="stop-color:#26264F"/>
					</linearGradient>
					<path style="fill:url(#SVGID_00000039122795344490542510000010236630731123608229_);" d="M2369.9,887.7l-288.8,2376.8
						c-4.3,35.7,19.5,67.3,53.1,70.1L3265,3442.2c67.4,3,104.4-33.9,108.7-70.8l290.2-2451.3c4.3-36.4-28.1-70.9-95.1-73.7
						l-1130.1-21.5C2405.2,824.1,2374.2,852.4,2369.9,887.7z"/>
					
						<linearGradient id="SVGID_00000044880342162829233010000011923481887688504511_" gradientUnits="userSpaceOnUse" x1="2580.3174" y1="2102.7461" x2="3384.4705" y2="2142.9539">
						<stop  offset="0" style="stop-color:#444B8C"/>
						<stop  offset="0.9964" style="stop-color:#26264F"/>
					</linearGradient>
					<path style="fill:url(#SVGID_00000044880342162829233010000011923481887688504511_);" d="M3619.9,913.8l-292.3,2467
						c-3.8,32.1-29,57.4-58.8,62.1c0,0,0,0,0,0c-4.7,0-9.5,0.5-14.3,0.2l-167.5-14.3l-1006.6-84.9c-33.8-2.9-57.8-34.7-53.4-70.6
						l290.9-2391.6c4.3-35.6,35.5-64,69.3-63.2l389.8,9.1l785.6,18c2.1,0,4.1,0,6.1,0c0,0,0.1,0,0.1,0
						C3601.4,850.2,3624.1,879.2,3619.9,913.8z"/>
					<path class="st4" d="M2340.1,1014.5l-269.3,2215.8c-4.1,33.6,18.4,63.2,49.9,65.8l1104,91.7c33.3,2.8,64-23.3,68.1-57.8
						l270.6-2281c4.1-34.2-19.9-62.9-53.3-63.8l-1105.2-29.5C2373.2,954.8,2344.1,981.3,2340.1,1014.5z"/>
				</g>
				
					<linearGradient id="SVGID_00000055680828932437281330000011766454944066519200_" gradientUnits="userSpaceOnUse" x1="-240.6993" y1="813.84" x2="-1592.5073" y2="4474.9863" gradientTransform="matrix(-1 0 0 1 2683.7964 0)">
					<stop  offset="0" style="stop-color:#FFC444"/>
					<stop  offset="0.9964" style="stop-color:#F36F56"/>
				</linearGradient>
				<path style="fill:url(#SVGID_00000055680828932437281330000011766454944066519200_);" d="M2936.3,904.3
					c-1.5,12.5,7,22.9,19.1,23.2c12.1,0.3,23.1-9.6,24.6-22.1c1.5-12.5-7.1-22.9-19.1-23.2C2948.8,881.9,2937.8,891.8,2936.3,904.3z
					"/>
			</g>
		</g>
		<path class="st6" d="M3081.8,3424.8c1.8,1.3,3.5,2.6,5.2,3.9l-1006.6-84.8c-33.8-2.9-57.8-34.6-53.4-70.6l290.9-2391.6
			c4.3-35.6,35.5-64,69.3-63.2l389.8,9.1c0.6,1.3,1.1,2.6,1.7,3.9c16.6,37.5,28.3,82.2,33.4,135.2c8.2,84.5-0.4,190.3-32.4,322.3
			c-199.7,824.1,663.4,905.1,256.8,1531.6c-176.3,271.7-125.9,438.9-16.9,550.3C3038.9,3390.4,3059.9,3408.3,3081.8,3424.8z"/>
	</g>
	<g>
		<g>
			<g>
				<g>
					
						<linearGradient id="SVGID_00000022555780543910174090000002682548994344918414_" gradientUnits="userSpaceOnUse" x1="1415.1296" y1="1818.3757" x2="520.3117" y2="2254.1138">
						<stop  offset="0" style="stop-color:#444B8C"/>
						<stop  offset="0.9964" style="stop-color:#26264F"/>
					</linearGradient>
					<path style="fill:url(#SVGID_00000022555780543910174090000002682548994344918414_);" d="M1637.8,3272.3
						c0.3,32.5-22.5,59.8-53.6,62.4l-121.1,11.5l-1009.6,96.3c-1.3,0-2.6,0.4-3.9,0.4c0,0,0,0,0,0c-64.9,0-100.6-35-104.8-71.2
						L54.4,919.8c-4.3-36.4,28.1-69.6,95.1-74.3c0,0,0,0,0.1,0l256.6-4.5l873.4-16.4c33.6-0.8,64.6,27.6,68.9,62.9l10.6,87.4
						l278.2,2289.5C1637.6,3267.1,1637.8,3269.7,1637.8,3272.3z"/>
					
						<linearGradient id="SVGID_00000021078164852937047430000008363265220922014112_" gradientUnits="userSpaceOnUse" x1="611.9365" y1="2116.5886" x2="1545.6005" y2="2163.272">
						<stop  offset="0" style="stop-color:#444B8C"/>
						<stop  offset="0.9964" style="stop-color:#26264F"/>
					</linearGradient>
					<path style="fill:url(#SVGID_00000021078164852937047430000008363265220922014112_);" d="M1637.9,3343.8l-161.1,13.6
						L463.8,3443c-4.8,0.4-9.6-0.2-14.3-0.2c0,0,0,0,0,0c-29.8-4.7-55-29.8-58.8-61.9L98.4,913.9c-4.1-34.5,18.5-63.7,51.1-68.3
						c0,0,0,0,0.1,0c2,0,4,0,6.1,0l248-5.6l927.4-21.7c33.9-0.8,65,27.7,69.3,63.3l290.9,2391.6
						C1695.7,3309.1,1671.7,3340.9,1637.9,3343.8z"/>
					<path class="st4" d="M1378.3,1014.5l269.3,2215.8c4.1,33.6-18.4,63.2-49.9,65.8l-1104,91.7c-33.3,2.8-64-23.3-68.1-57.8
						L155,1049c-4.1-34.2,19.9-62.9,53.3-63.8l1105.2-29.5C1345.2,954.8,1374.3,981.3,1378.3,1014.5z"/>
				</g>
				
					<linearGradient id="SVGID_00000168075305758923005260000009154427972567269534_" gradientUnits="userSpaceOnUse" x1="138.7979" y1="813.84" x2="-1213.0094" y2="4474.9844" gradientTransform="matrix(1 0 0 1 655.0718 0)">
					<stop  offset="0" style="stop-color:#FFC444"/>
					<stop  offset="0.9964" style="stop-color:#F36F56"/>
				</linearGradient>
				<path style="fill:url(#SVGID_00000168075305758923005260000009154427972567269534_);" d="M782.1,904.3
					c1.5,12.5-7,22.9-19.1,23.2c-12.1,0.3-23.1-9.6-24.6-22.1c-1.5-12.5,7.1-22.9,19.1-23.2C769.6,881.9,780.6,891.8,782.1,904.3z"
					/>
			</g>
		</g>
		<path class="st6" d="M1476.8,3357.4L463.8,3443c-4.8,0.4-9.6-0.2-14.3-0.2c0,0,0,0,0,0c-64.9,0-100.6-35-104.8-71.2L54.4,919.8
			c-4.3-36.4,28.1-69.6,95.1-74.3c0,0,0,0,0.1,0c2,0,4,0,6.1,0l248-5.6c0.8,0.4,1.7,1,2.5,1.4c60.2,33.1,120.9,76.9,169.6,133.9
			c83.7,98,131.5,235.3,78.3,425.3c-149.8,534-64.2,619.6,413.8,862.1c477.9,242.5,428.9,396.4,292.5,756.1
			c-45.4,119.8-6.9,216.2,64.7,291.5c11.8,12.5,24.6,24.4,38,35.7C1467.5,3350,1472.1,3353.7,1476.8,3357.4z"/>
	</g>
	<g>
		<defs>
			<path id="SVGID_00000089549578657411519700000002706392673289716114_" d="M3514.2,985.2L2409,955.7c-31.6-0.8-60.7,24.8-64.8,58
				l-65.7,539.4h-434.5v456.2h379l-148.1,1220c-4.1,33.6,18.4,63.7,49.9,66.3l1104,92c33.3,2.8,64-23.1,68.1-57.7l270.6-2281
				C3571.6,1014.7,3547.6,986.1,3514.2,985.2z"/>
		</defs>
		<clipPath id="SVGID_00000096031415360171301330000017326044332306245310_">
			<use xlink:href="#SVGID_00000089549578657411519700000002706392673289716114_"  style="overflow:visible;"/>
		</clipPath>
		<g style="clip-path:url(#SVGID_00000096031415360171301330000017326044332306245310_);">
			
				<linearGradient id="SVGID_00000050661561513124331110000004964638625984378794_" gradientUnits="userSpaceOnUse" x1="3456.8591" y1="3321.937" x2="3697.8857" y2="4191.728" gradientTransform="matrix(1 0 0 1 -883.3127 0)">
				<stop  offset="0" style="stop-color:#311944"/>
				<stop  offset="1" style="stop-color:#893976"/>
			</linearGradient>
			<path style="fill:url(#SVGID_00000050661561513124331110000004964638625984378794_);" d="M2807.4,3816c0,0,11,46.5,11.3,63.3
				c0.4,16.8-177.1,40.3-179.8,27.9c-2.8-12.4,26.9-35,48.4-43.9c21.4-8.9,84.4-33.1,84.4-33.1L2807.4,3816z"/>
			
				<linearGradient id="SVGID_00000026137172706305991790000001729218449006408878_" gradientUnits="userSpaceOnUse" x1="3668.6304" y1="3937.6436" x2="3672.116" y2="3644.8696" gradientTransform="matrix(1 0 0 1 -883.3127 0)">
				<stop  offset="0" style="stop-color:#FFC444"/>
				<stop  offset="0.9964" style="stop-color:#F36F56"/>
			</linearGradient>
			<path style="fill:url(#SVGID_00000026137172706305991790000001729218449006408878_);" d="M2760.5,3772.7l10.2,58.1
				c0,0,21.8,12.5,39.2,0l4.2-64.5L2760.5,3772.7z"/>
			
				<linearGradient id="SVGID_00000039111168371795149960000018320604456816701091_" gradientUnits="userSpaceOnUse" x1="3743.4746" y1="3238.207" x2="3984.5042" y2="4108.0093" gradientTransform="matrix(1 0 0 1 -883.3127 0)">
				<stop  offset="0" style="stop-color:#311944"/>
				<stop  offset="1" style="stop-color:#893976"/>
			</linearGradient>
			<path style="fill:url(#SVGID_00000039111168371795149960000018320604456816701091_);" d="M3131,3865.8c0,0,11,46.5,11.3,63.3
				c0.3,16.8-177.1,40.3-179.8,27.9c-2.8-12.4,26.9-35,48.4-43.9c21.4-8.9,84.3-33.1,84.3-33.1L3131,3865.8z"/>
			
				<linearGradient id="SVGID_00000087371628630666159440000011866547056532327066_" gradientUnits="userSpaceOnUse" x1="3992.7825" y1="3941.6843" x2="3996.2681" y2="3648.9062" gradientTransform="matrix(1 0 0 1 -883.3127 0)">
				<stop  offset="0" style="stop-color:#FFC444"/>
				<stop  offset="0.9964" style="stop-color:#F36F56"/>
			</linearGradient>
			<path style="fill:url(#SVGID_00000087371628630666159440000011866547056532327066_);" d="M3084.1,3822.4l10.2,58.1
				c0,0,21.8,12.6,39.2,0l4.2-64.5L3084.1,3822.4z"/>
			
				<linearGradient id="SVGID_00000052093961481650440740000000608536560697456792_" gradientUnits="userSpaceOnUse" x1="3507.1404" y1="2995.9016" x2="3805.5879" y2="2995.9016" gradientTransform="matrix(1 0 0 1 -883.3127 0)">
				<stop  offset="0" style="stop-color:#311944"/>
				<stop  offset="1" style="stop-color:#893976"/>
			</linearGradient>
			<path style="fill:url(#SVGID_00000052093961481650440740000000608536560697456792_);" d="M2675.6,2240.8
				c-17.2,45.3-34.5,90.6-51.7,136c2.5,250.2,15.1,521.4,42.5,810.3c20.4,214.9,47.1,417.9,77.6,608c27.8-3.7,55.6-7.4,83.4-11
				c33.9-87.1,71.9-217.8,64.2-374.7c-7.9-163.6-57-181.3-66-337.9c-11.6-202.9,65.5-263.8,90.2-511.1
				c9.4-94.6,11.2-217.2-13.3-363.8C2826.8,2211.4,2751.2,2226.1,2675.6,2240.8z"/>
			
				<linearGradient id="SVGID_00000076580364496193736950000003625963952279647369_" gradientUnits="userSpaceOnUse" x1="3507.1428" y1="2995.9016" x2="3805.5884" y2="2995.9016" gradientTransform="matrix(1 0 0 1 -883.3127 0)">
				<stop  offset="0" style="stop-color:#311944"/>
				<stop  offset="1" style="stop-color:#893976"/>
			</linearGradient>
			<path style="opacity:0.3;fill:url(#SVGID_00000076580364496193736950000003625963952279647369_);" d="M2902.5,2196.7
				c-40.8,7.9-81.7,15.9-122.5,23.8c-63.8,141-73.8,283.1-56,344c25.1,86.3,76,110.3,80.1,198.7c4,87.5-43.4,114.2-66.7,219.6
				c-16.1,73-5.4,138,16.7,264.9c44.5,255.8,110.2,329.6,66.7,418.3c-12.3,25.2-35.7,55.9-84.1,82c2.4,15.7,4.9,31.5,7.4,47
				c27.8-3.7,55.6-7.4,83.4-11c33.9-87.1,71.9-217.8,64.2-374.7c-7.9-163.6-57-181.3-66-337.9c-11.6-202.9,65.5-263.8,90.2-511
				C2925.2,2465.9,2927.1,2343.3,2902.5,2196.7z"/>
			
				<linearGradient id="SVGID_00000058581837516681731010000010659494732167572158_" gradientUnits="userSpaceOnUse" x1="3754.8757" y1="4113.2061" x2="3879.4636" y2="3090.5508" gradientTransform="matrix(1 0 0 1 -883.3127 0)">
				<stop  offset="0" style="stop-color:#311944"/>
				<stop  offset="1" style="stop-color:#893976"/>
			</linearGradient>
			<path style="fill:url(#SVGID_00000058581837516681731010000010659494732167572158_);" d="M2792.3,2310
				c55.5,216.9,107.7,449.6,153.5,697.3c55.3,299,94.3,582,121.3,845.5c30.7-1.7,61.4-3.3,92.1-5c101.6-259.6,96-429.3,70.1-538
				c-10-41.9-34.6-123.6-48.3-247.6c-9.5-86.4-9.3-152.9-8.8-232.7c1.2-175.1,15.8-214.5,8.2-347.7c-7.2-125-11.6-188.2-48.5-222.2
				C3034.7,2169.9,2809.4,2299.9,2792.3,2310z"/>
			
				<linearGradient id="SVGID_00000134234321661465010950000012513469028902939545_" gradientUnits="userSpaceOnUse" x1="2617.8569" y1="1732.7988" x2="2900.5518" y2="2020.5414" gradientTransform="matrix(1 0 0 1 -883.3127 0)">
				<stop  offset="0" style="stop-color:#FFC444"/>
				<stop  offset="0.9964" style="stop-color:#F36F56"/>
			</linearGradient>
			<path style="fill:url(#SVGID_00000134234321661465010950000012513469028902939545_);" d="M1900.9,1806.1c0,0-67.5-6-77.2-17.5
				c-9.8-11.4-24.6-29.7-26-40.2c-1.5-10.5-14.5,5.2-2.7,27.9c11.8,22.7-21.7,17.9-26.9,17.4c-12-1.3-57.9-2.7-56.6,0.3
				c1.3,3-5.4,16.1,27.1,31.5c28.5,13.5,62.5,4.7,81,5.6c18.5,0.9,18.5,0.9,18.5,0.9l49.2,3.9L1900.9,1806.1z"/>
			
				<linearGradient id="SVGID_00000143587253136842664790000010942822813799036825_" gradientUnits="userSpaceOnUse" x1="3978.6277" y1="874.688" x2="2613.4951" y2="2270.3811" gradientTransform="matrix(1 0 0 1 -883.3127 0)">
				<stop  offset="0" style="stop-color:#AA80F9"/>
				<stop  offset="0.9964" style="stop-color:#6165D7"/>
			</linearGradient>
			<path style="fill:url(#SVGID_00000143587253136842664790000010942822813799036825_);" d="M1861.3,1773.2c-3,23.5-5.9,47-8.9,70.5
				c44.7,38.9,143.5,113.6,280.9,124.8c242.3,19.7,482.5-167.6,527.3-378.2c22.1-104.3,4.1-250.7-58-274.3
				c-17.2-6.5-43.1-5.6-96.5,31.8c-142.4,99.9-154.5,231.2-233.2,320C2216.2,1731.6,2104.9,1796.4,1861.3,1773.2z"/>
			
				<linearGradient id="SVGID_00000137131084710324136630000005755504480663617701_" gradientUnits="userSpaceOnUse" x1="1347.5017" y1="3017.2244" x2="365.6969" y2="1607.7021" gradientTransform="matrix(-1 0 0 1 3427.2683 0)">
				<stop  offset="0" style="stop-color:#AA80F9"/>
				<stop  offset="0.9964" style="stop-color:#6165D7"/>
			</linearGradient>
			<path style="fill:url(#SVGID_00000137131084710324136630000005755504480663617701_);" d="M2507.2,1923.1
				c21.5,71.3,39.7,116.3,53.7,151.9v0.1c27.9,35.6,30.7,61.7,36.5,95c2.9,16.2,5.9,34.1,5.7,55.7c-0.4,38.7-5.1,70.2-9.5,97.3
				c-6.6,40.8-10.3,71.3,9.8,100.4c24.8,36.2,69.1,44.5,170.5,51c258.6,16.7,388,25.1,424.7-45.3c15.2-29.2,5.8-52.1-12.3-142.9
				c-18.9-94.6-48-240.3-45.3-336.9c2-72.1,21.8-124,46.4-167.1c48.8-85.6,116.5-136.8,100.4-242.5
				c-23.8-156.2-200.9-238.4-209.4-242.2c-58.1-26-133.2-23.8-283.4-19.5c-121.5,3.6-183.1,5.9-226,37.1
				c-83.1,60.4-100.9,172.5-110.5,238.5C2438.8,1691.4,2471.5,1804.9,2507.2,1923.1z"/>
			
				<linearGradient id="SVGID_00000031172727133687143850000002891686809787870593_" gradientUnits="userSpaceOnUse" x1="2739.5952" y1="1126.0587" x2="2862.9485" y2="1543.4923">
				<stop  offset="0" style="stop-color:#FFC444"/>
				<stop  offset="0.9964" style="stop-color:#F36F56"/>
			</linearGradient>
			<path style="fill:url(#SVGID_00000031172727133687143850000002891686809787870593_);" d="M2642.3,1312.7
				c-0.1-9.6,33.4-13.7,59.7-26.3c33.3-16,47.8-87.9,39.3-119.2c-8.5-31.3,49.6-47.4,49.6-47.4c4.7-1.3,24.3,40,26.6,44.4
				c9.9,18.6,19.5,37.5,31.9,54.7c10.9,15,23.7,28,38.8,38.8c10.7,7.6,22.3,14,34.1,19.6c5.4,2.6,10.9,5.7,16.4,8
				c2.9,1.2,3.9,7.2,3.6,7.2c0.1,0,0.2,0,0.2,0s-0.1-1.8-0.2-1.6c-0.5,2.6-2.8,4.7-6.6,8.1c-17.5,22.1-70.9,78.2-182.2,117.3
				c-66.7-43.9-112.4-77.8-111.1-103.1C2642.3,1313,2642.3,1312.7,2642.3,1312.7z"/>
			
				<linearGradient id="SVGID_00000025412466680748105810000009747714651727101358_" gradientUnits="userSpaceOnUse" x1="1053.3071" y1="2961.991" x2="339.4855" y2="1937.197" gradientTransform="matrix(-1 0 0 1 3427.2683 0)">
				<stop  offset="0" style="stop-color:#AA80F9"/>
				<stop  offset="0.9964" style="stop-color:#6165D7"/>
			</linearGradient>
			<path style="opacity:0.5;fill:url(#SVGID_00000025412466680748105810000009747714651727101358_);" d="M2847.3,2361.6
				c-87.7,19-188.7-19.8-252.9-38.7c-6.6,40.8-10.7,71.3,9.4,100.4c24.8,36.2,68.9,44.5,170.4,51c258.6,16.7,387.9,25.1,424.6-45.3
				c15.2-29.2,5.7-52.1-12.4-142.9c-18.9-94.6-48-240.3-45.4-336.9c2-72.1,21.8-124,46.4-167.1c-58-76.9-140.6-114.7-247.8,8.4
				c0,0-157.6,175.1-273.3,181.4c-65.6,3.5-105.6,46.1-105.6,103v0.1c14,29,14.3,61.8,36.5,95c11,16.4,26.4,32.9,43.2,49.1
				C2758.2,2332.5,2983.1,2332.1,2847.3,2361.6z"/>
			<g>
				
					<linearGradient id="SVGID_00000127023287877565442500000015582149309829941946_" gradientUnits="userSpaceOnUse" x1="3572.8616" y1="1191.3906" x2="3596.3904" y2="1536.0906" gradientTransform="matrix(-1 0 0 1 6347.8306 0)">
					<stop  offset="0" style="stop-color:#311944"/>
					<stop  offset="1" style="stop-color:#6B3976"/>
				</linearGradient>
				<path style="fill:url(#SVGID_00000127023287877565442500000015582149309829941946_);" d="M2805.9,1394.4c0,0-19.6,63.6-36,64.7
					c-16.4,1.1-28.5,3.3-28.5,3.3l-24.8-71.2c6.6,2,20.2,6.5,28.1,7.9C2764.6,1402.8,2791.5,1395.5,2805.9,1394.4z"/>
				
					<linearGradient id="SVGID_00000002357017521607022150000013958199127174667948_" gradientUnits="userSpaceOnUse" x1="3515.8301" y1="1849.5457" x2="3515.8301" y2="1128.4857" gradientTransform="matrix(-1 0 0 1 6347.8306 0)">
					<stop  offset="0" style="stop-color:#311944"/>
					<stop  offset="1" style="stop-color:#6B3976"/>
				</linearGradient>
				<path style="fill:url(#SVGID_00000002357017521607022150000013958199127174667948_);" d="M2777.6,1454.4
					c0,0,36.6,410.6,164.8,476.3c-3.3,13.1,0,120,0,120s-119.5-36-126.3-33.6c-6.8,2.4-144.7-226.2-74.7-554.7L2777.6,1454.4z"/>
			</g>
			<g>
				
					<linearGradient id="SVGID_00000136410645973256007570000016922477488627986069_" gradientUnits="userSpaceOnUse" x1="2660.4636" y1="995.0093" x2="2777.3306" y2="1143.462">
					<stop  offset="0" style="stop-color:#444B8C"/>
					<stop  offset="0.9964" style="stop-color:#26264F"/>
				</linearGradient>
				<path style="fill:url(#SVGID_00000136410645973256007570000016922477488627986069_);" d="M2678.1,1142.8
					c-21.8-9.2-39.1-37.4-35.4-63.7c3.2-22.6,21.2-36,31.9-44c31.2-23.2,81.4-33.6,113.8-11.4c19.2,13.2,22.3,61.9,23.3,70.4
					c1.1,9.6-3.4,15.8-5.6,24.8c-3.1,12.5-7.8,32.4-15.1,65.3c-5.2-5.4-12.1-11.9-20.7-18.3c-3.3-2.4-16.5-11.9-31.3-17.5
					C2709.4,1137.3,2698.8,1151.6,2678.1,1142.8z"/>
				
					<linearGradient id="SVGID_00000008135396928355494670000007396584236697179558_" gradientUnits="userSpaceOnUse" x1="-225.2035" y1="1583.2894" x2="-230.458" y2="2006.6389" gradientTransform="matrix(-0.8962 0.4436 0.4436 0.8962 1833.7178 -209.8398)">
					<stop  offset="0" style="stop-color:#FFC444"/>
					<stop  offset="0.9964" style="stop-color:#F36F56"/>
				</linearGradient>
				<path style="fill:url(#SVGID_00000008135396928355494670000007396584236697179558_);" d="M2808.9,1149.8c0,0-1.1,48.7-46.5,71.2
					c-40.6,20.1-97.1-64.3-82.9-97.4c4.7-11,20-23.3,35.7-27.3c9.3-2.4,14-0.6,29.1-4.8c14-3.9,16.6-7.2,22.1-6.3
					c6.8,1.2,15.7,8.7,22.9,38.8c3.1-11.9,10.4-20,18.5-20.6c1.3-0.1,5,0.2,8.2,2.1C2827.2,1112.3,2825.4,1130.4,2808.9,1149.8z"/>
				
					<linearGradient id="SVGID_00000011744835843769293480000017123579759188214950_" gradientUnits="userSpaceOnUse" x1="2644.8223" y1="1007.322" x2="2761.6892" y2="1155.7748">
					<stop  offset="0" style="stop-color:#444B8C"/>
					<stop  offset="0.9964" style="stop-color:#26264F"/>
				</linearGradient>
				<path style="fill:url(#SVGID_00000011744835843769293480000017123579759188214950_);" d="M2765.2,1078.9
					c-1.1,2.5,8.8,6.2,15,15.9c12,18.9,5.9,53.4-12.9,66.9c-11.1,8-18.5,2.8-39.2,12c-12.8,5.7-22,13.1-27.5,18.1
					c6.1,24.8,24.2,42.6,44,44.2c21.4,1.7,37.2-16,43.8-23.4c4.4-5,18.6-20.8,18.5-42.1c-0.1-22.2-15.3-26.9-10.9-44.5
					c2.2-8.9,8-15.5,8.7-30.7c0.2-4.1-0.1-7.5-0.3-9.7C2787.8,1080.9,2766.7,1075.3,2765.2,1078.9z"/>
				
					<linearGradient id="SVGID_00000158014431252300782830000014021152658449151410_" gradientUnits="userSpaceOnUse" x1="1589.0979" y1="1692.8163" x2="1595.0453" y2="1745.8374" gradientTransform="matrix(0.8674 -0.4976 0.4976 0.8674 500.7026 496.6379)">
					<stop  offset="0" style="stop-color:#FFC444"/>
					<stop  offset="1" style="stop-color:#F36F56"/>
				</linearGradient>
				<path style="fill:url(#SVGID_00000158014431252300782830000014021152658449151410_);" d="M2719.2,1191.5c0,0,11-0.5,25.1-9.7
					c0.7-0.5,1.6-0.7,1.9-0.4c1.1,1.2-4.6,12.8-14.7,15.4c-7.1,1.8-15.3-1.2-15.3-3.2C2716.2,1192.8,2717.7,1192.1,2719.2,1191.5z"
					/>
			</g>
		</g>
	</g>
	<g>
		
			<linearGradient id="SVGID_00000050660018259069144020000016623853919989802388_" gradientUnits="userSpaceOnUse" x1="1903.7716" y1="2041.4167" x2="2029.2555" y2="2154.9497" gradientTransform="matrix(-0.9874 0.1584 0.1584 0.9874 4052.9861 -268.7705)">
			<stop  offset="0" style="stop-color:#FFC444"/>
			<stop  offset="0.9964" style="stop-color:#F36F56"/>
		</linearGradient>
		<path style="fill:url(#SVGID_00000050660018259069144020000016623853919989802388_);" d="M2531.7,2087.7c0,0-6.5,8.7-16.2-19.6
			c-9.7-28.4-44-18.6-44-18.6l8.5,20.6c0,0-98.4-23.6-97.1-6.5c1.3,17.1,28.5,57,59.7,65.8c31.2,8.7,91.4,0.8,91.4,0.8
			L2531.7,2087.7z"/>
		
			<linearGradient id="SVGID_00000050624963154395982070000000226134906360417164_" gradientUnits="userSpaceOnUse" x1="979.6646" y1="1587.4154" x2="2277.2461" y2="2761.418" gradientTransform="matrix(-0.9874 0.1584 0.1584 0.9874 4052.9861 -268.7705)">
			<stop  offset="0" style="stop-color:#AA80F9"/>
			<stop  offset="0.9964" style="stop-color:#6165D7"/>
		</linearGradient>
		<path style="fill:url(#SVGID_00000050624963154395982070000000226134906360417164_);" d="M3111.8,1294.6
			c0,0-138.9-27.9-137.2,238.5c1.7,266.3,32.9,448.1-98.1,476c-131,27.8-348.5,55.9-348.5,55.9l4.4,92.7c0,0,647.1,156,692.5-72.3
			S3444.8,1355.2,3111.8,1294.6z"/>
	</g>
	<g>
		<defs>
			<path id="SVGID_00000155114685757205282770000003244725901549808560_" d="M2388.7,957.3H1340.5c-9.3-4.7-19.7-9-30.4-8.7
				L205,977.7c-33.3,0.9-57.3,29.4-53.3,63.6l270.6,2280.9c4.1,34.6,34.7,60.5,68.1,57.8l1104-91.7c31.6-2.6,54-31.9,49.9-65.4
				L1534,2316.5h854.6V957.3z"/>
		</defs>
		<clipPath id="SVGID_00000093866283081263016200000013808579820599228557_">
			<use xlink:href="#SVGID_00000155114685757205282770000003244725901549808560_"  style="overflow:visible;"/>
		</clipPath>
		<g style="clip-path:url(#SVGID_00000093866283081263016200000013808579820599228557_);">
			
				<linearGradient id="SVGID_00000131363835123285208490000014609285249872541077_" gradientUnits="userSpaceOnUse" x1="3262.8083" y1="3439.7354" x2="3506.5869" y2="4319.458" gradientTransform="matrix(-1 0 0 1 4310.5811 0)">
				<stop  offset="0" style="stop-color:#311944"/>
				<stop  offset="1" style="stop-color:#893976"/>
			</linearGradient>
			<path style="fill:url(#SVGID_00000131363835123285208490000014609285249872541077_);" d="M811.3,3939.5c0,0-11.1,47-11.5,64.1
				c-0.4,17,179.1,40.8,181.9,28.2c2.8-12.6-27.3-35.4-48.9-44.4c-21.7-9-85.3-33.5-85.3-33.5L811.3,3939.5z"/>
			
				<linearGradient id="SVGID_00000131344899848267534730000005147789161399522744_" gradientUnits="userSpaceOnUse" x1="3476.9978" y1="4062.4722" x2="3480.5232" y2="3766.3555" gradientTransform="matrix(-1 0 0 1 4310.5811 0)">
				<stop  offset="0" style="stop-color:#FFC444"/>
				<stop  offset="0.9964" style="stop-color:#F36F56"/>
			</linearGradient>
			<path style="fill:url(#SVGID_00000131344899848267534730000005147789161399522744_);" d="M858.6,3895.6l-10.3,58.8
				c0,0-22,12.7-39.6,0l-4.3-65.3L858.6,3895.6z"/>
			
				<linearGradient id="SVGID_00000133499696635319771710000006089051752581583789_" gradientUnits="userSpaceOnUse" x1="3552.6965" y1="3355.0496" x2="3796.4783" y2="4234.7832" gradientTransform="matrix(-1 0 0 1 4310.5811 0)">
				<stop  offset="0" style="stop-color:#311944"/>
				<stop  offset="1" style="stop-color:#893976"/>
			</linearGradient>
			<path style="fill:url(#SVGID_00000133499696635319771710000006089051752581583789_);" d="M484,3989.8c0,0-11.1,47-11.5,64.1
				c-0.4,17,179.1,40.8,181.9,28.2c2.8-12.6-27.3-35.4-48.9-44.4c-21.7-9-85.3-33.5-85.3-33.5L484,3989.8z"/>
			
				<linearGradient id="SVGID_00000053517587348577366440000014992153764109641132_" gradientUnits="userSpaceOnUse" x1="3804.8511" y1="4066.5593" x2="3808.3767" y2="3770.4382" gradientTransform="matrix(-1 0 0 1 4310.5811 0)">
				<stop  offset="0" style="stop-color:#FFC444"/>
				<stop  offset="0.9964" style="stop-color:#F36F56"/>
			</linearGradient>
			<path style="fill:url(#SVGID_00000053517587348577366440000014992153764109641132_);" d="M531.3,3946l-10.3,58.8
				c0,0-22,12.7-39.6,0l-4.3-65.3L531.3,3946z"/>
			
				<linearGradient id="SVGID_00000016760414612453911750000018219864042171132082_" gradientUnits="userSpaceOnUse" x1="3313.6636" y1="3109.9768" x2="3615.519" y2="3109.9768" gradientTransform="matrix(-1 0 0 1 4310.5811 0)">
				<stop  offset="0" style="stop-color:#444B8C"/>
				<stop  offset="0.9964" style="stop-color:#26264F"/>
			</linearGradient>
			<path style="fill:url(#SVGID_00000016760414612453911750000018219864042171132082_);" d="M944.6,2346.2
				c17.4,45.8,34.9,91.7,52.3,137.5c-2.6,253.1-15.2,527.4-43,819.6c-20.7,217.4-47.6,422.7-78.5,615c-28.1-3.7-56.3-7.4-84.4-11.1
				c-34.3-88.1-72.7-220.3-65-379c8-165.5,57.6-183.4,66.7-341.7c11.8-205.2-66.3-266.8-91.2-516.9c-9.5-95.7-11.4-219.7,13.5-367.9
				C791.6,2316.5,868.1,2331.4,944.6,2346.2z"/>
			
				<linearGradient id="SVGID_00000073695238577602871390000017355172754471170183_" gradientUnits="userSpaceOnUse" x1="3313.666" y1="3109.9768" x2="3615.5195" y2="3109.9768" gradientTransform="matrix(-1 0 0 1 4310.5811 0)">
				<stop  offset="0" style="stop-color:#444B8C"/>
				<stop  offset="0.9964" style="stop-color:#26264F"/>
			</linearGradient>
			<path style="opacity:0.3;fill:url(#SVGID_00000073695238577602871390000017355172754471170183_);" d="M715.1,2301.6
				c41.3,8,82.6,16.1,123.9,24.1c64.5,142.6,74.6,286.3,56.6,348c-25.4,87.3-76.9,111.6-81,201c-4.1,88.5,43.9,115.5,67.5,222.1
				c16.3,73.8,5.5,139.5-16.9,268c-45,258.7-111.4,333.4-67.5,423.1c12.5,25.5,36.1,56.6,85.1,82.9c-2.5,15.9-4.9,31.8-7.4,47.5
				c-28.1-3.7-56.3-7.4-84.4-11.1c-34.3-88.1-72.7-220.3-65-379c8-165.5,57.6-183.4,66.7-341.7c11.8-205.2-66.3-266.8-91.2-516.9
				C692.1,2573.9,690.2,2449.9,715.1,2301.6z"/>
			
				<linearGradient id="SVGID_00000021115021167733749890000015564101075692137362_" gradientUnits="userSpaceOnUse" x1="3564.2278" y1="4240.0396" x2="3690.2385" y2="3205.7068" gradientTransform="matrix(-1 0 0 1 4310.5811 0)">
				<stop  offset="0" style="stop-color:#444B8C"/>
				<stop  offset="0.9964" style="stop-color:#26264F"/>
			</linearGradient>
			<path style="fill:url(#SVGID_00000021115021167733749890000015564101075692137362_);" d="M826.5,2416.3
				c-56.2,219.4-109,454.8-155.3,705.2c-55.9,302.4-95.3,588.6-122.7,855.1c-31.1-1.7-62.1-3.4-93.2-5
				c-102.7-262.5-97.1-434.2-70.9-544.2c10.1-42.4,35-125,48.8-250.4c9.7-87.4,9.4-154.6,8.9-235.4c-1.2-177.1-16-217-8.3-351.7
				c7.3-126.4,11.7-190.4,49-224.8C581.4,2274.5,809.2,2406.1,826.5,2416.3z"/>
			
				<linearGradient id="SVGID_00000025443151556027328310000012193074477941540003_" gradientUnits="userSpaceOnUse" x1="2414.2258" y1="1832.4512" x2="2700.1484" y2="2123.4792" gradientTransform="matrix(-1 0 0 1 4310.5811 0)">
				<stop  offset="0" style="stop-color:#FFC444"/>
				<stop  offset="0.9964" style="stop-color:#F36F56"/>
			</linearGradient>
			<path style="fill:url(#SVGID_00000025443151556027328310000012193074477941540003_);" d="M1728.1,1906.6c0,0,68.2-6.1,78.1-17.7
				c9.9-11.6,24.9-30.1,26.3-40.7c1.5-10.6,14.7,5.2,2.7,28.2c-11.9,23,22,18.1,27.2,17.6c12.2-1.3,58.6-2.7,57.2,0.3
				c-1.3,3,5.5,16.3-27.4,31.9c-28.9,13.7-63.2,4.8-82,5.7c-18.8,0.9-18.8,0.9-18.8,0.9l-49.7,4L1728.1,1906.6z"/>
			
				<linearGradient id="SVGID_00000164503207113204893690000002510788599607027082_" gradientUnits="userSpaceOnUse" x1="3790.5347" y1="964.5419" x2="2409.8142" y2="2376.1719" gradientTransform="matrix(-1 0 0 1 4310.5811 0)">
				<stop  offset="0" style="stop-color:#FF9085"/>
				<stop  offset="1" style="stop-color:#FB6FBB"/>
			</linearGradient>
			<path style="fill:url(#SVGID_00000164503207113204893690000002510788599607027082_);" d="M1768.1,1873.3c3,23.8,6,47.5,9,71.3
				c-45.2,39.4-145.1,114.9-284.1,126.2c-245,20-488-169.5-533.3-382.6c-22.4-105.5-4.1-253.6,58.7-277.4
				c17.4-6.6,43.6-5.7,97.6,32.2c144,101.1,156.3,233.8,235.9,323.6C1409.2,1831.3,1521.8,1896.7,1768.1,1873.3z"/>
			
				<linearGradient id="SVGID_00000126294211632159604780000017376873680531252613_" gradientUnits="userSpaceOnUse" x1="1547.0372" y1="3131.4387" x2="554.1066" y2="1705.9438">
				<stop  offset="0" style="stop-color:#FF9085"/>
				<stop  offset="1" style="stop-color:#FB6FBB"/>
			</linearGradient>
			<path style="fill:url(#SVGID_00000126294211632159604780000017376873680531252613_);" d="M1113.3,2024.9
				c-21.8,72.1-41.9,117.6-55.9,153.6v0.1c-23.3,36-29.5,62.4-35.4,96c-2.9,16.4-5.2,34.5-5,56.3c0.4,39.1,5.5,71,10,98.4
				c6.7,41.3,10.6,72.2-9.7,101.6c-25.1,36.6-69.8,45-172.4,51.6c-261.6,16.9-392.4,25.4-429.5-45.8c-15.4-29.6-5.8-52.7,12.5-144.5
				c19.1-95.6,48.5-243.1,45.9-340.8c-2-72.9-22.1-125.4-47-169c-49.4-86.6-117.8-138.4-101.6-245.3c24-158,203.1-241.1,211.8-245
				c58.8-26.3,134.8-24.1,286.6-19.7c122.9,3.6,185.2,6,228.5,37.5c84,61.1,101.2,174.5,110.9,241.2
				C1183.3,1790.6,1149.4,1905.4,1113.3,2024.9z"/>
			
				<linearGradient id="SVGID_00000065076642204225226380000003929203075857912749_" gradientUnits="userSpaceOnUse" x1="4436.6587" y1="3206.7761" x2="3367.9514" y2="1672.4929" gradientTransform="matrix(-1 0 0 1 4310.5811 0)">
				<stop  offset="0" style="stop-color:#FF9085"/>
				<stop  offset="1" style="stop-color:#FB6FBB"/>
			</linearGradient>
			<path style="fill:url(#SVGID_00000065076642204225226380000003929203075857912749_);" d="M659.4,2032
				c-14.2,41.1-55.9,69.3-91.1,169.2c-7.6,21.6-61.8,175.3-10.1,218.6c29.8,25,61.4-15,138.4-14.1c133.4,1.5,187.7,123.3,276.8,98.7
				c15.5-4.3,36.2-14.4,58.1-39.7c2.1,24.7-0.2,45.8-14.2,66.2c-25.1,36.5-69.7,45-172.3,51.6c-261.6,16.9-392.4,25.4-429.4-45.8
				c-15.4-29.6-5.8-52.7,12.5-144.5c19.1-95.6,48.5-243.1,45.8-340.8c-5.9-217.6-172.9-253.5-148.5-414.3c6.5-43,24.7-80.2,47.7-112
				C579.9,1633.4,703.9,1902.7,659.4,2032z"/>
			
				<linearGradient id="SVGID_00000086672540713411218970000015526623043888811658_" gradientUnits="userSpaceOnUse" x1="975.2794" y1="1603.3591" x2="756.6146" y2="1289.4342">
				<stop  offset="0" style="stop-color:#FFC444"/>
				<stop  offset="0.9964" style="stop-color:#F36F56"/>
			</linearGradient>
			<path style="fill:url(#SVGID_00000086672540713411218970000015526623043888811658_);" d="M978.3,1407.5
				c0.1-9.7-33.8-13.8-60.4-26.6c-33.7-16.2-48.3-88.9-39.7-120.6c8.6-31.7-50.1-48-50.1-48s-7.1,58.7-27.9,101.3
				c-18.9,38.5-104,60.1-121.5,67.6c-2.9,1.2-3.9,8.9-3.6,8.9c-0.1,0-0.2,0-0.2,0s0.1-3.4,0.2-3.2c0.5,2.6,2.9,4,6.7,7.4
				c17.7,22.3,71.7,78.7,184.3,118.2c67.5-44.4,113.7-78.9,112.4-104.5C978.3,1408.1,978.3,1407.6,978.3,1407.5z"/>
			
				<linearGradient id="SVGID_00000159443252118449790360000013927468538885513372_" gradientUnits="userSpaceOnUse" x1="3546.7336" y1="1403.8438" x2="3419.7788" y2="1081.4016" gradientTransform="matrix(-1 0 0 1 4310.5811 0)">
				<stop  offset="0" style="stop-color:#444B8C"/>
				<stop  offset="0.9964" style="stop-color:#3E4177"/>
			</linearGradient>
			<path style="fill:url(#SVGID_00000159443252118449790360000013927468538885513372_);" d="M906.6,1197.4
				c27.2-23.8,31-26.5,34.4-35.3c13.8-35-9.1-86.5-43.2-101.5c-1.8-0.8-24.6-10.6-34.4-0.7c-8.3,8.4,1.9,21.8-4.7,38.8
				c-6.2,15.9-19.9,16-46.6,35.3c-22,15.9-35.7,25.8-39.8,40.9c-8.5,31.2,24.7,80.3,57.4,81.8C841.4,1257.2,845,1251.2,906.6,1197.4
				z"/>
			<g>
				
					<linearGradient id="SVGID_00000140005669928682799030000013056089544763205517_" gradientUnits="userSpaceOnUse" x1="675.4001" y1="1281.2866" x2="791.4491" y2="2114.1045" gradientTransform="matrix(-0.827 0.5622 0.5622 0.827 952.6273 289.0357)">
					<stop  offset="0" style="stop-color:#FFC444"/>
					<stop  offset="0.9964" style="stop-color:#F36F56"/>
				</linearGradient>
				<path style="fill:url(#SVGID_00000140005669928682799030000013056089544763205517_);" d="M832.4,1261.8c0,0,24.4,34,66.1,26.9
					c37.3-6.3,34.7-94.9,9-111.1c-8.6-5.4-24.8-6.4-37.5-1.3c-7.5,3-9.8,6.6-22.1,11.3c-11.4,4.3-14.8,3.3-18,6.8
					c-4,4.3-6.4,14.1,3.3,39.1c-7.9-6.9-16.7-8.9-22.6-5.3c-0.9,0.6-3.3,2.7-4.5,5.6C801.7,1244.5,811.7,1256.4,832.4,1261.8z"/>
			</g>
			
				<linearGradient id="SVGID_00000153702968863818119400000000218703468169889682_" gradientUnits="userSpaceOnUse" x1="1248.7546" y1="3076.2937" x2="526.7821" y2="2039.798">
				<stop  offset="0" style="stop-color:#FF9085"/>
				<stop  offset="1" style="stop-color:#FB6FBB"/>
			</linearGradient>
			<path style="opacity:0.4;fill:url(#SVGID_00000153702968863818119400000000218703468169889682_);" d="M770.9,2468.4
				c88.7,19.2,190.9-20,255.8-39.1c6.7,41.3,10.8,72.2-9.5,101.6c-25.1,36.6-69.7,45-172.3,51.6c-261.6,16.9-392.4,25.4-429.4-45.8
				c-15.4-29.6-5.8-52.7,12.5-144.5c19.1-95.6,48.5-243.1,45.9-340.8c-2-72.9-22-125.4-47-169c58.6-77.8,142.2-116,250.6,8.5
				c0,0,157.8,177.1,274.8,183.4c66.4,3.5,105.2,46.6,105.2,104.2v0.1c-9.3,29.4-12.9,62.5-35.4,96c-11.1,16.6-25.9,33.3-42.9,49.7
				C860.2,2439,633.6,2438.6,770.9,2468.4z"/>
			<g>
				
					<linearGradient id="SVGID_00000090270806478797185330000016309448525415809947_" gradientUnits="userSpaceOnUse" x1="3764.6123" y1="1284.8608" x2="3788.4099" y2="1633.4968" gradientTransform="matrix(1 0 0 1 -2920.5623 0)">
					<stop  offset="0" style="stop-color:#311944"/>
					<stop  offset="1" style="stop-color:#6B3976"/>
				</linearGradient>
				<path style="fill:url(#SVGID_00000090270806478797185330000016309448525415809947_);" d="M812.8,1490.2c0,0,19.8,64.3,36.4,65.4
					c16.6,1.1,28.8,3.3,28.8,3.3l25.1-72c-6.7,2.1-20.5,6.6-28.4,8C854.5,1498.7,827.3,1491.3,812.8,1490.2z"/>
				
					<linearGradient id="SVGID_00000044139196715771292450000012264747804517010321_" gradientUnits="userSpaceOnUse" x1="3706.9297" y1="1950.5311" x2="3706.9297" y2="1221.2377" gradientTransform="matrix(1 0 0 1 -2920.5623 0)">
					<stop  offset="0" style="stop-color:#311944"/>
					<stop  offset="1" style="stop-color:#6B3976"/>
				</linearGradient>
				<path style="fill:url(#SVGID_00000044139196715771292450000012264747804517010321_);" d="M841.3,1550.8
					c0,0-37,415.3-166.6,481.8c3.3,13.3,0,121.3,0,121.3s120.9-36.4,127.7-34c6.9,2.4,146.4-228.8,75.6-561.1L841.3,1550.8z"/>
			</g>
			<g>
				
					<linearGradient id="SVGID_00000113345366971993778870000006701892369847054227_" gradientUnits="userSpaceOnUse" x1="1442.5647" y1="1860.0881" x2="854.8976" y2="2048.6882">
					<stop  offset="0" style="stop-color:#FCB148"/>
					<stop  offset="5.207239e-02" style="stop-color:#FDBA46"/>
					<stop  offset="0.1424" style="stop-color:#FFC244"/>
					<stop  offset="0.3183" style="stop-color:#FFC444"/>
					<stop  offset="0.4849" style="stop-color:#FDB946"/>
					<stop  offset="0.7754" style="stop-color:#F99C4D"/>
					<stop  offset="0.8658" style="stop-color:#F8924F"/>
					<stop  offset="1" style="stop-color:#F8924F"/>
				</linearGradient>
				<path style="fill:url(#SVGID_00000113345366971993778870000006701892369847054227_);" d="M2119.1,1838.8
					c0,272.6-213.2,487.1-485.6,478.7c-283.6-8.7-522-253.6-522-546.7c0-293.1,238.5-505.8,522-476.3
					C1905.9,1322.9,2119.1,1566.1,2119.1,1838.8z"/>
				
					<linearGradient id="SVGID_00000044867978383511034360000011135247942915510189_" gradientUnits="userSpaceOnUse" x1="1917.9531" y1="1275.1244" x2="1393.3201" y2="2432.5627">
					<stop  offset="0" style="stop-color:#FFDB44"/>
					<stop  offset="1" style="stop-color:#FEEF06"/>
				</linearGradient>
				<path style="fill:url(#SVGID_00000044867978383511034360000011135247942915510189_);" d="M2192.7,1815.3
					c0,272.6-213.2,487.1-485.6,478.7c-283.6-8.7-522-253.6-522-546.7c0-293.1,238.5-505.8,522-476.3
					C1979.5,1299.4,2192.7,1542.6,2192.7,1815.3z"/>
				
					<linearGradient id="SVGID_00000118393913127420864120000007245870359285912251_" gradientUnits="userSpaceOnUse" x1="1821.4467" y1="2497.2527" x2="1720.2175" y2="1944.2419">
					<stop  offset="0" style="stop-color:#FCB148"/>
					<stop  offset="5.207239e-02" style="stop-color:#FDBA46"/>
					<stop  offset="0.1424" style="stop-color:#FFC244"/>
					<stop  offset="0.3183" style="stop-color:#FFC444"/>
					<stop  offset="0.4849" style="stop-color:#FDB946"/>
					<stop  offset="0.7754" style="stop-color:#F99C4D"/>
					<stop  offset="0.8658" style="stop-color:#F8924F"/>
					<stop  offset="1" style="stop-color:#F8924F"/>
				</linearGradient>
				<path style="fill:url(#SVGID_00000118393913127420864120000007245870359285912251_);" d="M2171.3,1813.8
					c0,260.6-204,465.3-464.3,456.9c-270.4-8.8-497.4-242.5-497.4-521.7s227-482.3,497.4-454.6
					C1967.4,1321,2171.3,1553.2,2171.3,1813.8z"/>
				
					<linearGradient id="SVGID_00000142886570268479021530000013818744075507364228_" gradientUnits="userSpaceOnUse" x1="1606.8218" y1="1602.1437" x2="2024.0001" y2="2487.7339">
					<stop  offset="0" style="stop-color:#FCB148"/>
					<stop  offset="5.207239e-02" style="stop-color:#FDBA46"/>
					<stop  offset="0.1424" style="stop-color:#FFC244"/>
					<stop  offset="0.3183" style="stop-color:#FFC444"/>
					<stop  offset="0.4849" style="stop-color:#FDB946"/>
					<stop  offset="0.7754" style="stop-color:#F99C4D"/>
					<stop  offset="0.8658" style="stop-color:#F8924F"/>
					<stop  offset="1" style="stop-color:#F8924F"/>
				</linearGradient>
				<path style="fill:url(#SVGID_00000142886570268479021530000013818744075507364228_);" d="M2156,1812.8
					c0,252-197.4,449.7-448.9,441.3c-261-8.8-479.9-234.5-479.9-503.9s218.9-465.6,479.9-439.2
					C1958.6,1336.5,2156,1560.8,2156,1812.8z"/>
				<g>
					
						<linearGradient id="SVGID_00000110445961658096226040000008652009975282073023_" gradientUnits="userSpaceOnUse" x1="1590.201" y1="1411.5763" x2="1799.9727" y2="2197.7632">
						<stop  offset="0" style="stop-color:#FFDB44"/>
						<stop  offset="1" style="stop-color:#FEEF06"/>
					</linearGradient>
					<path style="fill:url(#SVGID_00000110445961658096226040000008652009975282073023_);" d="M1704.5,1396.7L1704.5,1396.7
						c13.4,1.3,24.2,13.3,24.2,26.9v46.4c26.8,3,53.6,7.6,80.4,14c19.8,4.7,39.5,10.2,59,16.6c11.7,3.8,19.7,15.7,18.5,27.8
						l-5.7,58.2c-1.5,15.4-16.8,24.5-31.1,18.1c-12.9-5.7-26.1-10.7-39.6-14.7c-23.6-7.1-48.5-11.8-74.6-13.9l-6.8-0.6v132.9
						c69.8,19.5,121.1,45.8,154.3,78.9c33,32.9,49.4,73.9,49.4,123.1c0,53.2-18.2,95.9-54.7,128c-36.7,32.3-88.1,50.5-154.6,54.4
						v51.2c0,13.6-10.8,24.2-24.2,23.7l-0.4,0c-13.4-0.5-24.3-12-24.3-25.7v-50.5l-10.8-0.5c-31.2-1.4-61-4.6-89.6-9.5
						c-21.1-3.7-41.8-8.4-61.9-14.2c-12.2-3.5-20.5-15.1-19.4-27.6l6.7-74.8c1.4-16.2,17.7-25.6,33.1-19.5
						c17.9,7.1,36.1,13,54.4,17.9c28.6,7.5,57.6,12.4,87,14.5l0.4-147.8c-67-16.6-117.2-41.2-150.2-73.7
						c-33.1-32.7-49.7-74.5-49.7-125.4c0-52.6,18-93.3,53.9-121.8c35.7-28.4,86.5-42.5,152-42.5v-47.4
						C1680.2,1405.5,1691.1,1395.5,1704.5,1396.7z M1680.2,1574.1c-20.7,1.5-36.9,7.2-48.4,17.1c-11.6,9.9-17.4,23.2-17.4,39.9
						c0,15.8,5.4,29,16.1,39.6c10.7,10.6,27.3,19.1,49.7,25.4V1574.1z M1723.2,1841.8v135.6c22.5,0,39.8-5.3,51.8-16.1
						c12-10.8,18-26,18-45.6c0-17.9-5.6-32.8-16.8-44.6C1765.1,1859.1,1747.4,1849.4,1723.2,1841.8z"/>
				</g>
				
					<linearGradient id="SVGID_00000036940208612337832950000009587705276603055755_" gradientUnits="userSpaceOnUse" x1="1484.0892" y1="1659.4547" x2="1900.4259" y2="2543.2581">
					<stop  offset="0" style="stop-color:#FCB148"/>
					<stop  offset="5.207239e-02" style="stop-color:#FDBA46"/>
					<stop  offset="0.1424" style="stop-color:#FFC244"/>
					<stop  offset="0.3183" style="stop-color:#FFC444"/>
					<stop  offset="0.4849" style="stop-color:#FDB946"/>
					<stop  offset="0.7754" style="stop-color:#F99C4D"/>
					<stop  offset="0.8658" style="stop-color:#F8924F"/>
					<stop  offset="1" style="stop-color:#F8924F"/>
				</linearGradient>
				<path style="opacity:0.3;fill:url(#SVGID_00000036940208612337832950000009587705276603055755_);" d="M1625.8,1874.5
					c15.2-149.8,152.8-213.2,134.9-351c-11.1-84.9-75.4-156.5-147.3-212.4c-217.8,22.8-386.2,203.2-386.2,439.1
					c0,269.4,218.9,495.1,479.9,503.9c25.3,0.9,50.1-0.5,74.2-3.6C1677.6,2147.3,1612.8,2003.2,1625.8,1874.5z"/>
			</g>
			<g>
				
					<linearGradient id="SVGID_00000093153587380483547900000006174435572309165491_" gradientUnits="userSpaceOnUse" x1="955.7943" y1="1849.8507" x2="1388.4084" y2="2241.2634">
					<stop  offset="0" style="stop-color:#FFC444"/>
					<stop  offset="0.9964" style="stop-color:#F36F56"/>
				</linearGradient>
				<path style="fill:url(#SVGID_00000093153587380483547900000006174435572309165491_);" d="M1183.5,2126.7c0,0,7.9,7.7,13-22.2
					c5.1-29.9,41-25.6,41-25.6l-5.2,21.9c0,0,94.5-39.4,95.9-22.1c1.4,17.3-19.3,61.5-49,75.2c-29.7,13.7-91.2,15.4-91.2,15.4
					L1183.5,2126.7z"/>
				
					<linearGradient id="SVGID_00000165231031992132771790000016730346996384279448_" gradientUnits="userSpaceOnUse" x1="277.5869" y1="1622.6674" x2="1590.0187" y2="2810.106">
					<stop  offset="0" style="stop-color:#FF9085"/>
					<stop  offset="1" style="stop-color:#FB6FBB"/>
				</linearGradient>
				<path style="fill:url(#SVGID_00000165231031992132771790000016730346996384279448_);" d="M477.1,1427.6
					c0,0,134.3-50.1,175.2,216.2c41,266.2,38.9,452.8,174.2,459.6c135.3,6.8,357,0,357,0l10.4,93.3c0,0-621.2,259.4-703.1,38.7
					C408.9,2014.6,154.2,1541.4,477.1,1427.6z"/>
			</g>
		</g>
	</g>
	<g>
		<g>
			
				<linearGradient id="SVGID_00000129895543656238690760000015171208931798933639_" gradientUnits="userSpaceOnUse" x1="1200.7052" y1="3582.7642" x2="2279.3884" y2="3582.7642">
				<stop  offset="0" style="stop-color:#F57E53"/>
				<stop  offset="4.537139e-03" style="stop-color:#F58152"/>
				<stop  offset="4.198170e-02" style="stop-color:#F99A4D"/>
				<stop  offset="8.401687e-02" style="stop-color:#FCAD49"/>
				<stop  offset="0.1333" style="stop-color:#FEBA46"/>
				<stop  offset="0.1962" style="stop-color:#FFC244"/>
				<stop  offset="0.3183" style="stop-color:#FFC444"/>
				<stop  offset="0.455" style="stop-color:#FDB946"/>
				<stop  offset="0.6941" style="stop-color:#F99C4C"/>
				<stop  offset="0.9964" style="stop-color:#F36F56"/>
			</linearGradient>
			<path style="fill:url(#SVGID_00000129895543656238690760000015171208931798933639_);" d="M1280.9,3500.4v104
				c0,33.6,209.9,60.8,468.8,60.8c258.9,0,468.8-27.2,468.8-60.8v-104H1280.9z"/>
			
				<linearGradient id="SVGID_00000000902843836081251200000010965504496146612148_" gradientUnits="userSpaceOnUse" x1="1745.004" y1="3461.2544" x2="1801.8711" y2="3937.3154">
				<stop  offset="0" style="stop-color:#FFDB44"/>
				<stop  offset="1" style="stop-color:#FEEF06"/>
			</linearGradient>
			<path style="fill:url(#SVGID_00000000902843836081251200000010965504496146612148_);" d="M2218.5,3500.4
				c0,33.6-209.9,60.8-468.8,60.8c-258.9,0-468.8-27.2-468.8-60.8c0-33.6,209.9-60.8,468.8-60.8
				C2008.6,3439.5,2218.5,3466.8,2218.5,3500.4z"/>
			
				<linearGradient id="SVGID_00000007403757537165462300000006437124710147273620_" gradientUnits="userSpaceOnUse" x1="1742.531" y1="3440.0239" x2="1759.9958" y2="3586.2302">
				<stop  offset="0" style="stop-color:#FFDB44"/>
				<stop  offset="1" style="stop-color:#FEEF06"/>
			</linearGradient>
			<path style="fill:url(#SVGID_00000007403757537165462300000006437124710147273620_);" d="M1749.7,3565.4
				c-229.3,0-469.1-21.9-469.1-64.1c0-2.3,0.8-6.4,3.1-6.4s1.3,3.2,1.3,5.5c0,26.8,190.8,56.6,464.6,56.6s464.6-29.8,464.6-56.6
				c0-2.3,0.4-4.5,2.7-4.5c2.3,0,1.8,3.1,1.8,5.4C2218.8,3543.5,1979,3565.4,1749.7,3565.4z"/>
			<g>
				<path class="st60" d="M1705.4,3503.7c4.6-3.2,9.5-6.3,14.7-9.4c5.2-3.1,12-5.9,20.1-8.4c8.2-2.5,18.5-4.5,30.9-6.1
					c12.4-1.6,27.8-2.4,46.3-2.5c18.1-0.1,35.1,0.5,51,1.7c15.9,1.2,29.9,3.1,42,5.6c12,2.5,21.9,5.5,29.5,9.1
					c7.5,3.6,12,7.8,13.5,12.5l52.8,0.5c3.8,0,7.2,0.3,10.1,0.9c2.9,0.6,4.4,1.4,4.4,2.3l0,4.3l-67.9-0.7
					c-2.4,5.3-8.4,10.2-18.2,14.6c-9.7,4.4-22.1,8.2-37.2,11.5l-24.7-3.4c-2.2-0.3-4-0.8-5.5-1.3c-1.4-0.5-2.1-1.1-2.1-1.7
					c0-0.8,1.9-1.8,5.7-2.9c3.8-1.1,8.1-2.4,12.9-4c4.8-1.6,9.5-3.4,14.2-5.6c4.6-2.2,7.7-4.7,9.3-7.7l-160.2-1.6
					c-4.2,3.1-9,6.1-14.1,9.1c-5.2,3-12.1,5.7-20.8,8.1c-8.6,2.4-19.4,4.3-32.2,5.8c-12.9,1.5-29.1,2.3-48.6,2.4
					c-14.7,0.1-29-0.5-43-1.7c-14-1.2-26.4-3-37.3-5.3c-10.9-2.4-19.8-5.3-26.8-8.8c-6.9-3.5-10.8-7.5-11.6-12l-43.5-0.4
					c-3.8,0-7.2-0.3-10.3-0.9c-3-0.6-4.5-1.3-4.5-2.3l0-4.3l59.4,0.6c2.6-4.6,8-8.6,16.2-12c8.2-3.4,18.3-6.4,30.2-9.1l19.9,2.7
					c6,0.8,9,1.8,9,3c0,0.6-1.2,1.4-3.7,2.3c-2.5,0.9-5.5,2-8.9,3.3c-3.4,1.3-6.7,2.8-9.9,4.5c-3.2,1.7-5.6,3.6-7.2,5.8
					L1705.4,3503.7z M1558.8,3509.7c1.2,2.9,3.9,5.3,7.9,7.4c4,2.1,9.1,3.8,15.1,5.1c6,1.3,12.8,2.3,20.3,2.9
					c7.6,0.6,15.5,0.9,23.7,0.9c9.6,0,18-0.5,25.2-1.2c7.1-0.8,13.4-1.8,18.8-3.2c5.4-1.3,10.1-2.9,14.2-4.7c4-1.8,7.6-3.7,10.8-5.8
					L1558.8,3509.7z M1907.5,3505.8c-1.2-2.9-4.1-5.4-8.6-7.6c-4.5-2.2-10.3-4-17.4-5.5c-7-1.5-15.2-2.6-24.6-3.3
					c-9.3-0.7-19.6-1.1-30.9-1c-10,0-18.7,0.5-25.9,1.3c-7.2,0.9-13.5,2-18.8,3.4c-5.3,1.4-9.9,3.1-13.5,5
					c-3.7,1.9-7.2,3.9-10.4,6.1L1907.5,3505.8z"/>
			</g>
			
				<linearGradient id="SVGID_00000100380203705652276510000010114686312998131110_" gradientUnits="userSpaceOnUse" x1="-89.6993" y1="556.9373" x2="-72.2965" y2="702.624" gradientTransform="matrix(-1 0 0 -1 1669.249 4127.8389)">
				<stop  offset="3.597120e-03" style="stop-color:#F36F56"/>
				<stop  offset="0.3059" style="stop-color:#F99C4C"/>
				<stop  offset="0.545" style="stop-color:#FDB946"/>
				<stop  offset="0.6817" style="stop-color:#FFC444"/>
				<stop  offset="0.8038" style="stop-color:#FFC244"/>
				<stop  offset="0.8667" style="stop-color:#FEBA46"/>
				<stop  offset="0.916" style="stop-color:#FCAD49"/>
				<stop  offset="0.958" style="stop-color:#F99A4D"/>
				<stop  offset="0.9955" style="stop-color:#F58152"/>
				<stop  offset="1" style="stop-color:#F57E53"/>
			</linearGradient>
			<path style="fill:url(#SVGID_00000100380203705652276510000010114686312998131110_);" d="M1749.7,3446.1
				c-209,0-426.7,18.4-461.5,54c1.4,1.3,2.6,2.6,3.8,4c29.3-24.7,209.1-49.6,457.7-49.6c255,0,437.6,26.2,459.7,51.5
				c1.1-1.4,2.2-2.7,3.5-4C2184.2,3465.2,1962.5,3446.1,1749.7,3446.1z"/>
		</g>
		<g>
			
				<linearGradient id="SVGID_00000101062354402386439480000017853561740741698227_" gradientUnits="userSpaceOnUse" x1="1070.3766" y1="3473.5405" x2="2149.061" y2="3473.5405">
				<stop  offset="0" style="stop-color:#F57E53"/>
				<stop  offset="4.537139e-03" style="stop-color:#F58152"/>
				<stop  offset="4.198170e-02" style="stop-color:#F99A4D"/>
				<stop  offset="8.401687e-02" style="stop-color:#FCAD49"/>
				<stop  offset="0.1333" style="stop-color:#FEBA46"/>
				<stop  offset="0.1962" style="stop-color:#FFC244"/>
				<stop  offset="0.3183" style="stop-color:#FFC444"/>
				<stop  offset="0.455" style="stop-color:#FDB946"/>
				<stop  offset="0.6941" style="stop-color:#F99C4C"/>
				<stop  offset="0.9964" style="stop-color:#F36F56"/>
			</linearGradient>
			<path style="fill:url(#SVGID_00000101062354402386439480000017853561740741698227_);" d="M1150.5,3391.1v104
				c0,33.6,209.9,60.8,468.8,60.8c258.9,0,468.8-27.2,468.8-60.8v-104H1150.5z"/>
			
				<linearGradient id="SVGID_00000144335771959432442080000001573747365960707210_" gradientUnits="userSpaceOnUse" x1="1614.676" y1="3352.0315" x2="1671.5433" y2="3828.0933">
				<stop  offset="0" style="stop-color:#FFDB44"/>
				<stop  offset="1" style="stop-color:#FEEF06"/>
			</linearGradient>
			<path style="fill:url(#SVGID_00000144335771959432442080000001573747365960707210_);" d="M2088.2,3391.1
				c0,33.6-209.9,60.8-468.8,60.8c-258.9,0-468.8-27.2-468.8-60.8s209.9-60.8,468.8-60.8C1878.3,3330.3,2088.2,3357.5,2088.2,3391.1
				z"/>
			
				<linearGradient id="SVGID_00000085211909117278176550000000930219213529565606_" gradientUnits="userSpaceOnUse" x1="1612.2031" y1="3330.8015" x2="1629.6678" y2="3477.0066">
				<stop  offset="0" style="stop-color:#FFDB44"/>
				<stop  offset="1" style="stop-color:#FEEF06"/>
			</linearGradient>
			<path style="fill:url(#SVGID_00000085211909117278176550000000930219213529565606_);" d="M1619.3,3456.2
				c-229.3,0-469.1-21.9-469.1-64.1c0-2.3,0.8-6.4,3.1-6.4c2.3,0,1.3,3.2,1.3,5.5c0,26.8,190.8,56.6,464.6,56.6
				s464.6-29.8,464.6-56.6c0-2.3,0.4-4.5,2.7-4.5c2.3,0,1.8,3.1,1.8,5.4C2088.4,3434.3,1848.7,3456.2,1619.3,3456.2z"/>
			<g>
				<path class="st60" d="M1575,3394.5c4.6-3.2,9.5-6.3,14.7-9.4c5.2-3.1,12-5.9,20.1-8.4c8.2-2.5,18.5-4.5,30.9-6.1
					c12.4-1.6,27.8-2.4,46.3-2.5c18.1-0.1,35.1,0.5,51,1.7c15.9,1.2,29.9,3.1,42,5.6c12,2.5,21.9,5.5,29.5,9.1
					c7.5,3.6,12,7.8,13.5,12.5l52.8,0.5c3.8,0,7.2,0.3,10.1,0.9c2.9,0.6,4.4,1.4,4.4,2.3l0,4.3l-67.9-0.7
					c-2.4,5.3-8.4,10.2-18.2,14.6c-9.7,4.4-22.1,8.2-37.2,11.5l-24.7-3.4c-2.2-0.3-4-0.8-5.5-1.3c-1.4-0.5-2.1-1.1-2.1-1.7
					c0-0.8,1.9-1.8,5.7-2.9c3.8-1.1,8.1-2.4,12.9-4c4.8-1.6,9.5-3.4,14.2-5.6c4.6-2.2,7.7-4.7,9.3-7.7l-160.2-1.6
					c-4.2,3.1-9,6.1-14.1,9.1c-5.2,3-12.1,5.7-20.8,8.1c-8.6,2.4-19.4,4.3-32.2,5.8c-12.9,1.5-29.1,2.3-48.6,2.4
					c-14.7,0.1-29-0.5-43-1.7c-14-1.2-26.4-3-37.3-5.3c-10.9-2.4-19.8-5.3-26.8-8.8c-6.9-3.5-10.8-7.5-11.6-12l-43.5-0.4
					c-3.8,0-7.2-0.3-10.3-0.9c-3-0.6-4.5-1.3-4.5-2.3l0-4.3l59.4,0.6c2.6-4.6,8-8.6,16.2-12c8.2-3.4,18.3-6.4,30.2-9.1l19.9,2.7
					c6,0.8,9,1.8,9,3c0,0.6-1.2,1.4-3.7,2.3c-2.5,0.9-5.5,2-8.9,3.3c-3.4,1.3-6.7,2.8-9.9,4.5c-3.2,1.7-5.6,3.6-7.2,5.8L1575,3394.5
					z M1428.5,3400.4c1.2,2.9,3.9,5.3,7.9,7.4c4,2.1,9.1,3.8,15.1,5.1c6,1.3,12.8,2.3,20.3,2.9c7.6,0.6,15.5,0.9,23.7,0.9
					c9.6,0,18-0.5,25.2-1.2c7.1-0.8,13.4-1.8,18.8-3.2c5.4-1.3,10.1-2.9,14.2-4.7c4-1.8,7.6-3.7,10.8-5.8L1428.5,3400.4z
					 M1777.2,3396.6c-1.2-2.9-4.1-5.4-8.6-7.6c-4.5-2.2-10.3-4-17.4-5.5c-7-1.5-15.2-2.6-24.6-3.3c-9.3-0.7-19.6-1.1-30.9-1
					c-10,0-18.7,0.5-25.9,1.3c-7.2,0.8-13.5,2-18.8,3.4c-5.3,1.4-9.9,3.1-13.5,5c-3.7,1.9-7.2,3.9-10.4,6.1L1777.2,3396.6z"/>
			</g>
			
				<linearGradient id="SVGID_00000110460091108107507580000014456487225727507639_" gradientUnits="userSpaceOnUse" x1="40.6276" y1="666.1597" x2="58.0306" y2="811.8481" gradientTransform="matrix(-1 0 0 -1 1669.249 4127.8389)">
				<stop  offset="3.597120e-03" style="stop-color:#F36F56"/>
				<stop  offset="0.3059" style="stop-color:#F99C4C"/>
				<stop  offset="0.545" style="stop-color:#FDB946"/>
				<stop  offset="0.6817" style="stop-color:#FFC444"/>
				<stop  offset="0.8038" style="stop-color:#FFC244"/>
				<stop  offset="0.8667" style="stop-color:#FEBA46"/>
				<stop  offset="0.916" style="stop-color:#FCAD49"/>
				<stop  offset="0.958" style="stop-color:#F99A4D"/>
				<stop  offset="0.9955" style="stop-color:#F58152"/>
				<stop  offset="1" style="stop-color:#F57E53"/>
			</linearGradient>
			<path style="fill:url(#SVGID_00000110460091108107507580000014456487225727507639_);" d="M1619.4,3336.9
				c-209,0-426.7,18.4-461.5,54c1.4,1.3,2.6,2.6,3.8,4c29.3-24.7,209.1-49.6,457.7-49.6c255,0,437.6,26.2,459.7,51.5
				c1.1-1.4,2.2-2.7,3.5-4C2053.9,3355.9,1832.2,3336.9,1619.4,3336.9z"/>
		</g>
		<g>
			
				<linearGradient id="SVGID_00000167361159659604095100000000910102968342108296_" gradientUnits="userSpaceOnUse" x1="1182.8323" y1="3364.6372" x2="2261.5166" y2="3364.6372">
				<stop  offset="0" style="stop-color:#F57E53"/>
				<stop  offset="4.537139e-03" style="stop-color:#F58152"/>
				<stop  offset="4.198170e-02" style="stop-color:#F99A4D"/>
				<stop  offset="8.401687e-02" style="stop-color:#FCAD49"/>
				<stop  offset="0.1333" style="stop-color:#FEBA46"/>
				<stop  offset="0.1962" style="stop-color:#FFC244"/>
				<stop  offset="0.3183" style="stop-color:#FFC444"/>
				<stop  offset="0.455" style="stop-color:#FDB946"/>
				<stop  offset="0.6941" style="stop-color:#F99C4C"/>
				<stop  offset="0.9964" style="stop-color:#F36F56"/>
			</linearGradient>
			<path style="fill:url(#SVGID_00000167361159659604095100000000910102968342108296_);" d="M1263,3282.2v104
				c0,33.6,209.9,60.8,468.8,60.8c258.9,0,468.8-27.2,468.8-60.8v-104H1263z"/>
			
				<linearGradient id="SVGID_00000103236457568890702820000014656250157379524533_" gradientUnits="userSpaceOnUse" x1="1727.1309" y1="3243.1277" x2="1783.9982" y2="3719.1895">
				<stop  offset="0" style="stop-color:#FFDB44"/>
				<stop  offset="1" style="stop-color:#FEEF06"/>
			</linearGradient>
			<path style="fill:url(#SVGID_00000103236457568890702820000014656250157379524533_);" d="M2200.6,3282.2
				c0,33.6-209.9,60.8-468.8,60.8s-468.8-27.2-468.8-60.8s209.9-60.8,468.8-60.8S2200.6,3248.6,2200.6,3282.2z"/>
			
				<linearGradient id="SVGID_00000166634791223762370600000004361679004766052495_" gradientUnits="userSpaceOnUse" x1="1724.6584" y1="3221.897" x2="1742.1233" y2="3368.1028">
				<stop  offset="0" style="stop-color:#FFDB44"/>
				<stop  offset="1" style="stop-color:#FEEF06"/>
			</linearGradient>
			<path style="fill:url(#SVGID_00000166634791223762370600000004361679004766052495_);" d="M1731.8,3347.3
				c-229.3,0-469.1-21.9-469.1-64.1c0-2.3,0.8-6.4,3.1-6.4c2.3,0,1.3,3.2,1.3,5.5c0,26.8,190.8,56.6,464.6,56.6
				s464.6-29.8,464.6-56.6c0-2.3,0.4-4.5,2.7-4.5c2.3,0,1.8,3.1,1.8,5.4C2200.9,3325.4,1961.1,3347.3,1731.8,3347.3z"/>
			<g>
				<path class="st60" d="M1687.5,3285.6c4.6-3.2,9.5-6.3,14.7-9.4c5.2-3.1,12-5.9,20.1-8.4c8.2-2.5,18.5-4.5,30.9-6.1
					c12.4-1.6,27.8-2.4,46.3-2.5c18.1-0.1,35.1,0.5,51,1.7c15.9,1.2,29.9,3.1,42,5.6c12,2.5,21.9,5.5,29.5,9.1
					c7.5,3.6,12,7.8,13.5,12.5l52.8,0.5c3.8,0,7.2,0.3,10.1,0.9c2.9,0.6,4.4,1.4,4.4,2.3l0,4.3l-67.9-0.7
					c-2.4,5.3-8.4,10.2-18.2,14.6c-9.7,4.4-22.1,8.2-37.2,11.5l-24.7-3.4c-2.2-0.3-4-0.8-5.5-1.3c-1.4-0.5-2.1-1.1-2.1-1.7
					c0-0.8,1.9-1.8,5.7-2.9c3.8-1.1,8.1-2.4,12.9-4c4.8-1.6,9.5-3.4,14.2-5.6c4.6-2.1,7.7-4.7,9.3-7.7l-160.2-1.6
					c-4.2,3.1-9,6.1-14.1,9.1c-5.2,3-12.1,5.7-20.8,8.1c-8.6,2.4-19.4,4.3-32.2,5.8c-12.9,1.5-29.1,2.3-48.6,2.4
					c-14.7,0.1-29-0.5-43-1.7c-14-1.2-26.4-3-37.3-5.3c-10.9-2.4-19.8-5.3-26.8-8.8c-6.9-3.5-10.8-7.5-11.6-12l-43.5-0.4
					c-3.8,0-7.2-0.3-10.3-0.9c-3-0.6-4.5-1.4-4.5-2.3l0-4.3l59.4,0.6c2.6-4.6,8-8.6,16.2-12c8.2-3.4,18.3-6.4,30.2-9.1l19.9,2.7
					c6,0.8,9,1.8,9,3c0,0.6-1.2,1.4-3.7,2.3c-2.5,0.9-5.5,2-8.9,3.3c-3.4,1.3-6.7,2.8-9.9,4.5c-3.2,1.7-5.6,3.6-7.2,5.8
					L1687.5,3285.6z M1540.9,3291.5c1.2,2.9,3.9,5.3,7.9,7.4c4,2.1,9.1,3.8,15.1,5.1c6,1.3,12.8,2.3,20.3,2.9
					c7.6,0.6,15.5,0.9,23.7,0.9c9.6,0,18-0.5,25.2-1.2c7.1-0.8,13.4-1.8,18.8-3.2c5.4-1.3,10.2-2.9,14.2-4.7c4-1.8,7.6-3.7,10.8-5.8
					L1540.9,3291.5z M1889.6,3287.7c-1.2-2.9-4.1-5.4-8.6-7.6c-4.5-2.2-10.3-4-17.4-5.5c-7-1.5-15.2-2.6-24.6-3.3
					c-9.3-0.7-19.6-1.1-30.9-1c-10,0-18.7,0.5-25.9,1.3c-7.2,0.8-13.5,2-18.8,3.4c-5.3,1.4-9.9,3.1-13.5,5
					c-3.7,1.9-7.2,3.9-10.4,6.1L1889.6,3287.7z"/>
			</g>
			
				<linearGradient id="SVGID_00000090278198891401905920000007315112284850187956_" gradientUnits="userSpaceOnUse" x1="-71.8272" y1="775.0635" x2="-54.4243" y2="920.7514" gradientTransform="matrix(-1 0 0 -1 1669.249 4127.8389)">
				<stop  offset="3.597120e-03" style="stop-color:#F36F56"/>
				<stop  offset="0.3059" style="stop-color:#F99C4C"/>
				<stop  offset="0.545" style="stop-color:#FDB946"/>
				<stop  offset="0.6817" style="stop-color:#FFC444"/>
				<stop  offset="0.8038" style="stop-color:#FFC244"/>
				<stop  offset="0.8667" style="stop-color:#FEBA46"/>
				<stop  offset="0.916" style="stop-color:#FCAD49"/>
				<stop  offset="0.958" style="stop-color:#F99A4D"/>
				<stop  offset="0.9955" style="stop-color:#F58152"/>
				<stop  offset="1" style="stop-color:#F57E53"/>
			</linearGradient>
			<path style="fill:url(#SVGID_00000090278198891401905920000007315112284850187956_);" d="M1731.9,3228
				c-209,0-426.7,18.4-461.5,54c1.4,1.3,2.6,2.6,3.8,4c29.3-24.7,209.1-49.6,457.7-49.6c255,0,437.6,26.2,459.7,51.5
				c1.1-1.4,2.2-2.7,3.5-4C2166.4,3247,1944.6,3228,1731.9,3228z"/>
		</g>
		<g>
			
				<linearGradient id="SVGID_00000142135110972581270870000003027334768739065254_" gradientUnits="userSpaceOnUse" x1="1251.073" y1="3255.4133" x2="2329.7573" y2="3255.4133">
				<stop  offset="0" style="stop-color:#F57E53"/>
				<stop  offset="4.537139e-03" style="stop-color:#F58152"/>
				<stop  offset="4.198170e-02" style="stop-color:#F99A4D"/>
				<stop  offset="8.401687e-02" style="stop-color:#FCAD49"/>
				<stop  offset="0.1333" style="stop-color:#FEBA46"/>
				<stop  offset="0.1962" style="stop-color:#FFC244"/>
				<stop  offset="0.3183" style="stop-color:#FFC444"/>
				<stop  offset="0.455" style="stop-color:#FDB946"/>
				<stop  offset="0.6941" style="stop-color:#F99C4C"/>
				<stop  offset="0.9964" style="stop-color:#F36F56"/>
			</linearGradient>
			<path style="fill:url(#SVGID_00000142135110972581270870000003027334768739065254_);" d="M1331.2,3173v104
				c0,33.6,209.9,60.8,468.8,60.8c258.9,0,468.8-27.2,468.8-60.8v-104H1331.2z"/>
			
				<linearGradient id="SVGID_00000080909451381201104100000000689382242862475689_" gradientUnits="userSpaceOnUse" x1="1795.3724" y1="3133.9036" x2="1852.2396" y2="3609.9656">
				<stop  offset="0" style="stop-color:#FFDB44"/>
				<stop  offset="1" style="stop-color:#FEEF06"/>
			</linearGradient>
			<path style="fill:url(#SVGID_00000080909451381201104100000000689382242862475689_);" d="M2268.9,3173
				c0,33.6-209.9,60.8-468.8,60.8c-258.9,0-468.8-27.2-468.8-60.8c0-33.6,209.9-60.8,468.8-60.8
				C2059,3112.2,2268.9,3139.4,2268.9,3173z"/>
			
				<linearGradient id="SVGID_00000065037871544987549930000015908321578848751539_" gradientUnits="userSpaceOnUse" x1="1792.8994" y1="3112.6738" x2="1810.3641" y2="3258.8792">
				<stop  offset="0" style="stop-color:#FFDB44"/>
				<stop  offset="1" style="stop-color:#FEEF06"/>
			</linearGradient>
			<path style="fill:url(#SVGID_00000065037871544987549930000015908321578848751539_);" d="M1800,3238
				c-229.3,0-469.1-21.9-469.1-64.1c0-2.3,0.8-6.4,3.1-6.4c2.3,0,1.3,3.2,1.3,5.5c0,26.8,190.8,56.6,464.6,56.6
				c273.8,0,464.6-29.8,464.6-56.6c0-2.3,0.4-4.5,2.7-4.5c2.3,0,1.8,3.1,1.8,5.4C2269.1,3216.2,2029.3,3238,1800,3238z"/>
			<g>
				<path class="st60" d="M1755.7,3176.4c4.6-3.2,9.5-6.3,14.7-9.4c5.2-3.1,12-5.9,20.1-8.4c8.2-2.5,18.5-4.5,30.9-6.1
					c12.4-1.6,27.8-2.4,46.3-2.5c18.1-0.1,35.1,0.5,51,1.7c15.9,1.2,29.9,3.1,42,5.6c12,2.5,21.9,5.5,29.5,9.1
					c7.5,3.6,12,7.8,13.5,12.5l52.8,0.5c3.8,0,7.2,0.3,10.1,0.9c2.9,0.6,4.4,1.4,4.4,2.3l0,4.3l-67.9-0.7
					c-2.4,5.3-8.4,10.2-18.2,14.6c-9.7,4.4-22.1,8.2-37.2,11.5l-24.7-3.4c-2.2-0.3-4-0.8-5.5-1.3c-1.4-0.5-2.1-1.1-2.1-1.7
					c0-0.8,1.9-1.8,5.7-2.9c3.8-1.1,8.1-2.4,12.9-4c4.8-1.6,9.5-3.4,14.2-5.6c4.6-2.2,7.7-4.7,9.3-7.7l-160.2-1.6
					c-4.2,3.1-9,6.1-14.1,9.1c-5.2,3-12.1,5.7-20.8,8.1c-8.6,2.4-19.4,4.3-32.2,5.8c-12.9,1.5-29.1,2.3-48.6,2.4
					c-14.7,0.1-29-0.5-43-1.7c-14-1.2-26.4-3-37.3-5.3c-10.9-2.4-19.8-5.3-26.8-8.8c-6.9-3.5-10.8-7.5-11.6-12l-43.5-0.4
					c-3.8,0-7.2-0.3-10.3-0.9c-3-0.6-4.5-1.4-4.5-2.3l0-4.3l59.4,0.6c2.6-4.6,8-8.6,16.2-12c8.2-3.4,18.3-6.4,30.2-9.1l19.9,2.7
					c6,0.8,9,1.8,9,3c0,0.6-1.2,1.4-3.7,2.3c-2.5,0.9-5.5,2-8.9,3.3c-3.4,1.3-6.7,2.8-9.9,4.5c-3.2,1.7-5.6,3.6-7.2,5.8
					L1755.7,3176.4z M1609.2,3182.3c1.2,2.9,3.9,5.3,7.9,7.4c4,2.1,9.1,3.8,15.1,5.1c6,1.3,12.8,2.3,20.3,2.9
					c7.6,0.6,15.5,0.9,23.7,0.9c9.6,0,18-0.5,25.2-1.2c7.1-0.8,13.4-1.8,18.8-3.2c5.4-1.3,10.2-2.9,14.2-4.7c4-1.8,7.6-3.7,10.8-5.8
					L1609.2,3182.3z M1957.9,3178.4c-1.2-2.9-4.1-5.4-8.6-7.6c-4.5-2.2-10.3-4-17.4-5.5c-7-1.5-15.2-2.6-24.6-3.3
					c-9.3-0.7-19.6-1.1-30.9-1c-10,0.1-18.7,0.5-25.9,1.3c-7.2,0.8-13.5,2-18.8,3.4c-5.3,1.4-9.9,3.1-13.5,5
					c-3.7,1.9-7.2,3.9-10.4,6.1L1957.9,3178.4z"/>
			</g>
			
				<linearGradient id="SVGID_00000006675209299326963270000015167557782493608370_" gradientUnits="userSpaceOnUse" x1="-140.0678" y1="884.2875" x2="-122.665" y2="1029.9751" gradientTransform="matrix(-1 0 0 -1 1669.249 4127.8389)">
				<stop  offset="3.597120e-03" style="stop-color:#F36F56"/>
				<stop  offset="0.3059" style="stop-color:#F99C4C"/>
				<stop  offset="0.545" style="stop-color:#FDB946"/>
				<stop  offset="0.6817" style="stop-color:#FFC444"/>
				<stop  offset="0.8038" style="stop-color:#FFC244"/>
				<stop  offset="0.8667" style="stop-color:#FEBA46"/>
				<stop  offset="0.916" style="stop-color:#FCAD49"/>
				<stop  offset="0.958" style="stop-color:#F99A4D"/>
				<stop  offset="0.9955" style="stop-color:#F58152"/>
				<stop  offset="1" style="stop-color:#F57E53"/>
			</linearGradient>
			<path style="fill:url(#SVGID_00000006675209299326963270000015167557782493608370_);" d="M1800.1,3118.7
				c-209,0-426.7,18.4-461.5,54c1.4,1.3,2.6,2.6,3.8,4c29.3-24.7,209.1-49.6,457.7-49.6c255,0,437.6,26.2,459.7,51.5
				c1.1-1.4,2.2-2.7,3.5-4C2234.6,3137.8,2012.9,3118.7,1800.1,3118.7z"/>
		</g>
		<g>
			
				<linearGradient id="SVGID_00000126297529439801541090000004664290978161012128_" gradientUnits="userSpaceOnUse" x1="1200.7052" y1="3137.5732" x2="2279.3884" y2="3137.5732">
				<stop  offset="0" style="stop-color:#F57E53"/>
				<stop  offset="4.537139e-03" style="stop-color:#F58152"/>
				<stop  offset="4.198170e-02" style="stop-color:#F99A4D"/>
				<stop  offset="8.401687e-02" style="stop-color:#FCAD49"/>
				<stop  offset="0.1333" style="stop-color:#FEBA46"/>
				<stop  offset="0.1962" style="stop-color:#FFC244"/>
				<stop  offset="0.3183" style="stop-color:#FFC444"/>
				<stop  offset="0.455" style="stop-color:#FDB946"/>
				<stop  offset="0.6941" style="stop-color:#F99C4C"/>
				<stop  offset="0.9964" style="stop-color:#F36F56"/>
			</linearGradient>
			<path style="fill:url(#SVGID_00000126297529439801541090000004664290978161012128_);" d="M1280.9,3055.2v104
				c0,33.6,209.9,60.8,468.8,60.8c258.9,0,468.8-27.2,468.8-60.8v-104H1280.9z"/>
			
				<linearGradient id="SVGID_00000023273355084299612730000001008061141871335828_" gradientUnits="userSpaceOnUse" x1="1745.004" y1="3016.0635" x2="1801.8713" y2="3492.1255">
				<stop  offset="0" style="stop-color:#FFDB44"/>
				<stop  offset="1" style="stop-color:#FEEF06"/>
			</linearGradient>
			
				<ellipse style="fill:url(#SVGID_00000023273355084299612730000001008061141871335828_);" cx="1749.7" cy="3055.2" rx="468.8" ry="60.8"/>
			
				<linearGradient id="SVGID_00000121240043230394980060000008963271933464470446_" gradientUnits="userSpaceOnUse" x1="1742.531" y1="2994.8337" x2="1759.9957" y2="3141.0391">
				<stop  offset="0" style="stop-color:#FFDB44"/>
				<stop  offset="1" style="stop-color:#FEEF06"/>
			</linearGradient>
			<path style="fill:url(#SVGID_00000121240043230394980060000008963271933464470446_);" d="M1749.7,3120.2
				c-229.3,0-469.1-21.9-469.1-64.1c0-2.3,0.8-6.4,3.1-6.4s1.3,3.2,1.3,5.5c0,26.8,190.8,56.6,464.6,56.6s464.6-29.8,464.6-56.6
				c0-2.3,0.4-4.5,2.7-4.5c2.3,0,1.8,3.1,1.8,5.4C2218.8,3098.3,1979,3120.2,1749.7,3120.2z"/>
			<g>
				<path class="st60" d="M1705.4,3058.6c4.6-3.2,9.5-6.3,14.7-9.4c5.2-3.1,12-5.9,20.1-8.4c8.2-2.5,18.5-4.5,30.9-6.1
					c12.4-1.6,27.8-2.4,46.3-2.5c18.1-0.1,35.1,0.5,51,1.7c15.9,1.2,29.9,3.1,42,5.6c12,2.5,21.9,5.5,29.5,9.1
					c7.5,3.6,12,7.8,13.5,12.5l52.8,0.5c3.8,0,7.2,0.3,10.1,0.9c2.9,0.6,4.4,1.4,4.4,2.3l0,4.3l-67.9-0.7
					c-2.4,5.3-8.4,10.2-18.2,14.6c-9.7,4.4-22.1,8.2-37.2,11.5l-24.7-3.4c-2.2-0.3-4-0.8-5.5-1.3c-1.4-0.5-2.1-1.1-2.1-1.7
					c0-0.8,1.9-1.8,5.7-2.9c3.8-1.1,8.1-2.4,12.9-4c4.8-1.6,9.5-3.4,14.2-5.6c4.6-2.2,7.7-4.7,9.3-7.7l-160.2-1.6
					c-4.2,3.1-9,6.1-14.1,9.1c-5.2,3-12.1,5.7-20.8,8.1c-8.6,2.4-19.4,4.3-32.2,5.8c-12.9,1.5-29.1,2.3-48.6,2.4
					c-14.7,0.1-29-0.5-43-1.7c-14-1.2-26.4-3-37.3-5.3c-10.9-2.4-19.8-5.3-26.8-8.8c-6.9-3.5-10.8-7.5-11.6-12l-43.5-0.4
					c-3.8,0-7.2-0.3-10.3-0.9c-3-0.6-4.5-1.3-4.5-2.3l0-4.3l59.4,0.6c2.6-4.6,8-8.6,16.2-12c8.2-3.4,18.3-6.4,30.2-9.1l19.9,2.7
					c6,0.8,9,1.8,9,3c0,0.6-1.2,1.4-3.7,2.3c-2.5,0.9-5.5,2-8.9,3.3c-3.4,1.3-6.7,2.8-9.9,4.5c-3.2,1.7-5.6,3.6-7.2,5.8
					L1705.4,3058.6z M1558.8,3064.5c1.2,2.9,3.9,5.3,7.9,7.4c4,2.1,9.1,3.8,15.1,5.1c6,1.3,12.8,2.3,20.3,2.9
					c7.6,0.6,15.5,0.9,23.7,0.9c9.6,0,18-0.5,25.2-1.2c7.1-0.8,13.4-1.8,18.8-3.2c5.4-1.3,10.1-2.9,14.2-4.7c4-1.8,7.6-3.7,10.8-5.8
					L1558.8,3064.5z M1907.5,3060.6c-1.2-2.9-4.1-5.4-8.6-7.6c-4.5-2.2-10.3-4-17.4-5.5c-7-1.5-15.2-2.6-24.6-3.3
					c-9.3-0.7-19.6-1.1-30.9-1c-10,0.1-18.7,0.5-25.9,1.3c-7.2,0.9-13.5,2-18.8,3.4c-5.3,1.4-9.9,3.1-13.5,5
					c-3.7,1.9-7.2,3.9-10.4,6.1L1907.5,3060.6z"/>
			</g>
			
				<linearGradient id="SVGID_00000150825182380140649630000016765218779683796156_" gradientUnits="userSpaceOnUse" x1="-89.6995" y1="1002.1274" x2="-72.2966" y2="1147.8152" gradientTransform="matrix(-1 0 0 -1 1669.249 4127.8389)">
				<stop  offset="3.597120e-03" style="stop-color:#F36F56"/>
				<stop  offset="0.3059" style="stop-color:#F99C4C"/>
				<stop  offset="0.545" style="stop-color:#FDB946"/>
				<stop  offset="0.6817" style="stop-color:#FFC444"/>
				<stop  offset="0.8038" style="stop-color:#FFC244"/>
				<stop  offset="0.8667" style="stop-color:#FEBA46"/>
				<stop  offset="0.916" style="stop-color:#FCAD49"/>
				<stop  offset="0.958" style="stop-color:#F99A4D"/>
				<stop  offset="0.9955" style="stop-color:#F58152"/>
				<stop  offset="1" style="stop-color:#F57E53"/>
			</linearGradient>
			<path style="fill:url(#SVGID_00000150825182380140649630000016765218779683796156_);" d="M1749.7,3000.9
				c-209,0-426.7,18.4-461.5,54c1.4,1.3,2.6,2.6,3.8,4c29.3-24.7,209.1-49.6,457.7-49.6c255,0,437.6,26.2,459.7,51.5
				c1.1-1.4,2.2-2.7,3.5-4C2184.2,3020,1962.5,3000.9,1749.7,3000.9z"/>
		</g>
		<g>
			
				<linearGradient id="SVGID_00000083056691489116967990000017084760456892530596_" gradientUnits="userSpaceOnUse" x1="1070.3766" y1="3028.3503" x2="2149.061" y2="3028.3503">
				<stop  offset="0" style="stop-color:#F57E53"/>
				<stop  offset="4.537139e-03" style="stop-color:#F58152"/>
				<stop  offset="4.198170e-02" style="stop-color:#F99A4D"/>
				<stop  offset="8.401687e-02" style="stop-color:#FCAD49"/>
				<stop  offset="0.1333" style="stop-color:#FEBA46"/>
				<stop  offset="0.1962" style="stop-color:#FFC244"/>
				<stop  offset="0.3183" style="stop-color:#FFC444"/>
				<stop  offset="0.455" style="stop-color:#FDB946"/>
				<stop  offset="0.6941" style="stop-color:#F99C4C"/>
				<stop  offset="0.9964" style="stop-color:#F36F56"/>
			</linearGradient>
			<path style="fill:url(#SVGID_00000083056691489116967990000017084760456892530596_);" d="M1150.5,2945.9v104
				c0,33.6,209.9,60.8,468.8,60.8c258.9,0,468.8-27.2,468.8-60.8v-104H1150.5z"/>
			
				<linearGradient id="SVGID_00000152264348572702732930000015879123771851187860_" gradientUnits="userSpaceOnUse" x1="1614.676" y1="2906.8406" x2="1671.5431" y2="3382.9006">
				<stop  offset="0" style="stop-color:#FFDB44"/>
				<stop  offset="1" style="stop-color:#FEEF06"/>
			</linearGradient>
			<path style="fill:url(#SVGID_00000152264348572702732930000015879123771851187860_);" d="M2088.2,2945.9
				c0,33.6-209.9,60.8-468.8,60.8c-258.9,0-468.8-27.2-468.8-60.8c0-33.6,209.9-60.8,468.8-60.8
				C1878.3,2885.1,2088.2,2912.3,2088.2,2945.9z"/>
			
				<linearGradient id="SVGID_00000098922822717267153310000004854514810863170218_" gradientUnits="userSpaceOnUse" x1="1612.2031" y1="2885.6096" x2="1629.668" y2="3031.8159">
				<stop  offset="0" style="stop-color:#FFDB44"/>
				<stop  offset="1" style="stop-color:#FEEF06"/>
			</linearGradient>
			<path style="fill:url(#SVGID_00000098922822717267153310000004854514810863170218_);" d="M1619.3,3011
				c-229.3,0-469.1-21.9-469.1-64.1c0-2.3,0.8-6.4,3.1-6.4c2.3,0,1.3,3.2,1.3,5.5c0,26.8,190.8,56.6,464.6,56.6
				s464.6-29.8,464.6-56.6c0-2.3,0.4-4.5,2.7-4.5c2.3,0,1.8,3.1,1.8,5.4C2088.4,2989.1,1848.7,3011,1619.3,3011z"/>
			<g>
				<path class="st60" d="M1575,2949.3c4.6-3.2,9.5-6.3,14.7-9.4c5.2-3.1,12-5.9,20.1-8.4c8.2-2.5,18.5-4.5,30.9-6.1
					c12.4-1.6,27.8-2.4,46.3-2.5c18.1-0.1,35.1,0.5,51,1.7c15.9,1.2,29.9,3.1,42,5.6c12,2.5,21.9,5.5,29.5,9.1
					c7.5,3.6,12,7.8,13.5,12.5l52.8,0.5c3.8,0,7.2,0.3,10.1,0.9c2.9,0.6,4.4,1.4,4.4,2.3l0,4.3l-67.9-0.7
					c-2.4,5.3-8.4,10.2-18.2,14.6c-9.7,4.4-22.1,8.2-37.2,11.5l-24.7-3.4c-2.2-0.3-4-0.8-5.5-1.3c-1.4-0.5-2.1-1.1-2.1-1.7
					c0-0.8,1.9-1.8,5.7-2.9c3.8-1.1,8.1-2.4,12.9-4c4.8-1.6,9.5-3.4,14.2-5.6c4.6-2.1,7.7-4.7,9.3-7.7l-160.2-1.6
					c-4.2,3.1-9,6.1-14.1,9.1c-5.2,3-12.1,5.7-20.8,8.1c-8.6,2.4-19.4,4.3-32.2,5.8c-12.9,1.5-29.1,2.3-48.6,2.4
					c-14.7,0.1-29-0.5-43-1.7c-14-1.2-26.4-3-37.3-5.3c-10.9-2.4-19.8-5.3-26.8-8.8c-6.9-3.5-10.8-7.5-11.6-12l-43.5-0.4
					c-3.8,0-7.2-0.3-10.3-0.9c-3-0.6-4.5-1.4-4.5-2.3l0-4.3l59.4,0.6c2.6-4.6,8-8.6,16.2-12c8.2-3.4,18.3-6.4,30.2-9.1l19.9,2.7
					c6,0.8,9,1.8,9,3c0,0.6-1.2,1.4-3.7,2.3c-2.5,0.9-5.5,2-8.9,3.3c-3.4,1.3-6.7,2.8-9.9,4.5c-3.2,1.7-5.6,3.6-7.2,5.8L1575,2949.3
					z M1428.5,2955.3c1.2,2.9,3.9,5.3,7.9,7.4c4,2.1,9.1,3.8,15.1,5.1c6,1.3,12.8,2.3,20.3,2.9c7.6,0.6,15.5,0.9,23.7,0.9
					c9.6,0,18-0.5,25.2-1.2c7.1-0.8,13.4-1.8,18.8-3.2c5.4-1.3,10.1-2.9,14.2-4.7c4-1.8,7.6-3.7,10.8-5.8L1428.5,2955.3z
					 M1777.2,2951.4c-1.2-2.9-4.1-5.4-8.6-7.6c-4.5-2.2-10.3-4-17.4-5.5c-7-1.5-15.2-2.6-24.6-3.3c-9.3-0.7-19.6-1.1-30.9-1
					c-10,0-18.7,0.5-25.9,1.3c-7.2,0.9-13.5,2-18.8,3.4c-5.3,1.4-9.9,3.1-13.5,5c-3.7,1.9-7.2,3.9-10.4,6.1L1777.2,2951.4z"/>
			</g>
			
				<linearGradient id="SVGID_00000068667174891363102010000006205716152746292125_" gradientUnits="userSpaceOnUse" x1="40.6278" y1="1111.3517" x2="58.0306" y2="1257.0383" gradientTransform="matrix(-1 0 0 -1 1669.249 4127.8389)">
				<stop  offset="3.597120e-03" style="stop-color:#F36F56"/>
				<stop  offset="0.3059" style="stop-color:#F99C4C"/>
				<stop  offset="0.545" style="stop-color:#FDB946"/>
				<stop  offset="0.6817" style="stop-color:#FFC444"/>
				<stop  offset="0.8038" style="stop-color:#FFC244"/>
				<stop  offset="0.8667" style="stop-color:#FEBA46"/>
				<stop  offset="0.916" style="stop-color:#FCAD49"/>
				<stop  offset="0.958" style="stop-color:#F99A4D"/>
				<stop  offset="0.9955" style="stop-color:#F58152"/>
				<stop  offset="1" style="stop-color:#F57E53"/>
			</linearGradient>
			<path style="fill:url(#SVGID_00000068667174891363102010000006205716152746292125_);" d="M1619.4,2891.7
				c-209,0-426.7,18.4-461.5,54c1.4,1.3,2.6,2.6,3.8,4c29.3-24.7,209.1-49.6,457.7-49.6c255,0,437.6,26.2,459.7,51.5
				c1.1-1.4,2.2-2.7,3.5-4C2053.9,2910.8,1832.2,2891.7,1619.4,2891.7z"/>
		</g>
		<g>
			
				<linearGradient id="SVGID_00000158719126514348243520000017900008749744996486_" gradientUnits="userSpaceOnUse" x1="1182.8323" y1="2919.446" x2="2261.5166" y2="2919.446">
				<stop  offset="0" style="stop-color:#F57E53"/>
				<stop  offset="4.537139e-03" style="stop-color:#F58152"/>
				<stop  offset="4.198170e-02" style="stop-color:#F99A4D"/>
				<stop  offset="8.401687e-02" style="stop-color:#FCAD49"/>
				<stop  offset="0.1333" style="stop-color:#FEBA46"/>
				<stop  offset="0.1962" style="stop-color:#FFC244"/>
				<stop  offset="0.3183" style="stop-color:#FFC444"/>
				<stop  offset="0.455" style="stop-color:#FDB946"/>
				<stop  offset="0.6941" style="stop-color:#F99C4C"/>
				<stop  offset="0.9964" style="stop-color:#F36F56"/>
			</linearGradient>
			<path style="fill:url(#SVGID_00000158719126514348243520000017900008749744996486_);" d="M1263,2837v104
				c0,33.6,209.9,60.8,468.8,60.8c258.9,0,468.8-27.2,468.8-60.8v-104H1263z"/>
			
				<linearGradient id="SVGID_00000134225122572581969800000004800747676822570653_" gradientUnits="userSpaceOnUse" x1="1727.1309" y1="2797.9363" x2="1783.998" y2="3273.9973">
				<stop  offset="0" style="stop-color:#FFDB44"/>
				<stop  offset="1" style="stop-color:#FEEF06"/>
			</linearGradient>
			
				<ellipse style="fill:url(#SVGID_00000134225122572581969800000004800747676822570653_);" cx="1731.8" cy="2837" rx="468.8" ry="60.8"/>
			
				<linearGradient id="SVGID_00000023246329548019389840000000190147322738018235_" gradientUnits="userSpaceOnUse" x1="1724.6584" y1="2776.7058" x2="1742.1233" y2="2922.9121">
				<stop  offset="0" style="stop-color:#FFDB44"/>
				<stop  offset="1" style="stop-color:#FEEF06"/>
			</linearGradient>
			<path style="fill:url(#SVGID_00000023246329548019389840000000190147322738018235_);" d="M1731.8,2902.1
				c-229.3,0-469.1-21.9-469.1-64.1c0-2.3,0.8-6.4,3.1-6.4c2.3,0,1.3,3.2,1.3,5.5c0,26.8,190.8,56.6,464.6,56.6
				s464.6-29.8,464.6-56.6c0-2.3,0.4-4.5,2.7-4.5c2.3,0,1.8,3.1,1.8,5.4C2200.9,2880.2,1961.1,2902.1,1731.8,2902.1z"/>
			<g>
				<path class="st60" d="M1687.5,2840.4c4.6-3.2,9.5-6.3,14.7-9.4c5.2-3.1,12-5.9,20.1-8.4c8.2-2.5,18.5-4.5,30.9-6.1
					c12.4-1.6,27.8-2.4,46.3-2.5c18.1-0.1,35.1,0.5,51,1.7c15.9,1.2,29.9,3.1,42,5.6c12,2.5,21.9,5.5,29.5,9.1
					c7.5,3.6,12,7.8,13.5,12.5l52.8,0.5c3.8,0,7.2,0.3,10.1,0.9c2.9,0.6,4.4,1.4,4.4,2.3l0,4.3l-67.9-0.7
					c-2.4,5.3-8.4,10.2-18.2,14.6c-9.7,4.4-22.1,8.2-37.2,11.5l-24.7-3.4c-2.2-0.3-4-0.8-5.5-1.3c-1.4-0.5-2.1-1.1-2.1-1.7
					c0-0.8,1.9-1.8,5.7-2.9c3.8-1.1,8.1-2.4,12.9-4c4.8-1.6,9.5-3.4,14.2-5.6c4.6-2.2,7.7-4.7,9.3-7.7l-160.2-1.6
					c-4.2,3.1-9,6.1-14.1,9.1c-5.2,3-12.1,5.7-20.8,8.1c-8.6,2.4-19.4,4.3-32.2,5.8c-12.9,1.5-29.1,2.3-48.6,2.4
					c-14.7,0.1-29-0.5-43-1.7c-14-1.2-26.4-3-37.3-5.3c-10.9-2.4-19.8-5.3-26.8-8.8c-6.9-3.5-10.8-7.5-11.6-12l-43.5-0.4
					c-3.8,0-7.2-0.3-10.3-0.9c-3-0.6-4.5-1.4-4.5-2.3l0-4.3l59.4,0.6c2.6-4.6,8-8.6,16.2-12c8.2-3.4,18.3-6.4,30.2-9.1l19.9,2.7
					c6,0.8,9,1.8,9,3c0,0.6-1.2,1.4-3.7,2.3c-2.5,0.9-5.5,2-8.9,3.3c-3.4,1.3-6.7,2.8-9.9,4.5c-3.2,1.7-5.6,3.6-7.2,5.8
					L1687.5,2840.4z M1540.9,2846.3c1.2,2.9,3.9,5.3,7.9,7.4c4,2.1,9.1,3.8,15.1,5.1c6,1.3,12.8,2.3,20.3,2.9
					c7.6,0.6,15.5,0.9,23.7,0.9c9.6,0,18-0.5,25.2-1.2c7.1-0.8,13.4-1.8,18.8-3.2c5.4-1.3,10.2-2.9,14.2-4.7c4-1.8,7.6-3.7,10.8-5.8
					L1540.9,2846.3z M1889.6,2842.5c-1.2-2.9-4.1-5.4-8.6-7.6c-4.5-2.2-10.3-4-17.4-5.5c-7-1.5-15.2-2.6-24.6-3.3
					c-9.3-0.7-19.6-1.1-30.9-1c-10,0-18.7,0.5-25.9,1.3c-7.2,0.9-13.5,2-18.8,3.4c-5.3,1.4-9.9,3.1-13.5,5
					c-3.7,1.9-7.2,3.9-10.4,6.1L1889.6,2842.5z"/>
			</g>
			
				<linearGradient id="SVGID_00000044167124227605691060000017258334391072181900_" gradientUnits="userSpaceOnUse" x1="-71.827" y1="1220.2555" x2="-54.4242" y2="1365.942" gradientTransform="matrix(-1 0 0 -1 1669.249 4127.8389)">
				<stop  offset="3.597120e-03" style="stop-color:#F36F56"/>
				<stop  offset="0.3059" style="stop-color:#F99C4C"/>
				<stop  offset="0.545" style="stop-color:#FDB946"/>
				<stop  offset="0.6817" style="stop-color:#FFC444"/>
				<stop  offset="0.8038" style="stop-color:#FFC244"/>
				<stop  offset="0.8667" style="stop-color:#FEBA46"/>
				<stop  offset="0.916" style="stop-color:#FCAD49"/>
				<stop  offset="0.958" style="stop-color:#F99A4D"/>
				<stop  offset="0.9955" style="stop-color:#F58152"/>
				<stop  offset="1" style="stop-color:#F57E53"/>
			</linearGradient>
			<path style="fill:url(#SVGID_00000044167124227605691060000017258334391072181900_);" d="M1731.9,2782.8
				c-209,0-426.7,18.4-461.5,54c1.4,1.3,2.6,2.6,3.8,4c29.3-24.7,209.1-49.6,457.7-49.6c255,0,437.6,26.2,459.7,51.5
				c1.1-1.4,2.2-2.7,3.5-4C2166.4,2801.9,1944.6,2782.8,1731.9,2782.8z"/>
		</g>
		<g>
			
				<linearGradient id="SVGID_00000178920404996311709740000015604675280004857272_" gradientUnits="userSpaceOnUse" x1="1124.34" y1="2810.2227" x2="2203.0232" y2="2810.2227">
				<stop  offset="0" style="stop-color:#F57E53"/>
				<stop  offset="4.537139e-03" style="stop-color:#F58152"/>
				<stop  offset="4.198170e-02" style="stop-color:#F99A4D"/>
				<stop  offset="8.401687e-02" style="stop-color:#FCAD49"/>
				<stop  offset="0.1333" style="stop-color:#FEBA46"/>
				<stop  offset="0.1962" style="stop-color:#FFC244"/>
				<stop  offset="0.3183" style="stop-color:#FFC444"/>
				<stop  offset="0.455" style="stop-color:#FDB946"/>
				<stop  offset="0.6941" style="stop-color:#F99C4C"/>
				<stop  offset="0.9964" style="stop-color:#F36F56"/>
			</linearGradient>
			<path style="fill:url(#SVGID_00000178920404996311709740000015604675280004857272_);" d="M1204.5,2727.8v104
				c0,33.6,209.9,60.8,468.8,60.8s468.8-27.2,468.8-60.8v-104H1204.5z"/>
			
				<linearGradient id="SVGID_00000042737691470022567150000012293280228263687326_" gradientUnits="userSpaceOnUse" x1="1668.6388" y1="2688.7129" x2="1725.5061" y2="3164.7751">
				<stop  offset="0" style="stop-color:#FFDB44"/>
				<stop  offset="1" style="stop-color:#FEEF06"/>
			</linearGradient>
			
				<ellipse style="fill:url(#SVGID_00000042737691470022567150000012293280228263687326_);" cx="1673.3" cy="2727.8" rx="468.8" ry="60.8"/>
			
				<linearGradient id="SVGID_00000069373243674079964630000003804943784279304611_" gradientUnits="userSpaceOnUse" x1="1666.1661" y1="2667.4819" x2="1683.631" y2="2813.6887">
				<stop  offset="0" style="stop-color:#FFDB44"/>
				<stop  offset="1" style="stop-color:#FEEF06"/>
			</linearGradient>
			<path style="fill:url(#SVGID_00000069373243674079964630000003804943784279304611_);" d="M1673.3,2792.8
				c-229.3,0-469.1-21.9-469.1-64.1c0-2.3,0.8-6.4,3.1-6.4c2.3,0,1.3,3.2,1.3,5.5c0,26.8,190.8,56.6,464.6,56.6
				c273.8,0,464.6-29.8,464.6-56.6c0-2.3,0.4-4.5,2.7-4.5c2.3,0,1.8,3.1,1.8,5.4C2142.4,2771,1902.6,2792.8,1673.3,2792.8z"/>
			<g>
				<path class="st60" d="M1629,2731.2c4.6-3.2,9.5-6.3,14.7-9.4c5.2-3.1,12-5.9,20.1-8.4c8.2-2.5,18.5-4.5,30.9-6.1
					c12.4-1.6,27.8-2.4,46.3-2.5c18.1-0.1,35.1,0.5,51,1.7c15.9,1.2,29.9,3.1,42,5.6c12,2.5,21.9,5.5,29.5,9.1
					c7.5,3.6,12,7.8,13.5,12.5l52.8,0.5c3.8,0,7.2,0.3,10.1,0.9c2.9,0.6,4.4,1.4,4.4,2.3l0,4.3l-67.9-0.7
					c-2.4,5.3-8.4,10.2-18.2,14.6c-9.7,4.4-22.1,8.2-37.2,11.5l-24.7-3.4c-2.2-0.3-4-0.8-5.5-1.3c-1.4-0.5-2.1-1.1-2.1-1.7
					c0-0.8,1.9-1.8,5.7-2.9c3.8-1.1,8.1-2.4,12.9-4c4.8-1.6,9.5-3.4,14.2-5.6c4.6-2.2,7.7-4.7,9.3-7.7l-160.2-1.6
					c-4.2,3.1-9,6.1-14.1,9.1c-5.2,3-12.1,5.7-20.8,8.1c-8.6,2.4-19.4,4.3-32.2,5.8c-12.9,1.5-29.1,2.3-48.6,2.4
					c-14.7,0.1-29-0.5-43-1.7c-14-1.2-26.4-3-37.3-5.3c-10.9-2.4-19.8-5.3-26.8-8.8c-6.9-3.5-10.8-7.5-11.6-12l-43.5-0.4
					c-3.8,0-7.2-0.3-10.3-0.9c-3-0.6-4.5-1.4-4.5-2.3l0-4.3l59.4,0.6c2.6-4.6,8-8.6,16.2-12c8.2-3.4,18.3-6.4,30.2-9.1l19.9,2.7
					c6,0.8,9,1.8,9,3c0,0.6-1.2,1.4-3.7,2.3c-2.5,0.9-5.5,2-8.9,3.3c-3.4,1.3-6.7,2.8-9.9,4.5c-3.2,1.7-5.6,3.6-7.2,5.8L1629,2731.2
					z M1482.4,2737.1c1.2,2.9,3.9,5.3,7.9,7.4c4,2.1,9.1,3.8,15.1,5.1c6,1.3,12.8,2.3,20.3,2.9c7.6,0.6,15.5,0.9,23.7,0.9
					c9.6,0,18-0.5,25.2-1.2c7.1-0.8,13.4-1.8,18.8-3.2c5.4-1.3,10.2-2.9,14.2-4.7c4-1.8,7.6-3.7,10.8-5.8L1482.4,2737.1z
					 M1831.1,2733.2c-1.2-2.9-4.1-5.4-8.6-7.6c-4.5-2.2-10.3-4-17.4-5.5c-7-1.5-15.2-2.6-24.6-3.3c-9.3-0.7-19.6-1.1-30.9-1
					c-10,0-18.7,0.5-25.9,1.3c-7.2,0.9-13.5,2-18.8,3.4c-5.3,1.4-9.9,3.1-13.5,5c-3.7,1.9-7.2,3.9-10.4,6.1L1831.1,2733.2z"/>
			</g>
			
				<linearGradient id="SVGID_00000072249998990746010490000018045271267368458913_" gradientUnits="userSpaceOnUse" x1="-13.335" y1="1329.4785" x2="4.0679" y2="1475.1661" gradientTransform="matrix(-1 0 0 -1 1669.249 4127.8389)">
				<stop  offset="3.597120e-03" style="stop-color:#F36F56"/>
				<stop  offset="0.3059" style="stop-color:#F99C4C"/>
				<stop  offset="0.545" style="stop-color:#FDB946"/>
				<stop  offset="0.6817" style="stop-color:#FFC444"/>
				<stop  offset="0.8038" style="stop-color:#FFC244"/>
				<stop  offset="0.8667" style="stop-color:#FEBA46"/>
				<stop  offset="0.916" style="stop-color:#FCAD49"/>
				<stop  offset="0.958" style="stop-color:#F99A4D"/>
				<stop  offset="0.9955" style="stop-color:#F58152"/>
				<stop  offset="1" style="stop-color:#F57E53"/>
			</linearGradient>
			<path style="fill:url(#SVGID_00000072249998990746010490000018045271267368458913_);" d="M1673.4,2673.6
				c-209,0-426.7,18.4-461.5,54c1.4,1.3,2.6,2.6,3.8,4c29.3-24.7,209.1-49.6,457.7-49.6c255,0,437.6,26.2,459.7,51.5
				c1.1-1.4,2.2-2.7,3.5-4C2107.9,2692.6,1886.1,2673.6,1673.4,2673.6z"/>
		</g>
		<g>
			
				<linearGradient id="SVGID_00000167394163047375853750000018093717216042107811_" gradientUnits="userSpaceOnUse" x1="2425.5964" y1="1789.6345" x2="3504.2859" y2="1789.6345" gradientTransform="matrix(0.5796 0.8149 -0.8149 0.5796 2214.3765 -230.3409)">
				<stop  offset="0" style="stop-color:#F57E53"/>
				<stop  offset="4.537139e-03" style="stop-color:#F58152"/>
				<stop  offset="4.198170e-02" style="stop-color:#F99A4D"/>
				<stop  offset="8.401687e-02" style="stop-color:#FCAD49"/>
				<stop  offset="0.1333" style="stop-color:#FEBA46"/>
				<stop  offset="0.1962" style="stop-color:#FFC244"/>
				<stop  offset="0.3183" style="stop-color:#FFC444"/>
				<stop  offset="0.455" style="stop-color:#FDB946"/>
				<stop  offset="0.6941" style="stop-color:#F99C4C"/>
				<stop  offset="0.9964" style="stop-color:#F36F56"/>
			</linearGradient>
			<path style="fill:url(#SVGID_00000167394163047375853750000018093717216042107811_);" d="M2275.5,2801.1l-84.7,60.3
				c-27.4,19.5,72.1,206.3,222.2,417.3c150.1,211,293.9,366.2,321.3,346.8l84.7-60.3L2275.5,2801.1z"/>
			
				<linearGradient id="SVGID_00000118371789463426260900000013919013543630048406_" gradientUnits="userSpaceOnUse" x1="2969.8972" y1="1668.1371" x2="3026.7573" y2="2144.1392" gradientTransform="matrix(0.5796 0.8149 -0.8149 0.5796 2214.3765 -230.3409)">
				<stop  offset="0" style="stop-color:#FFDB44"/>
				<stop  offset="1" style="stop-color:#FEEF06"/>
			</linearGradient>
			<path style="fill:url(#SVGID_00000118371789463426260900000013919013543630048406_);" d="M2819,3565.2
				c-27.4,19.5-171.2-135.8-321.3-346.8c-150.1-211-249.5-397.8-222.2-417.3s171.2,135.8,321.3,346.8
				C2746.9,3358.9,2846.3,3545.7,2819,3565.2z"/>
			
				<linearGradient id="SVGID_00000015355877970812043100000008840288943429335467_" gradientUnits="userSpaceOnUse" x1="2967.4258" y1="1646.9166" x2="2984.8877" y2="1793.0975" gradientTransform="matrix(0.5796 0.8149 -0.8149 0.5796 2214.3765 -230.3409)">
				<stop  offset="0" style="stop-color:#FFDB44"/>
				<stop  offset="1" style="stop-color:#FEEF06"/>
			</linearGradient>
			<path style="fill:url(#SVGID_00000015355877970812043100000008840288943429335467_);" d="M2494.2,3220.8
				c-132.9-186.9-254-394.9-219.6-419.4c1.9-1.3,5.7-3,7-1.1c1.3,1.9-1.8,2.9-3.7,4.3c-21.8,15.5,64.4,188.3,223.1,411.4
				c158.7,223.1,293.6,361.3,315.5,345.8c1.9-1.3,3.9-2.3,5.2-0.4c1.3,1.9-1.5,3.2-3.4,4.6
				C2783.9,3590.4,2627.1,3407.7,2494.2,3220.8z"/>
			<g>
				<path class="st60" d="M2518.8,3149c5.3,1.9,10.7,4.1,16.2,6.5c5.5,2.4,11.7,6.3,18.5,11.5c6.8,5.3,14.4,12.5,22.9,21.6
					c8.5,9.2,18.1,21.3,28.9,36.3c10.6,14.7,20,28.9,28.2,42.6c8.2,13.6,14.8,26.1,19.8,37.4c5,11.2,8.2,21,9.6,29.3
					c1.4,8.2,0.6,14.3-2.4,18.2l30.2,43.3c2.2,3.1,3.9,6.1,5.1,8.8c1.2,2.8,1.4,4.4,0.7,4.9l-3.5,2.5l-38.8-55.7
					c-5.7,1.1-13.2-1-22.5-6.4c-9.2-5.3-19.5-13.2-30.9-23.7l-11.5-22.1c-1-2-1.7-3.7-2.1-5.2c-0.4-1.5-0.3-2.4,0.2-2.7
					c0.7-0.5,2.6,0.5,5.7,3c3.1,2.5,6.7,5.2,10.8,8.2c4.1,3,8.3,5.8,12.8,8.3c4.4,2.5,8.3,3.5,11.7,3.1l-91.6-131.4
					c-5-1.6-10.2-3.7-15.6-6.2c-5.5-2.5-11.7-6.6-18.6-12.3c-6.9-5.6-14.8-13.3-23.4-22.9c-8.7-9.7-18.7-22.4-30.1-38.2
					c-8.6-11.9-16.4-23.9-23.6-36c-7.1-12.1-12.9-23.3-17.3-33.5c-4.4-10.2-7.2-19.2-8.4-26.9c-1.2-7.7-0.2-13.2,3-16.4l-24.8-35.7
					c-2.2-3.1-3.9-6.1-5.2-8.9c-1.3-2.8-1.5-4.5-0.7-5l3.5-2.5l34,48.7c5.3-0.5,11.6,1.6,19.2,6.3c7.5,4.7,15.8,11.2,24.9,19.3
					l9.3,17.8c2.8,5.4,3.7,8.4,2.8,9.1c-0.5,0.4-1.8-0.2-4-1.7c-2.2-1.5-4.8-3.3-7.8-5.4c-3-2-6.1-3.9-9.4-5.5
					c-3.3-1.6-6.2-2.5-8.9-2.5L2518.8,3149z M2429,3033c-1.6,2.6-2.1,6.2-1.4,10.7c0.7,4.5,2.2,9.6,4.6,15.3
					c2.4,5.7,5.6,11.8,9.4,18.3c3.9,6.5,8.2,13.1,13,19.8c5.6,7.8,10.8,14.4,15.6,19.8c4.8,5.3,9.3,9.8,13.5,13.5
					c4.2,3.6,8.2,6.6,12,8.8c3.8,2.2,7.4,4,11,5.5L2429,3033z M2634.3,3314.9c1.7-2.6,2-6.5,1.2-11.4c-0.9-4.9-2.7-10.7-5.6-17.3
					c-2.9-6.6-6.7-13.9-11.6-22c-4.8-8-10.5-16.6-17.1-25.8c-5.8-8.1-11.2-15-16.1-20.3c-4.9-5.4-9.4-9.8-13.7-13.4
					c-4.2-3.5-8.2-6.2-11.9-8.1c-3.7-1.9-7.4-3.6-11-4.9L2634.3,3314.9z"/>
			</g>
			
				<linearGradient id="SVGID_00000019677805311798408140000016132806953831793296_" gradientUnits="userSpaceOnUse" x1="-1314.0243" y1="2349.6191" x2="-1296.6246" y2="2495.2798" gradientTransform="matrix(-0.5796 -0.8149 0.8149 -0.5796 -181.2018 3522.6223)">
				<stop  offset="3.597120e-03" style="stop-color:#F36F56"/>
				<stop  offset="0.3059" style="stop-color:#F99C4C"/>
				<stop  offset="0.545" style="stop-color:#FDB946"/>
				<stop  offset="0.6817" style="stop-color:#FFC444"/>
				<stop  offset="0.8038" style="stop-color:#FFC244"/>
				<stop  offset="0.8667" style="stop-color:#FEBA46"/>
				<stop  offset="0.916" style="stop-color:#FCAD49"/>
				<stop  offset="0.958" style="stop-color:#F99A4D"/>
				<stop  offset="0.9955" style="stop-color:#F58152"/>
				<stop  offset="1" style="stop-color:#F57E53"/>
			</linearGradient>
			<path style="fill:url(#SVGID_00000019677805311798408140000016132806953831793296_);" d="M2591.5,3151.7
				c-121.2-170.3-262.3-337-311.5-344.8c-0.2,1.8-0.6,3.6-1.1,5.4c37.2,9.6,161.6,141.6,305.7,344.2
				c147.8,207.8,232.3,371.8,224.5,404.5c1.8,0.1,3.5,0.3,5.3,0.6C2827.8,3516.9,2714.8,3325.1,2591.5,3151.7z"/>
		</g>
	</g>
	<g>
		<g>
			<g>
				
					<linearGradient id="SVGID_00000102513155335310418020000009455835753953686719_" gradientUnits="userSpaceOnUse" x1="388.6992" y1="-8749.3916" x2="716.2135" y2="-8749.3916" gradientTransform="matrix(0.8973 -0.4414 -0.4414 -0.8973 -1862.5371 -7004.0938)">
					<stop  offset="0" style="stop-color:#FF9085"/>
					<stop  offset="1" style="stop-color:#FB6FBB"/>
				</linearGradient>
				<polygon style="fill:url(#SVGID_00000102513155335310418020000009455835753953686719_);" points="2309,521.3 2490,642.6 
					2613.2,471.8 2637.7,595.7 2514.6,766.5 2333.5,645.3 				"/>
			</g>
			
				<linearGradient id="SVGID_00000075841984511547715410000004613720715777390751_" gradientUnits="userSpaceOnUse" x1="-823.3765" y1="-8384.9102" x2="581.6528" y2="-8384.9102" gradientTransform="matrix(0.8973 -0.4414 -0.4414 -0.8973 -1862.5371 -7004.0938)">
				<stop  offset="0" style="stop-color:#FF9085"/>
				<stop  offset="1" style="stop-color:#FB6FBB"/>
			</linearGradient>
			<path style="fill:url(#SVGID_00000075841984511547715410000004613720715777390751_);" d="M2181.8,206.6
				C1821,5.3,1362,119.2,1158.6,460.3c-25.2,42.3-45.5,86.4-60.9,131.5c-23.6,69.4-35.6,141.4-36.2,213.5l106.6-126.5
				c13.8-60.2,37.1-118.9,70.1-174.2C1416.8,205,1820,105,2137,281.8c131.6,73.4,231.3,184,287,316.6c10.9,25.8,20.1,52.4,27.5,79.8
				c6.4,23.5,31.3,37.9,55.7,32.2c24.4-5.6,39-29.2,32.7-52.6c-5.4-19.9-11.6-39.4-18.6-58.6C2461,434,2342.2,296,2181.8,206.6z"/>
		</g>
	</g>
	<g>
		<g>
			
				<linearGradient id="SVGID_00000045591075009125715540000010802973261992431493_" gradientUnits="userSpaceOnUse" x1="3424.9211" y1="2348.6392" x2="3008.9402" y2="5569.1157">
				<stop  offset="0" style="stop-color:#FF9085"/>
				<stop  offset="1" style="stop-color:#FB6FBB"/>
			</linearGradient>
			<path style="fill:url(#SVGID_00000045591075009125715540000010802973261992431493_);" d="M3226.5,3704.8
				c161.6-20.8,366.4-75.3,448.7-229.1c19.6-36.6,39.2-107.7-10.2-134.4c-45.2-24.5-103.5,1.4-137.1,33.2
				c-24.7,23.4-43.9,75.6-71.7,92.2c-40.6,24.2-62.4-41.8-61.6-69c1.9-60.9,76.8-85.8,126.6-99c82.6-21.9,178.8-40.7,173.6-133.8
				s-95.9-148.9-165.8-108.2c-57.5,33.6-49.4,105.2-88.7,148.2c-34.9,38.2-47.1-23.8-44.7-54.2c5.1-66,63.1-113.7,105.8-157.9
				c48.3-50,101.6-150.6,50.1-216.7c-29.6-38-104.8-47-149.3-40.5c-217.6,31.4-73.3,313-112.9,344.4c-39.6,31.4-77-23.6-76.9-107.2
				c0.1-83.6-12.7-145.3-100-118.5c-87.3,26.8-103.9,245.2-4.2,329.2c99.7,83.9-6.3,175.5-33,115.4
				c-19.3-43.4-36.3-157.2-92.1-169.7c-93-20.8-91.6,169.2-64.9,213.4c37.5,62,122.4,75.4,169.8,128.9c13.8,15.5,44.8,54,32.8,76.7
				c-16.8,31.7-63.8-2.2-81.1-16.9c-38.8-33-92.5-145.1-147.2-70.6C2825,3552.3,2937.9,3688.5,3226.5,3704.8z"/>
			<g class="st97">
				<path class="st98" d="M3249.8,3689.6c-3.8,0-6.9-3.6-7-7.4c-0.1-3.3-4.6-334.7,140.1-728.6c1.3-3.6,5.3-5.6,9-4.3
					c3.6,1.3,5.5,5.3,4.1,8.9c-143.7,391.4-139.3,720.5-139.2,723.8c0.1,3.9-3,7.6-6.8,7.6
					C3249.9,3689.6,3249.8,3689.6,3249.8,3689.6z"/>
			</g>
		</g>
		
			<linearGradient id="SVGID_00000101819774494211747040000013866726734060201656_" gradientUnits="userSpaceOnUse" x1="3175.8511" y1="2835.9224" x2="2907.3301" y2="4914.7798">
			<stop  offset="0" style="stop-color:#AA80F9"/>
			<stop  offset="0.9964" style="stop-color:#6165D7"/>
		</linearGradient>
		<path style="fill:url(#SVGID_00000101819774494211747040000013866726734060201656_);" d="M3309.2,3563.1
			c-26.2-22.3-81.8,12.6-104.9,25.8c-13.4,7.7-31.7,19.5-47.8,12.6c-16.9-7.2-15.7-25-5.5-37.5c18.3-22.5,53.5-28.7,79-39.7
			c27.5-11.8,52.7-27.9,66.2-55.6c10.8-22.1,13.3-54.7,1.1-76.5c-33.6-60.2-82.6-13.2-109.9,22.7c-13.3,17.4-43,47.4-65.6,26.9
			c-24-21.9-3.4-60.8,15.2-78c24.3-22.5,53.8-38.1,80.2-57.6c23.9-17.6,48.4-42.8,32.5-74c-12.3-24.1-43.2-37.5-69.6-35.4
			c-61,4.7-70.5,93.8-110.7,128c-14.2,12.1-46.5,21.7-63.5,9.8c-17.2-12.1-6-39.8,0.2-54.9c18.4-44.8,150.4-194.9,41-213.7
			c-27.5-4.7-65.5,3.9-87.1,21.4c-40.8,33-62.5,98.5-73.2,148.1c-16.9,78.1-16,164.8,2.9,242.5c41.7,171.6,139.8,226.8,139.8,226.8
			c42.4,14,95.5,20.8,139.4,11.5c51.7-10.9,113.5-49.2,139.1-96.9C3316.2,3603.9,3325.4,3576.9,3309.2,3563.1z"/>
	</g>
</g>
</svg>
